<?xml version="1.0" standalone="no"?>
 <!DOCTYPE svg PUBLIC "-//W3C//DTD SVG 1.1//EN" 
 "http://www.w3.org/Graphics/SVG/1.1/DTD/svg11.dtd"> 
<svg
  xmlns:svg="http://www.w3.org/2000/svg"
  xmlns="http://www.w3.org/2000/svg"
  xmlns:xlink="http://www.w3.org/1999/xlink"
  version="1.1"
  width="297.0022mm" height="210.0072mm" viewBox="0.0000 0.0000 297.0022 210.0072">
<title>SVG Image created as gate_and_2in_8bit-and5-nand2_1.svg date 2026/01/14 19:56:41 </title>
  <desc>Image generated by Eeschema-SVG </desc>
<g style="fill:#000000; fill-opacity:1.0000;stroke:#000000; stroke-opacity:1.0000;
stroke-linecap:round; stroke-linejoin:round;"
 transform="translate(0 0) scale(1 1)">
<path style="fill:none; 
stroke:#840000; stroke-width:0.2540; stroke-opacity:1; 
stroke-linecap:round; stroke-linejoin:round;fill:none"
d="M 73.9140,53.9750
73.9140,57.7850
" /> 
<path style="fill:none; 
stroke:#840000; stroke-width:0.1524; stroke-opacity:1; 
stroke-linecap:round; stroke-linejoin:round;fill:none"
d="M 73.9140,55.8800
71.1200,55.8800
" /> 
<path style="fill:none; 
stroke:#840000; stroke-width:0.2540; stroke-opacity:1; 
stroke-linecap:round; stroke-linejoin:round;fill:none"
d="M 74.4220,53.5940
74.4220,54.6100
" /> 
<path style="fill:none; 
stroke:#840000; stroke-width:0.2540; stroke-opacity:1; 
stroke-linecap:round; stroke-linejoin:round;fill:none"
d="M 74.4220,55.3720
74.4220,56.3880
" /> 
<path style="fill:none; 
stroke:#840000; stroke-width:0.2540; stroke-opacity:1; 
stroke-linecap:round; stroke-linejoin:round;fill:none"
d="M 74.4220,57.1500
74.4220,58.1660
" /> 
<path style="fill:none; 
stroke:#840000; stroke-width:0.1524; stroke-opacity:1; 
stroke-linecap:round; stroke-linejoin:round;fill:none"
d="M 74.4220,57.6580
76.9620,57.6580
76.9620,54.1020
74.4220,54.1020
" /> 
<path style="fill:#840000; fill-opacity:1.0000; 
stroke:#840000; stroke-width:0.1524; stroke-opacity:1; 
stroke-linecap:round; stroke-linejoin:round;fill-rule:evenodd;"
d="M 74.6760,55.8800
75.6920,55.4990
75.6920,56.2610
Z" /> 
</g>
<g style="fill:none; 
stroke:#840000; stroke-width:0.2540; stroke-opacity:1; 
stroke-linecap:round; stroke-linejoin:round;">
<circle cx="75.3110" cy="55.8800" r="2.7940" /> 
<path style="fill:none; 
stroke:#840000; stroke-width:0.1524; stroke-opacity:1; 
stroke-linecap:round; stroke-linejoin:round;fill:none"
d="M 76.2000,53.3400
76.2000,54.1020
" /> 
</g>
<g style="fill:#840000; fill-opacity:1.0000; 
stroke:#840000; stroke-width:0.1524; stroke-opacity:1; 
stroke-linecap:round; stroke-linejoin:round;">
<circle cx="76.2000" cy="54.1020" r="0.2540" /> 
<circle cx="76.2000" cy="57.6580" r="0.2540" /> 
<path style="fill:none; 
stroke:#840000; stroke-width:0.1524; stroke-opacity:1; 
stroke-linecap:round; stroke-linejoin:round;fill:none"
d="M 76.2000,58.4200
76.2000,55.8800
74.4220,55.8800
" /> 
<path style="fill:none; 
stroke:#840000; stroke-width:0.1524; stroke-opacity:1; 
stroke-linecap:round; stroke-linejoin:round;fill:none"
d="M 76.4540,55.3720
76.5810,55.4990
77.3430,55.4990
77.4700,55.6260
" /> 
<path style="fill:none; 
stroke:#840000; stroke-width:0.1524; stroke-opacity:1; 
stroke-linecap:round; stroke-linejoin:round;fill:none"
d="M 76.9620,55.4990
76.5810,56.1340
77.3430,56.1340
Z" /> 
</g>
<g style="fill:none; 
stroke:#840000; stroke-width:0.1524; stroke-opacity:1; 
stroke-linecap:round; stroke-linejoin:round;">
<path d="M71.1200 55.8800
L68.5800 55.8800
" />
</g>
<g style="fill:none; 
stroke:#006464; stroke-width:0.1524; stroke-opacity:1; 
stroke-linecap:round; stroke-linejoin:round;">
<text x="69.8500" y="55.6260"
textLength="1.4732" font-size="1.6933" lengthAdjust="spacingAndGlyphs"
text-anchor="middle" opacity="0" stroke-opacity="0">G</text>
<g class="stroked-text"><desc>G</desc>
<path d="M70.1826 54.2530
L70.0616 54.1925
" />
<path d="M70.0616 54.1925
L69.8802 54.1925
" />
<path d="M69.8802 54.1925
L69.6988 54.2530
" />
<path d="M69.6988 54.2530
L69.5778 54.3740
" />
<path d="M69.5778 54.3740
L69.5173 54.4949
" />
<path d="M69.5173 54.4949
L69.4569 54.7368
" />
<path d="M69.4569 54.7368
L69.4569 54.9182
" />
<path d="M69.4569 54.9182
L69.5173 55.1601
" />
<path d="M69.5173 55.1601
L69.5778 55.2811
" />
<path d="M69.5778 55.2811
L69.6988 55.4021
" />
<path d="M69.6988 55.4021
L69.8802 55.4625
" />
<path d="M69.8802 55.4625
L70.0011 55.4625
" />
<path d="M70.0011 55.4625
L70.1826 55.4021
" />
<path d="M70.1826 55.4021
L70.2430 55.3416
" />
<path d="M70.2430 55.3416
L70.2430 54.9182
" />
<path d="M70.2430 54.9182
L70.0011 54.9182
" />
</g></g>
<g style="fill:none; 
stroke:#A90000; stroke-width:0.1524; stroke-opacity:1; 
stroke-linecap:round; stroke-linejoin:round;">
<text x="69.8500" y="57.4040"
textLength="1.4127" font-size="1.6933" lengthAdjust="spacingAndGlyphs"
text-anchor="middle" opacity="0" stroke-opacity="0">2</text>
<g class="stroked-text"><desc>2</desc>
<path d="M69.4872 56.3074
L69.5476 56.2469
" />
<path d="M69.5476 56.2469
L69.6686 56.1864
" />
<path d="M69.6686 56.1864
L69.9710 56.1864
" />
<path d="M69.9710 56.1864
L70.0919 56.2469
" />
<path d="M70.0919 56.2469
L70.1524 56.3074
" />
<path d="M70.1524 56.3074
L70.2129 56.4283
" />
<path d="M70.2129 56.4283
L70.2129 56.5493
" />
<path d="M70.2129 56.5493
L70.1524 56.7307
" />
<path d="M70.1524 56.7307
L69.4267 57.4564
" />
<path d="M69.4267 57.4564
L70.2129 57.4564
" />
</g></g>
<g style="fill:none; 
stroke:#840000; stroke-width:0.1524; stroke-opacity:1; 
stroke-linecap:round; stroke-linejoin:round;">
<path d="M76.2000 53.3400
L76.2000 50.8000
" />
</g>
<g style="fill:none; 
stroke:#006464; stroke-width:0.1524; stroke-opacity:1; 
stroke-linecap:round; stroke-linejoin:round;">
<g transform="rotate(-90.000000 75.9460 52.0700)">
<text x="75.9460" y="52.0700"
textLength="1.4732" font-size="1.6933" lengthAdjust="spacingAndGlyphs"
text-anchor="middle" opacity="0" stroke-opacity="0">D</text>
</g>
<g class="stroked-text"><desc>D</desc>
<path d="M75.7825 52.4026
L74.5125 52.4026
" />
<path d="M74.5125 52.4026
L74.5125 52.1002
" />
<path d="M74.5125 52.1002
L74.5730 51.9188
" />
<path d="M74.5730 51.9188
L74.6940 51.7978
" />
<path d="M74.6940 51.7978
L74.8149 51.7373
" />
<path d="M74.8149 51.7373
L75.0568 51.6769
" />
<path d="M75.0568 51.6769
L75.2382 51.6769
" />
<path d="M75.2382 51.6769
L75.4801 51.7373
" />
<path d="M75.4801 51.7373
L75.6011 51.7978
" />
<path d="M75.6011 51.7978
L75.7221 51.9188
" />
<path d="M75.7221 51.9188
L75.7825 52.1002
" />
<path d="M75.7825 52.1002
L75.7825 52.4026
" />
</g></g>
<g style="fill:none; 
stroke:#A90000; stroke-width:0.1524; stroke-opacity:1; 
stroke-linecap:round; stroke-linejoin:round;">
<g transform="rotate(-90.000000 76.4540 52.0700)">
<text x="76.4540" y="53.3400"
textLength="1.4127" font-size="1.6933" lengthAdjust="spacingAndGlyphs"
text-anchor="middle" opacity="0" stroke-opacity="0">1</text>
</g>
<g class="stroked-text"><desc>1</desc>
<path d="M77.7764 51.7070
L77.7764 52.4327
" />
<path d="M77.7764 52.0699
L76.5064 52.0699
" />
<path d="M76.5064 52.0699
L76.6879 52.1908
" />
<path d="M76.6879 52.1908
L76.8088 52.3118
" />
<path d="M76.8088 52.3118
L76.8693 52.4327
" />
</g></g>
<g style="fill:none; 
stroke:#840000; stroke-width:0.1524; stroke-opacity:1; 
stroke-linecap:round; stroke-linejoin:round;">
<path d="M76.2000 58.4200
L76.2000 60.9600
" />
</g>
<g style="fill:none; 
stroke:#006464; stroke-width:0.1524; stroke-opacity:1; 
stroke-linecap:round; stroke-linejoin:round;">
<g transform="rotate(-90.000000 75.9460 59.6900)">
<text x="75.9460" y="59.6900"
textLength="1.4127" font-size="1.6933" lengthAdjust="spacingAndGlyphs"
text-anchor="middle" opacity="0" stroke-opacity="0">S</text>
</g>
<g class="stroked-text"><desc>S</desc>
<path d="M75.7221 60.0527
L75.7825 59.8713
" />
<path d="M75.7825 59.8713
L75.7825 59.5689
" />
<path d="M75.7825 59.5689
L75.7221 59.4480
" />
<path d="M75.7221 59.4480
L75.6616 59.3875
" />
<path d="M75.6616 59.3875
L75.5406 59.3270
" />
<path d="M75.5406 59.3270
L75.4197 59.3270
" />
<path d="M75.4197 59.3270
L75.2987 59.3875
" />
<path d="M75.2987 59.3875
L75.2382 59.4480
" />
<path d="M75.2382 59.4480
L75.1778 59.5689
" />
<path d="M75.1778 59.5689
L75.1173 59.8108
" />
<path d="M75.1173 59.8108
L75.0568 59.9318
" />
<path d="M75.0568 59.9318
L74.9963 59.9923
" />
<path d="M74.9963 59.9923
L74.8754 60.0527
" />
<path d="M74.8754 60.0527
L74.7544 60.0527
" />
<path d="M74.7544 60.0527
L74.6335 59.9923
" />
<path d="M74.6335 59.9923
L74.5730 59.9318
" />
<path d="M74.5730 59.9318
L74.5125 59.8108
" />
<path d="M74.5125 59.8108
L74.5125 59.5085
" />
<path d="M74.5125 59.5085
L74.5730 59.3270
" />
</g></g>
<g style="fill:none; 
stroke:#A90000; stroke-width:0.1524; stroke-opacity:1; 
stroke-linecap:round; stroke-linejoin:round;">
<g transform="rotate(-90.000000 76.4540 59.6900)">
<text x="76.4540" y="60.9600"
textLength="1.4127" font-size="1.6933" lengthAdjust="spacingAndGlyphs"
text-anchor="middle" opacity="0" stroke-opacity="0">3</text>
</g>
<g class="stroked-text"><desc>3</desc>
<path d="M76.5064 60.1132
L76.5064 59.3270
" />
<path d="M76.5064 59.3270
L76.9902 59.7504
" />
<path d="M76.9902 59.7504
L76.9902 59.5689
" />
<path d="M76.9902 59.5689
L77.0507 59.4480
" />
<path d="M77.0507 59.4480
L77.1112 59.3875
" />
<path d="M77.1112 59.3875
L77.2321 59.3270
" />
<path d="M77.2321 59.3270
L77.5345 59.3270
" />
<path d="M77.5345 59.3270
L77.6555 59.3875
" />
<path d="M77.6555 59.3875
L77.7160 59.4480
" />
<path d="M77.7160 59.4480
L77.7764 59.5689
" />
<path d="M77.7764 59.5689
L77.7764 59.9318
" />
<path d="M77.7764 59.9318
L77.7160 60.0527
" />
<path d="M77.7160 60.0527
L77.6555 60.1132
" />
</g></g>
<g style="fill:none; 
stroke:#006464; stroke-width:0.1524; stroke-opacity:1; 
stroke-linecap:round; stroke-linejoin:round;">
<text x="81.3307" y="55.2449"
textLength="2.6223" font-size="1.6933" lengthAdjust="spacingAndGlyphs"
text-anchor="middle" opacity="0" stroke-opacity="0">Q?</text>
<g class="stroked-text"><desc>Q?</desc>
<path d="M81.2702 55.3104
L81.1492 55.2499
" />
<path d="M81.1492 55.2499
L81.0283 55.1290
" />
<path d="M81.0283 55.1290
L80.8469 54.9475
" />
<path d="M80.8469 54.9475
L80.7259 54.8870
" />
<path d="M80.7259 54.8870
L80.6050 54.8870
" />
<path d="M80.6654 55.1894
L80.5445 55.1290
" />
<path d="M80.5445 55.1290
L80.4235 55.0080
" />
<path d="M80.4235 55.0080
L80.3631 54.7661
" />
<path d="M80.3631 54.7661
L80.3631 54.3428
" />
<path d="M80.3631 54.3428
L80.4235 54.1009
" />
<path d="M80.4235 54.1009
L80.5445 53.9799
" />
<path d="M80.5445 53.9799
L80.6654 53.9194
" />
<path d="M80.6654 53.9194
L80.9073 53.9194
" />
<path d="M80.9073 53.9194
L81.0283 53.9799
" />
<path d="M81.0283 53.9799
L81.1492 54.1009
" />
<path d="M81.1492 54.1009
L81.2097 54.3428
" />
<path d="M81.2097 54.3428
L81.2097 54.7661
" />
<path d="M81.2097 54.7661
L81.1492 55.0080
" />
<path d="M81.1492 55.0080
L81.0283 55.1290
" />
<path d="M81.0283 55.1290
L80.9073 55.1894
" />
<path d="M80.9073 55.1894
L80.6654 55.1894
" />
<path d="M81.9355 55.0685
L81.9959 55.1290
" />
<path d="M81.9959 55.1290
L81.9355 55.1894
" />
<path d="M81.9355 55.1894
L81.8750 55.1290
" />
<path d="M81.8750 55.1290
L81.9355 55.0685
" />
<path d="M81.9355 55.0685
L81.9355 55.1894
" />
<path d="M81.6936 53.9799
L81.8145 53.9194
" />
<path d="M81.8145 53.9194
L82.1169 53.9194
" />
<path d="M82.1169 53.9194
L82.2378 53.9799
" />
<path d="M82.2378 53.9799
L82.2983 54.1009
" />
<path d="M82.2983 54.1009
L82.2983 54.2218
" />
<path d="M82.2983 54.2218
L82.2378 54.3428
" />
<path d="M82.2378 54.3428
L82.1774 54.4032
" />
<path d="M82.1774 54.4032
L82.0564 54.4637
" />
<path d="M82.0564 54.4637
L81.9959 54.5242
" />
<path d="M81.9959 54.5242
L81.9355 54.6451
" />
<path d="M81.9355 54.6451
L81.9355 54.7056
" />
</g><text x="82.7821" y="57.7849"
textLength="5.5251" font-size="1.6933" lengthAdjust="spacingAndGlyphs"
text-anchor="middle" opacity="0" stroke-opacity="0">NMOS</text>
<g class="stroked-text"><desc>NMOS</desc>
<path d="M80.4235 57.7294
L80.4235 56.4594
" />
<path d="M80.4235 56.4594
L81.1492 57.7294
" />
<path d="M81.1492 57.7294
L81.1492 56.4594
" />
<path d="M81.7540 57.7294
L81.7540 56.4594
" />
<path d="M81.7540 56.4594
L82.1774 57.3666
" />
<path d="M82.1774 57.3666
L82.6007 56.4594
" />
<path d="M82.6007 56.4594
L82.6007 57.7294
" />
<path d="M83.4473 56.4594
L83.6892 56.4594
" />
<path d="M83.6892 56.4594
L83.8102 56.5199
" />
<path d="M83.8102 56.5199
L83.9311 56.6409
" />
<path d="M83.9311 56.6409
L83.9916 56.8828
" />
<path d="M83.9916 56.8828
L83.9916 57.3061
" />
<path d="M83.9916 57.3061
L83.9311 57.5480
" />
<path d="M83.9311 57.5480
L83.8102 57.6690
" />
<path d="M83.8102 57.6690
L83.6892 57.7294
" />
<path d="M83.6892 57.7294
L83.4473 57.7294
" />
<path d="M83.4473 57.7294
L83.3264 57.6690
" />
<path d="M83.3264 57.6690
L83.2054 57.5480
" />
<path d="M83.2054 57.5480
L83.1450 57.3061
" />
<path d="M83.1450 57.3061
L83.1450 56.8828
" />
<path d="M83.1450 56.8828
L83.2054 56.6409
" />
<path d="M83.2054 56.6409
L83.3264 56.5199
" />
<path d="M83.3264 56.5199
L83.4473 56.4594
" />
<path d="M84.4755 57.6690
L84.6569 57.7294
" />
<path d="M84.6569 57.7294
L84.9593 57.7294
" />
<path d="M84.9593 57.7294
L85.0802 57.6690
" />
<path d="M85.0802 57.6690
L85.1407 57.6085
" />
<path d="M85.1407 57.6085
L85.2012 57.4875
" />
<path d="M85.2012 57.4875
L85.2012 57.3666
" />
<path d="M85.2012 57.3666
L85.1407 57.2456
" />
<path d="M85.1407 57.2456
L85.0802 57.1851
" />
<path d="M85.0802 57.1851
L84.9593 57.1247
" />
<path d="M84.9593 57.1247
L84.7174 57.0642
" />
<path d="M84.7174 57.0642
L84.5964 57.0037
" />
<path d="M84.5964 57.0037
L84.5359 56.9432
" />
<path d="M84.5359 56.9432
L84.4755 56.8223
" />
<path d="M84.4755 56.8223
L84.4755 56.7013
" />
<path d="M84.4755 56.7013
L84.5359 56.5804
" />
<path d="M84.5359 56.5804
L84.5964 56.5199
" />
<path d="M84.5964 56.5199
L84.7174 56.4594
" />
<path d="M84.7174 56.4594
L85.0197 56.4594
" />
<path d="M85.0197 56.4594
L85.2012 56.5199
" />
</g><path style="fill:none; 
stroke:#840000; stroke-width:0.2540; stroke-opacity:1; 
stroke-linecap:round; stroke-linejoin:round;fill:none"
d="M 73.9140,66.6750
73.9140,70.4850
" /> 
<path style="fill:none; 
stroke:#840000; stroke-width:0.1524; stroke-opacity:1; 
stroke-linecap:round; stroke-linejoin:round;fill:none"
d="M 73.9140,68.5800
71.1200,68.5800
" /> 
<path style="fill:none; 
stroke:#840000; stroke-width:0.2540; stroke-opacity:1; 
stroke-linecap:round; stroke-linejoin:round;fill:none"
d="M 74.4220,66.2940
74.4220,67.3100
" /> 
<path style="fill:none; 
stroke:#840000; stroke-width:0.2540; stroke-opacity:1; 
stroke-linecap:round; stroke-linejoin:round;fill:none"
d="M 74.4220,68.0720
74.4220,69.0880
" /> 
<path style="fill:none; 
stroke:#840000; stroke-width:0.2540; stroke-opacity:1; 
stroke-linecap:round; stroke-linejoin:round;fill:none"
d="M 74.4220,69.8500
74.4220,70.8660
" /> 
<path style="fill:none; 
stroke:#840000; stroke-width:0.1524; stroke-opacity:1; 
stroke-linecap:round; stroke-linejoin:round;fill:none"
d="M 74.4220,70.3580
76.9620,70.3580
76.9620,66.8020
74.4220,66.8020
" /> 
<path style="fill:#840000; fill-opacity:1.0000; 
stroke:#840000; stroke-width:0.1524; stroke-opacity:1; 
stroke-linecap:round; stroke-linejoin:round;fill-rule:evenodd;"
d="M 74.6760,68.5800
75.6920,68.1990
75.6920,68.9610
Z" /> 
</g>
<g style="fill:none; 
stroke:#840000; stroke-width:0.2540; stroke-opacity:1; 
stroke-linecap:round; stroke-linejoin:round;">
<circle cx="75.3110" cy="68.5800" r="2.7940" /> 
<path style="fill:none; 
stroke:#840000; stroke-width:0.1524; stroke-opacity:1; 
stroke-linecap:round; stroke-linejoin:round;fill:none"
d="M 76.2000,66.0400
76.2000,66.8020
" /> 
</g>
<g style="fill:#840000; fill-opacity:1.0000; 
stroke:#840000; stroke-width:0.1524; stroke-opacity:1; 
stroke-linecap:round; stroke-linejoin:round;">
<circle cx="76.2000" cy="66.8020" r="0.2540" /> 
<circle cx="76.2000" cy="70.3580" r="0.2540" /> 
<path style="fill:none; 
stroke:#840000; stroke-width:0.1524; stroke-opacity:1; 
stroke-linecap:round; stroke-linejoin:round;fill:none"
d="M 76.2000,71.1200
76.2000,68.5800
74.4220,68.5800
" /> 
<path style="fill:none; 
stroke:#840000; stroke-width:0.1524; stroke-opacity:1; 
stroke-linecap:round; stroke-linejoin:round;fill:none"
d="M 76.4540,68.0720
76.5810,68.1990
77.3430,68.1990
77.4700,68.3260
" /> 
<path style="fill:none; 
stroke:#840000; stroke-width:0.1524; stroke-opacity:1; 
stroke-linecap:round; stroke-linejoin:round;fill:none"
d="M 76.9620,68.1990
76.5810,68.8340
77.3430,68.8340
Z" /> 
</g>
<g style="fill:none; 
stroke:#840000; stroke-width:0.1524; stroke-opacity:1; 
stroke-linecap:round; stroke-linejoin:round;">
<path d="M71.1200 68.5800
L68.5800 68.5800
" />
</g>
<g style="fill:none; 
stroke:#006464; stroke-width:0.1524; stroke-opacity:1; 
stroke-linecap:round; stroke-linejoin:round;">
<text x="69.8500" y="68.3260"
textLength="1.4732" font-size="1.6933" lengthAdjust="spacingAndGlyphs"
text-anchor="middle" opacity="0" stroke-opacity="0">G</text>
<g class="stroked-text"><desc>G</desc>
<path d="M70.1826 66.9530
L70.0616 66.8925
" />
<path d="M70.0616 66.8925
L69.8802 66.8925
" />
<path d="M69.8802 66.8925
L69.6988 66.9530
" />
<path d="M69.6988 66.9530
L69.5778 67.0740
" />
<path d="M69.5778 67.0740
L69.5173 67.1949
" />
<path d="M69.5173 67.1949
L69.4569 67.4368
" />
<path d="M69.4569 67.4368
L69.4569 67.6182
" />
<path d="M69.4569 67.6182
L69.5173 67.8601
" />
<path d="M69.5173 67.8601
L69.5778 67.9811
" />
<path d="M69.5778 67.9811
L69.6988 68.1021
" />
<path d="M69.6988 68.1021
L69.8802 68.1625
" />
<path d="M69.8802 68.1625
L70.0011 68.1625
" />
<path d="M70.0011 68.1625
L70.1826 68.1021
" />
<path d="M70.1826 68.1021
L70.2430 68.0416
" />
<path d="M70.2430 68.0416
L70.2430 67.6182
" />
<path d="M70.2430 67.6182
L70.0011 67.6182
" />
</g></g>
<g style="fill:none; 
stroke:#A90000; stroke-width:0.1524; stroke-opacity:1; 
stroke-linecap:round; stroke-linejoin:round;">
<text x="69.8500" y="70.1040"
textLength="1.4127" font-size="1.6933" lengthAdjust="spacingAndGlyphs"
text-anchor="middle" opacity="0" stroke-opacity="0">2</text>
<g class="stroked-text"><desc>2</desc>
<path d="M69.4872 69.0074
L69.5476 68.9469
" />
<path d="M69.5476 68.9469
L69.6686 68.8864
" />
<path d="M69.6686 68.8864
L69.9710 68.8864
" />
<path d="M69.9710 68.8864
L70.0919 68.9469
" />
<path d="M70.0919 68.9469
L70.1524 69.0074
" />
<path d="M70.1524 69.0074
L70.2129 69.1283
" />
<path d="M70.2129 69.1283
L70.2129 69.2493
" />
<path d="M70.2129 69.2493
L70.1524 69.4307
" />
<path d="M70.1524 69.4307
L69.4267 70.1564
" />
<path d="M69.4267 70.1564
L70.2129 70.1564
" />
</g></g>
<g style="fill:none; 
stroke:#840000; stroke-width:0.1524; stroke-opacity:1; 
stroke-linecap:round; stroke-linejoin:round;">
<path d="M76.2000 66.0400
L76.2000 63.5000
" />
</g>
<g style="fill:none; 
stroke:#006464; stroke-width:0.1524; stroke-opacity:1; 
stroke-linecap:round; stroke-linejoin:round;">
<g transform="rotate(-90.000000 75.9460 64.7700)">
<text x="75.9460" y="64.7700"
textLength="1.4732" font-size="1.6933" lengthAdjust="spacingAndGlyphs"
text-anchor="middle" opacity="0" stroke-opacity="0">D</text>
</g>
<g class="stroked-text"><desc>D</desc>
<path d="M75.7825 65.1026
L74.5125 65.1026
" />
<path d="M74.5125 65.1026
L74.5125 64.8002
" />
<path d="M74.5125 64.8002
L74.5730 64.6188
" />
<path d="M74.5730 64.6188
L74.6940 64.4978
" />
<path d="M74.6940 64.4978
L74.8149 64.4373
" />
<path d="M74.8149 64.4373
L75.0568 64.3769
" />
<path d="M75.0568 64.3769
L75.2382 64.3769
" />
<path d="M75.2382 64.3769
L75.4801 64.4373
" />
<path d="M75.4801 64.4373
L75.6011 64.4978
" />
<path d="M75.6011 64.4978
L75.7221 64.6188
" />
<path d="M75.7221 64.6188
L75.7825 64.8002
" />
<path d="M75.7825 64.8002
L75.7825 65.1026
" />
</g></g>
<g style="fill:none; 
stroke:#A90000; stroke-width:0.1524; stroke-opacity:1; 
stroke-linecap:round; stroke-linejoin:round;">
<g transform="rotate(-90.000000 76.4540 64.7700)">
<text x="76.4540" y="66.0400"
textLength="1.4127" font-size="1.6933" lengthAdjust="spacingAndGlyphs"
text-anchor="middle" opacity="0" stroke-opacity="0">1</text>
</g>
<g class="stroked-text"><desc>1</desc>
<path d="M77.7764 64.4070
L77.7764 65.1327
" />
<path d="M77.7764 64.7699
L76.5064 64.7699
" />
<path d="M76.5064 64.7699
L76.6879 64.8908
" />
<path d="M76.6879 64.8908
L76.8088 65.0118
" />
<path d="M76.8088 65.0118
L76.8693 65.1327
" />
</g></g>
<g style="fill:none; 
stroke:#840000; stroke-width:0.1524; stroke-opacity:1; 
stroke-linecap:round; stroke-linejoin:round;">
<path d="M76.2000 71.1200
L76.2000 73.6600
" />
</g>
<g style="fill:none; 
stroke:#006464; stroke-width:0.1524; stroke-opacity:1; 
stroke-linecap:round; stroke-linejoin:round;">
<g transform="rotate(-90.000000 75.9460 72.3900)">
<text x="75.9460" y="72.3900"
textLength="1.4127" font-size="1.6933" lengthAdjust="spacingAndGlyphs"
text-anchor="middle" opacity="0" stroke-opacity="0">S</text>
</g>
<g class="stroked-text"><desc>S</desc>
<path d="M75.7221 72.7527
L75.7825 72.5713
" />
<path d="M75.7825 72.5713
L75.7825 72.2689
" />
<path d="M75.7825 72.2689
L75.7221 72.1480
" />
<path d="M75.7221 72.1480
L75.6616 72.0875
" />
<path d="M75.6616 72.0875
L75.5406 72.0270
" />
<path d="M75.5406 72.0270
L75.4197 72.0270
" />
<path d="M75.4197 72.0270
L75.2987 72.0875
" />
<path d="M75.2987 72.0875
L75.2382 72.1480
" />
<path d="M75.2382 72.1480
L75.1778 72.2689
" />
<path d="M75.1778 72.2689
L75.1173 72.5108
" />
<path d="M75.1173 72.5108
L75.0568 72.6318
" />
<path d="M75.0568 72.6318
L74.9963 72.6923
" />
<path d="M74.9963 72.6923
L74.8754 72.7527
" />
<path d="M74.8754 72.7527
L74.7544 72.7527
" />
<path d="M74.7544 72.7527
L74.6335 72.6923
" />
<path d="M74.6335 72.6923
L74.5730 72.6318
" />
<path d="M74.5730 72.6318
L74.5125 72.5108
" />
<path d="M74.5125 72.5108
L74.5125 72.2085
" />
<path d="M74.5125 72.2085
L74.5730 72.0270
" />
</g></g>
<g style="fill:none; 
stroke:#A90000; stroke-width:0.1524; stroke-opacity:1; 
stroke-linecap:round; stroke-linejoin:round;">
<g transform="rotate(-90.000000 76.4540 72.3900)">
<text x="76.4540" y="73.6600"
textLength="1.4127" font-size="1.6933" lengthAdjust="spacingAndGlyphs"
text-anchor="middle" opacity="0" stroke-opacity="0">3</text>
</g>
<g class="stroked-text"><desc>3</desc>
<path d="M76.5064 72.8132
L76.5064 72.0270
" />
<path d="M76.5064 72.0270
L76.9902 72.4504
" />
<path d="M76.9902 72.4504
L76.9902 72.2689
" />
<path d="M76.9902 72.2689
L77.0507 72.1480
" />
<path d="M77.0507 72.1480
L77.1112 72.0875
" />
<path d="M77.1112 72.0875
L77.2321 72.0270
" />
<path d="M77.2321 72.0270
L77.5345 72.0270
" />
<path d="M77.5345 72.0270
L77.6555 72.0875
" />
<path d="M77.6555 72.0875
L77.7160 72.1480
" />
<path d="M77.7160 72.1480
L77.7764 72.2689
" />
<path d="M77.7764 72.2689
L77.7764 72.6318
" />
<path d="M77.7764 72.6318
L77.7160 72.7527
" />
<path d="M77.7160 72.7527
L77.6555 72.8132
" />
</g></g>
<g style="fill:none; 
stroke:#006464; stroke-width:0.1524; stroke-opacity:1; 
stroke-linecap:round; stroke-linejoin:round;">
<text x="81.3307" y="67.9449"
textLength="2.6223" font-size="1.6933" lengthAdjust="spacingAndGlyphs"
text-anchor="middle" opacity="0" stroke-opacity="0">Q?</text>
<g class="stroked-text"><desc>Q?</desc>
<path d="M81.2702 68.0104
L81.1492 67.9499
" />
<path d="M81.1492 67.9499
L81.0283 67.8290
" />
<path d="M81.0283 67.8290
L80.8469 67.6475
" />
<path d="M80.8469 67.6475
L80.7259 67.5870
" />
<path d="M80.7259 67.5870
L80.6050 67.5870
" />
<path d="M80.6654 67.8894
L80.5445 67.8290
" />
<path d="M80.5445 67.8290
L80.4235 67.7080
" />
<path d="M80.4235 67.7080
L80.3631 67.4661
" />
<path d="M80.3631 67.4661
L80.3631 67.0428
" />
<path d="M80.3631 67.0428
L80.4235 66.8009
" />
<path d="M80.4235 66.8009
L80.5445 66.6799
" />
<path d="M80.5445 66.6799
L80.6654 66.6194
" />
<path d="M80.6654 66.6194
L80.9073 66.6194
" />
<path d="M80.9073 66.6194
L81.0283 66.6799
" />
<path d="M81.0283 66.6799
L81.1492 66.8009
" />
<path d="M81.1492 66.8009
L81.2097 67.0428
" />
<path d="M81.2097 67.0428
L81.2097 67.4661
" />
<path d="M81.2097 67.4661
L81.1492 67.7080
" />
<path d="M81.1492 67.7080
L81.0283 67.8290
" />
<path d="M81.0283 67.8290
L80.9073 67.8894
" />
<path d="M80.9073 67.8894
L80.6654 67.8894
" />
<path d="M81.9355 67.7685
L81.9959 67.8290
" />
<path d="M81.9959 67.8290
L81.9355 67.8894
" />
<path d="M81.9355 67.8894
L81.8750 67.8290
" />
<path d="M81.8750 67.8290
L81.9355 67.7685
" />
<path d="M81.9355 67.7685
L81.9355 67.8894
" />
<path d="M81.6936 66.6799
L81.8145 66.6194
" />
<path d="M81.8145 66.6194
L82.1169 66.6194
" />
<path d="M82.1169 66.6194
L82.2378 66.6799
" />
<path d="M82.2378 66.6799
L82.2983 66.8009
" />
<path d="M82.2983 66.8009
L82.2983 66.9218
" />
<path d="M82.2983 66.9218
L82.2378 67.0428
" />
<path d="M82.2378 67.0428
L82.1774 67.1032
" />
<path d="M82.1774 67.1032
L82.0564 67.1637
" />
<path d="M82.0564 67.1637
L81.9959 67.2242
" />
<path d="M81.9959 67.2242
L81.9355 67.3451
" />
<path d="M81.9355 67.3451
L81.9355 67.4056
" />
</g><text x="82.7821" y="70.4849"
textLength="5.5251" font-size="1.6933" lengthAdjust="spacingAndGlyphs"
text-anchor="middle" opacity="0" stroke-opacity="0">NMOS</text>
<g class="stroked-text"><desc>NMOS</desc>
<path d="M80.4235 70.4294
L80.4235 69.1594
" />
<path d="M80.4235 69.1594
L81.1492 70.4294
" />
<path d="M81.1492 70.4294
L81.1492 69.1594
" />
<path d="M81.7540 70.4294
L81.7540 69.1594
" />
<path d="M81.7540 69.1594
L82.1774 70.0666
" />
<path d="M82.1774 70.0666
L82.6007 69.1594
" />
<path d="M82.6007 69.1594
L82.6007 70.4294
" />
<path d="M83.4473 69.1594
L83.6892 69.1594
" />
<path d="M83.6892 69.1594
L83.8102 69.2199
" />
<path d="M83.8102 69.2199
L83.9311 69.3409
" />
<path d="M83.9311 69.3409
L83.9916 69.5828
" />
<path d="M83.9916 69.5828
L83.9916 70.0061
" />
<path d="M83.9916 70.0061
L83.9311 70.2480
" />
<path d="M83.9311 70.2480
L83.8102 70.3690
" />
<path d="M83.8102 70.3690
L83.6892 70.4294
" />
<path d="M83.6892 70.4294
L83.4473 70.4294
" />
<path d="M83.4473 70.4294
L83.3264 70.3690
" />
<path d="M83.3264 70.3690
L83.2054 70.2480
" />
<path d="M83.2054 70.2480
L83.1450 70.0061
" />
<path d="M83.1450 70.0061
L83.1450 69.5828
" />
<path d="M83.1450 69.5828
L83.2054 69.3409
" />
<path d="M83.2054 69.3409
L83.3264 69.2199
" />
<path d="M83.3264 69.2199
L83.4473 69.1594
" />
<path d="M84.4755 70.3690
L84.6569 70.4294
" />
<path d="M84.6569 70.4294
L84.9593 70.4294
" />
<path d="M84.9593 70.4294
L85.0802 70.3690
" />
<path d="M85.0802 70.3690
L85.1407 70.3085
" />
<path d="M85.1407 70.3085
L85.2012 70.1875
" />
<path d="M85.2012 70.1875
L85.2012 70.0666
" />
<path d="M85.2012 70.0666
L85.1407 69.9456
" />
<path d="M85.1407 69.9456
L85.0802 69.8851
" />
<path d="M85.0802 69.8851
L84.9593 69.8247
" />
<path d="M84.9593 69.8247
L84.7174 69.7642
" />
<path d="M84.7174 69.7642
L84.5964 69.7037
" />
<path d="M84.5964 69.7037
L84.5359 69.6432
" />
<path d="M84.5359 69.6432
L84.4755 69.5223
" />
<path d="M84.4755 69.5223
L84.4755 69.4013
" />
<path d="M84.4755 69.4013
L84.5359 69.2804
" />
<path d="M84.5359 69.2804
L84.5964 69.2199
" />
<path d="M84.5964 69.2199
L84.7174 69.1594
" />
<path d="M84.7174 69.1594
L85.0197 69.1594
" />
<path d="M85.0197 69.1594
L85.2012 69.2199
" />
</g><path style="fill:none; 
stroke:#840000; stroke-width:0.2540; stroke-opacity:1; 
stroke-linecap:round; stroke-linejoin:round;fill:none"
d="M 84.0740,45.0850
84.0740,41.2750
" /> 
<path style="fill:none; 
stroke:#840000; stroke-width:0.1524; stroke-opacity:1; 
stroke-linecap:round; stroke-linejoin:round;fill:none"
d="M 84.0740,43.1800
81.2800,43.1800
" /> 
<path style="fill:none; 
stroke:#840000; stroke-width:0.2540; stroke-opacity:1; 
stroke-linecap:round; stroke-linejoin:round;fill:none"
d="M 84.5820,45.4660
84.5820,44.4500
" /> 
<path style="fill:none; 
stroke:#840000; stroke-width:0.1524; stroke-opacity:1; 
stroke-linecap:round; stroke-linejoin:round;fill:none"
d="M 84.5820,44.9580
87.1220,44.9580
87.1220,41.4020
84.5820,41.4020
" /> 
<path style="fill:none; 
stroke:#840000; stroke-width:0.2540; stroke-opacity:1; 
stroke-linecap:round; stroke-linejoin:round;fill:none"
d="M 84.5820,43.6880
84.5820,42.6720
" /> 
<path style="fill:none; 
stroke:#840000; stroke-width:0.2540; stroke-opacity:1; 
stroke-linecap:round; stroke-linejoin:round;fill:none"
d="M 84.5820,41.9100
84.5820,40.8940
" /> 
</g>
<g style="fill:none; 
stroke:#840000; stroke-width:0.2540; stroke-opacity:1; 
stroke-linecap:round; stroke-linejoin:round;">
<circle cx="85.4710" cy="43.1800" r="2.7940" /> 
<path style="fill:#840000; fill-opacity:1.0000; 
stroke:#840000; stroke-width:0.1524; stroke-opacity:1; 
stroke-linecap:round; stroke-linejoin:round;fill-rule:evenodd;"
d="M 86.1060,43.1800
85.0900,43.5610
85.0900,42.7990
Z" /> 
<path style="fill:none; 
stroke:#840000; stroke-width:0.1524; stroke-opacity:1; 
stroke-linecap:round; stroke-linejoin:round;fill:none"
d="M 86.3600,45.7200
86.3600,44.9580
" /> 
</g>
<g style="fill:#840000; fill-opacity:1.0000; 
stroke:#840000; stroke-width:0.1524; stroke-opacity:1; 
stroke-linecap:round; stroke-linejoin:round;">
<circle cx="86.3600" cy="44.9580" r="0.2540" /> 
<circle cx="86.3600" cy="41.4020" r="0.2540" /> 
<path style="fill:none; 
stroke:#840000; stroke-width:0.1524; stroke-opacity:1; 
stroke-linecap:round; stroke-linejoin:round;fill:none"
d="M 86.3600,40.6400
86.3600,43.1800
84.5820,43.1800
" /> 
<path style="fill:none; 
stroke:#840000; stroke-width:0.1524; stroke-opacity:1; 
stroke-linecap:round; stroke-linejoin:round;fill:none"
d="M 86.6140,42.6720
86.7410,42.7990
87.5030,42.7990
87.6300,42.9260
" /> 
<path style="fill:none; 
stroke:#840000; stroke-width:0.1524; stroke-opacity:1; 
stroke-linecap:round; stroke-linejoin:round;fill:none"
d="M 87.1220,42.7990
86.7410,43.4340
87.5030,43.4340
Z" /> 
</g>
<g style="fill:none; 
stroke:#840000; stroke-width:0.1524; stroke-opacity:1; 
stroke-linecap:round; stroke-linejoin:round;">
<path d="M81.2800 43.1800
L78.7400 43.1800
" />
</g>
<g style="fill:none; 
stroke:#006464; stroke-width:0.1524; stroke-opacity:1; 
stroke-linecap:round; stroke-linejoin:round;">
<text x="80.0100" y="42.9260"
textLength="1.4732" font-size="1.6933" lengthAdjust="spacingAndGlyphs"
text-anchor="middle" opacity="0" stroke-opacity="0">G</text>
<g class="stroked-text"><desc>G</desc>
<path d="M80.3426 41.5530
L80.2216 41.4925
" />
<path d="M80.2216 41.4925
L80.0402 41.4925
" />
<path d="M80.0402 41.4925
L79.8588 41.5530
" />
<path d="M79.8588 41.5530
L79.7378 41.6740
" />
<path d="M79.7378 41.6740
L79.6773 41.7949
" />
<path d="M79.6773 41.7949
L79.6169 42.0368
" />
<path d="M79.6169 42.0368
L79.6169 42.2182
" />
<path d="M79.6169 42.2182
L79.6773 42.4601
" />
<path d="M79.6773 42.4601
L79.7378 42.5811
" />
<path d="M79.7378 42.5811
L79.8588 42.7021
" />
<path d="M79.8588 42.7021
L80.0402 42.7625
" />
<path d="M80.0402 42.7625
L80.1611 42.7625
" />
<path d="M80.1611 42.7625
L80.3426 42.7021
" />
<path d="M80.3426 42.7021
L80.4030 42.6416
" />
<path d="M80.4030 42.6416
L80.4030 42.2182
" />
<path d="M80.4030 42.2182
L80.1611 42.2182
" />
</g></g>
<g style="fill:none; 
stroke:#A90000; stroke-width:0.1524; stroke-opacity:1; 
stroke-linecap:round; stroke-linejoin:round;">
<text x="80.0100" y="44.7040"
textLength="1.4127" font-size="1.6933" lengthAdjust="spacingAndGlyphs"
text-anchor="middle" opacity="0" stroke-opacity="0">2</text>
<g class="stroked-text"><desc>2</desc>
<path d="M79.6472 43.6074
L79.7076 43.5469
" />
<path d="M79.7076 43.5469
L79.8286 43.4864
" />
<path d="M79.8286 43.4864
L80.1310 43.4864
" />
<path d="M80.1310 43.4864
L80.2519 43.5469
" />
<path d="M80.2519 43.5469
L80.3124 43.6074
" />
<path d="M80.3124 43.6074
L80.3729 43.7283
" />
<path d="M80.3729 43.7283
L80.3729 43.8493
" />
<path d="M80.3729 43.8493
L80.3124 44.0307
" />
<path d="M80.3124 44.0307
L79.5867 44.7564
" />
<path d="M79.5867 44.7564
L80.3729 44.7564
" />
</g></g>
<g style="fill:none; 
stroke:#840000; stroke-width:0.1524; stroke-opacity:1; 
stroke-linecap:round; stroke-linejoin:round;">
<path d="M86.3600 45.7200
L86.3600 48.2600
" />
</g>
<g style="fill:none; 
stroke:#006464; stroke-width:0.1524; stroke-opacity:1; 
stroke-linecap:round; stroke-linejoin:round;">
<g transform="rotate(-90.000000 86.1060 46.9900)">
<text x="86.1060" y="46.9900"
textLength="1.4732" font-size="1.6933" lengthAdjust="spacingAndGlyphs"
text-anchor="middle" opacity="0" stroke-opacity="0">D</text>
</g>
<g class="stroked-text"><desc>D</desc>
<path d="M85.9425 47.3226
L84.6725 47.3226
" />
<path d="M84.6725 47.3226
L84.6725 47.0202
" />
<path d="M84.6725 47.0202
L84.7330 46.8388
" />
<path d="M84.7330 46.8388
L84.8540 46.7178
" />
<path d="M84.8540 46.7178
L84.9749 46.6573
" />
<path d="M84.9749 46.6573
L85.2168 46.5969
" />
<path d="M85.2168 46.5969
L85.3982 46.5969
" />
<path d="M85.3982 46.5969
L85.6401 46.6573
" />
<path d="M85.6401 46.6573
L85.7611 46.7178
" />
<path d="M85.7611 46.7178
L85.8821 46.8388
" />
<path d="M85.8821 46.8388
L85.9425 47.0202
" />
<path d="M85.9425 47.0202
L85.9425 47.3226
" />
</g></g>
<g style="fill:none; 
stroke:#A90000; stroke-width:0.1524; stroke-opacity:1; 
stroke-linecap:round; stroke-linejoin:round;">
<g transform="rotate(-90.000000 86.6140 46.9900)">
<text x="86.6140" y="48.2600"
textLength="1.4127" font-size="1.6933" lengthAdjust="spacingAndGlyphs"
text-anchor="middle" opacity="0" stroke-opacity="0">1</text>
</g>
<g class="stroked-text"><desc>1</desc>
<path d="M87.9364 46.6270
L87.9364 47.3527
" />
<path d="M87.9364 46.9899
L86.6664 46.9899
" />
<path d="M86.6664 46.9899
L86.8479 47.1108
" />
<path d="M86.8479 47.1108
L86.9688 47.2318
" />
<path d="M86.9688 47.2318
L87.0293 47.3527
" />
</g></g>
<g style="fill:none; 
stroke:#840000; stroke-width:0.1524; stroke-opacity:1; 
stroke-linecap:round; stroke-linejoin:round;">
<path d="M86.3600 40.6400
L86.3600 38.1000
" />
</g>
<g style="fill:none; 
stroke:#006464; stroke-width:0.1524; stroke-opacity:1; 
stroke-linecap:round; stroke-linejoin:round;">
<g transform="rotate(-90.000000 86.1060 39.3700)">
<text x="86.1060" y="39.3700"
textLength="1.4127" font-size="1.6933" lengthAdjust="spacingAndGlyphs"
text-anchor="middle" opacity="0" stroke-opacity="0">S</text>
</g>
<g class="stroked-text"><desc>S</desc>
<path d="M85.8821 39.7327
L85.9425 39.5513
" />
<path d="M85.9425 39.5513
L85.9425 39.2489
" />
<path d="M85.9425 39.2489
L85.8821 39.1280
" />
<path d="M85.8821 39.1280
L85.8216 39.0675
" />
<path d="M85.8216 39.0675
L85.7006 39.0070
" />
<path d="M85.7006 39.0070
L85.5797 39.0070
" />
<path d="M85.5797 39.0070
L85.4587 39.0675
" />
<path d="M85.4587 39.0675
L85.3982 39.1280
" />
<path d="M85.3982 39.1280
L85.3378 39.2489
" />
<path d="M85.3378 39.2489
L85.2773 39.4908
" />
<path d="M85.2773 39.4908
L85.2168 39.6118
" />
<path d="M85.2168 39.6118
L85.1563 39.6723
" />
<path d="M85.1563 39.6723
L85.0354 39.7327
" />
<path d="M85.0354 39.7327
L84.9144 39.7327
" />
<path d="M84.9144 39.7327
L84.7935 39.6723
" />
<path d="M84.7935 39.6723
L84.7330 39.6118
" />
<path d="M84.7330 39.6118
L84.6725 39.4908
" />
<path d="M84.6725 39.4908
L84.6725 39.1885
" />
<path d="M84.6725 39.1885
L84.7330 39.0070
" />
</g></g>
<g style="fill:none; 
stroke:#A90000; stroke-width:0.1524; stroke-opacity:1; 
stroke-linecap:round; stroke-linejoin:round;">
<g transform="rotate(-90.000000 86.6140 39.3700)">
<text x="86.6140" y="40.6400"
textLength="1.4127" font-size="1.6933" lengthAdjust="spacingAndGlyphs"
text-anchor="middle" opacity="0" stroke-opacity="0">3</text>
</g>
<g class="stroked-text"><desc>3</desc>
<path d="M86.6664 39.7932
L86.6664 39.0070
" />
<path d="M86.6664 39.0070
L87.1502 39.4304
" />
<path d="M87.1502 39.4304
L87.1502 39.2489
" />
<path d="M87.1502 39.2489
L87.2107 39.1280
" />
<path d="M87.2107 39.1280
L87.2712 39.0675
" />
<path d="M87.2712 39.0675
L87.3921 39.0070
" />
<path d="M87.3921 39.0070
L87.6945 39.0070
" />
<path d="M87.6945 39.0070
L87.8155 39.0675
" />
<path d="M87.8155 39.0675
L87.8760 39.1280
" />
<path d="M87.8760 39.1280
L87.9364 39.2489
" />
<path d="M87.9364 39.2489
L87.9364 39.6118
" />
<path d="M87.9364 39.6118
L87.8760 39.7327
" />
<path d="M87.8760 39.7327
L87.8155 39.7932
" />
</g></g>
<g style="fill:none; 
stroke:#006464; stroke-width:0.1524; stroke-opacity:1; 
stroke-linecap:round; stroke-linejoin:round;">
<text x="91.4907" y="42.5448"
textLength="2.6223" font-size="1.6933" lengthAdjust="spacingAndGlyphs"
text-anchor="middle" opacity="0" stroke-opacity="0">Q?</text>
<g class="stroked-text"><desc>Q?</desc>
<path d="M91.4302 42.6103
L91.3092 42.5498
" />
<path d="M91.3092 42.5498
L91.1883 42.4289
" />
<path d="M91.1883 42.4289
L91.0069 42.2474
" />
<path d="M91.0069 42.2474
L90.8859 42.1869
" />
<path d="M90.8859 42.1869
L90.7650 42.1869
" />
<path d="M90.8254 42.4893
L90.7045 42.4289
" />
<path d="M90.7045 42.4289
L90.5835 42.3079
" />
<path d="M90.5835 42.3079
L90.5231 42.0660
" />
<path d="M90.5231 42.0660
L90.5231 41.6427
" />
<path d="M90.5231 41.6427
L90.5835 41.4008
" />
<path d="M90.5835 41.4008
L90.7045 41.2798
" />
<path d="M90.7045 41.2798
L90.8254 41.2193
" />
<path d="M90.8254 41.2193
L91.0673 41.2193
" />
<path d="M91.0673 41.2193
L91.1883 41.2798
" />
<path d="M91.1883 41.2798
L91.3092 41.4008
" />
<path d="M91.3092 41.4008
L91.3697 41.6427
" />
<path d="M91.3697 41.6427
L91.3697 42.0660
" />
<path d="M91.3697 42.0660
L91.3092 42.3079
" />
<path d="M91.3092 42.3079
L91.1883 42.4289
" />
<path d="M91.1883 42.4289
L91.0673 42.4893
" />
<path d="M91.0673 42.4893
L90.8254 42.4893
" />
<path d="M92.0955 42.3684
L92.1559 42.4289
" />
<path d="M92.1559 42.4289
L92.0955 42.4893
" />
<path d="M92.0955 42.4893
L92.0350 42.4289
" />
<path d="M92.0350 42.4289
L92.0955 42.3684
" />
<path d="M92.0955 42.3684
L92.0955 42.4893
" />
<path d="M91.8536 41.2798
L91.9745 41.2193
" />
<path d="M91.9745 41.2193
L92.2769 41.2193
" />
<path d="M92.2769 41.2193
L92.3978 41.2798
" />
<path d="M92.3978 41.2798
L92.4583 41.4008
" />
<path d="M92.4583 41.4008
L92.4583 41.5217
" />
<path d="M92.4583 41.5217
L92.3978 41.6427
" />
<path d="M92.3978 41.6427
L92.3374 41.7031
" />
<path d="M92.3374 41.7031
L92.2164 41.7636
" />
<path d="M92.2164 41.7636
L92.1559 41.8241
" />
<path d="M92.1559 41.8241
L92.0955 41.9450
" />
<path d="M92.0955 41.9450
L92.0955 42.0055
" />
</g><text x="92.9119" y="45.0848"
textLength="5.4646" font-size="1.6933" lengthAdjust="spacingAndGlyphs"
text-anchor="middle" opacity="0" stroke-opacity="0">PMOS</text>
<g class="stroked-text"><desc>PMOS</desc>
<path d="M90.5835 45.0293
L90.5835 43.7593
" />
<path d="M90.5835 43.7593
L91.0673 43.7593
" />
<path d="M91.0673 43.7593
L91.1883 43.8198
" />
<path d="M91.1883 43.8198
L91.2488 43.8803
" />
<path d="M91.2488 43.8803
L91.3092 44.0012
" />
<path d="M91.3092 44.0012
L91.3092 44.1827
" />
<path d="M91.3092 44.1827
L91.2488 44.3036
" />
<path d="M91.2488 44.3036
L91.1883 44.3641
" />
<path d="M91.1883 44.3641
L91.0673 44.4246
" />
<path d="M91.0673 44.4246
L90.5835 44.4246
" />
<path d="M91.8535 45.0293
L91.8535 43.7593
" />
<path d="M91.8535 43.7593
L92.2769 44.6665
" />
<path d="M92.2769 44.6665
L92.7002 43.7593
" />
<path d="M92.7002 43.7593
L92.7002 45.0293
" />
<path d="M93.5468 43.7593
L93.7887 43.7593
" />
<path d="M93.7887 43.7593
L93.9097 43.8198
" />
<path d="M93.9097 43.8198
L94.0306 43.9408
" />
<path d="M94.0306 43.9408
L94.0911 44.1827
" />
<path d="M94.0911 44.1827
L94.0911 44.6060
" />
<path d="M94.0911 44.6060
L94.0306 44.8479
" />
<path d="M94.0306 44.8479
L93.9097 44.9689
" />
<path d="M93.9097 44.9689
L93.7887 45.0293
" />
<path d="M93.7887 45.0293
L93.5468 45.0293
" />
<path d="M93.5468 45.0293
L93.4259 44.9689
" />
<path d="M93.4259 44.9689
L93.3049 44.8479
" />
<path d="M93.3049 44.8479
L93.2445 44.6060
" />
<path d="M93.2445 44.6060
L93.2445 44.1827
" />
<path d="M93.2445 44.1827
L93.3049 43.9408
" />
<path d="M93.3049 43.9408
L93.4259 43.8198
" />
<path d="M93.4259 43.8198
L93.5468 43.7593
" />
<path d="M94.5750 44.9689
L94.7564 45.0293
" />
<path d="M94.7564 45.0293
L95.0588 45.0293
" />
<path d="M95.0588 45.0293
L95.1797 44.9689
" />
<path d="M95.1797 44.9689
L95.2402 44.9084
" />
<path d="M95.2402 44.9084
L95.3007 44.7874
" />
<path d="M95.3007 44.7874
L95.3007 44.6665
" />
<path d="M95.3007 44.6665
L95.2402 44.5455
" />
<path d="M95.2402 44.5455
L95.1797 44.4850
" />
<path d="M95.1797 44.4850
L95.0588 44.4246
" />
<path d="M95.0588 44.4246
L94.8169 44.3641
" />
<path d="M94.8169 44.3641
L94.6959 44.3036
" />
<path d="M94.6959 44.3036
L94.6354 44.2431
" />
<path d="M94.6354 44.2431
L94.5750 44.1222
" />
<path d="M94.5750 44.1222
L94.5750 44.0012
" />
<path d="M94.5750 44.0012
L94.6354 43.8803
" />
<path d="M94.6354 43.8803
L94.6959 43.8198
" />
<path d="M94.6959 43.8198
L94.8169 43.7593
" />
<path d="M94.8169 43.7593
L95.1192 43.7593
" />
<path d="M95.1192 43.7593
L95.3007 43.8198
" />
</g><path style="fill:none; 
stroke:#840000; stroke-width:0.1524; stroke-opacity:1; 
stroke-linecap:round; stroke-linejoin:round;fill:none"
d="M 85.5980,36.8300
86.3600,35.5600
" /> 
<path style="fill:none; 
stroke:#840000; stroke-width:0.1524; stroke-opacity:1; 
stroke-linecap:round; stroke-linejoin:round;fill:none"
d="M 86.3600,35.5600
87.1220,36.8300
" /> 
<path style="fill:none; 
stroke:#840000; stroke-width:0.1524; stroke-opacity:1; 
stroke-linecap:round; stroke-linejoin:round;fill:none"
d="M 86.3600,38.1000
86.3600,35.5600
" /> 
</g>
<g style="fill:none; 
stroke:#840000; stroke-width:0.1524; stroke-opacity:1; 
stroke-linecap:round; stroke-linejoin:round;">
<path d="M86.3600 38.1000
L86.3600 38.1000
" />
</g>
<g style="fill:none; 
stroke:#006464; stroke-width:0.1524; stroke-opacity:1; 
stroke-linecap:round; stroke-linejoin:round;">
<text x="86.3600" y="33.6550"
textLength="3.8318" font-size="1.6933" lengthAdjust="spacingAndGlyphs"
text-anchor="middle" opacity="0" stroke-opacity="0">VCC</text>
<g class="stroked-text"><desc>VCC</desc>
<path d="M84.6666 32.3295
L85.0899 33.5995
" />
<path d="M85.0899 33.5995
L85.5133 32.3295
" />
<path d="M86.6623 33.4786
L86.6019 33.5391
" />
<path d="M86.6019 33.5391
L86.4204 33.5995
" />
<path d="M86.4204 33.5995
L86.2995 33.5995
" />
<path d="M86.2995 33.5995
L86.1181 33.5391
" />
<path d="M86.1181 33.5391
L85.9971 33.4181
" />
<path d="M85.9971 33.4181
L85.9366 33.2971
" />
<path d="M85.9366 33.2971
L85.8762 33.0552
" />
<path d="M85.8762 33.0552
L85.8762 32.8738
" />
<path d="M85.8762 32.8738
L85.9366 32.6319
" />
<path d="M85.9366 32.6319
L85.9971 32.5110
" />
<path d="M85.9971 32.5110
L86.1181 32.3900
" />
<path d="M86.1181 32.3900
L86.2995 32.3295
" />
<path d="M86.2995 32.3295
L86.4204 32.3295
" />
<path d="M86.4204 32.3295
L86.6019 32.3900
" />
<path d="M86.6019 32.3900
L86.6623 32.4505
" />
<path d="M87.9323 33.4786
L87.8719 33.5391
" />
<path d="M87.8719 33.5391
L87.6904 33.5995
" />
<path d="M87.6904 33.5995
L87.5695 33.5995
" />
<path d="M87.5695 33.5995
L87.3881 33.5391
" />
<path d="M87.3881 33.5391
L87.2671 33.4181
" />
<path d="M87.2671 33.4181
L87.2066 33.2971
" />
<path d="M87.2066 33.2971
L87.1462 33.0552
" />
<path d="M87.1462 33.0552
L87.1462 32.8738
" />
<path d="M87.1462 32.8738
L87.2066 32.6319
" />
<path d="M87.2066 32.6319
L87.2671 32.5110
" />
<path d="M87.2671 32.5110
L87.3881 32.3900
" />
<path d="M87.3881 32.3900
L87.5695 32.3295
" />
<path d="M87.5695 32.3295
L87.6904 32.3295
" />
<path d="M87.6904 32.3295
L87.8719 32.3900
" />
<path d="M87.8719 32.3900
L87.9323 32.4505
" />
</g><path style="fill:none; 
stroke:#840000; stroke-width:0.1524; stroke-opacity:1; 
stroke-linecap:round; stroke-linejoin:round;fill:none"
d="M 76.2000,74.9300
76.2000,76.2000
77.4700,76.2000
76.2000,77.4700
74.9300,76.2000
76.2000,76.2000
" /> 
</g>
<g style="fill:none; 
stroke:#840000; stroke-width:0.1524; stroke-opacity:1; 
stroke-linecap:round; stroke-linejoin:round;">
<path d="M76.2000 74.9300
L76.2000 74.9300
" />
</g>
<g style="fill:none; 
stroke:#006464; stroke-width:0.1524; stroke-opacity:1; 
stroke-linecap:round; stroke-linejoin:round;">
<text x="76.2000" y="80.6450"
textLength="4.0737" font-size="1.6933" lengthAdjust="spacingAndGlyphs"
text-anchor="middle" opacity="0" stroke-opacity="0">GND</text>
<g class="stroked-text"><desc>GND</desc>
<path d="M75.2324 79.3800
L75.1114 79.3195
" />
<path d="M75.1114 79.3195
L74.9300 79.3195
" />
<path d="M74.9300 79.3195
L74.7486 79.3800
" />
<path d="M74.7486 79.3800
L74.6276 79.5010
" />
<path d="M74.6276 79.5010
L74.5671 79.6219
" />
<path d="M74.5671 79.6219
L74.5067 79.8638
" />
<path d="M74.5067 79.8638
L74.5067 80.0452
" />
<path d="M74.5067 80.0452
L74.5671 80.2871
" />
<path d="M74.5671 80.2871
L74.6276 80.4081
" />
<path d="M74.6276 80.4081
L74.7486 80.5291
" />
<path d="M74.7486 80.5291
L74.9300 80.5895
" />
<path d="M74.9300 80.5895
L75.0509 80.5895
" />
<path d="M75.0509 80.5895
L75.2324 80.5291
" />
<path d="M75.2324 80.5291
L75.2928 80.4686
" />
<path d="M75.2928 80.4686
L75.2928 80.0452
" />
<path d="M75.2928 80.0452
L75.0509 80.0452
" />
<path d="M75.8371 80.5895
L75.8371 79.3195
" />
<path d="M75.8371 79.3195
L76.5628 80.5895
" />
<path d="M76.5628 80.5895
L76.5628 79.3195
" />
<path d="M77.1676 80.5895
L77.1676 79.3195
" />
<path d="M77.1676 79.3195
L77.4700 79.3195
" />
<path d="M77.4700 79.3195
L77.6514 79.3800
" />
<path d="M77.6514 79.3800
L77.7724 79.5010
" />
<path d="M77.7724 79.5010
L77.8329 79.6219
" />
<path d="M77.8329 79.6219
L77.8933 79.8638
" />
<path d="M77.8933 79.8638
L77.8933 80.0452
" />
<path d="M77.8933 80.0452
L77.8329 80.2871
" />
<path d="M77.8329 80.2871
L77.7724 80.4081
" />
<path d="M77.7724 80.4081
L77.6514 80.5291
" />
<path d="M77.6514 80.5291
L77.4700 80.5895
" />
<path d="M77.4700 80.5895
L77.1676 80.5895
" />
</g><path style="fill:none; 
stroke:#840000; stroke-width:0.2540; stroke-opacity:1; 
stroke-linecap:round; stroke-linejoin:round;fill:none"
d="M 65.0240,45.0850
65.0240,41.2750
" /> 
<path style="fill:none; 
stroke:#840000; stroke-width:0.1524; stroke-opacity:1; 
stroke-linecap:round; stroke-linejoin:round;fill:none"
d="M 65.0240,43.1800
62.2300,43.1800
" /> 
<path style="fill:none; 
stroke:#840000; stroke-width:0.2540; stroke-opacity:1; 
stroke-linecap:round; stroke-linejoin:round;fill:none"
d="M 65.5320,45.4660
65.5320,44.4500
" /> 
<path style="fill:none; 
stroke:#840000; stroke-width:0.1524; stroke-opacity:1; 
stroke-linecap:round; stroke-linejoin:round;fill:none"
d="M 65.5320,44.9580
68.0720,44.9580
68.0720,41.4020
65.5320,41.4020
" /> 
<path style="fill:none; 
stroke:#840000; stroke-width:0.2540; stroke-opacity:1; 
stroke-linecap:round; stroke-linejoin:round;fill:none"
d="M 65.5320,43.6880
65.5320,42.6720
" /> 
<path style="fill:none; 
stroke:#840000; stroke-width:0.2540; stroke-opacity:1; 
stroke-linecap:round; stroke-linejoin:round;fill:none"
d="M 65.5320,41.9100
65.5320,40.8940
" /> 
</g>
<g style="fill:none; 
stroke:#840000; stroke-width:0.2540; stroke-opacity:1; 
stroke-linecap:round; stroke-linejoin:round;">
<circle cx="66.4210" cy="43.1800" r="2.7940" /> 
<path style="fill:#840000; fill-opacity:1.0000; 
stroke:#840000; stroke-width:0.1524; stroke-opacity:1; 
stroke-linecap:round; stroke-linejoin:round;fill-rule:evenodd;"
d="M 67.0560,43.1800
66.0400,43.5610
66.0400,42.7990
Z" /> 
<path style="fill:none; 
stroke:#840000; stroke-width:0.1524; stroke-opacity:1; 
stroke-linecap:round; stroke-linejoin:round;fill:none"
d="M 67.3100,45.7200
67.3100,44.9580
" /> 
</g>
<g style="fill:#840000; fill-opacity:1.0000; 
stroke:#840000; stroke-width:0.1524; stroke-opacity:1; 
stroke-linecap:round; stroke-linejoin:round;">
<circle cx="67.3100" cy="44.9580" r="0.2540" /> 
<circle cx="67.3100" cy="41.4020" r="0.2540" /> 
<path style="fill:none; 
stroke:#840000; stroke-width:0.1524; stroke-opacity:1; 
stroke-linecap:round; stroke-linejoin:round;fill:none"
d="M 67.3100,40.6400
67.3100,43.1800
65.5320,43.1800
" /> 
<path style="fill:none; 
stroke:#840000; stroke-width:0.1524; stroke-opacity:1; 
stroke-linecap:round; stroke-linejoin:round;fill:none"
d="M 67.5640,42.6720
67.6910,42.7990
68.4530,42.7990
68.5800,42.9260
" /> 
<path style="fill:none; 
stroke:#840000; stroke-width:0.1524; stroke-opacity:1; 
stroke-linecap:round; stroke-linejoin:round;fill:none"
d="M 68.0720,42.7990
67.6910,43.4340
68.4530,43.4340
Z" /> 
</g>
<g style="fill:none; 
stroke:#840000; stroke-width:0.1524; stroke-opacity:1; 
stroke-linecap:round; stroke-linejoin:round;">
<path d="M62.2300 43.1800
L59.6900 43.1800
" />
</g>
<g style="fill:none; 
stroke:#006464; stroke-width:0.1524; stroke-opacity:1; 
stroke-linecap:round; stroke-linejoin:round;">
<text x="60.9600" y="42.9260"
textLength="1.4732" font-size="1.6933" lengthAdjust="spacingAndGlyphs"
text-anchor="middle" opacity="0" stroke-opacity="0">G</text>
<g class="stroked-text"><desc>G</desc>
<path d="M61.2926 41.5530
L61.1716 41.4925
" />
<path d="M61.1716 41.4925
L60.9902 41.4925
" />
<path d="M60.9902 41.4925
L60.8088 41.5530
" />
<path d="M60.8088 41.5530
L60.6878 41.6740
" />
<path d="M60.6878 41.6740
L60.6273 41.7949
" />
<path d="M60.6273 41.7949
L60.5669 42.0368
" />
<path d="M60.5669 42.0368
L60.5669 42.2182
" />
<path d="M60.5669 42.2182
L60.6273 42.4601
" />
<path d="M60.6273 42.4601
L60.6878 42.5811
" />
<path d="M60.6878 42.5811
L60.8088 42.7021
" />
<path d="M60.8088 42.7021
L60.9902 42.7625
" />
<path d="M60.9902 42.7625
L61.1111 42.7625
" />
<path d="M61.1111 42.7625
L61.2926 42.7021
" />
<path d="M61.2926 42.7021
L61.3530 42.6416
" />
<path d="M61.3530 42.6416
L61.3530 42.2182
" />
<path d="M61.3530 42.2182
L61.1111 42.2182
" />
</g></g>
<g style="fill:none; 
stroke:#A90000; stroke-width:0.1524; stroke-opacity:1; 
stroke-linecap:round; stroke-linejoin:round;">
<text x="60.9600" y="44.7040"
textLength="1.4127" font-size="1.6933" lengthAdjust="spacingAndGlyphs"
text-anchor="middle" opacity="0" stroke-opacity="0">2</text>
<g class="stroked-text"><desc>2</desc>
<path d="M60.5972 43.6074
L60.6576 43.5469
" />
<path d="M60.6576 43.5469
L60.7786 43.4864
" />
<path d="M60.7786 43.4864
L61.0810 43.4864
" />
<path d="M61.0810 43.4864
L61.2019 43.5469
" />
<path d="M61.2019 43.5469
L61.2624 43.6074
" />
<path d="M61.2624 43.6074
L61.3229 43.7283
" />
<path d="M61.3229 43.7283
L61.3229 43.8493
" />
<path d="M61.3229 43.8493
L61.2624 44.0307
" />
<path d="M61.2624 44.0307
L60.5367 44.7564
" />
<path d="M60.5367 44.7564
L61.3229 44.7564
" />
</g></g>
<g style="fill:none; 
stroke:#840000; stroke-width:0.1524; stroke-opacity:1; 
stroke-linecap:round; stroke-linejoin:round;">
<path d="M67.3100 45.7200
L67.3100 48.2600
" />
</g>
<g style="fill:none; 
stroke:#006464; stroke-width:0.1524; stroke-opacity:1; 
stroke-linecap:round; stroke-linejoin:round;">
<g transform="rotate(-90.000000 67.0560 46.9900)">
<text x="67.0560" y="46.9900"
textLength="1.4732" font-size="1.6933" lengthAdjust="spacingAndGlyphs"
text-anchor="middle" opacity="0" stroke-opacity="0">D</text>
</g>
<g class="stroked-text"><desc>D</desc>
<path d="M66.8925 47.3226
L65.6225 47.3226
" />
<path d="M65.6225 47.3226
L65.6225 47.0202
" />
<path d="M65.6225 47.0202
L65.6830 46.8388
" />
<path d="M65.6830 46.8388
L65.8040 46.7178
" />
<path d="M65.8040 46.7178
L65.9249 46.6573
" />
<path d="M65.9249 46.6573
L66.1668 46.5969
" />
<path d="M66.1668 46.5969
L66.3482 46.5969
" />
<path d="M66.3482 46.5969
L66.5901 46.6573
" />
<path d="M66.5901 46.6573
L66.7111 46.7178
" />
<path d="M66.7111 46.7178
L66.8321 46.8388
" />
<path d="M66.8321 46.8388
L66.8925 47.0202
" />
<path d="M66.8925 47.0202
L66.8925 47.3226
" />
</g></g>
<g style="fill:none; 
stroke:#A90000; stroke-width:0.1524; stroke-opacity:1; 
stroke-linecap:round; stroke-linejoin:round;">
<g transform="rotate(-90.000000 67.5640 46.9900)">
<text x="67.5640" y="48.2600"
textLength="1.4127" font-size="1.6933" lengthAdjust="spacingAndGlyphs"
text-anchor="middle" opacity="0" stroke-opacity="0">1</text>
</g>
<g class="stroked-text"><desc>1</desc>
<path d="M68.8864 46.6270
L68.8864 47.3527
" />
<path d="M68.8864 46.9899
L67.6164 46.9899
" />
<path d="M67.6164 46.9899
L67.7979 47.1108
" />
<path d="M67.7979 47.1108
L67.9188 47.2318
" />
<path d="M67.9188 47.2318
L67.9793 47.3527
" />
</g></g>
<g style="fill:none; 
stroke:#840000; stroke-width:0.1524; stroke-opacity:1; 
stroke-linecap:round; stroke-linejoin:round;">
<path d="M67.3100 40.6400
L67.3100 38.1000
" />
</g>
<g style="fill:none; 
stroke:#006464; stroke-width:0.1524; stroke-opacity:1; 
stroke-linecap:round; stroke-linejoin:round;">
<g transform="rotate(-90.000000 67.0560 39.3700)">
<text x="67.0560" y="39.3700"
textLength="1.4127" font-size="1.6933" lengthAdjust="spacingAndGlyphs"
text-anchor="middle" opacity="0" stroke-opacity="0">S</text>
</g>
<g class="stroked-text"><desc>S</desc>
<path d="M66.8321 39.7327
L66.8925 39.5513
" />
<path d="M66.8925 39.5513
L66.8925 39.2489
" />
<path d="M66.8925 39.2489
L66.8321 39.1280
" />
<path d="M66.8321 39.1280
L66.7716 39.0675
" />
<path d="M66.7716 39.0675
L66.6506 39.0070
" />
<path d="M66.6506 39.0070
L66.5297 39.0070
" />
<path d="M66.5297 39.0070
L66.4087 39.0675
" />
<path d="M66.4087 39.0675
L66.3482 39.1280
" />
<path d="M66.3482 39.1280
L66.2878 39.2489
" />
<path d="M66.2878 39.2489
L66.2273 39.4908
" />
<path d="M66.2273 39.4908
L66.1668 39.6118
" />
<path d="M66.1668 39.6118
L66.1063 39.6723
" />
<path d="M66.1063 39.6723
L65.9854 39.7327
" />
<path d="M65.9854 39.7327
L65.8644 39.7327
" />
<path d="M65.8644 39.7327
L65.7435 39.6723
" />
<path d="M65.7435 39.6723
L65.6830 39.6118
" />
<path d="M65.6830 39.6118
L65.6225 39.4908
" />
<path d="M65.6225 39.4908
L65.6225 39.1885
" />
<path d="M65.6225 39.1885
L65.6830 39.0070
" />
</g></g>
<g style="fill:none; 
stroke:#A90000; stroke-width:0.1524; stroke-opacity:1; 
stroke-linecap:round; stroke-linejoin:round;">
<g transform="rotate(-90.000000 67.5640 39.3700)">
<text x="67.5640" y="40.6400"
textLength="1.4127" font-size="1.6933" lengthAdjust="spacingAndGlyphs"
text-anchor="middle" opacity="0" stroke-opacity="0">3</text>
</g>
<g class="stroked-text"><desc>3</desc>
<path d="M67.6164 39.7932
L67.6164 39.0070
" />
<path d="M67.6164 39.0070
L68.1002 39.4304
" />
<path d="M68.1002 39.4304
L68.1002 39.2489
" />
<path d="M68.1002 39.2489
L68.1607 39.1280
" />
<path d="M68.1607 39.1280
L68.2212 39.0675
" />
<path d="M68.2212 39.0675
L68.3421 39.0070
" />
<path d="M68.3421 39.0070
L68.6445 39.0070
" />
<path d="M68.6445 39.0070
L68.7655 39.0675
" />
<path d="M68.7655 39.0675
L68.8260 39.1280
" />
<path d="M68.8260 39.1280
L68.8864 39.2489
" />
<path d="M68.8864 39.2489
L68.8864 39.6118
" />
<path d="M68.8864 39.6118
L68.8260 39.7327
" />
<path d="M68.8260 39.7327
L68.7655 39.7932
" />
</g></g>
<g style="fill:none; 
stroke:#006464; stroke-width:0.1524; stroke-opacity:1; 
stroke-linecap:round; stroke-linejoin:round;">
<text x="72.4407" y="42.5448"
textLength="2.6223" font-size="1.6933" lengthAdjust="spacingAndGlyphs"
text-anchor="middle" opacity="0" stroke-opacity="0">Q?</text>
<g class="stroked-text"><desc>Q?</desc>
<path d="M72.3802 42.6103
L72.2592 42.5498
" />
<path d="M72.2592 42.5498
L72.1383 42.4289
" />
<path d="M72.1383 42.4289
L71.9569 42.2474
" />
<path d="M71.9569 42.2474
L71.8359 42.1869
" />
<path d="M71.8359 42.1869
L71.7150 42.1869
" />
<path d="M71.7754 42.4893
L71.6545 42.4289
" />
<path d="M71.6545 42.4289
L71.5335 42.3079
" />
<path d="M71.5335 42.3079
L71.4731 42.0660
" />
<path d="M71.4731 42.0660
L71.4731 41.6427
" />
<path d="M71.4731 41.6427
L71.5335 41.4008
" />
<path d="M71.5335 41.4008
L71.6545 41.2798
" />
<path d="M71.6545 41.2798
L71.7754 41.2193
" />
<path d="M71.7754 41.2193
L72.0173 41.2193
" />
<path d="M72.0173 41.2193
L72.1383 41.2798
" />
<path d="M72.1383 41.2798
L72.2592 41.4008
" />
<path d="M72.2592 41.4008
L72.3197 41.6427
" />
<path d="M72.3197 41.6427
L72.3197 42.0660
" />
<path d="M72.3197 42.0660
L72.2592 42.3079
" />
<path d="M72.2592 42.3079
L72.1383 42.4289
" />
<path d="M72.1383 42.4289
L72.0173 42.4893
" />
<path d="M72.0173 42.4893
L71.7754 42.4893
" />
<path d="M73.0455 42.3684
L73.1059 42.4289
" />
<path d="M73.1059 42.4289
L73.0455 42.4893
" />
<path d="M73.0455 42.4893
L72.9850 42.4289
" />
<path d="M72.9850 42.4289
L73.0455 42.3684
" />
<path d="M73.0455 42.3684
L73.0455 42.4893
" />
<path d="M72.8036 41.2798
L72.9245 41.2193
" />
<path d="M72.9245 41.2193
L73.2269 41.2193
" />
<path d="M73.2269 41.2193
L73.3478 41.2798
" />
<path d="M73.3478 41.2798
L73.4083 41.4008
" />
<path d="M73.4083 41.4008
L73.4083 41.5217
" />
<path d="M73.4083 41.5217
L73.3478 41.6427
" />
<path d="M73.3478 41.6427
L73.2874 41.7031
" />
<path d="M73.2874 41.7031
L73.1664 41.7636
" />
<path d="M73.1664 41.7636
L73.1059 41.8241
" />
<path d="M73.1059 41.8241
L73.0455 41.9450
" />
<path d="M73.0455 41.9450
L73.0455 42.0055
" />
</g><text x="73.8619" y="45.0848"
textLength="5.4646" font-size="1.6933" lengthAdjust="spacingAndGlyphs"
text-anchor="middle" opacity="0" stroke-opacity="0">PMOS</text>
<g class="stroked-text"><desc>PMOS</desc>
<path d="M71.5335 45.0293
L71.5335 43.7593
" />
<path d="M71.5335 43.7593
L72.0173 43.7593
" />
<path d="M72.0173 43.7593
L72.1383 43.8198
" />
<path d="M72.1383 43.8198
L72.1988 43.8803
" />
<path d="M72.1988 43.8803
L72.2592 44.0012
" />
<path d="M72.2592 44.0012
L72.2592 44.1827
" />
<path d="M72.2592 44.1827
L72.1988 44.3036
" />
<path d="M72.1988 44.3036
L72.1383 44.3641
" />
<path d="M72.1383 44.3641
L72.0173 44.4246
" />
<path d="M72.0173 44.4246
L71.5335 44.4246
" />
<path d="M72.8035 45.0293
L72.8035 43.7593
" />
<path d="M72.8035 43.7593
L73.2269 44.6665
" />
<path d="M73.2269 44.6665
L73.6502 43.7593
" />
<path d="M73.6502 43.7593
L73.6502 45.0293
" />
<path d="M74.4968 43.7593
L74.7387 43.7593
" />
<path d="M74.7387 43.7593
L74.8597 43.8198
" />
<path d="M74.8597 43.8198
L74.9806 43.9408
" />
<path d="M74.9806 43.9408
L75.0411 44.1827
" />
<path d="M75.0411 44.1827
L75.0411 44.6060
" />
<path d="M75.0411 44.6060
L74.9806 44.8479
" />
<path d="M74.9806 44.8479
L74.8597 44.9689
" />
<path d="M74.8597 44.9689
L74.7387 45.0293
" />
<path d="M74.7387 45.0293
L74.4968 45.0293
" />
<path d="M74.4968 45.0293
L74.3759 44.9689
" />
<path d="M74.3759 44.9689
L74.2549 44.8479
" />
<path d="M74.2549 44.8479
L74.1945 44.6060
" />
<path d="M74.1945 44.6060
L74.1945 44.1827
" />
<path d="M74.1945 44.1827
L74.2549 43.9408
" />
<path d="M74.2549 43.9408
L74.3759 43.8198
" />
<path d="M74.3759 43.8198
L74.4968 43.7593
" />
<path d="M75.5250 44.9689
L75.7064 45.0293
" />
<path d="M75.7064 45.0293
L76.0088 45.0293
" />
<path d="M76.0088 45.0293
L76.1297 44.9689
" />
<path d="M76.1297 44.9689
L76.1902 44.9084
" />
<path d="M76.1902 44.9084
L76.2507 44.7874
" />
<path d="M76.2507 44.7874
L76.2507 44.6665
" />
<path d="M76.2507 44.6665
L76.1902 44.5455
" />
<path d="M76.1902 44.5455
L76.1297 44.4850
" />
<path d="M76.1297 44.4850
L76.0088 44.4246
" />
<path d="M76.0088 44.4246
L75.7669 44.3641
" />
<path d="M75.7669 44.3641
L75.6459 44.3036
" />
<path d="M75.6459 44.3036
L75.5854 44.2431
" />
<path d="M75.5854 44.2431
L75.5250 44.1222
" />
<path d="M75.5250 44.1222
L75.5250 44.0012
" />
<path d="M75.5250 44.0012
L75.5854 43.8803
" />
<path d="M75.5854 43.8803
L75.6459 43.8198
" />
<path d="M75.6459 43.8198
L75.7669 43.7593
" />
<path d="M75.7669 43.7593
L76.0692 43.7593
" />
<path d="M76.0692 43.7593
L76.2507 43.8198
" />
</g><path style="fill:none; 
stroke:#840000; stroke-width:0.1524; stroke-opacity:1; 
stroke-linecap:round; stroke-linejoin:round;fill:none"
d="M 66.5480,34.2900
67.3100,33.0200
" /> 
<path style="fill:none; 
stroke:#840000; stroke-width:0.1524; stroke-opacity:1; 
stroke-linecap:round; stroke-linejoin:round;fill:none"
d="M 67.3100,33.0200
68.0720,34.2900
" /> 
<path style="fill:none; 
stroke:#840000; stroke-width:0.1524; stroke-opacity:1; 
stroke-linecap:round; stroke-linejoin:round;fill:none"
d="M 67.3100,35.5600
67.3100,33.0200
" /> 
</g>
<g style="fill:none; 
stroke:#840000; stroke-width:0.1524; stroke-opacity:1; 
stroke-linecap:round; stroke-linejoin:round;">
<path d="M67.3100 35.5600
L67.3100 35.5600
" />
</g>
<g style="fill:none; 
stroke:#006464; stroke-width:0.1524; stroke-opacity:1; 
stroke-linecap:round; stroke-linejoin:round;">
<text x="67.3100" y="31.1150"
textLength="3.8318" font-size="1.6933" lengthAdjust="spacingAndGlyphs"
text-anchor="middle" opacity="0" stroke-opacity="0">VCC</text>
<g class="stroked-text"><desc>VCC</desc>
<path d="M65.6166 29.7895
L66.0399 31.0595
" />
<path d="M66.0399 31.0595
L66.4633 29.7895
" />
<path d="M67.6123 30.9386
L67.5519 30.9991
" />
<path d="M67.5519 30.9991
L67.3704 31.0595
" />
<path d="M67.3704 31.0595
L67.2495 31.0595
" />
<path d="M67.2495 31.0595
L67.0681 30.9991
" />
<path d="M67.0681 30.9991
L66.9471 30.8781
" />
<path d="M66.9471 30.8781
L66.8866 30.7571
" />
<path d="M66.8866 30.7571
L66.8262 30.5152
" />
<path d="M66.8262 30.5152
L66.8262 30.3338
" />
<path d="M66.8262 30.3338
L66.8866 30.0919
" />
<path d="M66.8866 30.0919
L66.9471 29.9710
" />
<path d="M66.9471 29.9710
L67.0681 29.8500
" />
<path d="M67.0681 29.8500
L67.2495 29.7895
" />
<path d="M67.2495 29.7895
L67.3704 29.7895
" />
<path d="M67.3704 29.7895
L67.5519 29.8500
" />
<path d="M67.5519 29.8500
L67.6123 29.9105
" />
<path d="M68.8823 30.9386
L68.8219 30.9991
" />
<path d="M68.8219 30.9991
L68.6404 31.0595
" />
<path d="M68.6404 31.0595
L68.5195 31.0595
" />
<path d="M68.5195 31.0595
L68.3381 30.9991
" />
<path d="M68.3381 30.9991
L68.2171 30.8781
" />
<path d="M68.2171 30.8781
L68.1566 30.7571
" />
<path d="M68.1566 30.7571
L68.0962 30.5152
" />
<path d="M68.0962 30.5152
L68.0962 30.3338
" />
<path d="M68.0962 30.3338
L68.1566 30.0919
" />
<path d="M68.1566 30.0919
L68.2171 29.9710
" />
<path d="M68.2171 29.9710
L68.3381 29.8500
" />
<path d="M68.3381 29.8500
L68.5195 29.7895
" />
<path d="M68.5195 29.7895
L68.6404 29.7895
" />
<path d="M68.6404 29.7895
L68.8219 29.8500
" />
<path d="M68.8219 29.8500
L68.8823 29.9105
" />
</g></g>
<g style="fill:none; 
stroke:#725600; stroke-width:0.1524; stroke-opacity:1; 
stroke-linecap:round; stroke-linejoin:round;">
<text x="44.2595" y="56.5150"
textLength="1.4732" font-size="1.6933" lengthAdjust="spacingAndGlyphs"
text-anchor="end" opacity="0" stroke-opacity="0">B</text>
<g class="stroked-text"><desc>B</desc>
<path d="M43.6150 55.7943
L43.7964 55.8548
" />
<path d="M43.7964 55.8548
L43.8569 55.9152
" />
<path d="M43.8569 55.9152
L43.9173 56.0362
" />
<path d="M43.9173 56.0362
L43.9173 56.2176
" />
<path d="M43.9173 56.2176
L43.8569 56.3386
" />
<path d="M43.8569 56.3386
L43.7964 56.3991
" />
<path d="M43.7964 56.3991
L43.6754 56.4595
" />
<path d="M43.6754 56.4595
L43.1916 56.4595
" />
<path d="M43.1916 56.4595
L43.1916 55.1895
" />
<path d="M43.1916 55.1895
L43.6150 55.1895
" />
<path d="M43.6150 55.1895
L43.7359 55.2500
" />
<path d="M43.7359 55.2500
L43.7964 55.3105
" />
<path d="M43.7964 55.3105
L43.8569 55.4314
" />
<path d="M43.8569 55.4314
L43.8569 55.5524
" />
<path d="M43.8569 55.5524
L43.7964 55.6733
" />
<path d="M43.7964 55.6733
L43.7359 55.7338
" />
<path d="M43.7359 55.7338
L43.6150 55.7943
" />
<path d="M43.6150 55.7943
L43.1916 55.7943
" />
</g><path style="fill:none; 
stroke:#725600; stroke-width:0.1524; stroke-opacity:1; 
stroke-linecap:round; stroke-linejoin:round;fill:none"
d="M 45.7200,55.8800
45.0850,55.2450
44.4500,55.2450
44.4500,56.5150
45.0850,56.5150
Z" /> 
</g>
<g style="fill:none; 
stroke:#725600; stroke-width:0.1524; stroke-opacity:1; 
stroke-linecap:round; stroke-linejoin:round;">
<text x="108.1405" y="51.4350"
textLength="1.2918" font-size="1.6933" lengthAdjust="spacingAndGlyphs"
text-anchor="start" opacity="0" stroke-opacity="0">Y</text>
<g class="stroked-text"><desc>Y</desc>
<path d="M108.7849 50.7748
L108.7849 51.3795
" />
<path d="M108.3616 50.1095
L108.7849 50.7748
" />
<path d="M108.7849 50.7748
L109.2083 50.1095
" />
</g><path style="fill:none; 
stroke:#725600; stroke-width:0.1524; stroke-opacity:1; 
stroke-linecap:round; stroke-linejoin:round;fill:none"
d="M 107.9500,50.8000
107.3150,50.1650
106.6800,50.1650
106.6800,51.4350
107.3150,51.4350
Z" /> 
</g>
<g style="fill:none; 
stroke:#725600; stroke-width:0.1524; stroke-opacity:1; 
stroke-linecap:round; stroke-linejoin:round;">
<text x="44.2595" y="43.8150"
textLength="1.2918" font-size="1.6933" lengthAdjust="spacingAndGlyphs"
text-anchor="end" opacity="0" stroke-opacity="0">A</text>
<g class="stroked-text"><desc>A</desc>
<path d="M43.3126 43.3967
L43.9173 43.3967
" />
<path d="M43.1916 43.7595
L43.6149 42.4895
" />
<path d="M43.6149 42.4895
L44.0383 43.7595
" />
</g><path style="fill:none; 
stroke:#725600; stroke-width:0.1524; stroke-opacity:1; 
stroke-linecap:round; stroke-linejoin:round;fill:none"
d="M 45.7200,43.1800
45.0850,42.5450
44.4500,42.5450
44.4500,43.8150
45.0850,43.8150
Z" /> 
</g>
<g style="fill:none; 
stroke:#009600; stroke-width:0.1524; stroke-opacity:1; 
stroke-linecap:round; stroke-linejoin:round;">
<path d="M86.3600 48.2600
L86.3600 50.8000
" />
<path d="M45.7200 55.8800
L68.5800 55.8800
" />
<path d="M45.7200 43.1800
L59.6900 43.1800
" />
<path d="M106.6800 50.8000
L86.3600 50.8000
" />
<path d="M67.3100 50.8000
L76.2000 50.8000
" />
<path d="M67.3100 48.2600
L67.3100 50.8000
" />
<path d="M67.3100 35.5600
L67.3100 38.1000
" />
<path d="M59.6900 43.1800
L59.6900 68.5800
" />
<path d="M68.5800 55.8800
L68.5800 48.2600
" />
<path d="M86.3600 50.8000
L76.2000 50.8000
" />
<path d="M76.2000 74.9300
L76.2000 73.6600
" />
<path d="M76.2000 60.9600
L76.2000 63.5000
" />
<path d="M59.6900 68.5800
L68.5800 68.5800
" />
<path d="M78.7400 43.1800
L78.7400 48.2600
" />
<path d="M68.5800 48.2600
L78.7400 48.2600
" />
</g>
<g style="fill:none; 
stroke:#006464; stroke-width:0.1524; stroke-opacity:1; 
stroke-linecap:round; stroke-linejoin:round;">
<text x="91.4907" y="42.5448"
textLength="2.6223" font-size="1.6933" lengthAdjust="spacingAndGlyphs"
text-anchor="middle" opacity="0" stroke-opacity="0">Q?</text>
<g class="stroked-text"><desc>Q?</desc>
<path d="M91.4302 42.6103
L91.3092 42.5498
" />
<path d="M91.3092 42.5498
L91.1883 42.4289
" />
<path d="M91.1883 42.4289
L91.0069 42.2474
" />
<path d="M91.0069 42.2474
L90.8859 42.1869
" />
<path d="M90.8859 42.1869
L90.7650 42.1869
" />
<path d="M90.8254 42.4893
L90.7045 42.4289
" />
<path d="M90.7045 42.4289
L90.5835 42.3079
" />
<path d="M90.5835 42.3079
L90.5231 42.0660
" />
<path d="M90.5231 42.0660
L90.5231 41.6427
" />
<path d="M90.5231 41.6427
L90.5835 41.4008
" />
<path d="M90.5835 41.4008
L90.7045 41.2798
" />
<path d="M90.7045 41.2798
L90.8254 41.2193
" />
<path d="M90.8254 41.2193
L91.0673 41.2193
" />
<path d="M91.0673 41.2193
L91.1883 41.2798
" />
<path d="M91.1883 41.2798
L91.3092 41.4008
" />
<path d="M91.3092 41.4008
L91.3697 41.6427
" />
<path d="M91.3697 41.6427
L91.3697 42.0660
" />
<path d="M91.3697 42.0660
L91.3092 42.3079
" />
<path d="M91.3092 42.3079
L91.1883 42.4289
" />
<path d="M91.1883 42.4289
L91.0673 42.4893
" />
<path d="M91.0673 42.4893
L90.8254 42.4893
" />
<path d="M92.0955 42.3684
L92.1559 42.4289
" />
<path d="M92.1559 42.4289
L92.0955 42.4893
" />
<path d="M92.0955 42.4893
L92.0350 42.4289
" />
<path d="M92.0350 42.4289
L92.0955 42.3684
" />
<path d="M92.0955 42.3684
L92.0955 42.4893
" />
<path d="M91.8536 41.2798
L91.9745 41.2193
" />
<path d="M91.9745 41.2193
L92.2769 41.2193
" />
<path d="M92.2769 41.2193
L92.3978 41.2798
" />
<path d="M92.3978 41.2798
L92.4583 41.4008
" />
<path d="M92.4583 41.4008
L92.4583 41.5217
" />
<path d="M92.4583 41.5217
L92.3978 41.6427
" />
<path d="M92.3978 41.6427
L92.3374 41.7031
" />
<path d="M92.3374 41.7031
L92.2164 41.7636
" />
<path d="M92.2164 41.7636
L92.1559 41.8241
" />
<path d="M92.1559 41.8241
L92.0955 41.9450
" />
<path d="M92.0955 41.9450
L92.0955 42.0055
" />
</g><text x="92.9119" y="45.0848"
textLength="5.4646" font-size="1.6933" lengthAdjust="spacingAndGlyphs"
text-anchor="middle" opacity="0" stroke-opacity="0">PMOS</text>
<g class="stroked-text"><desc>PMOS</desc>
<path d="M90.5835 45.0293
L90.5835 43.7593
" />
<path d="M90.5835 43.7593
L91.0673 43.7593
" />
<path d="M91.0673 43.7593
L91.1883 43.8198
" />
<path d="M91.1883 43.8198
L91.2488 43.8803
" />
<path d="M91.2488 43.8803
L91.3092 44.0012
" />
<path d="M91.3092 44.0012
L91.3092 44.1827
" />
<path d="M91.3092 44.1827
L91.2488 44.3036
" />
<path d="M91.2488 44.3036
L91.1883 44.3641
" />
<path d="M91.1883 44.3641
L91.0673 44.4246
" />
<path d="M91.0673 44.4246
L90.5835 44.4246
" />
<path d="M91.8535 45.0293
L91.8535 43.7593
" />
<path d="M91.8535 43.7593
L92.2769 44.6665
" />
<path d="M92.2769 44.6665
L92.7002 43.7593
" />
<path d="M92.7002 43.7593
L92.7002 45.0293
" />
<path d="M93.5468 43.7593
L93.7887 43.7593
" />
<path d="M93.7887 43.7593
L93.9097 43.8198
" />
<path d="M93.9097 43.8198
L94.0306 43.9408
" />
<path d="M94.0306 43.9408
L94.0911 44.1827
" />
<path d="M94.0911 44.1827
L94.0911 44.6060
" />
<path d="M94.0911 44.6060
L94.0306 44.8479
" />
<path d="M94.0306 44.8479
L93.9097 44.9689
" />
<path d="M93.9097 44.9689
L93.7887 45.0293
" />
<path d="M93.7887 45.0293
L93.5468 45.0293
" />
<path d="M93.5468 45.0293
L93.4259 44.9689
" />
<path d="M93.4259 44.9689
L93.3049 44.8479
" />
<path d="M93.3049 44.8479
L93.2445 44.6060
" />
<path d="M93.2445 44.6060
L93.2445 44.1827
" />
<path d="M93.2445 44.1827
L93.3049 43.9408
" />
<path d="M93.3049 43.9408
L93.4259 43.8198
" />
<path d="M93.4259 43.8198
L93.5468 43.7593
" />
<path d="M94.5750 44.9689
L94.7564 45.0293
" />
<path d="M94.7564 45.0293
L95.0588 45.0293
" />
<path d="M95.0588 45.0293
L95.1797 44.9689
" />
<path d="M95.1797 44.9689
L95.2402 44.9084
" />
<path d="M95.2402 44.9084
L95.3007 44.7874
" />
<path d="M95.3007 44.7874
L95.3007 44.6665
" />
<path d="M95.3007 44.6665
L95.2402 44.5455
" />
<path d="M95.2402 44.5455
L95.1797 44.4850
" />
<path d="M95.1797 44.4850
L95.0588 44.4246
" />
<path d="M95.0588 44.4246
L94.8169 44.3641
" />
<path d="M94.8169 44.3641
L94.6959 44.3036
" />
<path d="M94.6959 44.3036
L94.6354 44.2431
" />
<path d="M94.6354 44.2431
L94.5750 44.1222
" />
<path d="M94.5750 44.1222
L94.5750 44.0012
" />
<path d="M94.5750 44.0012
L94.6354 43.8803
" />
<path d="M94.6354 43.8803
L94.6959 43.8198
" />
<path d="M94.6959 43.8198
L94.8169 43.7593
" />
<path d="M94.8169 43.7593
L95.1192 43.7593
" />
<path d="M95.1192 43.7593
L95.3007 43.8198
" />
</g></g>
<g style="fill:none; 
stroke:#840000; stroke-width:0.1524; stroke-opacity:1; 
stroke-linecap:round; stroke-linejoin:round;">
<path d="M81.2800 43.1800
L78.7400 43.1800
" />
</g>
<g style="fill:none; 
stroke:#006464; stroke-width:0.1524; stroke-opacity:1; 
stroke-linecap:round; stroke-linejoin:round;">
<text x="80.0100" y="42.9260"
textLength="1.4732" font-size="1.6933" lengthAdjust="spacingAndGlyphs"
text-anchor="middle" opacity="0" stroke-opacity="0">G</text>
<g class="stroked-text"><desc>G</desc>
<path d="M80.3426 41.5530
L80.2216 41.4925
" />
<path d="M80.2216 41.4925
L80.0402 41.4925
" />
<path d="M80.0402 41.4925
L79.8588 41.5530
" />
<path d="M79.8588 41.5530
L79.7378 41.6740
" />
<path d="M79.7378 41.6740
L79.6773 41.7949
" />
<path d="M79.6773 41.7949
L79.6169 42.0368
" />
<path d="M79.6169 42.0368
L79.6169 42.2182
" />
<path d="M79.6169 42.2182
L79.6773 42.4601
" />
<path d="M79.6773 42.4601
L79.7378 42.5811
" />
<path d="M79.7378 42.5811
L79.8588 42.7021
" />
<path d="M79.8588 42.7021
L80.0402 42.7625
" />
<path d="M80.0402 42.7625
L80.1611 42.7625
" />
<path d="M80.1611 42.7625
L80.3426 42.7021
" />
<path d="M80.3426 42.7021
L80.4030 42.6416
" />
<path d="M80.4030 42.6416
L80.4030 42.2182
" />
<path d="M80.4030 42.2182
L80.1611 42.2182
" />
</g></g>
<g style="fill:none; 
stroke:#A90000; stroke-width:0.1524; stroke-opacity:1; 
stroke-linecap:round; stroke-linejoin:round;">
<text x="80.0100" y="44.7040"
textLength="1.4127" font-size="1.6933" lengthAdjust="spacingAndGlyphs"
text-anchor="middle" opacity="0" stroke-opacity="0">2</text>
<g class="stroked-text"><desc>2</desc>
<path d="M79.6472 43.6074
L79.7076 43.5469
" />
<path d="M79.7076 43.5469
L79.8286 43.4864
" />
<path d="M79.8286 43.4864
L80.1310 43.4864
" />
<path d="M80.1310 43.4864
L80.2519 43.5469
" />
<path d="M80.2519 43.5469
L80.3124 43.6074
" />
<path d="M80.3124 43.6074
L80.3729 43.7283
" />
<path d="M80.3729 43.7283
L80.3729 43.8493
" />
<path d="M80.3729 43.8493
L80.3124 44.0307
" />
<path d="M80.3124 44.0307
L79.5867 44.7564
" />
<path d="M79.5867 44.7564
L80.3729 44.7564
" />
</g></g>
<g style="fill:none; 
stroke:#840000; stroke-width:0.1524; stroke-opacity:1; 
stroke-linecap:round; stroke-linejoin:round;">
<path d="M86.3600 45.7200
L86.3600 48.2600
" />
</g>
<g style="fill:none; 
stroke:#006464; stroke-width:0.1524; stroke-opacity:1; 
stroke-linecap:round; stroke-linejoin:round;">
<g transform="rotate(-90.000000 86.1060 46.9900)">
<text x="86.1060" y="46.9900"
textLength="1.4732" font-size="1.6933" lengthAdjust="spacingAndGlyphs"
text-anchor="middle" opacity="0" stroke-opacity="0">D</text>
</g>
<g class="stroked-text"><desc>D</desc>
<path d="M85.9425 47.3226
L84.6725 47.3226
" />
<path d="M84.6725 47.3226
L84.6725 47.0202
" />
<path d="M84.6725 47.0202
L84.7330 46.8388
" />
<path d="M84.7330 46.8388
L84.8540 46.7178
" />
<path d="M84.8540 46.7178
L84.9749 46.6573
" />
<path d="M84.9749 46.6573
L85.2168 46.5969
" />
<path d="M85.2168 46.5969
L85.3982 46.5969
" />
<path d="M85.3982 46.5969
L85.6401 46.6573
" />
<path d="M85.6401 46.6573
L85.7611 46.7178
" />
<path d="M85.7611 46.7178
L85.8821 46.8388
" />
<path d="M85.8821 46.8388
L85.9425 47.0202
" />
<path d="M85.9425 47.0202
L85.9425 47.3226
" />
</g></g>
<g style="fill:none; 
stroke:#A90000; stroke-width:0.1524; stroke-opacity:1; 
stroke-linecap:round; stroke-linejoin:round;">
<g transform="rotate(-90.000000 86.6140 46.9900)">
<text x="86.6140" y="48.2600"
textLength="1.4127" font-size="1.6933" lengthAdjust="spacingAndGlyphs"
text-anchor="middle" opacity="0" stroke-opacity="0">1</text>
</g>
<g class="stroked-text"><desc>1</desc>
<path d="M87.9364 46.6270
L87.9364 47.3527
" />
<path d="M87.9364 46.9899
L86.6664 46.9899
" />
<path d="M86.6664 46.9899
L86.8479 47.1108
" />
<path d="M86.8479 47.1108
L86.9688 47.2318
" />
<path d="M86.9688 47.2318
L87.0293 47.3527
" />
</g></g>
<g style="fill:none; 
stroke:#840000; stroke-width:0.1524; stroke-opacity:1; 
stroke-linecap:round; stroke-linejoin:round;">
<path d="M86.3600 40.6400
L86.3600 38.1000
" />
</g>
<g style="fill:none; 
stroke:#006464; stroke-width:0.1524; stroke-opacity:1; 
stroke-linecap:round; stroke-linejoin:round;">
<g transform="rotate(-90.000000 86.1060 39.3700)">
<text x="86.1060" y="39.3700"
textLength="1.4127" font-size="1.6933" lengthAdjust="spacingAndGlyphs"
text-anchor="middle" opacity="0" stroke-opacity="0">S</text>
</g>
<g class="stroked-text"><desc>S</desc>
<path d="M85.8821 39.7327
L85.9425 39.5513
" />
<path d="M85.9425 39.5513
L85.9425 39.2489
" />
<path d="M85.9425 39.2489
L85.8821 39.1280
" />
<path d="M85.8821 39.1280
L85.8216 39.0675
" />
<path d="M85.8216 39.0675
L85.7006 39.0070
" />
<path d="M85.7006 39.0070
L85.5797 39.0070
" />
<path d="M85.5797 39.0070
L85.4587 39.0675
" />
<path d="M85.4587 39.0675
L85.3982 39.1280
" />
<path d="M85.3982 39.1280
L85.3378 39.2489
" />
<path d="M85.3378 39.2489
L85.2773 39.4908
" />
<path d="M85.2773 39.4908
L85.2168 39.6118
" />
<path d="M85.2168 39.6118
L85.1563 39.6723
" />
<path d="M85.1563 39.6723
L85.0354 39.7327
" />
<path d="M85.0354 39.7327
L84.9144 39.7327
" />
<path d="M84.9144 39.7327
L84.7935 39.6723
" />
<path d="M84.7935 39.6723
L84.7330 39.6118
" />
<path d="M84.7330 39.6118
L84.6725 39.4908
" />
<path d="M84.6725 39.4908
L84.6725 39.1885
" />
<path d="M84.6725 39.1885
L84.7330 39.0070
" />
</g></g>
<g style="fill:none; 
stroke:#A90000; stroke-width:0.1524; stroke-opacity:1; 
stroke-linecap:round; stroke-linejoin:round;">
<g transform="rotate(-90.000000 86.6140 39.3700)">
<text x="86.6140" y="40.6400"
textLength="1.4127" font-size="1.6933" lengthAdjust="spacingAndGlyphs"
text-anchor="middle" opacity="0" stroke-opacity="0">3</text>
</g>
<g class="stroked-text"><desc>3</desc>
<path d="M86.6664 39.7932
L86.6664 39.0070
" />
<path d="M86.6664 39.0070
L87.1502 39.4304
" />
<path d="M87.1502 39.4304
L87.1502 39.2489
" />
<path d="M87.1502 39.2489
L87.2107 39.1280
" />
<path d="M87.2107 39.1280
L87.2712 39.0675
" />
<path d="M87.2712 39.0675
L87.3921 39.0070
" />
<path d="M87.3921 39.0070
L87.6945 39.0070
" />
<path d="M87.6945 39.0070
L87.8155 39.0675
" />
<path d="M87.8155 39.0675
L87.8760 39.1280
" />
<path d="M87.8760 39.1280
L87.9364 39.2489
" />
<path d="M87.9364 39.2489
L87.9364 39.6118
" />
<path d="M87.9364 39.6118
L87.8760 39.7327
" />
<path d="M87.8760 39.7327
L87.8155 39.7932
" />
</g></g>
<g style="fill:none; 
stroke:#006464; stroke-width:0.1524; stroke-opacity:1; 
stroke-linecap:round; stroke-linejoin:round;">
<text x="86.3600" y="33.6550"
textLength="3.8318" font-size="1.6933" lengthAdjust="spacingAndGlyphs"
text-anchor="middle" opacity="0" stroke-opacity="0">VCC</text>
<g class="stroked-text"><desc>VCC</desc>
<path d="M84.6666 32.3295
L85.0899 33.5995
" />
<path d="M85.0899 33.5995
L85.5133 32.3295
" />
<path d="M86.6623 33.4786
L86.6019 33.5391
" />
<path d="M86.6019 33.5391
L86.4204 33.5995
" />
<path d="M86.4204 33.5995
L86.2995 33.5995
" />
<path d="M86.2995 33.5995
L86.1181 33.5391
" />
<path d="M86.1181 33.5391
L85.9971 33.4181
" />
<path d="M85.9971 33.4181
L85.9366 33.2971
" />
<path d="M85.9366 33.2971
L85.8762 33.0552
" />
<path d="M85.8762 33.0552
L85.8762 32.8738
" />
<path d="M85.8762 32.8738
L85.9366 32.6319
" />
<path d="M85.9366 32.6319
L85.9971 32.5110
" />
<path d="M85.9971 32.5110
L86.1181 32.3900
" />
<path d="M86.1181 32.3900
L86.2995 32.3295
" />
<path d="M86.2995 32.3295
L86.4204 32.3295
" />
<path d="M86.4204 32.3295
L86.6019 32.3900
" />
<path d="M86.6019 32.3900
L86.6623 32.4505
" />
<path d="M87.9323 33.4786
L87.8719 33.5391
" />
<path d="M87.8719 33.5391
L87.6904 33.5995
" />
<path d="M87.6904 33.5995
L87.5695 33.5995
" />
<path d="M87.5695 33.5995
L87.3881 33.5391
" />
<path d="M87.3881 33.5391
L87.2671 33.4181
" />
<path d="M87.2671 33.4181
L87.2066 33.2971
" />
<path d="M87.2066 33.2971
L87.1462 33.0552
" />
<path d="M87.1462 33.0552
L87.1462 32.8738
" />
<path d="M87.1462 32.8738
L87.2066 32.6319
" />
<path d="M87.2066 32.6319
L87.2671 32.5110
" />
<path d="M87.2671 32.5110
L87.3881 32.3900
" />
<path d="M87.3881 32.3900
L87.5695 32.3295
" />
<path d="M87.5695 32.3295
L87.6904 32.3295
" />
<path d="M87.6904 32.3295
L87.8719 32.3900
" />
<path d="M87.8719 32.3900
L87.9323 32.4505
" />
</g></g>
<g style="fill:none; 
stroke:#840000; stroke-width:0.1524; stroke-opacity:1; 
stroke-linecap:round; stroke-linejoin:round;">
<path d="M86.3600 38.1000
L86.3600 38.1000
" />
</g>
<g style="fill:#009600; fill-opacity:1.0000; 
stroke:#009600; stroke-width:0.1524; stroke-opacity:1; 
stroke-linecap:round; stroke-linejoin:round;">
<circle cx="76.2000" cy="50.8000" r="0.4572" /> 
<circle cx="68.5800" cy="55.8800" r="0.4572" /> 
<circle cx="86.3600" cy="50.8000" r="0.4572" /> 
<circle cx="59.6900" cy="43.1800" r="0.4572" /> 
</g> 
</svg>
