<?xml version="1.0" standalone="no"?>
 <!DOCTYPE svg PUBLIC "-//W3C//DTD SVG 1.1//EN" 
 "http://www.w3.org/Graphics/SVG/1.1/DTD/svg11.dtd"> 
<svg
  xmlns:svg="http://www.w3.org/2000/svg"
  xmlns="http://www.w3.org/2000/svg"
  xmlns:xlink="http://www.w3.org/1999/xlink"
  version="1.1"
  width="210.0072mm" height="148.0058mm" viewBox="0.0000 0.0000 210.0072 148.0058">
<title>SVG Image created as gate_xor_2in_1bit_ic_2.svg date 2026/01/14 20:06:03 </title>
  <desc>Image generated by Eeschema-SVG </desc>
<g style="fill:#000000; fill-opacity:1.0000;stroke:#000000; stroke-opacity:1.0000;
stroke-linecap:round; stroke-linejoin:round;"
 transform="translate(0 0) scale(1 1)">
</g>
<g style="fill:none; 
stroke:#840000; stroke-width:0.1524; stroke-opacity:1; 
stroke-linecap:round; stroke-linejoin:round;">
<path d="M90.0072 104.0058
L198.0072 104.0058
L198.0072 136.0058
L90.0072 136.0058
L90.0072 104.0058
" />
<path d="M10.0000 10.0000
L200.0072 10.0000
L200.0072 138.0058
L10.0000 138.0058
L10.0000 10.0000
" />
<path d="M12.0000 12.0000
L198.0072 12.0000
L198.0072 136.0058
L12.0000 136.0058
L12.0000 12.0000
" />
<path d="M60.0000 12.0000
L60.0000 10.0000
" />
<path d="M110.0000 12.0000
L110.0000 10.0000
" />
<path d="M160.0000 12.0000
L160.0000 10.0000
" />
<text x="35.0000" y="11.6500"
textLength="1.4353" font-size="1.7333" lengthAdjust="spacingAndGlyphs"
text-anchor="start" opacity="0" stroke-opacity="0">1</text>
<g class="stroked-text"><desc>1</desc>
<path d="M36.0906 11.5935
L35.3478 11.5935
" />
<path d="M35.7192 11.5935
L35.7192 10.2935
" />
<path d="M35.7192 10.2935
L35.5954 10.4792
" />
<path d="M35.5954 10.4792
L35.4716 10.6030
" />
<path d="M35.4716 10.6030
L35.3478 10.6649
" />
</g><text x="85.0000" y="11.6500"
textLength="1.4353" font-size="1.7333" lengthAdjust="spacingAndGlyphs"
text-anchor="start" opacity="0" stroke-opacity="0">2</text>
<g class="stroked-text"><desc>2</desc>
<path d="M85.3478 10.4173
L85.4097 10.3554
" />
<path d="M85.4097 10.3554
L85.5335 10.2935
" />
<path d="M85.5335 10.2935
L85.8430 10.2935
" />
<path d="M85.8430 10.2935
L85.9668 10.3554
" />
<path d="M85.9668 10.3554
L86.0287 10.4173
" />
<path d="M86.0287 10.4173
L86.0906 10.5411
" />
<path d="M86.0906 10.5411
L86.0906 10.6649
" />
<path d="M86.0906 10.6649
L86.0287 10.8506
" />
<path d="M86.0287 10.8506
L85.2859 11.5935
" />
<path d="M85.2859 11.5935
L86.0906 11.5935
" />
</g><text x="135.0000" y="11.6500"
textLength="1.4353" font-size="1.7333" lengthAdjust="spacingAndGlyphs"
text-anchor="start" opacity="0" stroke-opacity="0">3</text>
<g class="stroked-text"><desc>3</desc>
<path d="M135.2859 10.2935
L136.0906 10.2935
" />
<path d="M136.0906 10.2935
L135.6573 10.7887
" />
<path d="M135.6573 10.7887
L135.8430 10.7887
" />
<path d="M135.8430 10.7887
L135.9668 10.8506
" />
<path d="M135.9668 10.8506
L136.0287 10.9125
" />
<path d="M136.0287 10.9125
L136.0906 11.0363
" />
<path d="M136.0906 11.0363
L136.0906 11.3458
" />
<path d="M136.0906 11.3458
L136.0287 11.4696
" />
<path d="M136.0287 11.4696
L135.9668 11.5316
" />
<path d="M135.9668 11.5316
L135.8430 11.5935
" />
<path d="M135.8430 11.5935
L135.4716 11.5935
" />
<path d="M135.4716 11.5935
L135.3478 11.5316
" />
<path d="M135.3478 11.5316
L135.2859 11.4696
" />
</g><text x="185.0000" y="11.6500"
textLength="1.4353" font-size="1.7333" lengthAdjust="spacingAndGlyphs"
text-anchor="start" opacity="0" stroke-opacity="0">4</text>
<g class="stroked-text"><desc>4</desc>
<path d="M185.9668 10.7268
L185.9668 11.5935
" />
<path d="M185.6573 10.2316
L185.3478 11.1601
" />
<path d="M185.3478 11.1601
L186.1525 11.1601
" />
</g><path d="M60.0000 136.0058
L60.0000 138.0058
" />
<path d="M110.0000 136.0058
L110.0000 138.0058
" />
<path d="M160.0000 136.0058
L160.0000 138.0058
" />
<text x="35.0000" y="137.6558"
textLength="1.4353" font-size="1.7333" lengthAdjust="spacingAndGlyphs"
text-anchor="start" opacity="0" stroke-opacity="0">1</text>
<g class="stroked-text"><desc>1</desc>
<path d="M36.0906 137.5993
L35.3478 137.5993
" />
<path d="M35.7192 137.5993
L35.7192 136.2993
" />
<path d="M35.7192 136.2993
L35.5954 136.4850
" />
<path d="M35.5954 136.4850
L35.4716 136.6088
" />
<path d="M35.4716 136.6088
L35.3478 136.6707
" />
</g><text x="85.0000" y="137.6558"
textLength="1.4353" font-size="1.7333" lengthAdjust="spacingAndGlyphs"
text-anchor="start" opacity="0" stroke-opacity="0">2</text>
<g class="stroked-text"><desc>2</desc>
<path d="M85.3478 136.4231
L85.4097 136.3612
" />
<path d="M85.4097 136.3612
L85.5335 136.2993
" />
<path d="M85.5335 136.2993
L85.8430 136.2993
" />
<path d="M85.8430 136.2993
L85.9668 136.3612
" />
<path d="M85.9668 136.3612
L86.0287 136.4231
" />
<path d="M86.0287 136.4231
L86.0906 136.5469
" />
<path d="M86.0906 136.5469
L86.0906 136.6707
" />
<path d="M86.0906 136.6707
L86.0287 136.8564
" />
<path d="M86.0287 136.8564
L85.2859 137.5993
" />
<path d="M85.2859 137.5993
L86.0906 137.5993
" />
</g><text x="135.0000" y="137.6558"
textLength="1.4353" font-size="1.7333" lengthAdjust="spacingAndGlyphs"
text-anchor="start" opacity="0" stroke-opacity="0">3</text>
<g class="stroked-text"><desc>3</desc>
<path d="M135.2859 136.2993
L136.0906 136.2993
" />
<path d="M136.0906 136.2993
L135.6573 136.7945
" />
<path d="M135.6573 136.7945
L135.8430 136.7945
" />
<path d="M135.8430 136.7945
L135.9668 136.8564
" />
<path d="M135.9668 136.8564
L136.0287 136.9183
" />
<path d="M136.0287 136.9183
L136.0906 137.0421
" />
<path d="M136.0906 137.0421
L136.0906 137.3516
" />
<path d="M136.0906 137.3516
L136.0287 137.4754
" />
<path d="M136.0287 137.4754
L135.9668 137.5374
" />
<path d="M135.9668 137.5374
L135.8430 137.5993
" />
<path d="M135.8430 137.5993
L135.4716 137.5993
" />
<path d="M135.4716 137.5993
L135.3478 137.5374
" />
<path d="M135.3478 137.5374
L135.2859 137.4754
" />
</g><text x="185.0000" y="137.6558"
textLength="1.4353" font-size="1.7333" lengthAdjust="spacingAndGlyphs"
text-anchor="start" opacity="0" stroke-opacity="0">4</text>
<g class="stroked-text"><desc>4</desc>
<path d="M185.9668 136.7326
L185.9668 137.5993
" />
<path d="M185.6573 136.2374
L185.3478 137.1659
" />
<path d="M185.3478 137.1659
L186.1525 137.1659
" />
</g><path d="M10.0000 60.0000
L12.0000 60.0000
" />
<path d="M10.0000 110.0000
L12.0000 110.0000
" />
<text x="11.0000" y="35.6500"
textLength="1.3115" font-size="1.7333" lengthAdjust="spacingAndGlyphs"
text-anchor="middle" opacity="0" stroke-opacity="0">A</text>
<g class="stroked-text"><desc>A</desc>
<path d="M10.6905 35.2220
L11.3095 35.2220
" />
<path d="M10.5667 35.5935
L11.0000 34.2935
" />
<path d="M11.0000 34.2935
L11.4333 35.5935
" />
</g><text x="11.0000" y="85.6500"
textLength="1.4972" font-size="1.7333" lengthAdjust="spacingAndGlyphs"
text-anchor="middle" opacity="0" stroke-opacity="0">B</text>
<g class="stroked-text"><desc>B</desc>
<path d="M11.0928 84.9125
L11.2785 84.9744
" />
<path d="M11.2785 84.9744
L11.3404 85.0363
" />
<path d="M11.3404 85.0363
L11.4023 85.1601
" />
<path d="M11.4023 85.1601
L11.4023 85.3458
" />
<path d="M11.4023 85.3458
L11.3404 85.4696
" />
<path d="M11.3404 85.4696
L11.2785 85.5316
" />
<path d="M11.2785 85.5316
L11.1547 85.5935
" />
<path d="M11.1547 85.5935
L10.6595 85.5935
" />
<path d="M10.6595 85.5935
L10.6595 84.2935
" />
<path d="M10.6595 84.2935
L11.0928 84.2935
" />
<path d="M11.0928 84.2935
L11.2166 84.3554
" />
<path d="M11.2166 84.3554
L11.2785 84.4173
" />
<path d="M11.2785 84.4173
L11.3404 84.5411
" />
<path d="M11.3404 84.5411
L11.3404 84.6649
" />
<path d="M11.3404 84.6649
L11.2785 84.7887
" />
<path d="M11.2785 84.7887
L11.2166 84.8506
" />
<path d="M11.2166 84.8506
L11.0928 84.9125
" />
<path d="M11.0928 84.9125
L10.6595 84.9125
" />
</g><text x="11.0000" y="135.6500"
textLength="1.4972" font-size="1.7333" lengthAdjust="spacingAndGlyphs"
text-anchor="middle" opacity="0" stroke-opacity="0">C</text>
<g class="stroked-text"><desc>C</desc>
<path d="M11.4023 135.4696
L11.3404 135.5316
" />
<path d="M11.3404 135.5316
L11.1547 135.5935
" />
<path d="M11.1547 135.5935
L11.0309 135.5935
" />
<path d="M11.0309 135.5935
L10.8452 135.5316
" />
<path d="M10.8452 135.5316
L10.7214 135.4077
" />
<path d="M10.7214 135.4077
L10.6595 135.2839
" />
<path d="M10.6595 135.2839
L10.5976 135.0363
" />
<path d="M10.5976 135.0363
L10.5976 134.8506
" />
<path d="M10.5976 134.8506
L10.6595 134.6030
" />
<path d="M10.6595 134.6030
L10.7214 134.4792
" />
<path d="M10.7214 134.4792
L10.8452 134.3554
" />
<path d="M10.8452 134.3554
L11.0309 134.2935
" />
<path d="M11.0309 134.2935
L11.1547 134.2935
" />
<path d="M11.1547 134.2935
L11.3404 134.3554
" />
<path d="M11.3404 134.3554
L11.4023 134.4173
" />
</g><path d="M200.0072 60.0000
L198.0072 60.0000
" />
<path d="M200.0072 110.0000
L198.0072 110.0000
" />
<text x="199.0072" y="35.6500"
textLength="1.3115" font-size="1.7333" lengthAdjust="spacingAndGlyphs"
text-anchor="middle" opacity="0" stroke-opacity="0">A</text>
<g class="stroked-text"><desc>A</desc>
<path d="M198.6977 35.2220
L199.3167 35.2220
" />
<path d="M198.5739 35.5935
L199.0072 34.2935
" />
<path d="M199.0072 34.2935
L199.4405 35.5935
" />
</g><text x="199.0072" y="85.6500"
textLength="1.4972" font-size="1.7333" lengthAdjust="spacingAndGlyphs"
text-anchor="middle" opacity="0" stroke-opacity="0">B</text>
<g class="stroked-text"><desc>B</desc>
<path d="M199.1000 84.9125
L199.2857 84.9744
" />
<path d="M199.2857 84.9744
L199.3476 85.0363
" />
<path d="M199.3476 85.0363
L199.4095 85.1601
" />
<path d="M199.4095 85.1601
L199.4095 85.3458
" />
<path d="M199.4095 85.3458
L199.3476 85.4696
" />
<path d="M199.3476 85.4696
L199.2857 85.5316
" />
<path d="M199.2857 85.5316
L199.1619 85.5935
" />
<path d="M199.1619 85.5935
L198.6667 85.5935
" />
<path d="M198.6667 85.5935
L198.6667 84.2935
" />
<path d="M198.6667 84.2935
L199.1000 84.2935
" />
<path d="M199.1000 84.2935
L199.2238 84.3554
" />
<path d="M199.2238 84.3554
L199.2857 84.4173
" />
<path d="M199.2857 84.4173
L199.3476 84.5411
" />
<path d="M199.3476 84.5411
L199.3476 84.6649
" />
<path d="M199.3476 84.6649
L199.2857 84.7887
" />
<path d="M199.2857 84.7887
L199.2238 84.8506
" />
<path d="M199.2238 84.8506
L199.1000 84.9125
" />
<path d="M199.1000 84.9125
L198.6667 84.9125
" />
</g><text x="199.0072" y="135.6500"
textLength="1.4972" font-size="1.7333" lengthAdjust="spacingAndGlyphs"
text-anchor="middle" opacity="0" stroke-opacity="0">C</text>
<g class="stroked-text"><desc>C</desc>
<path d="M199.4095 135.4696
L199.3476 135.5316
" />
<path d="M199.3476 135.5316
L199.1619 135.5935
" />
<path d="M199.1619 135.5935
L199.0381 135.5935
" />
<path d="M199.0381 135.5935
L198.8524 135.5316
" />
<path d="M198.8524 135.5316
L198.7286 135.4077
" />
<path d="M198.7286 135.4077
L198.6667 135.2839
" />
<path d="M198.6667 135.2839
L198.6048 135.0363
" />
<path d="M198.6048 135.0363
L198.6048 134.8506
" />
<path d="M198.6048 134.8506
L198.6667 134.6030
" />
<path d="M198.6667 134.6030
L198.7286 134.4792
" />
<path d="M198.7286 134.4792
L198.8524 134.3554
" />
<path d="M198.8524 134.3554
L199.0381 134.2935
" />
<path d="M199.0381 134.2935
L199.1619 134.2935
" />
<path d="M199.1619 134.2935
L199.3476 134.3554
" />
<path d="M199.3476 134.3554
L199.4095 134.4173
" />
</g><text x="113.0072" y="131.8558"
textLength="7.0143" font-size="2.0000" lengthAdjust="spacingAndGlyphs"
text-anchor="start" opacity="0" stroke-opacity="0">Date: </text>
<g class="stroked-text"><desc>Date: </desc>
<path d="M113.4645 131.7917
L113.4645 130.2917
" />
<path d="M113.4645 130.2917
L113.8216 130.2917
" />
<path d="M113.8216 130.2917
L114.0359 130.3631
" />
<path d="M114.0359 130.3631
L114.1788 130.5060
" />
<path d="M114.1788 130.5060
L114.2502 130.6488
" />
<path d="M114.2502 130.6488
L114.3216 130.9345
" />
<path d="M114.3216 130.9345
L114.3216 131.1488
" />
<path d="M114.3216 131.1488
L114.2502 131.4345
" />
<path d="M114.2502 131.4345
L114.1788 131.5774
" />
<path d="M114.1788 131.5774
L114.0359 131.7203
" />
<path d="M114.0359 131.7203
L113.8216 131.7917
" />
<path d="M113.8216 131.7917
L113.4645 131.7917
" />
<path d="M115.6074 131.7917
L115.6074 131.0060
" />
<path d="M115.6074 131.0060
L115.5359 130.8631
" />
<path d="M115.5359 130.8631
L115.3931 130.7917
" />
<path d="M115.3931 130.7917
L115.1074 130.7917
" />
<path d="M115.1074 130.7917
L114.9645 130.8631
" />
<path d="M115.6074 131.7203
L115.4645 131.7917
" />
<path d="M115.4645 131.7917
L115.1074 131.7917
" />
<path d="M115.1074 131.7917
L114.9645 131.7203
" />
<path d="M114.9645 131.7203
L114.8931 131.5774
" />
<path d="M114.8931 131.5774
L114.8931 131.4345
" />
<path d="M114.8931 131.4345
L114.9645 131.2917
" />
<path d="M114.9645 131.2917
L115.1074 131.2203
" />
<path d="M115.1074 131.2203
L115.4645 131.2203
" />
<path d="M115.4645 131.2203
L115.6074 131.1488
" />
<path d="M116.1073 130.7917
L116.6787 130.7917
" />
<path d="M116.3216 130.2917
L116.3216 131.5774
" />
<path d="M116.3216 131.5774
L116.3930 131.7203
" />
<path d="M116.3930 131.7203
L116.5359 131.7917
" />
<path d="M116.5359 131.7917
L116.6787 131.7917
" />
<path d="M117.7501 131.7203
L117.6073 131.7917
" />
<path d="M117.6073 131.7917
L117.3216 131.7917
" />
<path d="M117.3216 131.7917
L117.1787 131.7203
" />
<path d="M117.1787 131.7203
L117.1073 131.5774
" />
<path d="M117.1073 131.5774
L117.1073 131.0060
" />
<path d="M117.1073 131.0060
L117.1787 130.8631
" />
<path d="M117.1787 130.8631
L117.3216 130.7917
" />
<path d="M117.3216 130.7917
L117.6073 130.7917
" />
<path d="M117.6073 130.7917
L117.7501 130.8631
" />
<path d="M117.7501 130.8631
L117.8216 131.0060
" />
<path d="M117.8216 131.0060
L117.8216 131.1488
" />
<path d="M117.8216 131.1488
L117.1073 131.2917
" />
<path d="M118.4644 131.6488
L118.5358 131.7203
" />
<path d="M118.5358 131.7203
L118.4644 131.7917
" />
<path d="M118.4644 131.7917
L118.3930 131.7203
" />
<path d="M118.3930 131.7203
L118.4644 131.6488
" />
<path d="M118.4644 131.6488
L118.4644 131.7917
" />
<path d="M118.4644 130.8631
L118.5358 130.9345
" />
<path d="M118.5358 130.9345
L118.4644 131.0060
" />
<path d="M118.4644 131.0060
L118.3930 130.9345
" />
<path d="M118.3930 130.9345
L118.4644 130.8631
" />
<path d="M118.4644 130.8631
L118.4644 131.0060
" />
</g><path d="M90.0072 132.5058
L198.0072 132.5058
" />
<text x="91.0072" y="134.6558"
textLength="20.8716" font-size="2.0000" lengthAdjust="spacingAndGlyphs"
text-anchor="start" opacity="0" stroke-opacity="0">KiCad E.D.A. 9.0.6</text>
<g class="stroked-text"><desc>KiCad E.D.A. 9.0.6</desc>
<path d="M91.4645 134.5917
L91.4645 133.0917
" />
<path d="M92.3216 134.5917
L91.6788 133.7345
" />
<path d="M92.3216 133.0917
L91.4645 133.9488
" />
<path d="M92.9645 134.5917
L92.9645 133.5917
" />
<path d="M92.9645 133.0917
L92.8931 133.1631
" />
<path d="M92.8931 133.1631
L92.9645 133.2345
" />
<path d="M92.9645 133.2345
L93.0359 133.1631
" />
<path d="M93.0359 133.1631
L92.9645 133.0917
" />
<path d="M92.9645 133.0917
L92.9645 133.2345
" />
<path d="M94.5359 134.4488
L94.4645 134.5203
" />
<path d="M94.4645 134.5203
L94.2502 134.5917
" />
<path d="M94.2502 134.5917
L94.1074 134.5917
" />
<path d="M94.1074 134.5917
L93.8931 134.5203
" />
<path d="M93.8931 134.5203
L93.7502 134.3774
" />
<path d="M93.7502 134.3774
L93.6788 134.2345
" />
<path d="M93.6788 134.2345
L93.6074 133.9488
" />
<path d="M93.6074 133.9488
L93.6074 133.7345
" />
<path d="M93.6074 133.7345
L93.6788 133.4488
" />
<path d="M93.6788 133.4488
L93.7502 133.3060
" />
<path d="M93.7502 133.3060
L93.8931 133.1631
" />
<path d="M93.8931 133.1631
L94.1074 133.0917
" />
<path d="M94.1074 133.0917
L94.2502 133.0917
" />
<path d="M94.2502 133.0917
L94.4645 133.1631
" />
<path d="M94.4645 133.1631
L94.5359 133.2345
" />
<path d="M95.8217 134.5917
L95.8217 133.8060
" />
<path d="M95.8217 133.8060
L95.7502 133.6631
" />
<path d="M95.7502 133.6631
L95.6074 133.5917
" />
<path d="M95.6074 133.5917
L95.3217 133.5917
" />
<path d="M95.3217 133.5917
L95.1788 133.6631
" />
<path d="M95.8217 134.5203
L95.6788 134.5917
" />
<path d="M95.6788 134.5917
L95.3217 134.5917
" />
<path d="M95.3217 134.5917
L95.1788 134.5203
" />
<path d="M95.1788 134.5203
L95.1074 134.3774
" />
<path d="M95.1074 134.3774
L95.1074 134.2345
" />
<path d="M95.1074 134.2345
L95.1788 134.0917
" />
<path d="M95.1788 134.0917
L95.3217 134.0203
" />
<path d="M95.3217 134.0203
L95.6788 134.0203
" />
<path d="M95.6788 134.0203
L95.8217 133.9488
" />
<path d="M97.1788 134.5917
L97.1788 133.0917
" />
<path d="M97.1788 134.5203
L97.0359 134.5917
" />
<path d="M97.0359 134.5917
L96.7502 134.5917
" />
<path d="M96.7502 134.5917
L96.6073 134.5203
" />
<path d="M96.6073 134.5203
L96.5359 134.4488
" />
<path d="M96.5359 134.4488
L96.4645 134.3060
" />
<path d="M96.4645 134.3060
L96.4645 133.8774
" />
<path d="M96.4645 133.8774
L96.5359 133.7345
" />
<path d="M96.5359 133.7345
L96.6073 133.6631
" />
<path d="M96.6073 133.6631
L96.7502 133.5917
" />
<path d="M96.7502 133.5917
L97.0359 133.5917
" />
<path d="M97.0359 133.5917
L97.1788 133.6631
" />
<path d="M99.0359 133.8060
L99.5359 133.8060
" />
<path d="M99.7502 134.5917
L99.0359 134.5917
" />
<path d="M99.0359 134.5917
L99.0359 133.0917
" />
<path d="M99.0359 133.0917
L99.7502 133.0917
" />
<path d="M100.3930 134.4488
L100.4644 134.5203
" />
<path d="M100.4644 134.5203
L100.3930 134.5917
" />
<path d="M100.3930 134.5917
L100.3216 134.5203
" />
<path d="M100.3216 134.5203
L100.3930 134.4488
" />
<path d="M100.3930 134.4488
L100.3930 134.5917
" />
<path d="M101.1073 134.5917
L101.1073 133.0917
" />
<path d="M101.1073 133.0917
L101.4644 133.0917
" />
<path d="M101.4644 133.0917
L101.6787 133.1631
" />
<path d="M101.6787 133.1631
L101.8216 133.3060
" />
<path d="M101.8216 133.3060
L101.8930 133.4488
" />
<path d="M101.8930 133.4488
L101.9644 133.7345
" />
<path d="M101.9644 133.7345
L101.9644 133.9488
" />
<path d="M101.9644 133.9488
L101.8930 134.2345
" />
<path d="M101.8930 134.2345
L101.8216 134.3774
" />
<path d="M101.8216 134.3774
L101.6787 134.5203
" />
<path d="M101.6787 134.5203
L101.4644 134.5917
" />
<path d="M101.4644 134.5917
L101.1073 134.5917
" />
<path d="M102.6073 134.4488
L102.6787 134.5203
" />
<path d="M102.6787 134.5203
L102.6073 134.5917
" />
<path d="M102.6073 134.5917
L102.5359 134.5203
" />
<path d="M102.5359 134.5203
L102.6073 134.4488
" />
<path d="M102.6073 134.4488
L102.6073 134.5917
" />
<path d="M103.2502 134.1631
L103.9645 134.1631
" />
<path d="M103.1073 134.5917
L103.6073 133.0917
" />
<path d="M103.6073 133.0917
L104.1073 134.5917
" />
<path d="M104.6073 134.4488
L104.6787 134.5203
" />
<path d="M104.6787 134.5203
L104.6073 134.5917
" />
<path d="M104.6073 134.5917
L104.5359 134.5203
" />
<path d="M104.5359 134.5203
L104.6073 134.4488
" />
<path d="M104.6073 134.4488
L104.6073 134.5917
" />
<path d="M106.5359 134.5917
L106.8216 134.5917
" />
<path d="M106.8216 134.5917
L106.9645 134.5203
" />
<path d="M106.9645 134.5203
L107.0359 134.4488
" />
<path d="M107.0359 134.4488
L107.1788 134.2345
" />
<path d="M107.1788 134.2345
L107.2502 133.9488
" />
<path d="M107.2502 133.9488
L107.2502 133.3774
" />
<path d="M107.2502 133.3774
L107.1788 133.2345
" />
<path d="M107.1788 133.2345
L107.1074 133.1631
" />
<path d="M107.1074 133.1631
L106.9645 133.0917
" />
<path d="M106.9645 133.0917
L106.6788 133.0917
" />
<path d="M106.6788 133.0917
L106.5359 133.1631
" />
<path d="M106.5359 133.1631
L106.4645 133.2345
" />
<path d="M106.4645 133.2345
L106.3931 133.3774
" />
<path d="M106.3931 133.3774
L106.3931 133.7345
" />
<path d="M106.3931 133.7345
L106.4645 133.8774
" />
<path d="M106.4645 133.8774
L106.5359 133.9488
" />
<path d="M106.5359 133.9488
L106.6788 134.0203
" />
<path d="M106.6788 134.0203
L106.9645 134.0203
" />
<path d="M106.9645 134.0203
L107.1074 133.9488
" />
<path d="M107.1074 133.9488
L107.1788 133.8774
" />
<path d="M107.1788 133.8774
L107.2502 133.7345
" />
<path d="M107.8931 134.4488
L107.9645 134.5203
" />
<path d="M107.9645 134.5203
L107.8931 134.5917
" />
<path d="M107.8931 134.5917
L107.8217 134.5203
" />
<path d="M107.8217 134.5203
L107.8931 134.4488
" />
<path d="M107.8931 134.4488
L107.8931 134.5917
" />
<path d="M108.8931 133.0917
L109.0360 133.0917
" />
<path d="M109.0360 133.0917
L109.1788 133.1631
" />
<path d="M109.1788 133.1631
L109.2503 133.2345
" />
<path d="M109.2503 133.2345
L109.3217 133.3774
" />
<path d="M109.3217 133.3774
L109.3931 133.6631
" />
<path d="M109.3931 133.6631
L109.3931 134.0203
" />
<path d="M109.3931 134.0203
L109.3217 134.3060
" />
<path d="M109.3217 134.3060
L109.2503 134.4488
" />
<path d="M109.2503 134.4488
L109.1788 134.5203
" />
<path d="M109.1788 134.5203
L109.0360 134.5917
" />
<path d="M109.0360 134.5917
L108.8931 134.5917
" />
<path d="M108.8931 134.5917
L108.7503 134.5203
" />
<path d="M108.7503 134.5203
L108.6788 134.4488
" />
<path d="M108.6788 134.4488
L108.6074 134.3060
" />
<path d="M108.6074 134.3060
L108.5360 134.0203
" />
<path d="M108.5360 134.0203
L108.5360 133.6631
" />
<path d="M108.5360 133.6631
L108.6074 133.3774
" />
<path d="M108.6074 133.3774
L108.6788 133.2345
" />
<path d="M108.6788 133.2345
L108.7503 133.1631
" />
<path d="M108.7503 133.1631
L108.8931 133.0917
" />
<path d="M110.0360 134.4488
L110.1074 134.5203
" />
<path d="M110.1074 134.5203
L110.0360 134.5917
" />
<path d="M110.0360 134.5917
L109.9646 134.5203
" />
<path d="M109.9646 134.5203
L110.0360 134.4488
" />
<path d="M110.0360 134.4488
L110.0360 134.5917
" />
<path d="M111.3932 133.0917
L111.1074 133.0917
" />
<path d="M111.1074 133.0917
L110.9646 133.1631
" />
<path d="M110.9646 133.1631
L110.8932 133.2345
" />
<path d="M110.8932 133.2345
L110.7503 133.4488
" />
<path d="M110.7503 133.4488
L110.6789 133.7345
" />
<path d="M110.6789 133.7345
L110.6789 134.3060
" />
<path d="M110.6789 134.3060
L110.7503 134.4488
" />
<path d="M110.7503 134.4488
L110.8217 134.5203
" />
<path d="M110.8217 134.5203
L110.9646 134.5917
" />
<path d="M110.9646 134.5917
L111.2503 134.5917
" />
<path d="M111.2503 134.5917
L111.3932 134.5203
" />
<path d="M111.3932 134.5203
L111.4646 134.4488
" />
<path d="M111.4646 134.4488
L111.5360 134.3060
" />
<path d="M111.5360 134.3060
L111.5360 133.9488
" />
<path d="M111.5360 133.9488
L111.4646 133.8060
" />
<path d="M111.4646 133.8060
L111.3932 133.7345
" />
<path d="M111.3932 133.7345
L111.2503 133.6631
" />
<path d="M111.2503 133.6631
L110.9646 133.6631
" />
<path d="M110.9646 133.6631
L110.8217 133.7345
" />
<path d="M110.8217 133.7345
L110.7503 133.8060
" />
<path d="M110.7503 133.8060
L110.6789 133.9488
" />
</g><path d="M90.0072 129.5058
L198.0072 129.5058
" />
</g>
<g style="fill:none; 
stroke:#840000; stroke-width:0.3000; stroke-opacity:1; 
stroke-linecap:round; stroke-linejoin:round;">
<text x="176.0072" y="131.8558"
textLength="6.3858" font-size="2.0000" lengthAdjust="spacingAndGlyphs"
text-anchor="start" opacity="0" stroke-opacity="0">Rev: </text>
<g class="stroked-text"><desc>Rev: </desc>
<path d="M177.4187 131.7841
L176.9187 131.0698
" />
<path d="M176.5616 131.7841
L176.5616 130.2841
" />
<path d="M176.5616 130.2841
L177.1330 130.2841
" />
<path d="M177.1330 130.2841
L177.2759 130.3555
" />
<path d="M177.2759 130.3555
L177.3473 130.4269
" />
<path d="M177.3473 130.4269
L177.4187 130.5698
" />
<path d="M177.4187 130.5698
L177.4187 130.7841
" />
<path d="M177.4187 130.7841
L177.3473 130.9269
" />
<path d="M177.3473 130.9269
L177.2759 130.9984
" />
<path d="M177.2759 130.9984
L177.1330 131.0698
" />
<path d="M177.1330 131.0698
L176.5616 131.0698
" />
<path d="M178.6330 131.7127
L178.4902 131.7841
" />
<path d="M178.4902 131.7841
L178.2045 131.7841
" />
<path d="M178.2045 131.7841
L178.0616 131.7127
" />
<path d="M178.0616 131.7127
L177.9902 131.5698
" />
<path d="M177.9902 131.5698
L177.9902 130.9984
" />
<path d="M177.9902 130.9984
L178.0616 130.8555
" />
<path d="M178.0616 130.8555
L178.2045 130.7841
" />
<path d="M178.2045 130.7841
L178.4902 130.7841
" />
<path d="M178.4902 130.7841
L178.6330 130.8555
" />
<path d="M178.6330 130.8555
L178.7045 130.9984
" />
<path d="M178.7045 130.9984
L178.7045 131.1412
" />
<path d="M178.7045 131.1412
L177.9902 131.2841
" />
<path d="M179.2044 130.7841
L179.5616 131.7841
" />
<path d="M179.5616 131.7841
L179.9187 130.7841
" />
<path d="M180.4902 131.6412
L180.5616 131.7127
" />
<path d="M180.5616 131.7127
L180.4902 131.7841
" />
<path d="M180.4902 131.7841
L180.4188 131.7127
" />
<path d="M180.4188 131.7127
L180.4902 131.6412
" />
<path d="M180.4902 131.6412
L180.4902 131.7841
" />
<path d="M180.4902 130.8555
L180.5616 130.9269
" />
<path d="M180.5616 130.9269
L180.4902 130.9984
" />
<path d="M180.4902 130.9984
L180.4188 130.9269
" />
<path d="M180.4188 130.9269
L180.4902 130.8555
" />
<path d="M180.4902 130.8555
L180.4902 130.9984
" />
</g></g>
<g style="fill:none; 
stroke:#840000; stroke-width:0.1524; stroke-opacity:1; 
stroke-linecap:round; stroke-linejoin:round;">
<text x="91.0072" y="131.8558"
textLength="9.3716" font-size="2.0000" lengthAdjust="spacingAndGlyphs"
text-anchor="start" opacity="0" stroke-opacity="0">Size: A5</text>
<g class="stroked-text"><desc>Size: A5</desc>
<path d="M91.3931 131.7203
L91.6074 131.7917
" />
<path d="M91.6074 131.7917
L91.9645 131.7917
" />
<path d="M91.9645 131.7917
L92.1074 131.7203
" />
<path d="M92.1074 131.7203
L92.1788 131.6488
" />
<path d="M92.1788 131.6488
L92.2502 131.5060
" />
<path d="M92.2502 131.5060
L92.2502 131.3631
" />
<path d="M92.2502 131.3631
L92.1788 131.2203
" />
<path d="M92.1788 131.2203
L92.1074 131.1488
" />
<path d="M92.1074 131.1488
L91.9645 131.0774
" />
<path d="M91.9645 131.0774
L91.6788 131.0060
" />
<path d="M91.6788 131.0060
L91.5359 130.9345
" />
<path d="M91.5359 130.9345
L91.4645 130.8631
" />
<path d="M91.4645 130.8631
L91.3931 130.7203
" />
<path d="M91.3931 130.7203
L91.3931 130.5774
" />
<path d="M91.3931 130.5774
L91.4645 130.4345
" />
<path d="M91.4645 130.4345
L91.5359 130.3631
" />
<path d="M91.5359 130.3631
L91.6788 130.2917
" />
<path d="M91.6788 130.2917
L92.0359 130.2917
" />
<path d="M92.0359 130.2917
L92.2502 130.3631
" />
<path d="M92.8931 131.7917
L92.8931 130.7917
" />
<path d="M92.8931 130.2917
L92.8217 130.3631
" />
<path d="M92.8217 130.3631
L92.8931 130.4345
" />
<path d="M92.8931 130.4345
L92.9645 130.3631
" />
<path d="M92.9645 130.3631
L92.8931 130.2917
" />
<path d="M92.8931 130.2917
L92.8931 130.4345
" />
<path d="M93.4645 130.7917
L94.2503 130.7917
" />
<path d="M94.2503 130.7917
L93.4645 131.7917
" />
<path d="M93.4645 131.7917
L94.2503 131.7917
" />
<path d="M95.3931 131.7203
L95.2503 131.7917
" />
<path d="M95.2503 131.7917
L94.9646 131.7917
" />
<path d="M94.9646 131.7917
L94.8217 131.7203
" />
<path d="M94.8217 131.7203
L94.7503 131.5774
" />
<path d="M94.7503 131.5774
L94.7503 131.0060
" />
<path d="M94.7503 131.0060
L94.8217 130.8631
" />
<path d="M94.8217 130.8631
L94.9646 130.7917
" />
<path d="M94.9646 130.7917
L95.2503 130.7917
" />
<path d="M95.2503 130.7917
L95.3931 130.8631
" />
<path d="M95.3931 130.8631
L95.4646 131.0060
" />
<path d="M95.4646 131.0060
L95.4646 131.1488
" />
<path d="M95.4646 131.1488
L94.7503 131.2917
" />
<path d="M96.1074 131.6488
L96.1788 131.7203
" />
<path d="M96.1788 131.7203
L96.1074 131.7917
" />
<path d="M96.1074 131.7917
L96.0360 131.7203
" />
<path d="M96.0360 131.7203
L96.1074 131.6488
" />
<path d="M96.1074 131.6488
L96.1074 131.7917
" />
<path d="M96.1074 130.8631
L96.1788 130.9345
" />
<path d="M96.1788 130.9345
L96.1074 131.0060
" />
<path d="M96.1074 131.0060
L96.0360 130.9345
" />
<path d="M96.0360 130.9345
L96.1074 130.8631
" />
<path d="M96.1074 130.8631
L96.1074 131.0060
" />
<path d="M97.8932 131.3631
L98.6075 131.3631
" />
<path d="M97.7503 131.7917
L98.2503 130.2917
" />
<path d="M98.2503 130.2917
L98.7503 131.7917
" />
<path d="M99.9646 130.2917
L99.2503 130.2917
" />
<path d="M99.2503 130.2917
L99.1789 131.0060
" />
<path d="M99.1789 131.0060
L99.2503 130.9345
" />
<path d="M99.2503 130.9345
L99.3932 130.8631
" />
<path d="M99.3932 130.8631
L99.7503 130.8631
" />
<path d="M99.7503 130.8631
L99.8932 130.9345
" />
<path d="M99.8932 130.9345
L99.9646 131.0060
" />
<path d="M99.9646 131.0060
L100.0360 131.1488
" />
<path d="M100.0360 131.1488
L100.0360 131.5060
" />
<path d="M100.0360 131.5060
L99.9646 131.6488
" />
<path d="M99.9646 131.6488
L99.8932 131.7203
" />
<path d="M99.8932 131.7203
L99.7503 131.7917
" />
<path d="M99.7503 131.7917
L99.3932 131.7917
" />
<path d="M99.3932 131.7917
L99.2503 131.7203
" />
<path d="M99.2503 131.7203
L99.1789 131.6488
" />
</g><text x="176.0072" y="134.6558"
textLength="8.5144" font-size="2.0000" lengthAdjust="spacingAndGlyphs"
text-anchor="start" opacity="0" stroke-opacity="0">Id: 1/1</text>
<g class="stroked-text"><desc>Id: 1/1</desc>
<path d="M176.4645 134.5917
L176.4645 133.0917
" />
<path d="M177.8217 134.5917
L177.8217 133.0917
" />
<path d="M177.8217 134.5203
L177.6788 134.5917
" />
<path d="M177.6788 134.5917
L177.3931 134.5917
" />
<path d="M177.3931 134.5917
L177.2502 134.5203
" />
<path d="M177.2502 134.5203
L177.1788 134.4488
" />
<path d="M177.1788 134.4488
L177.1074 134.3060
" />
<path d="M177.1074 134.3060
L177.1074 133.8774
" />
<path d="M177.1074 133.8774
L177.1788 133.7345
" />
<path d="M177.1788 133.7345
L177.2502 133.6631
" />
<path d="M177.2502 133.6631
L177.3931 133.5917
" />
<path d="M177.3931 133.5917
L177.6788 133.5917
" />
<path d="M177.6788 133.5917
L177.8217 133.6631
" />
<path d="M178.5359 134.4488
L178.6073 134.5203
" />
<path d="M178.6073 134.5203
L178.5359 134.5917
" />
<path d="M178.5359 134.5917
L178.4645 134.5203
" />
<path d="M178.4645 134.5203
L178.5359 134.4488
" />
<path d="M178.5359 134.4488
L178.5359 134.5917
" />
<path d="M178.5359 133.6631
L178.6073 133.7345
" />
<path d="M178.6073 133.7345
L178.5359 133.8060
" />
<path d="M178.5359 133.8060
L178.4645 133.7345
" />
<path d="M178.4645 133.7345
L178.5359 133.6631
" />
<path d="M178.5359 133.6631
L178.5359 133.8060
" />
<path d="M181.1788 134.5917
L180.3217 134.5917
" />
<path d="M180.7502 134.5917
L180.7502 133.0917
" />
<path d="M180.7502 133.0917
L180.6074 133.3060
" />
<path d="M180.6074 133.3060
L180.4645 133.4488
" />
<path d="M180.4645 133.4488
L180.3217 133.5203
" />
<path d="M182.8931 133.0203
L181.6074 134.9488
" />
<path d="M184.1788 134.5917
L183.3217 134.5917
" />
<path d="M183.7502 134.5917
L183.7502 133.0917
" />
<path d="M183.7502 133.0917
L183.6074 133.3060
" />
<path d="M183.6074 133.3060
L183.4645 133.4488
" />
<path d="M183.4645 133.4488
L183.3217 133.5203
" />
</g><path d="M90.0072 125.5058
L198.0072 125.5058
" />
</g>
<g style="fill:none; 
stroke:#840000; stroke-width:0.4000; stroke-opacity:1; 
stroke-linecap:round; stroke-linejoin:round;">
<text x="91.0072" y="128.3058"
textLength="9.6572" font-size="2.6666" lengthAdjust="spacingAndGlyphs"
text-anchor="start" opacity="0" stroke-opacity="0">Title: </text>
<g class="stroked-text"><desc>Title: </desc>
<path d="M91.6988 126.2102
L92.8417 126.2102
" />
<path d="M92.0203 128.2102
L92.2703 126.2102
" />
<path d="M93.2583 128.2102
L93.4250 126.8769
" />
<path d="M93.5083 126.2102
L93.4012 126.3054
" />
<path d="M93.4012 126.3054
L93.4845 126.4007
" />
<path d="M93.4845 126.4007
L93.5917 126.3054
" />
<path d="M93.5917 126.3054
L93.5083 126.2102
" />
<path d="M93.5083 126.2102
L93.4845 126.4007
" />
<path d="M94.0917 126.8769
L94.8536 126.8769
" />
<path d="M94.4607 126.2102
L94.2465 127.9245
" />
<path d="M94.2465 127.9245
L94.3179 128.1150
" />
<path d="M94.3179 128.1150
L94.4965 128.2102
" />
<path d="M94.4965 128.2102
L94.6869 128.2102
" />
<path d="M95.6394 128.2102
L95.4608 128.1150
" />
<path d="M95.4608 128.1150
L95.3894 127.9245
" />
<path d="M95.3894 127.9245
L95.6036 126.2102
" />
<path d="M97.1750 128.1150
L96.9727 128.2102
" />
<path d="M96.9727 128.2102
L96.5917 128.2102
" />
<path d="M96.5917 128.2102
L96.4131 128.1150
" />
<path d="M96.4131 128.1150
L96.3417 127.9245
" />
<path d="M96.3417 127.9245
L96.4370 127.1626
" />
<path d="M96.4370 127.1626
L96.5560 126.9721
" />
<path d="M96.5560 126.9721
L96.7584 126.8769
" />
<path d="M96.7584 126.8769
L97.1393 126.8769
" />
<path d="M97.1393 126.8769
L97.3179 126.9721
" />
<path d="M97.3179 126.9721
L97.3893 127.1626
" />
<path d="M97.3893 127.1626
L97.3655 127.3530
" />
<path d="M97.3655 127.3530
L96.3893 127.5435
" />
<path d="M98.1393 128.0197
L98.2227 128.1150
" />
<path d="M98.2227 128.1150
L98.1155 128.2102
" />
<path d="M98.1155 128.2102
L98.0322 128.1150
" />
<path d="M98.0322 128.1150
L98.1393 128.0197
" />
<path d="M98.1393 128.0197
L98.1155 128.2102
" />
<path d="M98.2703 126.9721
L98.3536 127.0673
" />
<path d="M98.3536 127.0673
L98.2465 127.1626
" />
<path d="M98.2465 127.1626
L98.1632 127.0673
" />
<path d="M98.1632 127.0673
L98.2703 126.9721
" />
<path d="M98.2703 126.9721
L98.2465 127.1626
" />
</g></g>
<g style="fill:none; 
stroke:#840000; stroke-width:0.1524; stroke-opacity:1; 
stroke-linecap:round; stroke-linejoin:round;">
<text x="91.0072" y="124.4558"
textLength="43.0858" font-size="2.0000" lengthAdjust="spacingAndGlyphs"
text-anchor="start" opacity="0" stroke-opacity="0">File: gate_xor_2in_1bit_ic_2.kicad_sch</text>
<g class="stroked-text"><desc>File: gate_xor_2in_1bit_ic_2.kicad_sch</desc>
<path d="M91.9645 123.6060
L91.4645 123.6060
" />
<path d="M91.4645 124.3917
L91.4645 122.8917
" />
<path d="M91.4645 122.8917
L92.1788 122.8917
" />
<path d="M92.7502 124.3917
L92.7502 123.3917
" />
<path d="M92.7502 122.8917
L92.6788 122.9631
" />
<path d="M92.6788 122.9631
L92.7502 123.0345
" />
<path d="M92.7502 123.0345
L92.8216 122.9631
" />
<path d="M92.8216 122.9631
L92.7502 122.8917
" />
<path d="M92.7502 122.8917
L92.7502 123.0345
" />
<path d="M93.6788 124.3917
L93.5359 124.3203
" />
<path d="M93.5359 124.3203
L93.4645 124.1774
" />
<path d="M93.4645 124.1774
L93.4645 122.8917
" />
<path d="M94.8216 124.3203
L94.6788 124.3917
" />
<path d="M94.6788 124.3917
L94.3931 124.3917
" />
<path d="M94.3931 124.3917
L94.2502 124.3203
" />
<path d="M94.2502 124.3203
L94.1788 124.1774
" />
<path d="M94.1788 124.1774
L94.1788 123.6060
" />
<path d="M94.1788 123.6060
L94.2502 123.4631
" />
<path d="M94.2502 123.4631
L94.3931 123.3917
" />
<path d="M94.3931 123.3917
L94.6788 123.3917
" />
<path d="M94.6788 123.3917
L94.8216 123.4631
" />
<path d="M94.8216 123.4631
L94.8931 123.6060
" />
<path d="M94.8931 123.6060
L94.8931 123.7488
" />
<path d="M94.8931 123.7488
L94.1788 123.8917
" />
<path d="M95.5359 124.2488
L95.6073 124.3203
" />
<path d="M95.6073 124.3203
L95.5359 124.3917
" />
<path d="M95.5359 124.3917
L95.4645 124.3203
" />
<path d="M95.4645 124.3203
L95.5359 124.2488
" />
<path d="M95.5359 124.2488
L95.5359 124.3917
" />
<path d="M95.5359 123.4631
L95.6073 123.5345
" />
<path d="M95.6073 123.5345
L95.5359 123.6060
" />
<path d="M95.5359 123.6060
L95.4645 123.5345
" />
<path d="M95.4645 123.5345
L95.5359 123.4631
" />
<path d="M95.5359 123.4631
L95.5359 123.6060
" />
<path d="M98.0360 123.3917
L98.0360 124.6060
" />
<path d="M98.0360 124.6060
L97.9645 124.7488
" />
<path d="M97.9645 124.7488
L97.8931 124.8203
" />
<path d="M97.8931 124.8203
L97.7502 124.8917
" />
<path d="M97.7502 124.8917
L97.5360 124.8917
" />
<path d="M97.5360 124.8917
L97.3931 124.8203
" />
<path d="M98.0360 124.3203
L97.8931 124.3917
" />
<path d="M97.8931 124.3917
L97.6074 124.3917
" />
<path d="M97.6074 124.3917
L97.4645 124.3203
" />
<path d="M97.4645 124.3203
L97.3931 124.2488
" />
<path d="M97.3931 124.2488
L97.3217 124.1060
" />
<path d="M97.3217 124.1060
L97.3217 123.6774
" />
<path d="M97.3217 123.6774
L97.3931 123.5345
" />
<path d="M97.3931 123.5345
L97.4645 123.4631
" />
<path d="M97.4645 123.4631
L97.6074 123.3917
" />
<path d="M97.6074 123.3917
L97.8931 123.3917
" />
<path d="M97.8931 123.3917
L98.0360 123.4631
" />
<path d="M99.3931 124.3917
L99.3931 123.6060
" />
<path d="M99.3931 123.6060
L99.3216 123.4631
" />
<path d="M99.3216 123.4631
L99.1788 123.3917
" />
<path d="M99.1788 123.3917
L98.8931 123.3917
" />
<path d="M98.8931 123.3917
L98.7502 123.4631
" />
<path d="M99.3931 124.3203
L99.2502 124.3917
" />
<path d="M99.2502 124.3917
L98.8931 124.3917
" />
<path d="M98.8931 124.3917
L98.7502 124.3203
" />
<path d="M98.7502 124.3203
L98.6788 124.1774
" />
<path d="M98.6788 124.1774
L98.6788 124.0345
" />
<path d="M98.6788 124.0345
L98.7502 123.8917
" />
<path d="M98.7502 123.8917
L98.8931 123.8203
" />
<path d="M98.8931 123.8203
L99.2502 123.8203
" />
<path d="M99.2502 123.8203
L99.3931 123.7488
" />
<path d="M99.8930 123.3917
L100.4644 123.3917
" />
<path d="M100.1073 122.8917
L100.1073 124.1774
" />
<path d="M100.1073 124.1774
L100.1787 124.3203
" />
<path d="M100.1787 124.3203
L100.3216 124.3917
" />
<path d="M100.3216 124.3917
L100.4644 124.3917
" />
<path d="M101.5358 124.3203
L101.3930 124.3917
" />
<path d="M101.3930 124.3917
L101.1073 124.3917
" />
<path d="M101.1073 124.3917
L100.9644 124.3203
" />
<path d="M100.9644 124.3203
L100.8930 124.1774
" />
<path d="M100.8930 124.1774
L100.8930 123.6060
" />
<path d="M100.8930 123.6060
L100.9644 123.4631
" />
<path d="M100.9644 123.4631
L101.1073 123.3917
" />
<path d="M101.1073 123.3917
L101.3930 123.3917
" />
<path d="M101.3930 123.3917
L101.5358 123.4631
" />
<path d="M101.5358 123.4631
L101.6073 123.6060
" />
<path d="M101.6073 123.6060
L101.6073 123.7488
" />
<path d="M101.6073 123.7488
L100.8930 123.8917
" />
<path d="M101.8930 124.5345
L103.0358 124.5345
" />
<path d="M103.2501 124.3917
L104.0359 123.3917
" />
<path d="M103.2501 123.3917
L104.0359 124.3917
" />
<path d="M104.8216 124.3917
L104.6787 124.3203
" />
<path d="M104.6787 124.3203
L104.6073 124.2488
" />
<path d="M104.6073 124.2488
L104.5359 124.1060
" />
<path d="M104.5359 124.1060
L104.5359 123.6774
" />
<path d="M104.5359 123.6774
L104.6073 123.5345
" />
<path d="M104.6073 123.5345
L104.6787 123.4631
" />
<path d="M104.6787 123.4631
L104.8216 123.3917
" />
<path d="M104.8216 123.3917
L105.0359 123.3917
" />
<path d="M105.0359 123.3917
L105.1787 123.4631
" />
<path d="M105.1787 123.4631
L105.2502 123.5345
" />
<path d="M105.2502 123.5345
L105.3216 123.6774
" />
<path d="M105.3216 123.6774
L105.3216 124.1060
" />
<path d="M105.3216 124.1060
L105.2502 124.2488
" />
<path d="M105.2502 124.2488
L105.1787 124.3203
" />
<path d="M105.1787 124.3203
L105.0359 124.3917
" />
<path d="M105.0359 124.3917
L104.8216 124.3917
" />
<path d="M105.9644 124.3917
L105.9644 123.3917
" />
<path d="M105.9644 123.6774
L106.0358 123.5345
" />
<path d="M106.0358 123.5345
L106.1073 123.4631
" />
<path d="M106.1073 123.4631
L106.2501 123.3917
" />
<path d="M106.2501 123.3917
L106.3930 123.3917
" />
<path d="M106.5359 124.5345
L107.6787 124.5345
" />
<path d="M107.9645 123.0345
L108.0359 122.9631
" />
<path d="M108.0359 122.9631
L108.1788 122.8917
" />
<path d="M108.1788 122.8917
L108.5359 122.8917
" />
<path d="M108.5359 122.8917
L108.6788 122.9631
" />
<path d="M108.6788 122.9631
L108.7502 123.0345
" />
<path d="M108.7502 123.0345
L108.8216 123.1774
" />
<path d="M108.8216 123.1774
L108.8216 123.3203
" />
<path d="M108.8216 123.3203
L108.7502 123.5345
" />
<path d="M108.7502 123.5345
L107.8930 124.3917
" />
<path d="M107.8930 124.3917
L108.8216 124.3917
" />
<path d="M109.4645 124.3917
L109.4645 123.3917
" />
<path d="M109.4645 122.8917
L109.3931 122.9631
" />
<path d="M109.3931 122.9631
L109.4645 123.0345
" />
<path d="M109.4645 123.0345
L109.5359 122.9631
" />
<path d="M109.5359 122.9631
L109.4645 122.8917
" />
<path d="M109.4645 122.8917
L109.4645 123.0345
" />
<path d="M110.1788 123.3917
L110.1788 124.3917
" />
<path d="M110.1788 123.5345
L110.2502 123.4631
" />
<path d="M110.2502 123.4631
L110.3931 123.3917
" />
<path d="M110.3931 123.3917
L110.6074 123.3917
" />
<path d="M110.6074 123.3917
L110.7502 123.4631
" />
<path d="M110.7502 123.4631
L110.8217 123.6060
" />
<path d="M110.8217 123.6060
L110.8217 124.3917
" />
<path d="M111.1788 124.5345
L112.3216 124.5345
" />
<path d="M113.4645 124.3917
L112.6074 124.3917
" />
<path d="M113.0359 124.3917
L113.0359 122.8917
" />
<path d="M113.0359 122.8917
L112.8931 123.1060
" />
<path d="M112.8931 123.1060
L112.7502 123.2488
" />
<path d="M112.7502 123.2488
L112.6074 123.3203
" />
<path d="M114.1074 124.3917
L114.1074 122.8917
" />
<path d="M114.1074 123.4631
L114.2503 123.3917
" />
<path d="M114.2503 123.3917
L114.5360 123.3917
" />
<path d="M114.5360 123.3917
L114.6788 123.4631
" />
<path d="M114.6788 123.4631
L114.7503 123.5345
" />
<path d="M114.7503 123.5345
L114.8217 123.6774
" />
<path d="M114.8217 123.6774
L114.8217 124.1060
" />
<path d="M114.8217 124.1060
L114.7503 124.2488
" />
<path d="M114.7503 124.2488
L114.6788 124.3203
" />
<path d="M114.6788 124.3203
L114.5360 124.3917
" />
<path d="M114.5360 124.3917
L114.2503 124.3917
" />
<path d="M114.2503 124.3917
L114.1074 124.3203
" />
<path d="M115.4645 124.3917
L115.4645 123.3917
" />
<path d="M115.4645 122.8917
L115.3931 122.9631
" />
<path d="M115.3931 122.9631
L115.4645 123.0345
" />
<path d="M115.4645 123.0345
L115.5359 122.9631
" />
<path d="M115.5359 122.9631
L115.4645 122.8917
" />
<path d="M115.4645 122.8917
L115.4645 123.0345
" />
<path d="M115.9645 123.3917
L116.5359 123.3917
" />
<path d="M116.1788 122.8917
L116.1788 124.1774
" />
<path d="M116.1788 124.1774
L116.2502 124.3203
" />
<path d="M116.2502 124.3203
L116.3931 124.3917
" />
<path d="M116.3931 124.3917
L116.5359 124.3917
" />
<path d="M116.6788 124.5345
L117.8216 124.5345
" />
<path d="M118.1788 124.3917
L118.1788 123.3917
" />
<path d="M118.1788 122.8917
L118.1074 122.9631
" />
<path d="M118.1074 122.9631
L118.1788 123.0345
" />
<path d="M118.1788 123.0345
L118.2502 122.9631
" />
<path d="M118.2502 122.9631
L118.1788 122.8917
" />
<path d="M118.1788 122.8917
L118.1788 123.0345
" />
<path d="M119.5360 124.3203
L119.3931 124.3917
" />
<path d="M119.3931 124.3917
L119.1074 124.3917
" />
<path d="M119.1074 124.3917
L118.9645 124.3203
" />
<path d="M118.9645 124.3203
L118.8931 124.2488
" />
<path d="M118.8931 124.2488
L118.8217 124.1060
" />
<path d="M118.8217 124.1060
L118.8217 123.6774
" />
<path d="M118.8217 123.6774
L118.8931 123.5345
" />
<path d="M118.8931 123.5345
L118.9645 123.4631
" />
<path d="M118.9645 123.4631
L119.1074 123.3917
" />
<path d="M119.1074 123.3917
L119.3931 123.3917
" />
<path d="M119.3931 123.3917
L119.5360 123.4631
" />
<path d="M119.8217 124.5345
L120.9645 124.5345
" />
<path d="M121.2503 123.0345
L121.3217 122.9631
" />
<path d="M121.3217 122.9631
L121.4646 122.8917
" />
<path d="M121.4646 122.8917
L121.8217 122.8917
" />
<path d="M121.8217 122.8917
L121.9646 122.9631
" />
<path d="M121.9646 122.9631
L122.0360 123.0345
" />
<path d="M122.0360 123.0345
L122.1074 123.1774
" />
<path d="M122.1074 123.1774
L122.1074 123.3203
" />
<path d="M122.1074 123.3203
L122.0360 123.5345
" />
<path d="M122.0360 123.5345
L121.1788 124.3917
" />
<path d="M121.1788 124.3917
L122.1074 124.3917
" />
<path d="M122.7503 124.2488
L122.8217 124.3203
" />
<path d="M122.8217 124.3203
L122.7503 124.3917
" />
<path d="M122.7503 124.3917
L122.6789 124.3203
" />
<path d="M122.6789 124.3203
L122.7503 124.2488
" />
<path d="M122.7503 124.2488
L122.7503 124.3917
" />
<path d="M123.4646 124.3917
L123.4646 122.8917
" />
<path d="M123.6075 123.8203
L124.0360 124.3917
" />
<path d="M124.0360 123.3917
L123.4646 123.9631
" />
<path d="M124.6789 124.3917
L124.6789 123.3917
" />
<path d="M124.6789 122.8917
L124.6075 122.9631
" />
<path d="M124.6075 122.9631
L124.6789 123.0345
" />
<path d="M124.6789 123.0345
L124.7503 122.9631
" />
<path d="M124.7503 122.9631
L124.6789 122.8917
" />
<path d="M124.6789 122.8917
L124.6789 123.0345
" />
<path d="M126.0361 124.3203
L125.8932 124.3917
" />
<path d="M125.8932 124.3917
L125.6075 124.3917
" />
<path d="M125.6075 124.3917
L125.4646 124.3203
" />
<path d="M125.4646 124.3203
L125.3932 124.2488
" />
<path d="M125.3932 124.2488
L125.3218 124.1060
" />
<path d="M125.3218 124.1060
L125.3218 123.6774
" />
<path d="M125.3218 123.6774
L125.3932 123.5345
" />
<path d="M125.3932 123.5345
L125.4646 123.4631
" />
<path d="M125.4646 123.4631
L125.6075 123.3917
" />
<path d="M125.6075 123.3917
L125.8932 123.3917
" />
<path d="M125.8932 123.3917
L126.0361 123.4631
" />
<path d="M127.3218 124.3917
L127.3218 123.6060
" />
<path d="M127.3218 123.6060
L127.2503 123.4631
" />
<path d="M127.2503 123.4631
L127.1075 123.3917
" />
<path d="M127.1075 123.3917
L126.8218 123.3917
" />
<path d="M126.8218 123.3917
L126.6789 123.4631
" />
<path d="M127.3218 124.3203
L127.1789 124.3917
" />
<path d="M127.1789 124.3917
L126.8218 124.3917
" />
<path d="M126.8218 124.3917
L126.6789 124.3203
" />
<path d="M126.6789 124.3203
L126.6075 124.1774
" />
<path d="M126.6075 124.1774
L126.6075 124.0345
" />
<path d="M126.6075 124.0345
L126.6789 123.8917
" />
<path d="M126.6789 123.8917
L126.8218 123.8203
" />
<path d="M126.8218 123.8203
L127.1789 123.8203
" />
<path d="M127.1789 123.8203
L127.3218 123.7488
" />
<path d="M128.6789 124.3917
L128.6789 122.8917
" />
<path d="M128.6789 124.3203
L128.5360 124.3917
" />
<path d="M128.5360 124.3917
L128.2503 124.3917
" />
<path d="M128.2503 124.3917
L128.1074 124.3203
" />
<path d="M128.1074 124.3203
L128.0360 124.2488
" />
<path d="M128.0360 124.2488
L127.9646 124.1060
" />
<path d="M127.9646 124.1060
L127.9646 123.6774
" />
<path d="M127.9646 123.6774
L128.0360 123.5345
" />
<path d="M128.0360 123.5345
L128.1074 123.4631
" />
<path d="M128.1074 123.4631
L128.2503 123.3917
" />
<path d="M128.2503 123.3917
L128.5360 123.3917
" />
<path d="M128.5360 123.3917
L128.6789 123.4631
" />
<path d="M129.0360 124.5345
L130.1788 124.5345
" />
<path d="M130.4646 124.3203
L130.6074 124.3917
" />
<path d="M130.6074 124.3917
L130.8931 124.3917
" />
<path d="M130.8931 124.3917
L131.0360 124.3203
" />
<path d="M131.0360 124.3203
L131.1074 124.1774
" />
<path d="M131.1074 124.1774
L131.1074 124.1060
" />
<path d="M131.1074 124.1060
L131.0360 123.9631
" />
<path d="M131.0360 123.9631
L130.8931 123.8917
" />
<path d="M130.8931 123.8917
L130.6789 123.8917
" />
<path d="M130.6789 123.8917
L130.5360 123.8203
" />
<path d="M130.5360 123.8203
L130.4646 123.6774
" />
<path d="M130.4646 123.6774
L130.4646 123.6060
" />
<path d="M130.4646 123.6060
L130.5360 123.4631
" />
<path d="M130.5360 123.4631
L130.6789 123.3917
" />
<path d="M130.6789 123.3917
L130.8931 123.3917
" />
<path d="M130.8931 123.3917
L131.0360 123.4631
" />
<path d="M132.3932 124.3203
L132.2503 124.3917
" />
<path d="M132.2503 124.3917
L131.9646 124.3917
" />
<path d="M131.9646 124.3917
L131.8217 124.3203
" />
<path d="M131.8217 124.3203
L131.7503 124.2488
" />
<path d="M131.7503 124.2488
L131.6789 124.1060
" />
<path d="M131.6789 124.1060
L131.6789 123.6774
" />
<path d="M131.6789 123.6774
L131.7503 123.5345
" />
<path d="M131.7503 123.5345
L131.8217 123.4631
" />
<path d="M131.8217 123.4631
L131.9646 123.3917
" />
<path d="M131.9646 123.3917
L132.2503 123.3917
" />
<path d="M132.2503 123.3917
L132.3932 123.4631
" />
<path d="M133.0360 124.3917
L133.0360 122.8917
" />
<path d="M133.6789 124.3917
L133.6789 123.6060
" />
<path d="M133.6789 123.6060
L133.6074 123.4631
" />
<path d="M133.6074 123.4631
L133.4646 123.3917
" />
<path d="M133.4646 123.3917
L133.2503 123.3917
" />
<path d="M133.2503 123.3917
L133.1074 123.4631
" />
<path d="M133.1074 123.4631
L133.0360 123.5345
" />
</g><path d="M90.0072 119.5058
L198.0072 119.5058
" />
<text x="91.0072" y="121.7558"
textLength="9.8000" font-size="2.0000" lengthAdjust="spacingAndGlyphs"
text-anchor="start" opacity="0" stroke-opacity="0">Sheet: /</text>
<g class="stroked-text"><desc>Sheet: /</desc>
<path d="M91.3931 121.6203
L91.6074 121.6917
" />
<path d="M91.6074 121.6917
L91.9645 121.6917
" />
<path d="M91.9645 121.6917
L92.1074 121.6203
" />
<path d="M92.1074 121.6203
L92.1788 121.5488
" />
<path d="M92.1788 121.5488
L92.2502 121.4060
" />
<path d="M92.2502 121.4060
L92.2502 121.2631
" />
<path d="M92.2502 121.2631
L92.1788 121.1203
" />
<path d="M92.1788 121.1203
L92.1074 121.0488
" />
<path d="M92.1074 121.0488
L91.9645 120.9774
" />
<path d="M91.9645 120.9774
L91.6788 120.9060
" />
<path d="M91.6788 120.9060
L91.5359 120.8345
" />
<path d="M91.5359 120.8345
L91.4645 120.7631
" />
<path d="M91.4645 120.7631
L91.3931 120.6203
" />
<path d="M91.3931 120.6203
L91.3931 120.4774
" />
<path d="M91.3931 120.4774
L91.4645 120.3345
" />
<path d="M91.4645 120.3345
L91.5359 120.2631
" />
<path d="M91.5359 120.2631
L91.6788 120.1917
" />
<path d="M91.6788 120.1917
L92.0359 120.1917
" />
<path d="M92.0359 120.1917
L92.2502 120.2631
" />
<path d="M92.8931 121.6917
L92.8931 120.1917
" />
<path d="M93.5360 121.6917
L93.5360 120.9060
" />
<path d="M93.5360 120.9060
L93.4645 120.7631
" />
<path d="M93.4645 120.7631
L93.3217 120.6917
" />
<path d="M93.3217 120.6917
L93.1074 120.6917
" />
<path d="M93.1074 120.6917
L92.9645 120.7631
" />
<path d="M92.9645 120.7631
L92.8931 120.8345
" />
<path d="M94.8216 121.6203
L94.6788 121.6917
" />
<path d="M94.6788 121.6917
L94.3931 121.6917
" />
<path d="M94.3931 121.6917
L94.2502 121.6203
" />
<path d="M94.2502 121.6203
L94.1788 121.4774
" />
<path d="M94.1788 121.4774
L94.1788 120.9060
" />
<path d="M94.1788 120.9060
L94.2502 120.7631
" />
<path d="M94.2502 120.7631
L94.3931 120.6917
" />
<path d="M94.3931 120.6917
L94.6788 120.6917
" />
<path d="M94.6788 120.6917
L94.8216 120.7631
" />
<path d="M94.8216 120.7631
L94.8931 120.9060
" />
<path d="M94.8931 120.9060
L94.8931 121.0488
" />
<path d="M94.8931 121.0488
L94.1788 121.1917
" />
<path d="M96.1073 121.6203
L95.9645 121.6917
" />
<path d="M95.9645 121.6917
L95.6788 121.6917
" />
<path d="M95.6788 121.6917
L95.5359 121.6203
" />
<path d="M95.5359 121.6203
L95.4645 121.4774
" />
<path d="M95.4645 121.4774
L95.4645 120.9060
" />
<path d="M95.4645 120.9060
L95.5359 120.7631
" />
<path d="M95.5359 120.7631
L95.6788 120.6917
" />
<path d="M95.6788 120.6917
L95.9645 120.6917
" />
<path d="M95.9645 120.6917
L96.1073 120.7631
" />
<path d="M96.1073 120.7631
L96.1788 120.9060
" />
<path d="M96.1788 120.9060
L96.1788 121.0488
" />
<path d="M96.1788 121.0488
L95.4645 121.1917
" />
<path d="M96.6073 120.6917
L97.1787 120.6917
" />
<path d="M96.8216 120.1917
L96.8216 121.4774
" />
<path d="M96.8216 121.4774
L96.8930 121.6203
" />
<path d="M96.8930 121.6203
L97.0359 121.6917
" />
<path d="M97.0359 121.6917
L97.1787 121.6917
" />
<path d="M97.6787 121.5488
L97.7501 121.6203
" />
<path d="M97.7501 121.6203
L97.6787 121.6917
" />
<path d="M97.6787 121.6917
L97.6073 121.6203
" />
<path d="M97.6073 121.6203
L97.6787 121.5488
" />
<path d="M97.6787 121.5488
L97.6787 121.6917
" />
<path d="M97.6787 120.7631
L97.7501 120.8345
" />
<path d="M97.7501 120.8345
L97.6787 120.9060
" />
<path d="M97.6787 120.9060
L97.6073 120.8345
" />
<path d="M97.6073 120.8345
L97.6787 120.7631
" />
<path d="M97.6787 120.7631
L97.6787 120.9060
" />
<path d="M100.6073 120.1203
L99.3216 122.0488
" />
</g></g>
<g style="fill:none; 
stroke:#840000; stroke-width:0.3000; stroke-opacity:1; 
stroke-linecap:round; stroke-linejoin:round;">
<text x="91.0072" y="118.7558"
textLength="0.9000" font-size="2.0000" lengthAdjust="spacingAndGlyphs"
text-anchor="start" opacity="0" stroke-opacity="0"></text>
<g class="stroked-text"><desc></desc>
</g></g>
<g style="fill:none; 
stroke:#840000; stroke-width:0.1524; stroke-opacity:1; 
stroke-linecap:round; stroke-linejoin:round;">
<text x="91.0072" y="115.7558"
textLength="0.4572" font-size="2.0000" lengthAdjust="spacingAndGlyphs"
text-anchor="start" opacity="0" stroke-opacity="0"></text>
<g class="stroked-text"><desc></desc>
</g><text x="91.0072" y="112.7558"
textLength="0.4572" font-size="2.0000" lengthAdjust="spacingAndGlyphs"
text-anchor="start" opacity="0" stroke-opacity="0"></text>
<g class="stroked-text"><desc></desc>
</g><text x="91.0072" y="109.7558"
textLength="0.4572" font-size="2.0000" lengthAdjust="spacingAndGlyphs"
text-anchor="start" opacity="0" stroke-opacity="0"></text>
<g class="stroked-text"><desc></desc>
</g><text x="91.0072" y="106.7558"
textLength="0.4572" font-size="2.0000" lengthAdjust="spacingAndGlyphs"
text-anchor="start" opacity="0" stroke-opacity="0"></text>
<g class="stroked-text"><desc></desc>
</g><path d="M110.0072 129.5058
L110.0072 132.5058
" />
<path d="M174.0072 129.5058
L174.0072 136.0058
" />
<path style="fill:none; 
stroke:#840000; stroke-width:0.1524; stroke-opacity:1; 
stroke-linecap:round; stroke-linejoin:round;fill:none"
d="M 77.9780,40.6400
78.7400,39.3700
" /> 
<path style="fill:none; 
stroke:#840000; stroke-width:0.1524; stroke-opacity:1; 
stroke-linecap:round; stroke-linejoin:round;fill:none"
d="M 78.7400,39.3700
79.5020,40.6400
" /> 
<path style="fill:none; 
stroke:#840000; stroke-width:0.1524; stroke-opacity:1; 
stroke-linecap:round; stroke-linejoin:round;fill:none"
d="M 78.7400,41.9100
78.7400,39.3700
" /> 
</g>
<g style="fill:none; 
stroke:#840000; stroke-width:0.1524; stroke-opacity:1; 
stroke-linecap:round; stroke-linejoin:round;">
<path d="M78.7400 41.9100
L78.7400 41.9100
" />
</g>
<g style="fill:none; 
stroke:#006464; stroke-width:0.1524; stroke-opacity:1; 
stroke-linecap:round; stroke-linejoin:round;">
<text x="78.7400" y="37.4650"
textLength="3.8318" font-size="1.6933" lengthAdjust="spacingAndGlyphs"
text-anchor="middle" opacity="0" stroke-opacity="0">VCC</text>
<g class="stroked-text"><desc>VCC</desc>
<path d="M77.0466 36.1395
L77.4699 37.4095
" />
<path d="M77.4699 37.4095
L77.8933 36.1395
" />
<path d="M79.0423 37.2886
L78.9819 37.3491
" />
<path d="M78.9819 37.3491
L78.8004 37.4095
" />
<path d="M78.8004 37.4095
L78.6795 37.4095
" />
<path d="M78.6795 37.4095
L78.4981 37.3491
" />
<path d="M78.4981 37.3491
L78.3771 37.2281
" />
<path d="M78.3771 37.2281
L78.3166 37.1071
" />
<path d="M78.3166 37.1071
L78.2562 36.8652
" />
<path d="M78.2562 36.8652
L78.2562 36.6838
" />
<path d="M78.2562 36.6838
L78.3166 36.4419
" />
<path d="M78.3166 36.4419
L78.3771 36.3210
" />
<path d="M78.3771 36.3210
L78.4981 36.2000
" />
<path d="M78.4981 36.2000
L78.6795 36.1395
" />
<path d="M78.6795 36.1395
L78.8004 36.1395
" />
<path d="M78.8004 36.1395
L78.9819 36.2000
" />
<path d="M78.9819 36.2000
L79.0423 36.2605
" />
<path d="M80.3123 37.2886
L80.2519 37.3491
" />
<path d="M80.2519 37.3491
L80.0704 37.4095
" />
<path d="M80.0704 37.4095
L79.9495 37.4095
" />
<path d="M79.9495 37.4095
L79.7681 37.3491
" />
<path d="M79.7681 37.3491
L79.6471 37.2281
" />
<path d="M79.6471 37.2281
L79.5866 37.1071
" />
<path d="M79.5866 37.1071
L79.5262 36.8652
" />
<path d="M79.5262 36.8652
L79.5262 36.6838
" />
<path d="M79.5262 36.6838
L79.5866 36.4419
" />
<path d="M79.5866 36.4419
L79.6471 36.3210
" />
<path d="M79.6471 36.3210
L79.7681 36.2000
" />
<path d="M79.7681 36.2000
L79.9495 36.1395
" />
<path d="M79.9495 36.1395
L80.0704 36.1395
" />
<path d="M80.0704 36.1395
L80.2519 36.2000
" />
<path d="M80.2519 36.2000
L80.3123 36.2605
" />
</g><path style="fill:none; 
stroke:#840000; stroke-width:0.1524; stroke-opacity:1; 
stroke-linecap:round; stroke-linejoin:round;fill:none"
d="M 78.7400,62.2300
78.7400,63.5000
80.0100,63.5000
78.7400,64.7700
77.4700,63.5000
78.7400,63.5000
" /> 
</g>
<g style="fill:none; 
stroke:#840000; stroke-width:0.1524; stroke-opacity:1; 
stroke-linecap:round; stroke-linejoin:round;">
<path d="M78.7400 62.2300
L78.7400 62.2300
" />
</g>
<g style="fill:none; 
stroke:#006464; stroke-width:0.1524; stroke-opacity:1; 
stroke-linecap:round; stroke-linejoin:round;">
<text x="78.7400" y="67.9450"
textLength="4.0737" font-size="1.6933" lengthAdjust="spacingAndGlyphs"
text-anchor="middle" opacity="0" stroke-opacity="0">GND</text>
<g class="stroked-text"><desc>GND</desc>
<path d="M77.7724 66.6800
L77.6514 66.6195
" />
<path d="M77.6514 66.6195
L77.4700 66.6195
" />
<path d="M77.4700 66.6195
L77.2886 66.6800
" />
<path d="M77.2886 66.6800
L77.1676 66.8010
" />
<path d="M77.1676 66.8010
L77.1071 66.9219
" />
<path d="M77.1071 66.9219
L77.0467 67.1638
" />
<path d="M77.0467 67.1638
L77.0467 67.3452
" />
<path d="M77.0467 67.3452
L77.1071 67.5871
" />
<path d="M77.1071 67.5871
L77.1676 67.7081
" />
<path d="M77.1676 67.7081
L77.2886 67.8291
" />
<path d="M77.2886 67.8291
L77.4700 67.8895
" />
<path d="M77.4700 67.8895
L77.5909 67.8895
" />
<path d="M77.5909 67.8895
L77.7724 67.8291
" />
<path d="M77.7724 67.8291
L77.8328 67.7686
" />
<path d="M77.8328 67.7686
L77.8328 67.3452
" />
<path d="M77.8328 67.3452
L77.5909 67.3452
" />
<path d="M78.3771 67.8895
L78.3771 66.6195
" />
<path d="M78.3771 66.6195
L79.1028 67.8895
" />
<path d="M79.1028 67.8895
L79.1028 66.6195
" />
<path d="M79.7076 67.8895
L79.7076 66.6195
" />
<path d="M79.7076 66.6195
L80.0100 66.6195
" />
<path d="M80.0100 66.6195
L80.1914 66.6800
" />
<path d="M80.1914 66.6800
L80.3124 66.8010
" />
<path d="M80.3124 66.8010
L80.3729 66.9219
" />
<path d="M80.3729 66.9219
L80.4333 67.1638
" />
<path d="M80.4333 67.1638
L80.4333 67.3452
" />
<path d="M80.4333 67.3452
L80.3729 67.5871
" />
<path d="M80.3729 67.5871
L80.3124 67.7081
" />
<path d="M80.3124 67.7081
L80.1914 67.8291
" />
<path d="M80.1914 67.8291
L80.0100 67.8895
" />
<path d="M80.0100 67.8895
L79.7076 67.8895
" />
</g><path style="fill:#FFFFC2; fill-opacity:1.0000; stroke:none;fill-rule:evenodd;"
d="M 71.1200,49.5300
72.3900,49.5300
" /> 
<path style="fill:#FFFFC2; fill-opacity:1.0000; stroke:none;fill-rule:evenodd;"
d="M 71.1200,54.6100
72.3900,54.6100
" /> 
<path style="fill:#FFFFC2; fill-opacity:1.0000; stroke:none;fill-rule:evenodd;"
d="M 78.7400,46.9900
71.1200,46.9900
" /> 
<path style="fill:#FFFFC2; fill-opacity:1.0000; stroke:none;fill-rule:evenodd;"
d="M 78.7400,57.1500
71.1200,57.1500
" /> 
</g>
<g style="fill:none; 
stroke:#840000; stroke-width:0.2540; stroke-opacity:1; 
stroke-linecap:round; stroke-linejoin:round;">
<path d="M69.8500 57.1500 A7.1842 7.1842 0.0 0 0 69.8500 46.9900" />
<path d="M71.1200 57.1500 A8.1320 8.1320 0.0 0 0 71.1200 46.9900" />
<path style="fill:none; 
stroke:#840000; stroke-width:0.2540; stroke-opacity:1; 
stroke-linecap:round; stroke-linejoin:round;fill:none"
d="M 71.1200,49.5300
72.3900,49.5300
" /> 
<path style="fill:none; 
stroke:#840000; stroke-width:0.2540; stroke-opacity:1; 
stroke-linecap:round; stroke-linejoin:round;fill:none"
d="M 71.1200,54.6100
72.3900,54.6100
" /> 
<path d="M78.7400 57.1500 A7.3571 7.3571 0.0 0 0 83.8200 52.0700" />
<path d="M83.8200 52.0700 A7.1238 7.1238 0.0 0 0 78.7400 46.9900" />
<path style="fill:none; 
stroke:#840000; stroke-width:0.2540; stroke-opacity:1; 
stroke-linecap:round; stroke-linejoin:round;fill:none"
d="M 78.7400,46.9900
71.1200,46.9900
" /> 
<path style="fill:none; 
stroke:#840000; stroke-width:0.2540; stroke-opacity:1; 
stroke-linecap:round; stroke-linejoin:round;fill:none"
d="M 78.7400,57.1500
71.1200,57.1500
" /> 
</g>
<g style="fill:none; 
stroke:#840000; stroke-width:0.1524; stroke-opacity:1; 
stroke-linecap:round; stroke-linejoin:round;">
<path d="M71.1200 49.5300
L63.5000 49.5300
" />
</g>
<g style="fill:none; 
stroke:#A90000; stroke-width:0.1524; stroke-opacity:1; 
stroke-linecap:round; stroke-linejoin:round;">
<text x="67.3100" y="49.2760"
textLength="1.4127" font-size="1.6933" lengthAdjust="spacingAndGlyphs"
text-anchor="middle" opacity="0" stroke-opacity="0">1</text>
<g class="stroked-text"><desc>1</desc>
<path d="M67.6729 49.1125
L66.9472 49.1125
" />
<path d="M67.3100 49.1125
L67.3100 47.8425
" />
<path d="M67.3100 47.8425
L67.1891 48.0240
" />
<path d="M67.1891 48.0240
L67.0681 48.1449
" />
<path d="M67.0681 48.1449
L66.9472 48.2054
" />
</g></g>
<g style="fill:none; 
stroke:#840000; stroke-width:0.1524; stroke-opacity:1; 
stroke-linecap:round; stroke-linejoin:round;">
<path d="M71.1200 54.6100
L63.5000 54.6100
" />
</g>
<g style="fill:none; 
stroke:#A90000; stroke-width:0.1524; stroke-opacity:1; 
stroke-linecap:round; stroke-linejoin:round;">
<text x="67.3100" y="54.3560"
textLength="1.4127" font-size="1.6933" lengthAdjust="spacingAndGlyphs"
text-anchor="middle" opacity="0" stroke-opacity="0">2</text>
<g class="stroked-text"><desc>2</desc>
<path d="M66.9472 53.0435
L67.0076 52.9830
" />
<path d="M67.0076 52.9830
L67.1286 52.9225
" />
<path d="M67.1286 52.9225
L67.4310 52.9225
" />
<path d="M67.4310 52.9225
L67.5519 52.9830
" />
<path d="M67.5519 52.9830
L67.6124 53.0435
" />
<path d="M67.6124 53.0435
L67.6729 53.1644
" />
<path d="M67.6729 53.1644
L67.6729 53.2854
" />
<path d="M67.6729 53.2854
L67.6124 53.4668
" />
<path d="M67.6124 53.4668
L66.8867 54.1925
" />
<path d="M66.8867 54.1925
L67.6729 54.1925
" />
</g></g>
<g style="fill:none; 
stroke:#840000; stroke-width:0.1524; stroke-opacity:1; 
stroke-linecap:round; stroke-linejoin:round;">
<path d="M78.7400 46.9900
L78.7400 41.9100
" />
</g>
<g style="fill:none; 
stroke:#006464; stroke-width:0.1524; stroke-opacity:1; 
stroke-linecap:round; stroke-linejoin:round;">
<g transform="rotate(-90.000000 78.7400 47.4980)">
<text x="78.7400" y="48.1330"
textLength="3.8318" font-size="1.6933" lengthAdjust="spacingAndGlyphs"
text-anchor="end" opacity="0" stroke-opacity="0">VCC</text>
</g>
<g class="stroked-text"><desc>VCC</desc>
<path d="M78.0495 51.1058
L79.3195 50.6825
" />
<path d="M79.3195 50.6825
L78.0495 50.2591
" />
<path d="M79.1986 49.1101
L79.2591 49.1705
" />
<path d="M79.2591 49.1705
L79.3195 49.3520
" />
<path d="M79.3195 49.3520
L79.3195 49.4729
" />
<path d="M79.3195 49.4729
L79.2591 49.6543
" />
<path d="M79.2591 49.6543
L79.1381 49.7753
" />
<path d="M79.1381 49.7753
L79.0171 49.8358
" />
<path d="M79.0171 49.8358
L78.7752 49.8962
" />
<path d="M78.7752 49.8962
L78.5938 49.8962
" />
<path d="M78.5938 49.8962
L78.3519 49.8358
" />
<path d="M78.3519 49.8358
L78.2310 49.7753
" />
<path d="M78.2310 49.7753
L78.1100 49.6543
" />
<path d="M78.1100 49.6543
L78.0495 49.4729
" />
<path d="M78.0495 49.4729
L78.0495 49.3520
" />
<path d="M78.0495 49.3520
L78.1100 49.1705
" />
<path d="M78.1100 49.1705
L78.1705 49.1101
" />
<path d="M79.1986 47.8401
L79.2591 47.9005
" />
<path d="M79.2591 47.9005
L79.3195 48.0820
" />
<path d="M79.3195 48.0820
L79.3195 48.2029
" />
<path d="M79.3195 48.2029
L79.2591 48.3843
" />
<path d="M79.2591 48.3843
L79.1381 48.5053
" />
<path d="M79.1381 48.5053
L79.0171 48.5658
" />
<path d="M79.0171 48.5658
L78.7752 48.6262
" />
<path d="M78.7752 48.6262
L78.5938 48.6262
" />
<path d="M78.5938 48.6262
L78.3519 48.5658
" />
<path d="M78.3519 48.5658
L78.2310 48.5053
" />
<path d="M78.2310 48.5053
L78.1100 48.3843
" />
<path d="M78.1100 48.3843
L78.0495 48.2029
" />
<path d="M78.0495 48.2029
L78.0495 48.0820
" />
<path d="M78.0495 48.0820
L78.1100 47.9005
" />
<path d="M78.1100 47.9005
L78.1705 47.8401
" />
</g></g>
<g style="fill:none; 
stroke:#A90000; stroke-width:0.1524; stroke-opacity:1; 
stroke-linecap:round; stroke-linejoin:round;">
<g transform="rotate(-90.000000 78.4860 44.4500)">
<text x="78.4860" y="44.4500"
textLength="1.4127" font-size="1.6933" lengthAdjust="spacingAndGlyphs"
text-anchor="middle" opacity="0" stroke-opacity="0">5</text>
</g>
<g class="stroked-text"><desc>5</desc>
<path d="M77.0525 44.1475
L77.0525 44.7523
" />
<path d="M77.0525 44.7523
L77.6573 44.8127
" />
<path d="M77.6573 44.8127
L77.5968 44.7523
" />
<path d="M77.5968 44.7523
L77.5363 44.6313
" />
<path d="M77.5363 44.6313
L77.5363 44.3289
" />
<path d="M77.5363 44.3289
L77.5968 44.2080
" />
<path d="M77.5968 44.2080
L77.6573 44.1475
" />
<path d="M77.6573 44.1475
L77.7782 44.0870
" />
<path d="M77.7782 44.0870
L78.0806 44.0870
" />
<path d="M78.0806 44.0870
L78.2016 44.1475
" />
<path d="M78.2016 44.1475
L78.2621 44.2080
" />
<path d="M78.2621 44.2080
L78.3225 44.3289
" />
<path d="M78.3225 44.3289
L78.3225 44.6313
" />
<path d="M78.3225 44.6313
L78.2621 44.7523
" />
<path d="M78.2621 44.7523
L78.2016 44.8127
" />
</g></g>
<g style="fill:none; 
stroke:#840000; stroke-width:0.1524; stroke-opacity:1; 
stroke-linecap:round; stroke-linejoin:round;">
<path d="M78.7400 57.1500
L78.7400 62.2300
" />
</g>
<g style="fill:none; 
stroke:#006464; stroke-width:0.1524; stroke-opacity:1; 
stroke-linecap:round; stroke-linejoin:round;">
<g transform="rotate(-90.000000 78.7400 56.6420)">
<text x="78.7400" y="57.2770"
textLength="4.0737" font-size="1.6933" lengthAdjust="spacingAndGlyphs"
text-anchor="start" opacity="0" stroke-opacity="0">GND</text>
</g>
<g class="stroked-text"><desc>GND</desc>
<path d="M78.1100 55.5741
L78.0495 55.6951
" />
<path d="M78.0495 55.6951
L78.0495 55.8765
" />
<path d="M78.0495 55.8765
L78.1100 56.0579
" />
<path d="M78.1100 56.0579
L78.2310 56.1789
" />
<path d="M78.2310 56.1789
L78.3519 56.2394
" />
<path d="M78.3519 56.2394
L78.5938 56.2998
" />
<path d="M78.5938 56.2998
L78.7752 56.2998
" />
<path d="M78.7752 56.2998
L79.0171 56.2394
" />
<path d="M79.0171 56.2394
L79.1381 56.1789
" />
<path d="M79.1381 56.1789
L79.2591 56.0579
" />
<path d="M79.2591 56.0579
L79.3195 55.8765
" />
<path d="M79.3195 55.8765
L79.3195 55.7556
" />
<path d="M79.3195 55.7556
L79.2591 55.5741
" />
<path d="M79.2591 55.5741
L79.1986 55.5137
" />
<path d="M79.1986 55.5137
L78.7752 55.5137
" />
<path d="M78.7752 55.5137
L78.7752 55.7556
" />
<path d="M79.3195 54.9694
L78.0495 54.9694
" />
<path d="M78.0495 54.9694
L79.3195 54.2437
" />
<path d="M79.3195 54.2437
L78.0495 54.2437
" />
<path d="M79.3195 53.6389
L78.0495 53.6389
" />
<path d="M78.0495 53.6389
L78.0495 53.3365
" />
<path d="M78.0495 53.3365
L78.1100 53.1551
" />
<path d="M78.1100 53.1551
L78.2310 53.0341
" />
<path d="M78.2310 53.0341
L78.3519 52.9736
" />
<path d="M78.3519 52.9736
L78.5938 52.9132
" />
<path d="M78.5938 52.9132
L78.7752 52.9132
" />
<path d="M78.7752 52.9132
L79.0171 52.9736
" />
<path d="M79.0171 52.9736
L79.1381 53.0341
" />
<path d="M79.1381 53.0341
L79.2591 53.1551
" />
<path d="M79.2591 53.1551
L79.3195 53.3365
" />
<path d="M79.3195 53.3365
L79.3195 53.6389
" />
</g></g>
<g style="fill:none; 
stroke:#A90000; stroke-width:0.1524; stroke-opacity:1; 
stroke-linecap:round; stroke-linejoin:round;">
<g transform="rotate(-90.000000 78.4860 59.6900)">
<text x="78.4860" y="59.6900"
textLength="1.4127" font-size="1.6933" lengthAdjust="spacingAndGlyphs"
text-anchor="middle" opacity="0" stroke-opacity="0">3</text>
</g>
<g class="stroked-text"><desc>3</desc>
<path d="M77.0525 60.1132
L77.0525 59.3270
" />
<path d="M77.0525 59.3270
L77.5363 59.7504
" />
<path d="M77.5363 59.7504
L77.5363 59.5689
" />
<path d="M77.5363 59.5689
L77.5968 59.4480
" />
<path d="M77.5968 59.4480
L77.6573 59.3875
" />
<path d="M77.6573 59.3875
L77.7782 59.3270
" />
<path d="M77.7782 59.3270
L78.0806 59.3270
" />
<path d="M78.0806 59.3270
L78.2016 59.3875
" />
<path d="M78.2016 59.3875
L78.2621 59.4480
" />
<path d="M78.2621 59.4480
L78.3225 59.5689
" />
<path d="M78.3225 59.5689
L78.3225 59.9318
" />
<path d="M78.3225 59.9318
L78.2621 60.0527
" />
<path d="M78.2621 60.0527
L78.2016 60.1132
" />
</g></g>
<g style="fill:none; 
stroke:#840000; stroke-width:0.1524; stroke-opacity:1; 
stroke-linecap:round; stroke-linejoin:round;">
<path d="M83.8200 52.0700
L91.4400 52.0700
" />
</g>
<g style="fill:none; 
stroke:#A90000; stroke-width:0.1524; stroke-opacity:1; 
stroke-linecap:round; stroke-linejoin:round;">
<text x="87.6300" y="51.8160"
textLength="1.4127" font-size="1.6933" lengthAdjust="spacingAndGlyphs"
text-anchor="middle" opacity="0" stroke-opacity="0">4</text>
<g class="stroked-text"><desc>4</desc>
<path d="M87.8719 50.8059
L87.8719 51.6525
" />
<path d="M87.5695 50.3221
L87.2672 51.2292
" />
<path d="M87.2672 51.2292
L88.0533 51.2292
" />
</g></g>
<g style="fill:none; 
stroke:#006464; stroke-width:0.1524; stroke-opacity:1; 
stroke-linecap:round; stroke-linejoin:round;">
<text x="91.4400" y="46.2848"
textLength="5.1622" font-size="1.6933" lengthAdjust="spacingAndGlyphs"
text-anchor="middle" opacity="0" stroke-opacity="0">U101</text>
<g class="stroked-text"><desc>U101</desc>
<path d="M89.2628 44.9593
L89.2628 45.9874
" />
<path d="M89.2628 45.9874
L89.3233 46.1084
" />
<path d="M89.3233 46.1084
L89.3838 46.1689
" />
<path d="M89.3838 46.1689
L89.5047 46.2293
" />
<path d="M89.5047 46.2293
L89.7466 46.2293
" />
<path d="M89.7466 46.2293
L89.8676 46.1689
" />
<path d="M89.8676 46.1689
L89.9281 46.1084
" />
<path d="M89.9281 46.1084
L89.9885 45.9874
" />
<path d="M89.9885 45.9874
L89.9885 44.9593
" />
<path d="M91.2586 46.2293
L90.5329 46.2293
" />
<path d="M90.8957 46.2293
L90.8957 44.9593
" />
<path d="M90.8957 44.9593
L90.7748 45.1408
" />
<path d="M90.7748 45.1408
L90.6538 45.2617
" />
<path d="M90.6538 45.2617
L90.5329 45.3222
" />
<path d="M92.0447 44.9593
L92.1657 44.9593
" />
<path d="M92.1657 44.9593
L92.2866 45.0198
" />
<path d="M92.2866 45.0198
L92.3471 45.0803
" />
<path d="M92.3471 45.0803
L92.4076 45.2012
" />
<path d="M92.4076 45.2012
L92.4681 45.4431
" />
<path d="M92.4681 45.4431
L92.4681 45.7455
" />
<path d="M92.4681 45.7455
L92.4076 45.9874
" />
<path d="M92.4076 45.9874
L92.3471 46.1084
" />
<path d="M92.3471 46.1084
L92.2866 46.1689
" />
<path d="M92.2866 46.1689
L92.1657 46.2293
" />
<path d="M92.1657 46.2293
L92.0447 46.2293
" />
<path d="M92.0447 46.2293
L91.9238 46.1689
" />
<path d="M91.9238 46.1689
L91.8633 46.1084
" />
<path d="M91.8633 46.1084
L91.8028 45.9874
" />
<path d="M91.8028 45.9874
L91.7424 45.7455
" />
<path d="M91.7424 45.7455
L91.7424 45.4431
" />
<path d="M91.7424 45.4431
L91.8028 45.2012
" />
<path d="M91.8028 45.2012
L91.8633 45.0803
" />
<path d="M91.8633 45.0803
L91.9238 45.0198
" />
<path d="M91.9238 45.0198
L92.0447 44.9593
" />
<path d="M93.6776 46.2293
L92.9519 46.2293
" />
<path d="M93.3147 46.2293
L93.3147 44.9593
" />
<path d="M93.3147 44.9593
L93.1938 45.1408
" />
<path d="M93.1938 45.1408
L93.0728 45.2617
" />
<path d="M93.0728 45.2617
L92.9519 45.3222
" />
</g><text x="91.4400" y="48.8248"
textLength="11.2098" font-size="1.6933" lengthAdjust="spacingAndGlyphs"
text-anchor="middle" opacity="0" stroke-opacity="0">74AHC1G86</text>
<g class="stroked-text"><desc>74AHC1G86</desc>
<path d="M86.1181 47.4993
L86.9647 47.4993
" />
<path d="M86.9647 47.4993
L86.4205 48.7693
" />
<path d="M87.9928 47.9227
L87.9928 48.7693
" />
<path d="M87.6904 47.4389
L87.3881 48.3460
" />
<path d="M87.3881 48.3460
L88.1742 48.3460
" />
<path d="M88.5976 48.4065
L89.2023 48.4065
" />
<path d="M88.4766 48.7693
L88.8999 47.4993
" />
<path d="M88.8999 47.4993
L89.3233 48.7693
" />
<path d="M89.7466 48.7693
L89.7466 47.4993
" />
<path d="M89.7466 48.1041
L90.4723 48.1041
" />
<path d="M90.4723 48.7693
L90.4723 47.4993
" />
<path d="M91.8028 48.6484
L91.7424 48.7089
" />
<path d="M91.7424 48.7089
L91.5609 48.7693
" />
<path d="M91.5609 48.7693
L91.4400 48.7693
" />
<path d="M91.4400 48.7693
L91.2586 48.7089
" />
<path d="M91.2586 48.7089
L91.1376 48.5879
" />
<path d="M91.1376 48.5879
L91.0771 48.4669
" />
<path d="M91.0771 48.4669
L91.0167 48.2250
" />
<path d="M91.0167 48.2250
L91.0167 48.0436
" />
<path d="M91.0167 48.0436
L91.0771 47.8017
" />
<path d="M91.0771 47.8017
L91.1376 47.6808
" />
<path d="M91.1376 47.6808
L91.2586 47.5598
" />
<path d="M91.2586 47.5598
L91.4400 47.4993
" />
<path d="M91.4400 47.4993
L91.5609 47.4993
" />
<path d="M91.5609 47.4993
L91.7424 47.5598
" />
<path d="M91.7424 47.5598
L91.8028 47.6203
" />
<path d="M93.0124 48.7693
L92.2867 48.7693
" />
<path d="M92.6495 48.7693
L92.6495 47.4993
" />
<path d="M92.6495 47.4993
L92.5286 47.6808
" />
<path d="M92.5286 47.6808
L92.4076 47.8017
" />
<path d="M92.4076 47.8017
L92.2867 47.8622
" />
<path d="M94.2219 47.5598
L94.1009 47.4993
" />
<path d="M94.1009 47.4993
L93.9195 47.4993
" />
<path d="M93.9195 47.4993
L93.7381 47.5598
" />
<path d="M93.7381 47.5598
L93.6171 47.6808
" />
<path d="M93.6171 47.6808
L93.5566 47.8017
" />
<path d="M93.5566 47.8017
L93.4962 48.0436
" />
<path d="M93.4962 48.0436
L93.4962 48.2250
" />
<path d="M93.4962 48.2250
L93.5566 48.4669
" />
<path d="M93.5566 48.4669
L93.6171 48.5879
" />
<path d="M93.6171 48.5879
L93.7381 48.7089
" />
<path d="M93.7381 48.7089
L93.9195 48.7693
" />
<path d="M93.9195 48.7693
L94.0404 48.7693
" />
<path d="M94.0404 48.7693
L94.2219 48.7089
" />
<path d="M94.2219 48.7089
L94.2823 48.6484
" />
<path d="M94.2823 48.6484
L94.2823 48.2250
" />
<path d="M94.2823 48.2250
L94.0404 48.2250
" />
<path d="M95.0081 48.0436
L94.8871 47.9831
" />
<path d="M94.8871 47.9831
L94.8266 47.9227
" />
<path d="M94.8266 47.9227
L94.7662 47.8017
" />
<path d="M94.7662 47.8017
L94.7662 47.7412
" />
<path d="M94.7662 47.7412
L94.8266 47.6203
" />
<path d="M94.8266 47.6203
L94.8871 47.5598
" />
<path d="M94.8871 47.5598
L95.0081 47.4993
" />
<path d="M95.0081 47.4993
L95.2500 47.4993
" />
<path d="M95.2500 47.4993
L95.3709 47.5598
" />
<path d="M95.3709 47.5598
L95.4314 47.6203
" />
<path d="M95.4314 47.6203
L95.4919 47.7412
" />
<path d="M95.4919 47.7412
L95.4919 47.8017
" />
<path d="M95.4919 47.8017
L95.4314 47.9227
" />
<path d="M95.4314 47.9227
L95.3709 47.9831
" />
<path d="M95.3709 47.9831
L95.2500 48.0436
" />
<path d="M95.2500 48.0436
L95.0081 48.0436
" />
<path d="M95.0081 48.0436
L94.8871 48.1041
" />
<path d="M94.8871 48.1041
L94.8266 48.1646
" />
<path d="M94.8266 48.1646
L94.7662 48.2855
" />
<path d="M94.7662 48.2855
L94.7662 48.5274
" />
<path d="M94.7662 48.5274
L94.8266 48.6484
" />
<path d="M94.8266 48.6484
L94.8871 48.7089
" />
<path d="M94.8871 48.7089
L95.0081 48.7693
" />
<path d="M95.0081 48.7693
L95.2500 48.7693
" />
<path d="M95.2500 48.7693
L95.3709 48.7089
" />
<path d="M95.3709 48.7089
L95.4314 48.6484
" />
<path d="M95.4314 48.6484
L95.4919 48.5274
" />
<path d="M95.4919 48.5274
L95.4919 48.2855
" />
<path d="M95.4919 48.2855
L95.4314 48.1646
" />
<path d="M95.4314 48.1646
L95.3709 48.1041
" />
<path d="M95.3709 48.1041
L95.2500 48.0436
" />
<path d="M96.5804 47.4993
L96.3385 47.4993
" />
<path d="M96.3385 47.4993
L96.2176 47.5598
" />
<path d="M96.2176 47.5598
L96.1571 47.6203
" />
<path d="M96.1571 47.6203
L96.0361 47.8017
" />
<path d="M96.0361 47.8017
L95.9757 48.0436
" />
<path d="M95.9757 48.0436
L95.9757 48.5274
" />
<path d="M95.9757 48.5274
L96.0361 48.6484
" />
<path d="M96.0361 48.6484
L96.0966 48.7089
" />
<path d="M96.0966 48.7089
L96.2176 48.7693
" />
<path d="M96.2176 48.7693
L96.4595 48.7693
" />
<path d="M96.4595 48.7693
L96.5804 48.7089
" />
<path d="M96.5804 48.7089
L96.6409 48.6484
" />
<path d="M96.6409 48.6484
L96.7014 48.5274
" />
<path d="M96.7014 48.5274
L96.7014 48.2250
" />
<path d="M96.7014 48.2250
L96.6409 48.1041
" />
<path d="M96.6409 48.1041
L96.5804 48.0436
" />
<path d="M96.5804 48.0436
L96.4595 47.9831
" />
<path d="M96.4595 47.9831
L96.2176 47.9831
" />
<path d="M96.2176 47.9831
L96.0966 48.0436
" />
<path d="M96.0966 48.0436
L96.0361 48.1041
" />
<path d="M96.0361 48.1041
L95.9757 48.2250
" />
</g></g>
<g style="fill:none; 
stroke:#725600; stroke-width:0.1524; stroke-opacity:1; 
stroke-linecap:round; stroke-linejoin:round;">
<text x="62.0395" y="50.1650"
textLength="1.2918" font-size="1.6933" lengthAdjust="spacingAndGlyphs"
text-anchor="end" opacity="0" stroke-opacity="0">A</text>
<g class="stroked-text"><desc>A</desc>
<path d="M61.0926 49.7467
L61.6973 49.7467
" />
<path d="M60.9716 50.1095
L61.3949 48.8395
" />
<path d="M61.3949 48.8395
L61.8183 50.1095
" />
</g><path style="fill:none; 
stroke:#725600; stroke-width:0.1524; stroke-opacity:1; 
stroke-linecap:round; stroke-linejoin:round;fill:none"
d="M 63.5000,49.5300
62.8650,48.8950
62.2300,48.8950
62.2300,50.1650
62.8650,50.1650
Z" /> 
</g>
<g style="fill:none; 
stroke:#725600; stroke-width:0.1524; stroke-opacity:1; 
stroke-linecap:round; stroke-linejoin:round;">
<text x="92.9005" y="52.7050"
textLength="1.2918" font-size="1.6933" lengthAdjust="spacingAndGlyphs"
text-anchor="start" opacity="0" stroke-opacity="0">Y</text>
<g class="stroked-text"><desc>Y</desc>
<path d="M93.5449 52.0448
L93.5449 52.6495
" />
<path d="M93.1216 51.3795
L93.5449 52.0448
" />
<path d="M93.5449 52.0448
L93.9683 51.3795
" />
</g><path style="fill:none; 
stroke:#725600; stroke-width:0.1524; stroke-opacity:1; 
stroke-linecap:round; stroke-linejoin:round;fill:none"
d="M 92.7100,52.0700
92.0750,51.4350
91.4400,51.4350
91.4400,52.7050
92.0750,52.7050
Z" /> 
</g>
<g style="fill:none; 
stroke:#725600; stroke-width:0.1524; stroke-opacity:1; 
stroke-linecap:round; stroke-linejoin:round;">
<text x="62.0395" y="55.2450"
textLength="1.4732" font-size="1.6933" lengthAdjust="spacingAndGlyphs"
text-anchor="end" opacity="0" stroke-opacity="0">B</text>
<g class="stroked-text"><desc>B</desc>
<path d="M61.3950 54.5243
L61.5764 54.5848
" />
<path d="M61.5764 54.5848
L61.6369 54.6452
" />
<path d="M61.6369 54.6452
L61.6973 54.7662
" />
<path d="M61.6973 54.7662
L61.6973 54.9476
" />
<path d="M61.6973 54.9476
L61.6369 55.0686
" />
<path d="M61.6369 55.0686
L61.5764 55.1291
" />
<path d="M61.5764 55.1291
L61.4554 55.1895
" />
<path d="M61.4554 55.1895
L60.9716 55.1895
" />
<path d="M60.9716 55.1895
L60.9716 53.9195
" />
<path d="M60.9716 53.9195
L61.3950 53.9195
" />
<path d="M61.3950 53.9195
L61.5159 53.9800
" />
<path d="M61.5159 53.9800
L61.5764 54.0405
" />
<path d="M61.5764 54.0405
L61.6369 54.1614
" />
<path d="M61.6369 54.1614
L61.6369 54.2824
" />
<path d="M61.6369 54.2824
L61.5764 54.4033
" />
<path d="M61.5764 54.4033
L61.5159 54.4638
" />
<path d="M61.5159 54.4638
L61.3950 54.5243
" />
<path d="M61.3950 54.5243
L60.9716 54.5243
" />
</g><path style="fill:none; 
stroke:#725600; stroke-width:0.1524; stroke-opacity:1; 
stroke-linecap:round; stroke-linejoin:round;fill:none"
d="M 63.5000,54.6100
62.8650,53.9750
62.2300,53.9750
62.2300,55.2450
62.8650,55.2450
Z" /> 
</g>
<g style="fill:none; 
stroke:#006464; stroke-width:0.1524; stroke-opacity:1; 
stroke-linecap:round; stroke-linejoin:round;">
<text x="78.7400" y="37.4650"
textLength="3.8318" font-size="1.6933" lengthAdjust="spacingAndGlyphs"
text-anchor="middle" opacity="0" stroke-opacity="0">VCC</text>
<g class="stroked-text"><desc>VCC</desc>
<path d="M77.0466 36.1395
L77.4699 37.4095
" />
<path d="M77.4699 37.4095
L77.8933 36.1395
" />
<path d="M79.0423 37.2886
L78.9819 37.3491
" />
<path d="M78.9819 37.3491
L78.8004 37.4095
" />
<path d="M78.8004 37.4095
L78.6795 37.4095
" />
<path d="M78.6795 37.4095
L78.4981 37.3491
" />
<path d="M78.4981 37.3491
L78.3771 37.2281
" />
<path d="M78.3771 37.2281
L78.3166 37.1071
" />
<path d="M78.3166 37.1071
L78.2562 36.8652
" />
<path d="M78.2562 36.8652
L78.2562 36.6838
" />
<path d="M78.2562 36.6838
L78.3166 36.4419
" />
<path d="M78.3166 36.4419
L78.3771 36.3210
" />
<path d="M78.3771 36.3210
L78.4981 36.2000
" />
<path d="M78.4981 36.2000
L78.6795 36.1395
" />
<path d="M78.6795 36.1395
L78.8004 36.1395
" />
<path d="M78.8004 36.1395
L78.9819 36.2000
" />
<path d="M78.9819 36.2000
L79.0423 36.2605
" />
<path d="M80.3123 37.2886
L80.2519 37.3491
" />
<path d="M80.2519 37.3491
L80.0704 37.4095
" />
<path d="M80.0704 37.4095
L79.9495 37.4095
" />
<path d="M79.9495 37.4095
L79.7681 37.3491
" />
<path d="M79.7681 37.3491
L79.6471 37.2281
" />
<path d="M79.6471 37.2281
L79.5866 37.1071
" />
<path d="M79.5866 37.1071
L79.5262 36.8652
" />
<path d="M79.5262 36.8652
L79.5262 36.6838
" />
<path d="M79.5262 36.6838
L79.5866 36.4419
" />
<path d="M79.5866 36.4419
L79.6471 36.3210
" />
<path d="M79.6471 36.3210
L79.7681 36.2000
" />
<path d="M79.7681 36.2000
L79.9495 36.1395
" />
<path d="M79.9495 36.1395
L80.0704 36.1395
" />
<path d="M80.0704 36.1395
L80.2519 36.2000
" />
<path d="M80.2519 36.2000
L80.3123 36.2605
" />
</g></g>
<g style="fill:none; 
stroke:#840000; stroke-width:0.1524; stroke-opacity:1; 
stroke-linecap:round; stroke-linejoin:round;">
<path d="M78.7400 41.9100
L78.7400 41.9100
" />
</g>
<g style="fill:none; 
stroke:#006464; stroke-width:0.1524; stroke-opacity:1; 
stroke-linecap:round; stroke-linejoin:round;">
<text x="78.7400" y="67.9450"
textLength="4.0737" font-size="1.6933" lengthAdjust="spacingAndGlyphs"
text-anchor="middle" opacity="0" stroke-opacity="0">GND</text>
<g class="stroked-text"><desc>GND</desc>
<path d="M77.7724 66.6800
L77.6514 66.6195
" />
<path d="M77.6514 66.6195
L77.4700 66.6195
" />
<path d="M77.4700 66.6195
L77.2886 66.6800
" />
<path d="M77.2886 66.6800
L77.1676 66.8010
" />
<path d="M77.1676 66.8010
L77.1071 66.9219
" />
<path d="M77.1071 66.9219
L77.0467 67.1638
" />
<path d="M77.0467 67.1638
L77.0467 67.3452
" />
<path d="M77.0467 67.3452
L77.1071 67.5871
" />
<path d="M77.1071 67.5871
L77.1676 67.7081
" />
<path d="M77.1676 67.7081
L77.2886 67.8291
" />
<path d="M77.2886 67.8291
L77.4700 67.8895
" />
<path d="M77.4700 67.8895
L77.5909 67.8895
" />
<path d="M77.5909 67.8895
L77.7724 67.8291
" />
<path d="M77.7724 67.8291
L77.8328 67.7686
" />
<path d="M77.8328 67.7686
L77.8328 67.3452
" />
<path d="M77.8328 67.3452
L77.5909 67.3452
" />
<path d="M78.3771 67.8895
L78.3771 66.6195
" />
<path d="M78.3771 66.6195
L79.1028 67.8895
" />
<path d="M79.1028 67.8895
L79.1028 66.6195
" />
<path d="M79.7076 67.8895
L79.7076 66.6195
" />
<path d="M79.7076 66.6195
L80.0100 66.6195
" />
<path d="M80.0100 66.6195
L80.1914 66.6800
" />
<path d="M80.1914 66.6800
L80.3124 66.8010
" />
<path d="M80.3124 66.8010
L80.3729 66.9219
" />
<path d="M80.3729 66.9219
L80.4333 67.1638
" />
<path d="M80.4333 67.1638
L80.4333 67.3452
" />
<path d="M80.4333 67.3452
L80.3729 67.5871
" />
<path d="M80.3729 67.5871
L80.3124 67.7081
" />
<path d="M80.3124 67.7081
L80.1914 67.8291
" />
<path d="M80.1914 67.8291
L80.0100 67.8895
" />
<path d="M80.0100 67.8895
L79.7076 67.8895
" />
</g></g>
<g style="fill:none; 
stroke:#840000; stroke-width:0.1524; stroke-opacity:1; 
stroke-linecap:round; stroke-linejoin:round;">
<path d="M78.7400 62.2300
L78.7400 62.2300
" />
</g>
<g style="fill:none; 
stroke:#006464; stroke-width:0.1524; stroke-opacity:1; 
stroke-linecap:round; stroke-linejoin:round;">
<text x="91.4400" y="46.2848"
textLength="5.1622" font-size="1.6933" lengthAdjust="spacingAndGlyphs"
text-anchor="middle" opacity="0" stroke-opacity="0">U101</text>
<g class="stroked-text"><desc>U101</desc>
<path d="M89.2628 44.9593
L89.2628 45.9874
" />
<path d="M89.2628 45.9874
L89.3233 46.1084
" />
<path d="M89.3233 46.1084
L89.3838 46.1689
" />
<path d="M89.3838 46.1689
L89.5047 46.2293
" />
<path d="M89.5047 46.2293
L89.7466 46.2293
" />
<path d="M89.7466 46.2293
L89.8676 46.1689
" />
<path d="M89.8676 46.1689
L89.9281 46.1084
" />
<path d="M89.9281 46.1084
L89.9885 45.9874
" />
<path d="M89.9885 45.9874
L89.9885 44.9593
" />
<path d="M91.2586 46.2293
L90.5329 46.2293
" />
<path d="M90.8957 46.2293
L90.8957 44.9593
" />
<path d="M90.8957 44.9593
L90.7748 45.1408
" />
<path d="M90.7748 45.1408
L90.6538 45.2617
" />
<path d="M90.6538 45.2617
L90.5329 45.3222
" />
<path d="M92.0447 44.9593
L92.1657 44.9593
" />
<path d="M92.1657 44.9593
L92.2866 45.0198
" />
<path d="M92.2866 45.0198
L92.3471 45.0803
" />
<path d="M92.3471 45.0803
L92.4076 45.2012
" />
<path d="M92.4076 45.2012
L92.4681 45.4431
" />
<path d="M92.4681 45.4431
L92.4681 45.7455
" />
<path d="M92.4681 45.7455
L92.4076 45.9874
" />
<path d="M92.4076 45.9874
L92.3471 46.1084
" />
<path d="M92.3471 46.1084
L92.2866 46.1689
" />
<path d="M92.2866 46.1689
L92.1657 46.2293
" />
<path d="M92.1657 46.2293
L92.0447 46.2293
" />
<path d="M92.0447 46.2293
L91.9238 46.1689
" />
<path d="M91.9238 46.1689
L91.8633 46.1084
" />
<path d="M91.8633 46.1084
L91.8028 45.9874
" />
<path d="M91.8028 45.9874
L91.7424 45.7455
" />
<path d="M91.7424 45.7455
L91.7424 45.4431
" />
<path d="M91.7424 45.4431
L91.8028 45.2012
" />
<path d="M91.8028 45.2012
L91.8633 45.0803
" />
<path d="M91.8633 45.0803
L91.9238 45.0198
" />
<path d="M91.9238 45.0198
L92.0447 44.9593
" />
<path d="M93.6776 46.2293
L92.9519 46.2293
" />
<path d="M93.3147 46.2293
L93.3147 44.9593
" />
<path d="M93.3147 44.9593
L93.1938 45.1408
" />
<path d="M93.1938 45.1408
L93.0728 45.2617
" />
<path d="M93.0728 45.2617
L92.9519 45.3222
" />
</g><text x="91.4400" y="48.8248"
textLength="11.2098" font-size="1.6933" lengthAdjust="spacingAndGlyphs"
text-anchor="middle" opacity="0" stroke-opacity="0">74AHC1G86</text>
<g class="stroked-text"><desc>74AHC1G86</desc>
<path d="M86.1181 47.4993
L86.9647 47.4993
" />
<path d="M86.9647 47.4993
L86.4205 48.7693
" />
<path d="M87.9928 47.9227
L87.9928 48.7693
" />
<path d="M87.6904 47.4389
L87.3881 48.3460
" />
<path d="M87.3881 48.3460
L88.1742 48.3460
" />
<path d="M88.5976 48.4065
L89.2023 48.4065
" />
<path d="M88.4766 48.7693
L88.8999 47.4993
" />
<path d="M88.8999 47.4993
L89.3233 48.7693
" />
<path d="M89.7466 48.7693
L89.7466 47.4993
" />
<path d="M89.7466 48.1041
L90.4723 48.1041
" />
<path d="M90.4723 48.7693
L90.4723 47.4993
" />
<path d="M91.8028 48.6484
L91.7424 48.7089
" />
<path d="M91.7424 48.7089
L91.5609 48.7693
" />
<path d="M91.5609 48.7693
L91.4400 48.7693
" />
<path d="M91.4400 48.7693
L91.2586 48.7089
" />
<path d="M91.2586 48.7089
L91.1376 48.5879
" />
<path d="M91.1376 48.5879
L91.0771 48.4669
" />
<path d="M91.0771 48.4669
L91.0167 48.2250
" />
<path d="M91.0167 48.2250
L91.0167 48.0436
" />
<path d="M91.0167 48.0436
L91.0771 47.8017
" />
<path d="M91.0771 47.8017
L91.1376 47.6808
" />
<path d="M91.1376 47.6808
L91.2586 47.5598
" />
<path d="M91.2586 47.5598
L91.4400 47.4993
" />
<path d="M91.4400 47.4993
L91.5609 47.4993
" />
<path d="M91.5609 47.4993
L91.7424 47.5598
" />
<path d="M91.7424 47.5598
L91.8028 47.6203
" />
<path d="M93.0124 48.7693
L92.2867 48.7693
" />
<path d="M92.6495 48.7693
L92.6495 47.4993
" />
<path d="M92.6495 47.4993
L92.5286 47.6808
" />
<path d="M92.5286 47.6808
L92.4076 47.8017
" />
<path d="M92.4076 47.8017
L92.2867 47.8622
" />
<path d="M94.2219 47.5598
L94.1009 47.4993
" />
<path d="M94.1009 47.4993
L93.9195 47.4993
" />
<path d="M93.9195 47.4993
L93.7381 47.5598
" />
<path d="M93.7381 47.5598
L93.6171 47.6808
" />
<path d="M93.6171 47.6808
L93.5566 47.8017
" />
<path d="M93.5566 47.8017
L93.4962 48.0436
" />
<path d="M93.4962 48.0436
L93.4962 48.2250
" />
<path d="M93.4962 48.2250
L93.5566 48.4669
" />
<path d="M93.5566 48.4669
L93.6171 48.5879
" />
<path d="M93.6171 48.5879
L93.7381 48.7089
" />
<path d="M93.7381 48.7089
L93.9195 48.7693
" />
<path d="M93.9195 48.7693
L94.0404 48.7693
" />
<path d="M94.0404 48.7693
L94.2219 48.7089
" />
<path d="M94.2219 48.7089
L94.2823 48.6484
" />
<path d="M94.2823 48.6484
L94.2823 48.2250
" />
<path d="M94.2823 48.2250
L94.0404 48.2250
" />
<path d="M95.0081 48.0436
L94.8871 47.9831
" />
<path d="M94.8871 47.9831
L94.8266 47.9227
" />
<path d="M94.8266 47.9227
L94.7662 47.8017
" />
<path d="M94.7662 47.8017
L94.7662 47.7412
" />
<path d="M94.7662 47.7412
L94.8266 47.6203
" />
<path d="M94.8266 47.6203
L94.8871 47.5598
" />
<path d="M94.8871 47.5598
L95.0081 47.4993
" />
<path d="M95.0081 47.4993
L95.2500 47.4993
" />
<path d="M95.2500 47.4993
L95.3709 47.5598
" />
<path d="M95.3709 47.5598
L95.4314 47.6203
" />
<path d="M95.4314 47.6203
L95.4919 47.7412
" />
<path d="M95.4919 47.7412
L95.4919 47.8017
" />
<path d="M95.4919 47.8017
L95.4314 47.9227
" />
<path d="M95.4314 47.9227
L95.3709 47.9831
" />
<path d="M95.3709 47.9831
L95.2500 48.0436
" />
<path d="M95.2500 48.0436
L95.0081 48.0436
" />
<path d="M95.0081 48.0436
L94.8871 48.1041
" />
<path d="M94.8871 48.1041
L94.8266 48.1646
" />
<path d="M94.8266 48.1646
L94.7662 48.2855
" />
<path d="M94.7662 48.2855
L94.7662 48.5274
" />
<path d="M94.7662 48.5274
L94.8266 48.6484
" />
<path d="M94.8266 48.6484
L94.8871 48.7089
" />
<path d="M94.8871 48.7089
L95.0081 48.7693
" />
<path d="M95.0081 48.7693
L95.2500 48.7693
" />
<path d="M95.2500 48.7693
L95.3709 48.7089
" />
<path d="M95.3709 48.7089
L95.4314 48.6484
" />
<path d="M95.4314 48.6484
L95.4919 48.5274
" />
<path d="M95.4919 48.5274
L95.4919 48.2855
" />
<path d="M95.4919 48.2855
L95.4314 48.1646
" />
<path d="M95.4314 48.1646
L95.3709 48.1041
" />
<path d="M95.3709 48.1041
L95.2500 48.0436
" />
<path d="M96.5804 47.4993
L96.3385 47.4993
" />
<path d="M96.3385 47.4993
L96.2176 47.5598
" />
<path d="M96.2176 47.5598
L96.1571 47.6203
" />
<path d="M96.1571 47.6203
L96.0361 47.8017
" />
<path d="M96.0361 47.8017
L95.9757 48.0436
" />
<path d="M95.9757 48.0436
L95.9757 48.5274
" />
<path d="M95.9757 48.5274
L96.0361 48.6484
" />
<path d="M96.0361 48.6484
L96.0966 48.7089
" />
<path d="M96.0966 48.7089
L96.2176 48.7693
" />
<path d="M96.2176 48.7693
L96.4595 48.7693
" />
<path d="M96.4595 48.7693
L96.5804 48.7089
" />
<path d="M96.5804 48.7089
L96.6409 48.6484
" />
<path d="M96.6409 48.6484
L96.7014 48.5274
" />
<path d="M96.7014 48.5274
L96.7014 48.2250
" />
<path d="M96.7014 48.2250
L96.6409 48.1041
" />
<path d="M96.6409 48.1041
L96.5804 48.0436
" />
<path d="M96.5804 48.0436
L96.4595 47.9831
" />
<path d="M96.4595 47.9831
L96.2176 47.9831
" />
<path d="M96.2176 47.9831
L96.0966 48.0436
" />
<path d="M96.0966 48.0436
L96.0361 48.1041
" />
<path d="M96.0361 48.1041
L95.9757 48.2250
" />
</g></g>
<g style="fill:none; 
stroke:#840000; stroke-width:0.1524; stroke-opacity:1; 
stroke-linecap:round; stroke-linejoin:round;">
<path d="M71.1200 49.5300
L63.5000 49.5300
" />
</g>
<g style="fill:none; 
stroke:#A90000; stroke-width:0.1524; stroke-opacity:1; 
stroke-linecap:round; stroke-linejoin:round;">
<text x="67.3100" y="49.2760"
textLength="1.4127" font-size="1.6933" lengthAdjust="spacingAndGlyphs"
text-anchor="middle" opacity="0" stroke-opacity="0">1</text>
<g class="stroked-text"><desc>1</desc>
<path d="M67.6729 49.1125
L66.9472 49.1125
" />
<path d="M67.3100 49.1125
L67.3100 47.8425
" />
<path d="M67.3100 47.8425
L67.1891 48.0240
" />
<path d="M67.1891 48.0240
L67.0681 48.1449
" />
<path d="M67.0681 48.1449
L66.9472 48.2054
" />
</g></g>
<g style="fill:none; 
stroke:#840000; stroke-width:0.1524; stroke-opacity:1; 
stroke-linecap:round; stroke-linejoin:round;">
<path d="M71.1200 54.6100
L63.5000 54.6100
" />
</g>
<g style="fill:none; 
stroke:#A90000; stroke-width:0.1524; stroke-opacity:1; 
stroke-linecap:round; stroke-linejoin:round;">
<text x="67.3100" y="54.3560"
textLength="1.4127" font-size="1.6933" lengthAdjust="spacingAndGlyphs"
text-anchor="middle" opacity="0" stroke-opacity="0">2</text>
<g class="stroked-text"><desc>2</desc>
<path d="M66.9472 53.0435
L67.0076 52.9830
" />
<path d="M67.0076 52.9830
L67.1286 52.9225
" />
<path d="M67.1286 52.9225
L67.4310 52.9225
" />
<path d="M67.4310 52.9225
L67.5519 52.9830
" />
<path d="M67.5519 52.9830
L67.6124 53.0435
" />
<path d="M67.6124 53.0435
L67.6729 53.1644
" />
<path d="M67.6729 53.1644
L67.6729 53.2854
" />
<path d="M67.6729 53.2854
L67.6124 53.4668
" />
<path d="M67.6124 53.4668
L66.8867 54.1925
" />
<path d="M66.8867 54.1925
L67.6729 54.1925
" />
</g></g>
<g style="fill:none; 
stroke:#840000; stroke-width:0.1524; stroke-opacity:1; 
stroke-linecap:round; stroke-linejoin:round;">
<path d="M78.7400 46.9900
L78.7400 41.9100
" />
</g>
<g style="fill:none; 
stroke:#006464; stroke-width:0.1524; stroke-opacity:1; 
stroke-linecap:round; stroke-linejoin:round;">
<g transform="rotate(-90.000000 78.7400 47.4980)">
<text x="78.7400" y="48.1330"
textLength="3.8318" font-size="1.6933" lengthAdjust="spacingAndGlyphs"
text-anchor="end" opacity="0" stroke-opacity="0">VCC</text>
</g>
<g class="stroked-text"><desc>VCC</desc>
<path d="M78.0495 51.1058
L79.3195 50.6825
" />
<path d="M79.3195 50.6825
L78.0495 50.2591
" />
<path d="M79.1986 49.1101
L79.2591 49.1705
" />
<path d="M79.2591 49.1705
L79.3195 49.3520
" />
<path d="M79.3195 49.3520
L79.3195 49.4729
" />
<path d="M79.3195 49.4729
L79.2591 49.6543
" />
<path d="M79.2591 49.6543
L79.1381 49.7753
" />
<path d="M79.1381 49.7753
L79.0171 49.8358
" />
<path d="M79.0171 49.8358
L78.7752 49.8962
" />
<path d="M78.7752 49.8962
L78.5938 49.8962
" />
<path d="M78.5938 49.8962
L78.3519 49.8358
" />
<path d="M78.3519 49.8358
L78.2310 49.7753
" />
<path d="M78.2310 49.7753
L78.1100 49.6543
" />
<path d="M78.1100 49.6543
L78.0495 49.4729
" />
<path d="M78.0495 49.4729
L78.0495 49.3520
" />
<path d="M78.0495 49.3520
L78.1100 49.1705
" />
<path d="M78.1100 49.1705
L78.1705 49.1101
" />
<path d="M79.1986 47.8401
L79.2591 47.9005
" />
<path d="M79.2591 47.9005
L79.3195 48.0820
" />
<path d="M79.3195 48.0820
L79.3195 48.2029
" />
<path d="M79.3195 48.2029
L79.2591 48.3843
" />
<path d="M79.2591 48.3843
L79.1381 48.5053
" />
<path d="M79.1381 48.5053
L79.0171 48.5658
" />
<path d="M79.0171 48.5658
L78.7752 48.6262
" />
<path d="M78.7752 48.6262
L78.5938 48.6262
" />
<path d="M78.5938 48.6262
L78.3519 48.5658
" />
<path d="M78.3519 48.5658
L78.2310 48.5053
" />
<path d="M78.2310 48.5053
L78.1100 48.3843
" />
<path d="M78.1100 48.3843
L78.0495 48.2029
" />
<path d="M78.0495 48.2029
L78.0495 48.0820
" />
<path d="M78.0495 48.0820
L78.1100 47.9005
" />
<path d="M78.1100 47.9005
L78.1705 47.8401
" />
</g></g>
<g style="fill:none; 
stroke:#A90000; stroke-width:0.1524; stroke-opacity:1; 
stroke-linecap:round; stroke-linejoin:round;">
<g transform="rotate(-90.000000 78.4860 44.4500)">
<text x="78.4860" y="44.4500"
textLength="1.4127" font-size="1.6933" lengthAdjust="spacingAndGlyphs"
text-anchor="middle" opacity="0" stroke-opacity="0">5</text>
</g>
<g class="stroked-text"><desc>5</desc>
<path d="M77.0525 44.1475
L77.0525 44.7523
" />
<path d="M77.0525 44.7523
L77.6573 44.8127
" />
<path d="M77.6573 44.8127
L77.5968 44.7523
" />
<path d="M77.5968 44.7523
L77.5363 44.6313
" />
<path d="M77.5363 44.6313
L77.5363 44.3289
" />
<path d="M77.5363 44.3289
L77.5968 44.2080
" />
<path d="M77.5968 44.2080
L77.6573 44.1475
" />
<path d="M77.6573 44.1475
L77.7782 44.0870
" />
<path d="M77.7782 44.0870
L78.0806 44.0870
" />
<path d="M78.0806 44.0870
L78.2016 44.1475
" />
<path d="M78.2016 44.1475
L78.2621 44.2080
" />
<path d="M78.2621 44.2080
L78.3225 44.3289
" />
<path d="M78.3225 44.3289
L78.3225 44.6313
" />
<path d="M78.3225 44.6313
L78.2621 44.7523
" />
<path d="M78.2621 44.7523
L78.2016 44.8127
" />
</g></g>
<g style="fill:none; 
stroke:#840000; stroke-width:0.1524; stroke-opacity:1; 
stroke-linecap:round; stroke-linejoin:round;">
<path d="M78.7400 57.1500
L78.7400 62.2300
" />
</g>
<g style="fill:none; 
stroke:#006464; stroke-width:0.1524; stroke-opacity:1; 
stroke-linecap:round; stroke-linejoin:round;">
<g transform="rotate(-90.000000 78.7400 56.6420)">
<text x="78.7400" y="57.2770"
textLength="4.0737" font-size="1.6933" lengthAdjust="spacingAndGlyphs"
text-anchor="start" opacity="0" stroke-opacity="0">GND</text>
</g>
<g class="stroked-text"><desc>GND</desc>
<path d="M78.1100 55.5741
L78.0495 55.6951
" />
<path d="M78.0495 55.6951
L78.0495 55.8765
" />
<path d="M78.0495 55.8765
L78.1100 56.0579
" />
<path d="M78.1100 56.0579
L78.2310 56.1789
" />
<path d="M78.2310 56.1789
L78.3519 56.2394
" />
<path d="M78.3519 56.2394
L78.5938 56.2998
" />
<path d="M78.5938 56.2998
L78.7752 56.2998
" />
<path d="M78.7752 56.2998
L79.0171 56.2394
" />
<path d="M79.0171 56.2394
L79.1381 56.1789
" />
<path d="M79.1381 56.1789
L79.2591 56.0579
" />
<path d="M79.2591 56.0579
L79.3195 55.8765
" />
<path d="M79.3195 55.8765
L79.3195 55.7556
" />
<path d="M79.3195 55.7556
L79.2591 55.5741
" />
<path d="M79.2591 55.5741
L79.1986 55.5137
" />
<path d="M79.1986 55.5137
L78.7752 55.5137
" />
<path d="M78.7752 55.5137
L78.7752 55.7556
" />
<path d="M79.3195 54.9694
L78.0495 54.9694
" />
<path d="M78.0495 54.9694
L79.3195 54.2437
" />
<path d="M79.3195 54.2437
L78.0495 54.2437
" />
<path d="M79.3195 53.6389
L78.0495 53.6389
" />
<path d="M78.0495 53.6389
L78.0495 53.3365
" />
<path d="M78.0495 53.3365
L78.1100 53.1551
" />
<path d="M78.1100 53.1551
L78.2310 53.0341
" />
<path d="M78.2310 53.0341
L78.3519 52.9736
" />
<path d="M78.3519 52.9736
L78.5938 52.9132
" />
<path d="M78.5938 52.9132
L78.7752 52.9132
" />
<path d="M78.7752 52.9132
L79.0171 52.9736
" />
<path d="M79.0171 52.9736
L79.1381 53.0341
" />
<path d="M79.1381 53.0341
L79.2591 53.1551
" />
<path d="M79.2591 53.1551
L79.3195 53.3365
" />
<path d="M79.3195 53.3365
L79.3195 53.6389
" />
</g></g>
<g style="fill:none; 
stroke:#A90000; stroke-width:0.1524; stroke-opacity:1; 
stroke-linecap:round; stroke-linejoin:round;">
<g transform="rotate(-90.000000 78.4860 59.6900)">
<text x="78.4860" y="59.6900"
textLength="1.4127" font-size="1.6933" lengthAdjust="spacingAndGlyphs"
text-anchor="middle" opacity="0" stroke-opacity="0">3</text>
</g>
<g class="stroked-text"><desc>3</desc>
<path d="M77.0525 60.1132
L77.0525 59.3270
" />
<path d="M77.0525 59.3270
L77.5363 59.7504
" />
<path d="M77.5363 59.7504
L77.5363 59.5689
" />
<path d="M77.5363 59.5689
L77.5968 59.4480
" />
<path d="M77.5968 59.4480
L77.6573 59.3875
" />
<path d="M77.6573 59.3875
L77.7782 59.3270
" />
<path d="M77.7782 59.3270
L78.0806 59.3270
" />
<path d="M78.0806 59.3270
L78.2016 59.3875
" />
<path d="M78.2016 59.3875
L78.2621 59.4480
" />
<path d="M78.2621 59.4480
L78.3225 59.5689
" />
<path d="M78.3225 59.5689
L78.3225 59.9318
" />
<path d="M78.3225 59.9318
L78.2621 60.0527
" />
<path d="M78.2621 60.0527
L78.2016 60.1132
" />
</g></g>
<g style="fill:none; 
stroke:#840000; stroke-width:0.1524; stroke-opacity:1; 
stroke-linecap:round; stroke-linejoin:round;">
<path d="M83.8200 52.0700
L91.4400 52.0700
" />
</g>
<g style="fill:none; 
stroke:#A90000; stroke-width:0.1524; stroke-opacity:1; 
stroke-linecap:round; stroke-linejoin:round;">
<text x="87.6300" y="51.8160"
textLength="1.4127" font-size="1.6933" lengthAdjust="spacingAndGlyphs"
text-anchor="middle" opacity="0" stroke-opacity="0">4</text>
<g class="stroked-text"><desc>4</desc>
<path d="M87.8719 50.8059
L87.8719 51.6525
" />
<path d="M87.5695 50.3221
L87.2672 51.2292
" />
<path d="M87.2672 51.2292
L88.0533 51.2292
" />
</g></g> 
</svg>
