<?xml version="1.0" standalone="no"?>
 <!DOCTYPE svg PUBLIC "-//W3C//DTD SVG 1.1//EN" 
 "http://www.w3.org/Graphics/SVG/1.1/DTD/svg11.dtd"> 
<svg
  xmlns:svg="http://www.w3.org/2000/svg"
  xmlns="http://www.w3.org/2000/svg"
  xmlns:xlink="http://www.w3.org/1999/xlink"
  version="1.1"
  width="297.0022mm" height="210.0072mm" viewBox="0.0000 0.0000 297.0022 210.0072">
<title>SVG Image created as gate_and_2in_8bit-and8.svg date 2026/01/14 19:56:41 </title>
  <desc>Image generated by Eeschema-SVG </desc>
<g style="fill:#000000; fill-opacity:1.0000;stroke:#000000; stroke-opacity:1.0000;
stroke-linecap:round; stroke-linejoin:round;"
 transform="translate(0 0) scale(1 1)">
</g>
<g style="fill:none; 
stroke:#840000; stroke-width:0.1524; stroke-opacity:1; 
stroke-linecap:round; stroke-linejoin:round;">
<rect x="65.405000" y="35.560000" width="29.845000" height="24.130000" rx="0.000000" />
</g>
<g style="fill:none; 
stroke:#840000; stroke-width:0.1524; stroke-opacity:1; 
stroke-linecap:round; stroke-linejoin:round;">
<rect x="65.405000" y="35.560000" width="29.845000" height="24.130000" rx="0.000000" />
</g>
<g style="fill:none; 
stroke:#006464; stroke-width:0.1524; stroke-opacity:1; 
stroke-linecap:round; stroke-linejoin:round;">
<text x="93.7895" y="50.1650"
textLength="1.2918" font-size="1.6933" lengthAdjust="spacingAndGlyphs"
text-anchor="end" opacity="0" stroke-opacity="0">Y</text>
<g class="stroked-text"><desc>Y</desc>
<path d="M93.1449 49.5048
L93.1449 50.1095
" />
<path d="M92.7216 48.8395
L93.1449 49.5048
" />
<path d="M93.1449 49.5048
L93.5683 48.8395
" />
</g><path style="fill:none; 
stroke:#006464; stroke-width:0.1524; stroke-opacity:1; 
stroke-linecap:round; stroke-linejoin:round;fill:none"
d="M 95.2500,49.5300
94.6150,48.8950
93.9800,48.8950
93.9800,50.1650
94.6150,50.1650
Z" /> 
<g transform="rotate(-90.000000 74.9300 37.0205)">
<text x="74.9300" y="37.6555"
textLength="1.2918" font-size="1.6933" lengthAdjust="spacingAndGlyphs"
text-anchor="end" opacity="0" stroke-opacity="0">A</text>
</g>
<g class="stroked-text"><desc>A</desc>
<path d="M75.1467 37.9673
L75.1467 37.3626
" />
<path d="M75.5095 38.0883
L74.2395 37.6650
" />
<path d="M74.2395 37.6650
L75.5095 37.2416
" />
</g><path style="fill:none; 
stroke:#006464; stroke-width:0.1524; stroke-opacity:1; 
stroke-linecap:round; stroke-linejoin:round;fill:none"
d="M 74.9300,36.8300
75.5650,36.1950
75.5650,35.5600
74.2950,35.5600
74.2950,36.1950
Z" /> 
<g transform="rotate(-90.000000 72.3900 58.2295)">
<text x="72.3900" y="58.8645"
textLength="1.4732" font-size="1.6933" lengthAdjust="spacingAndGlyphs"
text-anchor="start" opacity="0" stroke-opacity="0">B</text>
</g>
<g class="stroked-text"><desc>B</desc>
<path d="M72.3043 57.4035
L72.3648 57.2221
" />
<path d="M72.3648 57.2221
L72.4252 57.1616
" />
<path d="M72.4252 57.1616
L72.5462 57.1012
" />
<path d="M72.5462 57.1012
L72.7276 57.1012
" />
<path d="M72.7276 57.1012
L72.8486 57.1616
" />
<path d="M72.8486 57.1616
L72.9091 57.2221
" />
<path d="M72.9091 57.2221
L72.9695 57.3431
" />
<path d="M72.9695 57.3431
L72.9695 57.8269
" />
<path d="M72.9695 57.8269
L71.6995 57.8269
" />
<path d="M71.6995 57.8269
L71.6995 57.4035
" />
<path d="M71.6995 57.4035
L71.7600 57.2826
" />
<path d="M71.7600 57.2826
L71.8205 57.2221
" />
<path d="M71.8205 57.2221
L71.9414 57.1616
" />
<path d="M71.9414 57.1616
L72.0624 57.1616
" />
<path d="M72.0624 57.1616
L72.1833 57.2221
" />
<path d="M72.1833 57.2221
L72.2438 57.2826
" />
<path d="M72.2438 57.2826
L72.3043 57.4035
" />
<path d="M72.3043 57.4035
L72.3043 57.8269
" />
</g><path style="fill:none; 
stroke:#006464; stroke-width:0.1524; stroke-opacity:1; 
stroke-linecap:round; stroke-linejoin:round;fill:none"
d="M 72.3900,58.4200
73.0250,59.0550
73.0250,59.6900
71.7550,59.6900
71.7550,59.0550
Z" /> 
<text x="65.4050" y="34.8484"
textLength="8.1858" font-size="1.6933" lengthAdjust="spacingAndGlyphs"
text-anchor="start" opacity="0" stroke-opacity="0">nand2_1</text>
<g class="stroked-text"><desc>nand2_1</desc>
<path d="M65.8075 33.8383
L65.8075 34.6849
" />
<path d="M65.8075 33.9592
L65.8680 33.8987
" />
<path d="M65.8680 33.8987
L65.9890 33.8383
" />
<path d="M65.9890 33.8383
L66.1704 33.8383
" />
<path d="M66.1704 33.8383
L66.2913 33.8987
" />
<path d="M66.2913 33.8987
L66.3518 34.0197
" />
<path d="M66.3518 34.0197
L66.3518 34.6849
" />
<path d="M67.5008 34.6849
L67.5008 34.0197
" />
<path d="M67.5008 34.0197
L67.4403 33.8987
" />
<path d="M67.4403 33.8987
L67.3194 33.8383
" />
<path d="M67.3194 33.8383
L67.0775 33.8383
" />
<path d="M67.0775 33.8383
L66.9565 33.8987
" />
<path d="M67.5008 34.6245
L67.3799 34.6849
" />
<path d="M67.3799 34.6849
L67.0775 34.6849
" />
<path d="M67.0775 34.6849
L66.9565 34.6245
" />
<path d="M66.9565 34.6245
L66.8961 34.5035
" />
<path d="M66.8961 34.5035
L66.8961 34.3825
" />
<path d="M66.8961 34.3825
L66.9565 34.2616
" />
<path d="M66.9565 34.2616
L67.0775 34.2011
" />
<path d="M67.0775 34.2011
L67.3799 34.2011
" />
<path d="M67.3799 34.2011
L67.5008 34.1406
" />
<path d="M68.1055 33.8383
L68.1055 34.6849
" />
<path d="M68.1055 33.9592
L68.1660 33.8987
" />
<path d="M68.1660 33.8987
L68.2870 33.8383
" />
<path d="M68.2870 33.8383
L68.4684 33.8383
" />
<path d="M68.4684 33.8383
L68.5893 33.8987
" />
<path d="M68.5893 33.8987
L68.6498 34.0197
" />
<path d="M68.6498 34.0197
L68.6498 34.6849
" />
<path d="M69.7988 34.6849
L69.7988 33.4149
" />
<path d="M69.7988 34.6245
L69.6779 34.6849
" />
<path d="M69.6779 34.6849
L69.4360 34.6849
" />
<path d="M69.4360 34.6849
L69.3150 34.6245
" />
<path d="M69.3150 34.6245
L69.2545 34.5640
" />
<path d="M69.2545 34.5640
L69.1941 34.4430
" />
<path d="M69.1941 34.4430
L69.1941 34.0802
" />
<path d="M69.1941 34.0802
L69.2545 33.9592
" />
<path d="M69.2545 33.9592
L69.3150 33.8987
" />
<path d="M69.3150 33.8987
L69.4360 33.8383
" />
<path d="M69.4360 33.8383
L69.6779 33.8383
" />
<path d="M69.6779 33.8383
L69.7988 33.8987
" />
<path d="M70.3431 33.5359
L70.4035 33.4754
" />
<path d="M70.4035 33.4754
L70.5245 33.4149
" />
<path d="M70.5245 33.4149
L70.8269 33.4149
" />
<path d="M70.8269 33.4149
L70.9478 33.4754
" />
<path d="M70.9478 33.4754
L71.0083 33.5359
" />
<path d="M71.0083 33.5359
L71.0688 33.6568
" />
<path d="M71.0688 33.6568
L71.0688 33.7778
" />
<path d="M71.0688 33.7778
L71.0083 33.9592
" />
<path d="M71.0083 33.9592
L70.2826 34.6849
" />
<path d="M70.2826 34.6849
L71.0688 34.6849
" />
<path d="M71.3107 34.8059
L72.2783 34.8059
" />
<path d="M73.2459 34.6849
L72.5202 34.6849
" />
<path d="M72.8830 34.6849
L72.8830 33.4149
" />
<path d="M72.8830 33.4149
L72.7621 33.5964
" />
<path d="M72.7621 33.5964
L72.6411 33.7173
" />
<path d="M72.6411 33.7173
L72.5202 33.7778
" />
</g><path style="fill:none; 
stroke:#840000; stroke-width:0.2540; stroke-opacity:1; 
stroke-linecap:round; stroke-linejoin:round;fill:none"
d="M 127.2540,56.5150
127.2540,52.7050
" /> 
<path style="fill:none; 
stroke:#840000; stroke-width:0.1524; stroke-opacity:1; 
stroke-linecap:round; stroke-linejoin:round;fill:none"
d="M 127.2540,54.6100
124.4600,54.6100
" /> 
<path style="fill:none; 
stroke:#840000; stroke-width:0.2540; stroke-opacity:1; 
stroke-linecap:round; stroke-linejoin:round;fill:none"
d="M 127.7620,56.8960
127.7620,55.8800
" /> 
<path style="fill:none; 
stroke:#840000; stroke-width:0.1524; stroke-opacity:1; 
stroke-linecap:round; stroke-linejoin:round;fill:none"
d="M 127.7620,56.3880
130.3020,56.3880
130.3020,52.8320
127.7620,52.8320
" /> 
<path style="fill:none; 
stroke:#840000; stroke-width:0.2540; stroke-opacity:1; 
stroke-linecap:round; stroke-linejoin:round;fill:none"
d="M 127.7620,55.1180
127.7620,54.1020
" /> 
<path style="fill:none; 
stroke:#840000; stroke-width:0.2540; stroke-opacity:1; 
stroke-linecap:round; stroke-linejoin:round;fill:none"
d="M 127.7620,53.3400
127.7620,52.3240
" /> 
</g>
<g style="fill:none; 
stroke:#840000; stroke-width:0.2540; stroke-opacity:1; 
stroke-linecap:round; stroke-linejoin:round;">
<circle cx="128.6510" cy="54.6100" r="2.7940" /> 
<path style="fill:#840000; fill-opacity:1.0000; 
stroke:#840000; stroke-width:0.1524; stroke-opacity:1; 
stroke-linecap:round; stroke-linejoin:round;fill-rule:evenodd;"
d="M 129.2860,54.6100
128.2700,54.9910
128.2700,54.2290
Z" /> 
<path style="fill:none; 
stroke:#840000; stroke-width:0.1524; stroke-opacity:1; 
stroke-linecap:round; stroke-linejoin:round;fill:none"
d="M 129.5400,57.1500
129.5400,56.3880
" /> 
</g>
<g style="fill:#840000; fill-opacity:1.0000; 
stroke:#840000; stroke-width:0.1524; stroke-opacity:1; 
stroke-linecap:round; stroke-linejoin:round;">
<circle cx="129.5400" cy="56.3880" r="0.2540" /> 
<circle cx="129.5400" cy="52.8320" r="0.2540" /> 
<path style="fill:none; 
stroke:#840000; stroke-width:0.1524; stroke-opacity:1; 
stroke-linecap:round; stroke-linejoin:round;fill:none"
d="M 129.5400,52.0700
129.5400,54.6100
127.7620,54.6100
" /> 
<path style="fill:none; 
stroke:#840000; stroke-width:0.1524; stroke-opacity:1; 
stroke-linecap:round; stroke-linejoin:round;fill:none"
d="M 129.7940,54.1020
129.9210,54.2290
130.6830,54.2290
130.8100,54.3560
" /> 
<path style="fill:none; 
stroke:#840000; stroke-width:0.1524; stroke-opacity:1; 
stroke-linecap:round; stroke-linejoin:round;fill:none"
d="M 130.3020,54.2290
129.9210,54.8640
130.6830,54.8640
Z" /> 
</g>
<g style="fill:none; 
stroke:#840000; stroke-width:0.1524; stroke-opacity:1; 
stroke-linecap:round; stroke-linejoin:round;">
<path d="M124.4600 54.6100
L121.9200 54.6100
" />
</g>
<g style="fill:none; 
stroke:#006464; stroke-width:0.1524; stroke-opacity:1; 
stroke-linecap:round; stroke-linejoin:round;">
<text x="123.1900" y="54.3560"
textLength="1.4732" font-size="1.6933" lengthAdjust="spacingAndGlyphs"
text-anchor="middle" opacity="0" stroke-opacity="0">G</text>
<g class="stroked-text"><desc>G</desc>
<path d="M123.5226 52.9830
L123.4016 52.9225
" />
<path d="M123.4016 52.9225
L123.2202 52.9225
" />
<path d="M123.2202 52.9225
L123.0388 52.9830
" />
<path d="M123.0388 52.9830
L122.9178 53.1040
" />
<path d="M122.9178 53.1040
L122.8573 53.2249
" />
<path d="M122.8573 53.2249
L122.7969 53.4668
" />
<path d="M122.7969 53.4668
L122.7969 53.6482
" />
<path d="M122.7969 53.6482
L122.8573 53.8901
" />
<path d="M122.8573 53.8901
L122.9178 54.0111
" />
<path d="M122.9178 54.0111
L123.0388 54.1321
" />
<path d="M123.0388 54.1321
L123.2202 54.1925
" />
<path d="M123.2202 54.1925
L123.3411 54.1925
" />
<path d="M123.3411 54.1925
L123.5226 54.1321
" />
<path d="M123.5226 54.1321
L123.5830 54.0716
" />
<path d="M123.5830 54.0716
L123.5830 53.6482
" />
<path d="M123.5830 53.6482
L123.3411 53.6482
" />
</g></g>
<g style="fill:none; 
stroke:#A90000; stroke-width:0.1524; stroke-opacity:1; 
stroke-linecap:round; stroke-linejoin:round;">
<text x="123.1900" y="56.1340"
textLength="1.4127" font-size="1.6933" lengthAdjust="spacingAndGlyphs"
text-anchor="middle" opacity="0" stroke-opacity="0">2</text>
<g class="stroked-text"><desc>2</desc>
<path d="M122.8272 55.0374
L122.8876 54.9769
" />
<path d="M122.8876 54.9769
L123.0086 54.9164
" />
<path d="M123.0086 54.9164
L123.3110 54.9164
" />
<path d="M123.3110 54.9164
L123.4319 54.9769
" />
<path d="M123.4319 54.9769
L123.4924 55.0374
" />
<path d="M123.4924 55.0374
L123.5529 55.1583
" />
<path d="M123.5529 55.1583
L123.5529 55.2793
" />
<path d="M123.5529 55.2793
L123.4924 55.4607
" />
<path d="M123.4924 55.4607
L122.7667 56.1864
" />
<path d="M122.7667 56.1864
L123.5529 56.1864
" />
</g></g>
<g style="fill:none; 
stroke:#840000; stroke-width:0.1524; stroke-opacity:1; 
stroke-linecap:round; stroke-linejoin:round;">
<path d="M129.5400 57.1500
L129.5400 59.6900
" />
</g>
<g style="fill:none; 
stroke:#006464; stroke-width:0.1524; stroke-opacity:1; 
stroke-linecap:round; stroke-linejoin:round;">
<g transform="rotate(-90.000000 129.2860 58.4200)">
<text x="129.2860" y="58.4200"
textLength="1.4732" font-size="1.6933" lengthAdjust="spacingAndGlyphs"
text-anchor="middle" opacity="0" stroke-opacity="0">D</text>
</g>
<g class="stroked-text"><desc>D</desc>
<path d="M129.1225 58.7526
L127.8525 58.7526
" />
<path d="M127.8525 58.7526
L127.8525 58.4502
" />
<path d="M127.8525 58.4502
L127.9130 58.2688
" />
<path d="M127.9130 58.2688
L128.0340 58.1478
" />
<path d="M128.0340 58.1478
L128.1549 58.0873
" />
<path d="M128.1549 58.0873
L128.3968 58.0269
" />
<path d="M128.3968 58.0269
L128.5782 58.0269
" />
<path d="M128.5782 58.0269
L128.8201 58.0873
" />
<path d="M128.8201 58.0873
L128.9411 58.1478
" />
<path d="M128.9411 58.1478
L129.0621 58.2688
" />
<path d="M129.0621 58.2688
L129.1225 58.4502
" />
<path d="M129.1225 58.4502
L129.1225 58.7526
" />
</g></g>
<g style="fill:none; 
stroke:#A90000; stroke-width:0.1524; stroke-opacity:1; 
stroke-linecap:round; stroke-linejoin:round;">
<g transform="rotate(-90.000000 129.7940 58.4200)">
<text x="129.7940" y="59.6900"
textLength="1.4127" font-size="1.6933" lengthAdjust="spacingAndGlyphs"
text-anchor="middle" opacity="0" stroke-opacity="0">1</text>
</g>
<g class="stroked-text"><desc>1</desc>
<path d="M131.1164 58.0570
L131.1164 58.7827
" />
<path d="M131.1164 58.4199
L129.8464 58.4199
" />
<path d="M129.8464 58.4199
L130.0279 58.5408
" />
<path d="M130.0279 58.5408
L130.1488 58.6618
" />
<path d="M130.1488 58.6618
L130.2093 58.7827
" />
</g></g>
<g style="fill:none; 
stroke:#840000; stroke-width:0.1524; stroke-opacity:1; 
stroke-linecap:round; stroke-linejoin:round;">
<path d="M129.5400 52.0700
L129.5400 49.5300
" />
</g>
<g style="fill:none; 
stroke:#006464; stroke-width:0.1524; stroke-opacity:1; 
stroke-linecap:round; stroke-linejoin:round;">
<g transform="rotate(-90.000000 129.2860 50.8000)">
<text x="129.2860" y="50.8000"
textLength="1.4127" font-size="1.6933" lengthAdjust="spacingAndGlyphs"
text-anchor="middle" opacity="0" stroke-opacity="0">S</text>
</g>
<g class="stroked-text"><desc>S</desc>
<path d="M129.0621 51.1627
L129.1225 50.9813
" />
<path d="M129.1225 50.9813
L129.1225 50.6789
" />
<path d="M129.1225 50.6789
L129.0621 50.5580
" />
<path d="M129.0621 50.5580
L129.0016 50.4975
" />
<path d="M129.0016 50.4975
L128.8806 50.4370
" />
<path d="M128.8806 50.4370
L128.7597 50.4370
" />
<path d="M128.7597 50.4370
L128.6387 50.4975
" />
<path d="M128.6387 50.4975
L128.5782 50.5580
" />
<path d="M128.5782 50.5580
L128.5178 50.6789
" />
<path d="M128.5178 50.6789
L128.4573 50.9208
" />
<path d="M128.4573 50.9208
L128.3968 51.0418
" />
<path d="M128.3968 51.0418
L128.3363 51.1023
" />
<path d="M128.3363 51.1023
L128.2154 51.1627
" />
<path d="M128.2154 51.1627
L128.0944 51.1627
" />
<path d="M128.0944 51.1627
L127.9735 51.1023
" />
<path d="M127.9735 51.1023
L127.9130 51.0418
" />
<path d="M127.9130 51.0418
L127.8525 50.9208
" />
<path d="M127.8525 50.9208
L127.8525 50.6185
" />
<path d="M127.8525 50.6185
L127.9130 50.4370
" />
</g></g>
<g style="fill:none; 
stroke:#A90000; stroke-width:0.1524; stroke-opacity:1; 
stroke-linecap:round; stroke-linejoin:round;">
<g transform="rotate(-90.000000 129.7940 50.8000)">
<text x="129.7940" y="52.0700"
textLength="1.4127" font-size="1.6933" lengthAdjust="spacingAndGlyphs"
text-anchor="middle" opacity="0" stroke-opacity="0">3</text>
</g>
<g class="stroked-text"><desc>3</desc>
<path d="M129.8464 51.2232
L129.8464 50.4370
" />
<path d="M129.8464 50.4370
L130.3302 50.8604
" />
<path d="M130.3302 50.8604
L130.3302 50.6789
" />
<path d="M130.3302 50.6789
L130.3907 50.5580
" />
<path d="M130.3907 50.5580
L130.4512 50.4975
" />
<path d="M130.4512 50.4975
L130.5721 50.4370
" />
<path d="M130.5721 50.4370
L130.8745 50.4370
" />
<path d="M130.8745 50.4370
L130.9955 50.4975
" />
<path d="M130.9955 50.4975
L131.0560 50.5580
" />
<path d="M131.0560 50.5580
L131.1164 50.6789
" />
<path d="M131.1164 50.6789
L131.1164 51.0418
" />
<path d="M131.1164 51.0418
L131.0560 51.1627
" />
<path d="M131.0560 51.1627
L130.9955 51.2232
" />
</g></g>
<g style="fill:none; 
stroke:#006464; stroke-width:0.1524; stroke-opacity:1; 
stroke-linecap:round; stroke-linejoin:round;">
<text x="134.6707" y="53.9748"
textLength="2.6223" font-size="1.6933" lengthAdjust="spacingAndGlyphs"
text-anchor="middle" opacity="0" stroke-opacity="0">Q?</text>
<g class="stroked-text"><desc>Q?</desc>
<path d="M134.6102 54.0403
L134.4892 53.9798
" />
<path d="M134.4892 53.9798
L134.3683 53.8589
" />
<path d="M134.3683 53.8589
L134.1869 53.6774
" />
<path d="M134.1869 53.6774
L134.0659 53.6169
" />
<path d="M134.0659 53.6169
L133.9450 53.6169
" />
<path d="M134.0054 53.9193
L133.8845 53.8589
" />
<path d="M133.8845 53.8589
L133.7635 53.7379
" />
<path d="M133.7635 53.7379
L133.7031 53.4960
" />
<path d="M133.7031 53.4960
L133.7031 53.0727
" />
<path d="M133.7031 53.0727
L133.7635 52.8308
" />
<path d="M133.7635 52.8308
L133.8845 52.7098
" />
<path d="M133.8845 52.7098
L134.0054 52.6493
" />
<path d="M134.0054 52.6493
L134.2473 52.6493
" />
<path d="M134.2473 52.6493
L134.3683 52.7098
" />
<path d="M134.3683 52.7098
L134.4892 52.8308
" />
<path d="M134.4892 52.8308
L134.5497 53.0727
" />
<path d="M134.5497 53.0727
L134.5497 53.4960
" />
<path d="M134.5497 53.4960
L134.4892 53.7379
" />
<path d="M134.4892 53.7379
L134.3683 53.8589
" />
<path d="M134.3683 53.8589
L134.2473 53.9193
" />
<path d="M134.2473 53.9193
L134.0054 53.9193
" />
<path d="M135.2755 53.7984
L135.3359 53.8589
" />
<path d="M135.3359 53.8589
L135.2755 53.9193
" />
<path d="M135.2755 53.9193
L135.2150 53.8589
" />
<path d="M135.2150 53.8589
L135.2755 53.7984
" />
<path d="M135.2755 53.7984
L135.2755 53.9193
" />
<path d="M135.0336 52.7098
L135.1545 52.6493
" />
<path d="M135.1545 52.6493
L135.4569 52.6493
" />
<path d="M135.4569 52.6493
L135.5778 52.7098
" />
<path d="M135.5778 52.7098
L135.6383 52.8308
" />
<path d="M135.6383 52.8308
L135.6383 52.9517
" />
<path d="M135.6383 52.9517
L135.5778 53.0727
" />
<path d="M135.5778 53.0727
L135.5174 53.1331
" />
<path d="M135.5174 53.1331
L135.3964 53.1936
" />
<path d="M135.3964 53.1936
L135.3359 53.2541
" />
<path d="M135.3359 53.2541
L135.2755 53.3750
" />
<path d="M135.2755 53.3750
L135.2755 53.4355
" />
</g><text x="136.0919" y="56.5148"
textLength="5.4646" font-size="1.6933" lengthAdjust="spacingAndGlyphs"
text-anchor="middle" opacity="0" stroke-opacity="0">PMOS</text>
<g class="stroked-text"><desc>PMOS</desc>
<path d="M133.7635 56.4593
L133.7635 55.1893
" />
<path d="M133.7635 55.1893
L134.2473 55.1893
" />
<path d="M134.2473 55.1893
L134.3683 55.2498
" />
<path d="M134.3683 55.2498
L134.4288 55.3103
" />
<path d="M134.4288 55.3103
L134.4892 55.4312
" />
<path d="M134.4892 55.4312
L134.4892 55.6127
" />
<path d="M134.4892 55.6127
L134.4288 55.7336
" />
<path d="M134.4288 55.7336
L134.3683 55.7941
" />
<path d="M134.3683 55.7941
L134.2473 55.8546
" />
<path d="M134.2473 55.8546
L133.7635 55.8546
" />
<path d="M135.0335 56.4593
L135.0335 55.1893
" />
<path d="M135.0335 55.1893
L135.4569 56.0965
" />
<path d="M135.4569 56.0965
L135.8802 55.1893
" />
<path d="M135.8802 55.1893
L135.8802 56.4593
" />
<path d="M136.7268 55.1893
L136.9687 55.1893
" />
<path d="M136.9687 55.1893
L137.0897 55.2498
" />
<path d="M137.0897 55.2498
L137.2106 55.3708
" />
<path d="M137.2106 55.3708
L137.2711 55.6127
" />
<path d="M137.2711 55.6127
L137.2711 56.0360
" />
<path d="M137.2711 56.0360
L137.2106 56.2779
" />
<path d="M137.2106 56.2779
L137.0897 56.3989
" />
<path d="M137.0897 56.3989
L136.9687 56.4593
" />
<path d="M136.9687 56.4593
L136.7268 56.4593
" />
<path d="M136.7268 56.4593
L136.6059 56.3989
" />
<path d="M136.6059 56.3989
L136.4849 56.2779
" />
<path d="M136.4849 56.2779
L136.4245 56.0360
" />
<path d="M136.4245 56.0360
L136.4245 55.6127
" />
<path d="M136.4245 55.6127
L136.4849 55.3708
" />
<path d="M136.4849 55.3708
L136.6059 55.2498
" />
<path d="M136.6059 55.2498
L136.7268 55.1893
" />
<path d="M137.7550 56.3989
L137.9364 56.4593
" />
<path d="M137.9364 56.4593
L138.2388 56.4593
" />
<path d="M138.2388 56.4593
L138.3597 56.3989
" />
<path d="M138.3597 56.3989
L138.4202 56.3384
" />
<path d="M138.4202 56.3384
L138.4807 56.2174
" />
<path d="M138.4807 56.2174
L138.4807 56.0965
" />
<path d="M138.4807 56.0965
L138.4202 55.9755
" />
<path d="M138.4202 55.9755
L138.3597 55.9150
" />
<path d="M138.3597 55.9150
L138.2388 55.8546
" />
<path d="M138.2388 55.8546
L137.9969 55.7941
" />
<path d="M137.9969 55.7941
L137.8759 55.7336
" />
<path d="M137.8759 55.7336
L137.8154 55.6731
" />
<path d="M137.8154 55.6731
L137.7550 55.5522
" />
<path d="M137.7550 55.5522
L137.7550 55.4312
" />
<path d="M137.7550 55.4312
L137.8154 55.3103
" />
<path d="M137.8154 55.3103
L137.8759 55.2498
" />
<path d="M137.8759 55.2498
L137.9969 55.1893
" />
<path d="M137.9969 55.1893
L138.2992 55.1893
" />
<path d="M138.2992 55.1893
L138.4807 55.2498
" />
</g><path style="fill:none; 
stroke:#840000; stroke-width:0.2540; stroke-opacity:1; 
stroke-linecap:round; stroke-linejoin:round;fill:none"
d="M 127.2540,62.8650
127.2540,66.6750
" /> 
<path style="fill:none; 
stroke:#840000; stroke-width:0.1524; stroke-opacity:1; 
stroke-linecap:round; stroke-linejoin:round;fill:none"
d="M 127.2540,64.7700
124.4600,64.7700
" /> 
<path style="fill:none; 
stroke:#840000; stroke-width:0.2540; stroke-opacity:1; 
stroke-linecap:round; stroke-linejoin:round;fill:none"
d="M 127.7620,62.4840
127.7620,63.5000
" /> 
<path style="fill:none; 
stroke:#840000; stroke-width:0.2540; stroke-opacity:1; 
stroke-linecap:round; stroke-linejoin:round;fill:none"
d="M 127.7620,64.2620
127.7620,65.2780
" /> 
<path style="fill:none; 
stroke:#840000; stroke-width:0.2540; stroke-opacity:1; 
stroke-linecap:round; stroke-linejoin:round;fill:none"
d="M 127.7620,66.0400
127.7620,67.0560
" /> 
<path style="fill:none; 
stroke:#840000; stroke-width:0.1524; stroke-opacity:1; 
stroke-linecap:round; stroke-linejoin:round;fill:none"
d="M 127.7620,66.5480
130.3020,66.5480
130.3020,62.9920
127.7620,62.9920
" /> 
<path style="fill:#840000; fill-opacity:1.0000; 
stroke:#840000; stroke-width:0.1524; stroke-opacity:1; 
stroke-linecap:round; stroke-linejoin:round;fill-rule:evenodd;"
d="M 128.0160,64.7700
129.0320,64.3890
129.0320,65.1510
Z" /> 
</g>
<g style="fill:none; 
stroke:#840000; stroke-width:0.2540; stroke-opacity:1; 
stroke-linecap:round; stroke-linejoin:round;">
<circle cx="128.6510" cy="64.7700" r="2.7940" /> 
<path style="fill:none; 
stroke:#840000; stroke-width:0.1524; stroke-opacity:1; 
stroke-linecap:round; stroke-linejoin:round;fill:none"
d="M 129.5400,62.2300
129.5400,62.9920
" /> 
</g>
<g style="fill:#840000; fill-opacity:1.0000; 
stroke:#840000; stroke-width:0.1524; stroke-opacity:1; 
stroke-linecap:round; stroke-linejoin:round;">
<circle cx="129.5400" cy="62.9920" r="0.2540" /> 
<circle cx="129.5400" cy="66.5480" r="0.2540" /> 
<path style="fill:none; 
stroke:#840000; stroke-width:0.1524; stroke-opacity:1; 
stroke-linecap:round; stroke-linejoin:round;fill:none"
d="M 129.5400,67.3100
129.5400,64.7700
127.7620,64.7700
" /> 
<path style="fill:none; 
stroke:#840000; stroke-width:0.1524; stroke-opacity:1; 
stroke-linecap:round; stroke-linejoin:round;fill:none"
d="M 129.7940,64.2620
129.9210,64.3890
130.6830,64.3890
130.8100,64.5160
" /> 
<path style="fill:none; 
stroke:#840000; stroke-width:0.1524; stroke-opacity:1; 
stroke-linecap:round; stroke-linejoin:round;fill:none"
d="M 130.3020,64.3890
129.9210,65.0240
130.6830,65.0240
Z" /> 
</g>
<g style="fill:none; 
stroke:#840000; stroke-width:0.1524; stroke-opacity:1; 
stroke-linecap:round; stroke-linejoin:round;">
<path d="M124.4600 64.7700
L121.9200 64.7700
" />
</g>
<g style="fill:none; 
stroke:#006464; stroke-width:0.1524; stroke-opacity:1; 
stroke-linecap:round; stroke-linejoin:round;">
<text x="123.1900" y="64.5160"
textLength="1.4732" font-size="1.6933" lengthAdjust="spacingAndGlyphs"
text-anchor="middle" opacity="0" stroke-opacity="0">G</text>
<g class="stroked-text"><desc>G</desc>
<path d="M123.5226 63.1430
L123.4016 63.0825
" />
<path d="M123.4016 63.0825
L123.2202 63.0825
" />
<path d="M123.2202 63.0825
L123.0388 63.1430
" />
<path d="M123.0388 63.1430
L122.9178 63.2640
" />
<path d="M122.9178 63.2640
L122.8573 63.3849
" />
<path d="M122.8573 63.3849
L122.7969 63.6268
" />
<path d="M122.7969 63.6268
L122.7969 63.8082
" />
<path d="M122.7969 63.8082
L122.8573 64.0501
" />
<path d="M122.8573 64.0501
L122.9178 64.1711
" />
<path d="M122.9178 64.1711
L123.0388 64.2921
" />
<path d="M123.0388 64.2921
L123.2202 64.3525
" />
<path d="M123.2202 64.3525
L123.3411 64.3525
" />
<path d="M123.3411 64.3525
L123.5226 64.2921
" />
<path d="M123.5226 64.2921
L123.5830 64.2316
" />
<path d="M123.5830 64.2316
L123.5830 63.8082
" />
<path d="M123.5830 63.8082
L123.3411 63.8082
" />
</g></g>
<g style="fill:none; 
stroke:#A90000; stroke-width:0.1524; stroke-opacity:1; 
stroke-linecap:round; stroke-linejoin:round;">
<text x="123.1900" y="66.2940"
textLength="1.4127" font-size="1.6933" lengthAdjust="spacingAndGlyphs"
text-anchor="middle" opacity="0" stroke-opacity="0">2</text>
<g class="stroked-text"><desc>2</desc>
<path d="M122.8272 65.1974
L122.8876 65.1369
" />
<path d="M122.8876 65.1369
L123.0086 65.0764
" />
<path d="M123.0086 65.0764
L123.3110 65.0764
" />
<path d="M123.3110 65.0764
L123.4319 65.1369
" />
<path d="M123.4319 65.1369
L123.4924 65.1974
" />
<path d="M123.4924 65.1974
L123.5529 65.3183
" />
<path d="M123.5529 65.3183
L123.5529 65.4393
" />
<path d="M123.5529 65.4393
L123.4924 65.6207
" />
<path d="M123.4924 65.6207
L122.7667 66.3464
" />
<path d="M122.7667 66.3464
L123.5529 66.3464
" />
</g></g>
<g style="fill:none; 
stroke:#840000; stroke-width:0.1524; stroke-opacity:1; 
stroke-linecap:round; stroke-linejoin:round;">
<path d="M129.5400 62.2300
L129.5400 59.6900
" />
</g>
<g style="fill:none; 
stroke:#006464; stroke-width:0.1524; stroke-opacity:1; 
stroke-linecap:round; stroke-linejoin:round;">
<g transform="rotate(-90.000000 129.2860 60.9600)">
<text x="129.2860" y="60.9600"
textLength="1.4732" font-size="1.6933" lengthAdjust="spacingAndGlyphs"
text-anchor="middle" opacity="0" stroke-opacity="0">D</text>
</g>
<g class="stroked-text"><desc>D</desc>
<path d="M129.1225 61.2926
L127.8525 61.2926
" />
<path d="M127.8525 61.2926
L127.8525 60.9902
" />
<path d="M127.8525 60.9902
L127.9130 60.8088
" />
<path d="M127.9130 60.8088
L128.0340 60.6878
" />
<path d="M128.0340 60.6878
L128.1549 60.6273
" />
<path d="M128.1549 60.6273
L128.3968 60.5669
" />
<path d="M128.3968 60.5669
L128.5782 60.5669
" />
<path d="M128.5782 60.5669
L128.8201 60.6273
" />
<path d="M128.8201 60.6273
L128.9411 60.6878
" />
<path d="M128.9411 60.6878
L129.0621 60.8088
" />
<path d="M129.0621 60.8088
L129.1225 60.9902
" />
<path d="M129.1225 60.9902
L129.1225 61.2926
" />
</g></g>
<g style="fill:none; 
stroke:#A90000; stroke-width:0.1524; stroke-opacity:1; 
stroke-linecap:round; stroke-linejoin:round;">
<g transform="rotate(-90.000000 129.7940 60.9600)">
<text x="129.7940" y="62.2300"
textLength="1.4127" font-size="1.6933" lengthAdjust="spacingAndGlyphs"
text-anchor="middle" opacity="0" stroke-opacity="0">1</text>
</g>
<g class="stroked-text"><desc>1</desc>
<path d="M131.1164 60.5970
L131.1164 61.3227
" />
<path d="M131.1164 60.9599
L129.8464 60.9599
" />
<path d="M129.8464 60.9599
L130.0279 61.0808
" />
<path d="M130.0279 61.0808
L130.1488 61.2018
" />
<path d="M130.1488 61.2018
L130.2093 61.3227
" />
</g></g>
<g style="fill:none; 
stroke:#840000; stroke-width:0.1524; stroke-opacity:1; 
stroke-linecap:round; stroke-linejoin:round;">
<path d="M129.5400 67.3100
L129.5400 69.8500
" />
</g>
<g style="fill:none; 
stroke:#006464; stroke-width:0.1524; stroke-opacity:1; 
stroke-linecap:round; stroke-linejoin:round;">
<g transform="rotate(-90.000000 129.2860 68.5800)">
<text x="129.2860" y="68.5800"
textLength="1.4127" font-size="1.6933" lengthAdjust="spacingAndGlyphs"
text-anchor="middle" opacity="0" stroke-opacity="0">S</text>
</g>
<g class="stroked-text"><desc>S</desc>
<path d="M129.0621 68.9427
L129.1225 68.7613
" />
<path d="M129.1225 68.7613
L129.1225 68.4589
" />
<path d="M129.1225 68.4589
L129.0621 68.3380
" />
<path d="M129.0621 68.3380
L129.0016 68.2775
" />
<path d="M129.0016 68.2775
L128.8806 68.2170
" />
<path d="M128.8806 68.2170
L128.7597 68.2170
" />
<path d="M128.7597 68.2170
L128.6387 68.2775
" />
<path d="M128.6387 68.2775
L128.5782 68.3380
" />
<path d="M128.5782 68.3380
L128.5178 68.4589
" />
<path d="M128.5178 68.4589
L128.4573 68.7008
" />
<path d="M128.4573 68.7008
L128.3968 68.8218
" />
<path d="M128.3968 68.8218
L128.3363 68.8823
" />
<path d="M128.3363 68.8823
L128.2154 68.9427
" />
<path d="M128.2154 68.9427
L128.0944 68.9427
" />
<path d="M128.0944 68.9427
L127.9735 68.8823
" />
<path d="M127.9735 68.8823
L127.9130 68.8218
" />
<path d="M127.9130 68.8218
L127.8525 68.7008
" />
<path d="M127.8525 68.7008
L127.8525 68.3985
" />
<path d="M127.8525 68.3985
L127.9130 68.2170
" />
</g></g>
<g style="fill:none; 
stroke:#A90000; stroke-width:0.1524; stroke-opacity:1; 
stroke-linecap:round; stroke-linejoin:round;">
<g transform="rotate(-90.000000 129.7940 68.5800)">
<text x="129.7940" y="69.8500"
textLength="1.4127" font-size="1.6933" lengthAdjust="spacingAndGlyphs"
text-anchor="middle" opacity="0" stroke-opacity="0">3</text>
</g>
<g class="stroked-text"><desc>3</desc>
<path d="M129.8464 69.0032
L129.8464 68.2170
" />
<path d="M129.8464 68.2170
L130.3302 68.6404
" />
<path d="M130.3302 68.6404
L130.3302 68.4589
" />
<path d="M130.3302 68.4589
L130.3907 68.3380
" />
<path d="M130.3907 68.3380
L130.4512 68.2775
" />
<path d="M130.4512 68.2775
L130.5721 68.2170
" />
<path d="M130.5721 68.2170
L130.8745 68.2170
" />
<path d="M130.8745 68.2170
L130.9955 68.2775
" />
<path d="M130.9955 68.2775
L131.0560 68.3380
" />
<path d="M131.0560 68.3380
L131.1164 68.4589
" />
<path d="M131.1164 68.4589
L131.1164 68.8218
" />
<path d="M131.1164 68.8218
L131.0560 68.9427
" />
<path d="M131.0560 68.9427
L130.9955 69.0032
" />
</g></g>
<g style="fill:none; 
stroke:#006464; stroke-width:0.1524; stroke-opacity:1; 
stroke-linecap:round; stroke-linejoin:round;">
<text x="134.6707" y="64.1349"
textLength="2.6223" font-size="1.6933" lengthAdjust="spacingAndGlyphs"
text-anchor="middle" opacity="0" stroke-opacity="0">Q?</text>
<g class="stroked-text"><desc>Q?</desc>
<path d="M134.6102 64.2004
L134.4892 64.1399
" />
<path d="M134.4892 64.1399
L134.3683 64.0190
" />
<path d="M134.3683 64.0190
L134.1869 63.8375
" />
<path d="M134.1869 63.8375
L134.0659 63.7770
" />
<path d="M134.0659 63.7770
L133.9450 63.7770
" />
<path d="M134.0054 64.0794
L133.8845 64.0190
" />
<path d="M133.8845 64.0190
L133.7635 63.8980
" />
<path d="M133.7635 63.8980
L133.7031 63.6561
" />
<path d="M133.7031 63.6561
L133.7031 63.2328
" />
<path d="M133.7031 63.2328
L133.7635 62.9909
" />
<path d="M133.7635 62.9909
L133.8845 62.8699
" />
<path d="M133.8845 62.8699
L134.0054 62.8094
" />
<path d="M134.0054 62.8094
L134.2473 62.8094
" />
<path d="M134.2473 62.8094
L134.3683 62.8699
" />
<path d="M134.3683 62.8699
L134.4892 62.9909
" />
<path d="M134.4892 62.9909
L134.5497 63.2328
" />
<path d="M134.5497 63.2328
L134.5497 63.6561
" />
<path d="M134.5497 63.6561
L134.4892 63.8980
" />
<path d="M134.4892 63.8980
L134.3683 64.0190
" />
<path d="M134.3683 64.0190
L134.2473 64.0794
" />
<path d="M134.2473 64.0794
L134.0054 64.0794
" />
<path d="M135.2755 63.9585
L135.3359 64.0190
" />
<path d="M135.3359 64.0190
L135.2755 64.0794
" />
<path d="M135.2755 64.0794
L135.2150 64.0190
" />
<path d="M135.2150 64.0190
L135.2755 63.9585
" />
<path d="M135.2755 63.9585
L135.2755 64.0794
" />
<path d="M135.0336 62.8699
L135.1545 62.8094
" />
<path d="M135.1545 62.8094
L135.4569 62.8094
" />
<path d="M135.4569 62.8094
L135.5778 62.8699
" />
<path d="M135.5778 62.8699
L135.6383 62.9909
" />
<path d="M135.6383 62.9909
L135.6383 63.1118
" />
<path d="M135.6383 63.1118
L135.5778 63.2328
" />
<path d="M135.5778 63.2328
L135.5174 63.2932
" />
<path d="M135.5174 63.2932
L135.3964 63.3537
" />
<path d="M135.3964 63.3537
L135.3359 63.4142
" />
<path d="M135.3359 63.4142
L135.2755 63.5351
" />
<path d="M135.2755 63.5351
L135.2755 63.5956
" />
</g><text x="136.1221" y="66.6749"
textLength="5.5251" font-size="1.6933" lengthAdjust="spacingAndGlyphs"
text-anchor="middle" opacity="0" stroke-opacity="0">NMOS</text>
<g class="stroked-text"><desc>NMOS</desc>
<path d="M133.7635 66.6194
L133.7635 65.3494
" />
<path d="M133.7635 65.3494
L134.4892 66.6194
" />
<path d="M134.4892 66.6194
L134.4892 65.3494
" />
<path d="M135.0940 66.6194
L135.0940 65.3494
" />
<path d="M135.0940 65.3494
L135.5174 66.2566
" />
<path d="M135.5174 66.2566
L135.9407 65.3494
" />
<path d="M135.9407 65.3494
L135.9407 66.6194
" />
<path d="M136.7873 65.3494
L137.0292 65.3494
" />
<path d="M137.0292 65.3494
L137.1502 65.4099
" />
<path d="M137.1502 65.4099
L137.2711 65.5309
" />
<path d="M137.2711 65.5309
L137.3316 65.7728
" />
<path d="M137.3316 65.7728
L137.3316 66.1961
" />
<path d="M137.3316 66.1961
L137.2711 66.4380
" />
<path d="M137.2711 66.4380
L137.1502 66.5590
" />
<path d="M137.1502 66.5590
L137.0292 66.6194
" />
<path d="M137.0292 66.6194
L136.7873 66.6194
" />
<path d="M136.7873 66.6194
L136.6664 66.5590
" />
<path d="M136.6664 66.5590
L136.5454 66.4380
" />
<path d="M136.5454 66.4380
L136.4850 66.1961
" />
<path d="M136.4850 66.1961
L136.4850 65.7728
" />
<path d="M136.4850 65.7728
L136.5454 65.5309
" />
<path d="M136.5454 65.5309
L136.6664 65.4099
" />
<path d="M136.6664 65.4099
L136.7873 65.3494
" />
<path d="M137.8155 66.5590
L137.9969 66.6194
" />
<path d="M137.9969 66.6194
L138.2993 66.6194
" />
<path d="M138.2993 66.6194
L138.4202 66.5590
" />
<path d="M138.4202 66.5590
L138.4807 66.4985
" />
<path d="M138.4807 66.4985
L138.5412 66.3775
" />
<path d="M138.5412 66.3775
L138.5412 66.2566
" />
<path d="M138.5412 66.2566
L138.4807 66.1356
" />
<path d="M138.4807 66.1356
L138.4202 66.0751
" />
<path d="M138.4202 66.0751
L138.2993 66.0147
" />
<path d="M138.2993 66.0147
L138.0574 65.9542
" />
<path d="M138.0574 65.9542
L137.9364 65.8937
" />
<path d="M137.9364 65.8937
L137.8759 65.8332
" />
<path d="M137.8759 65.8332
L137.8155 65.7123
" />
<path d="M137.8155 65.7123
L137.8155 65.5913
" />
<path d="M137.8155 65.5913
L137.8759 65.4704
" />
<path d="M137.8759 65.4704
L137.9364 65.4099
" />
<path d="M137.9364 65.4099
L138.0574 65.3494
" />
<path d="M138.0574 65.3494
L138.3597 65.3494
" />
<path d="M138.3597 65.3494
L138.5412 65.4099
" />
</g><path style="fill:none; 
stroke:#840000; stroke-width:0.1524; stroke-opacity:1; 
stroke-linecap:round; stroke-linejoin:round;fill:none"
d="M 129.5400,69.8500
129.5400,71.1200
130.8100,71.1200
129.5400,72.3900
128.2700,71.1200
129.5400,71.1200
" /> 
</g>
<g style="fill:none; 
stroke:#840000; stroke-width:0.1524; stroke-opacity:1; 
stroke-linecap:round; stroke-linejoin:round;">
<path d="M129.5400 69.8500
L129.5400 69.8500
" />
</g>
<g style="fill:none; 
stroke:#006464; stroke-width:0.1524; stroke-opacity:1; 
stroke-linecap:round; stroke-linejoin:round;">
<text x="129.5400" y="75.5650"
textLength="4.0737" font-size="1.6933" lengthAdjust="spacingAndGlyphs"
text-anchor="middle" opacity="0" stroke-opacity="0">GND</text>
<g class="stroked-text"><desc>GND</desc>
<path d="M128.5724 74.3000
L128.4514 74.2395
" />
<path d="M128.4514 74.2395
L128.2700 74.2395
" />
<path d="M128.2700 74.2395
L128.0886 74.3000
" />
<path d="M128.0886 74.3000
L127.9676 74.4210
" />
<path d="M127.9676 74.4210
L127.9071 74.5419
" />
<path d="M127.9071 74.5419
L127.8467 74.7838
" />
<path d="M127.8467 74.7838
L127.8467 74.9652
" />
<path d="M127.8467 74.9652
L127.9071 75.2071
" />
<path d="M127.9071 75.2071
L127.9676 75.3281
" />
<path d="M127.9676 75.3281
L128.0886 75.4491
" />
<path d="M128.0886 75.4491
L128.2700 75.5095
" />
<path d="M128.2700 75.5095
L128.3909 75.5095
" />
<path d="M128.3909 75.5095
L128.5724 75.4491
" />
<path d="M128.5724 75.4491
L128.6328 75.3886
" />
<path d="M128.6328 75.3886
L128.6328 74.9652
" />
<path d="M128.6328 74.9652
L128.3909 74.9652
" />
<path d="M129.1771 75.5095
L129.1771 74.2395
" />
<path d="M129.1771 74.2395
L129.9028 75.5095
" />
<path d="M129.9028 75.5095
L129.9028 74.2395
" />
<path d="M130.5076 75.5095
L130.5076 74.2395
" />
<path d="M130.5076 74.2395
L130.8100 74.2395
" />
<path d="M130.8100 74.2395
L130.9914 74.3000
" />
<path d="M130.9914 74.3000
L131.1124 74.4210
" />
<path d="M131.1124 74.4210
L131.1729 74.5419
" />
<path d="M131.1729 74.5419
L131.2333 74.7838
" />
<path d="M131.2333 74.7838
L131.2333 74.9652
" />
<path d="M131.2333 74.9652
L131.1729 75.2071
" />
<path d="M131.1729 75.2071
L131.1124 75.3281
" />
<path d="M131.1124 75.3281
L130.9914 75.4491
" />
<path d="M130.9914 75.4491
L130.8100 75.5095
" />
<path d="M130.8100 75.5095
L130.5076 75.5095
" />
</g><path style="fill:none; 
stroke:#840000; stroke-width:0.1524; stroke-opacity:1; 
stroke-linecap:round; stroke-linejoin:round;fill:none"
d="M 128.7780,48.2600
129.5400,46.9900
" /> 
<path style="fill:none; 
stroke:#840000; stroke-width:0.1524; stroke-opacity:1; 
stroke-linecap:round; stroke-linejoin:round;fill:none"
d="M 129.5400,46.9900
130.3020,48.2600
" /> 
<path style="fill:none; 
stroke:#840000; stroke-width:0.1524; stroke-opacity:1; 
stroke-linecap:round; stroke-linejoin:round;fill:none"
d="M 129.5400,49.5300
129.5400,46.9900
" /> 
</g>
<g style="fill:none; 
stroke:#840000; stroke-width:0.1524; stroke-opacity:1; 
stroke-linecap:round; stroke-linejoin:round;">
<path d="M129.5400 49.5300
L129.5400 49.5300
" />
</g>
<g style="fill:none; 
stroke:#006464; stroke-width:0.1524; stroke-opacity:1; 
stroke-linecap:round; stroke-linejoin:round;">
<text x="129.5400" y="45.0850"
textLength="3.8318" font-size="1.6933" lengthAdjust="spacingAndGlyphs"
text-anchor="middle" opacity="0" stroke-opacity="0">VCC</text>
<g class="stroked-text"><desc>VCC</desc>
<path d="M127.8466 43.7595
L128.2699 45.0295
" />
<path d="M128.2699 45.0295
L128.6933 43.7595
" />
<path d="M129.8423 44.9086
L129.7819 44.9691
" />
<path d="M129.7819 44.9691
L129.6004 45.0295
" />
<path d="M129.6004 45.0295
L129.4795 45.0295
" />
<path d="M129.4795 45.0295
L129.2981 44.9691
" />
<path d="M129.2981 44.9691
L129.1771 44.8481
" />
<path d="M129.1771 44.8481
L129.1166 44.7271
" />
<path d="M129.1166 44.7271
L129.0562 44.4852
" />
<path d="M129.0562 44.4852
L129.0562 44.3038
" />
<path d="M129.0562 44.3038
L129.1166 44.0619
" />
<path d="M129.1166 44.0619
L129.1771 43.9410
" />
<path d="M129.1771 43.9410
L129.2981 43.8200
" />
<path d="M129.2981 43.8200
L129.4795 43.7595
" />
<path d="M129.4795 43.7595
L129.6004 43.7595
" />
<path d="M129.6004 43.7595
L129.7819 43.8200
" />
<path d="M129.7819 43.8200
L129.8423 43.8805
" />
<path d="M131.1123 44.9086
L131.0519 44.9691
" />
<path d="M131.0519 44.9691
L130.8704 45.0295
" />
<path d="M130.8704 45.0295
L130.7495 45.0295
" />
<path d="M130.7495 45.0295
L130.5681 44.9691
" />
<path d="M130.5681 44.9691
L130.4471 44.8481
" />
<path d="M130.4471 44.8481
L130.3866 44.7271
" />
<path d="M130.3866 44.7271
L130.3262 44.4852
" />
<path d="M130.3262 44.4852
L130.3262 44.3038
" />
<path d="M130.3262 44.3038
L130.3866 44.0619
" />
<path d="M130.3866 44.0619
L130.4471 43.9410
" />
<path d="M130.4471 43.9410
L130.5681 43.8200
" />
<path d="M130.5681 43.8200
L130.7495 43.7595
" />
<path d="M130.7495 43.7595
L130.8704 43.7595
" />
<path d="M130.8704 43.7595
L131.0519 43.8200
" />
<path d="M131.0519 43.8200
L131.1123 43.8805
" />
</g></g>
<g style="fill:none; 
stroke:#725600; stroke-width:0.1524; stroke-opacity:1; 
stroke-linecap:round; stroke-linejoin:round;">
<text x="56.9595" y="28.5750"
textLength="1.2918" font-size="1.6933" lengthAdjust="spacingAndGlyphs"
text-anchor="end" opacity="0" stroke-opacity="0">A</text>
<g class="stroked-text"><desc>A</desc>
<path d="M56.0126 28.1567
L56.6173 28.1567
" />
<path d="M55.8916 28.5195
L56.3149 27.2495
" />
<path d="M56.3149 27.2495
L56.7383 28.5195
" />
</g><path style="fill:none; 
stroke:#725600; stroke-width:0.1524; stroke-opacity:1; 
stroke-linecap:round; stroke-linejoin:round;fill:none"
d="M 58.4200,27.9400
57.7850,27.3050
57.1500,27.3050
57.1500,28.5750
57.7850,28.5750
Z" /> 
</g>
<g style="fill:none; 
stroke:#725600; stroke-width:0.1524; stroke-opacity:1; 
stroke-linecap:round; stroke-linejoin:round;">
<text x="69.6595" y="69.2150"
textLength="1.4732" font-size="1.6933" lengthAdjust="spacingAndGlyphs"
text-anchor="end" opacity="0" stroke-opacity="0">B</text>
<g class="stroked-text"><desc>B</desc>
<path d="M69.0150 68.4943
L69.1964 68.5548
" />
<path d="M69.1964 68.5548
L69.2569 68.6152
" />
<path d="M69.2569 68.6152
L69.3173 68.7362
" />
<path d="M69.3173 68.7362
L69.3173 68.9176
" />
<path d="M69.3173 68.9176
L69.2569 69.0386
" />
<path d="M69.2569 69.0386
L69.1964 69.0991
" />
<path d="M69.1964 69.0991
L69.0754 69.1595
" />
<path d="M69.0754 69.1595
L68.5916 69.1595
" />
<path d="M68.5916 69.1595
L68.5916 67.8895
" />
<path d="M68.5916 67.8895
L69.0150 67.8895
" />
<path d="M69.0150 67.8895
L69.1359 67.9500
" />
<path d="M69.1359 67.9500
L69.1964 68.0105
" />
<path d="M69.1964 68.0105
L69.2569 68.1314
" />
<path d="M69.2569 68.1314
L69.2569 68.2524
" />
<path d="M69.2569 68.2524
L69.1964 68.3733
" />
<path d="M69.1964 68.3733
L69.1359 68.4338
" />
<path d="M69.1359 68.4338
L69.0150 68.4943
" />
<path d="M69.0150 68.4943
L68.5916 68.4943
" />
</g><path style="fill:none; 
stroke:#725600; stroke-width:0.1524; stroke-opacity:1; 
stroke-linecap:round; stroke-linejoin:round;fill:none"
d="M 71.1200,68.5800
70.4850,67.9450
69.8500,67.9450
69.8500,69.2150
70.4850,69.2150
Z" /> 
</g>
<g style="fill:none; 
stroke:#725600; stroke-width:0.1524; stroke-opacity:1; 
stroke-linecap:round; stroke-linejoin:round;">
<text x="155.1305" y="60.3250"
textLength="1.2918" font-size="1.6933" lengthAdjust="spacingAndGlyphs"
text-anchor="start" opacity="0" stroke-opacity="0">Y</text>
<g class="stroked-text"><desc>Y</desc>
<path d="M155.7749 59.6648
L155.7749 60.2695
" />
<path d="M155.3516 58.9995
L155.7749 59.6648
" />
<path d="M155.7749 59.6648
L156.1983 58.9995
" />
</g><path style="fill:none; 
stroke:#725600; stroke-width:0.1524; stroke-opacity:1; 
stroke-linecap:round; stroke-linejoin:round;fill:none"
d="M 154.9400,59.6900
154.3050,59.0550
153.6700,59.0550
153.6700,60.3250
154.3050,60.3250
Z" /> 
</g>
<g style="fill:none; 
stroke:#009600; stroke-width:0.1524; stroke-opacity:1; 
stroke-linecap:round; stroke-linejoin:round;">
<path d="M121.9200 49.5300
L121.9200 54.6100
" />
<path d="M121.9200 54.6100
L121.9200 64.7700
" />
<path d="M95.2500 49.5300
L121.9200 49.5300
" />
<path d="M72.3900 68.5800
L71.1200 68.5800
" />
<path d="M74.9300 27.9400
L58.4200 27.9400
" />
<path d="M74.9300 35.5600
L74.9300 27.9400
" />
<path d="M72.3900 59.6900
L72.3900 68.5800
" />
<path d="M153.6700 59.6900
L129.5400 59.6900
" />
</g>
<g style="fill:none; 
stroke:#006464; stroke-width:0.1524; stroke-opacity:1; 
stroke-linecap:round; stroke-linejoin:round;">
<text x="134.6707" y="53.9748"
textLength="2.6223" font-size="1.6933" lengthAdjust="spacingAndGlyphs"
text-anchor="middle" opacity="0" stroke-opacity="0">Q?</text>
<g class="stroked-text"><desc>Q?</desc>
<path d="M134.6102 54.0403
L134.4892 53.9798
" />
<path d="M134.4892 53.9798
L134.3683 53.8589
" />
<path d="M134.3683 53.8589
L134.1869 53.6774
" />
<path d="M134.1869 53.6774
L134.0659 53.6169
" />
<path d="M134.0659 53.6169
L133.9450 53.6169
" />
<path d="M134.0054 53.9193
L133.8845 53.8589
" />
<path d="M133.8845 53.8589
L133.7635 53.7379
" />
<path d="M133.7635 53.7379
L133.7031 53.4960
" />
<path d="M133.7031 53.4960
L133.7031 53.0727
" />
<path d="M133.7031 53.0727
L133.7635 52.8308
" />
<path d="M133.7635 52.8308
L133.8845 52.7098
" />
<path d="M133.8845 52.7098
L134.0054 52.6493
" />
<path d="M134.0054 52.6493
L134.2473 52.6493
" />
<path d="M134.2473 52.6493
L134.3683 52.7098
" />
<path d="M134.3683 52.7098
L134.4892 52.8308
" />
<path d="M134.4892 52.8308
L134.5497 53.0727
" />
<path d="M134.5497 53.0727
L134.5497 53.4960
" />
<path d="M134.5497 53.4960
L134.4892 53.7379
" />
<path d="M134.4892 53.7379
L134.3683 53.8589
" />
<path d="M134.3683 53.8589
L134.2473 53.9193
" />
<path d="M134.2473 53.9193
L134.0054 53.9193
" />
<path d="M135.2755 53.7984
L135.3359 53.8589
" />
<path d="M135.3359 53.8589
L135.2755 53.9193
" />
<path d="M135.2755 53.9193
L135.2150 53.8589
" />
<path d="M135.2150 53.8589
L135.2755 53.7984
" />
<path d="M135.2755 53.7984
L135.2755 53.9193
" />
<path d="M135.0336 52.7098
L135.1545 52.6493
" />
<path d="M135.1545 52.6493
L135.4569 52.6493
" />
<path d="M135.4569 52.6493
L135.5778 52.7098
" />
<path d="M135.5778 52.7098
L135.6383 52.8308
" />
<path d="M135.6383 52.8308
L135.6383 52.9517
" />
<path d="M135.6383 52.9517
L135.5778 53.0727
" />
<path d="M135.5778 53.0727
L135.5174 53.1331
" />
<path d="M135.5174 53.1331
L135.3964 53.1936
" />
<path d="M135.3964 53.1936
L135.3359 53.2541
" />
<path d="M135.3359 53.2541
L135.2755 53.3750
" />
<path d="M135.2755 53.3750
L135.2755 53.4355
" />
</g><text x="136.0919" y="56.5148"
textLength="5.4646" font-size="1.6933" lengthAdjust="spacingAndGlyphs"
text-anchor="middle" opacity="0" stroke-opacity="0">PMOS</text>
<g class="stroked-text"><desc>PMOS</desc>
<path d="M133.7635 56.4593
L133.7635 55.1893
" />
<path d="M133.7635 55.1893
L134.2473 55.1893
" />
<path d="M134.2473 55.1893
L134.3683 55.2498
" />
<path d="M134.3683 55.2498
L134.4288 55.3103
" />
<path d="M134.4288 55.3103
L134.4892 55.4312
" />
<path d="M134.4892 55.4312
L134.4892 55.6127
" />
<path d="M134.4892 55.6127
L134.4288 55.7336
" />
<path d="M134.4288 55.7336
L134.3683 55.7941
" />
<path d="M134.3683 55.7941
L134.2473 55.8546
" />
<path d="M134.2473 55.8546
L133.7635 55.8546
" />
<path d="M135.0335 56.4593
L135.0335 55.1893
" />
<path d="M135.0335 55.1893
L135.4569 56.0965
" />
<path d="M135.4569 56.0965
L135.8802 55.1893
" />
<path d="M135.8802 55.1893
L135.8802 56.4593
" />
<path d="M136.7268 55.1893
L136.9687 55.1893
" />
<path d="M136.9687 55.1893
L137.0897 55.2498
" />
<path d="M137.0897 55.2498
L137.2106 55.3708
" />
<path d="M137.2106 55.3708
L137.2711 55.6127
" />
<path d="M137.2711 55.6127
L137.2711 56.0360
" />
<path d="M137.2711 56.0360
L137.2106 56.2779
" />
<path d="M137.2106 56.2779
L137.0897 56.3989
" />
<path d="M137.0897 56.3989
L136.9687 56.4593
" />
<path d="M136.9687 56.4593
L136.7268 56.4593
" />
<path d="M136.7268 56.4593
L136.6059 56.3989
" />
<path d="M136.6059 56.3989
L136.4849 56.2779
" />
<path d="M136.4849 56.2779
L136.4245 56.0360
" />
<path d="M136.4245 56.0360
L136.4245 55.6127
" />
<path d="M136.4245 55.6127
L136.4849 55.3708
" />
<path d="M136.4849 55.3708
L136.6059 55.2498
" />
<path d="M136.6059 55.2498
L136.7268 55.1893
" />
<path d="M137.7550 56.3989
L137.9364 56.4593
" />
<path d="M137.9364 56.4593
L138.2388 56.4593
" />
<path d="M138.2388 56.4593
L138.3597 56.3989
" />
<path d="M138.3597 56.3989
L138.4202 56.3384
" />
<path d="M138.4202 56.3384
L138.4807 56.2174
" />
<path d="M138.4807 56.2174
L138.4807 56.0965
" />
<path d="M138.4807 56.0965
L138.4202 55.9755
" />
<path d="M138.4202 55.9755
L138.3597 55.9150
" />
<path d="M138.3597 55.9150
L138.2388 55.8546
" />
<path d="M138.2388 55.8546
L137.9969 55.7941
" />
<path d="M137.9969 55.7941
L137.8759 55.7336
" />
<path d="M137.8759 55.7336
L137.8154 55.6731
" />
<path d="M137.8154 55.6731
L137.7550 55.5522
" />
<path d="M137.7550 55.5522
L137.7550 55.4312
" />
<path d="M137.7550 55.4312
L137.8154 55.3103
" />
<path d="M137.8154 55.3103
L137.8759 55.2498
" />
<path d="M137.8759 55.2498
L137.9969 55.1893
" />
<path d="M137.9969 55.1893
L138.2992 55.1893
" />
<path d="M138.2992 55.1893
L138.4807 55.2498
" />
</g></g>
<g style="fill:none; 
stroke:#840000; stroke-width:0.1524; stroke-opacity:1; 
stroke-linecap:round; stroke-linejoin:round;">
<path d="M124.4600 54.6100
L121.9200 54.6100
" />
</g>
<g style="fill:none; 
stroke:#006464; stroke-width:0.1524; stroke-opacity:1; 
stroke-linecap:round; stroke-linejoin:round;">
<text x="123.1900" y="54.3560"
textLength="1.4732" font-size="1.6933" lengthAdjust="spacingAndGlyphs"
text-anchor="middle" opacity="0" stroke-opacity="0">G</text>
<g class="stroked-text"><desc>G</desc>
<path d="M123.5226 52.9830
L123.4016 52.9225
" />
<path d="M123.4016 52.9225
L123.2202 52.9225
" />
<path d="M123.2202 52.9225
L123.0388 52.9830
" />
<path d="M123.0388 52.9830
L122.9178 53.1040
" />
<path d="M122.9178 53.1040
L122.8573 53.2249
" />
<path d="M122.8573 53.2249
L122.7969 53.4668
" />
<path d="M122.7969 53.4668
L122.7969 53.6482
" />
<path d="M122.7969 53.6482
L122.8573 53.8901
" />
<path d="M122.8573 53.8901
L122.9178 54.0111
" />
<path d="M122.9178 54.0111
L123.0388 54.1321
" />
<path d="M123.0388 54.1321
L123.2202 54.1925
" />
<path d="M123.2202 54.1925
L123.3411 54.1925
" />
<path d="M123.3411 54.1925
L123.5226 54.1321
" />
<path d="M123.5226 54.1321
L123.5830 54.0716
" />
<path d="M123.5830 54.0716
L123.5830 53.6482
" />
<path d="M123.5830 53.6482
L123.3411 53.6482
" />
</g></g>
<g style="fill:none; 
stroke:#A90000; stroke-width:0.1524; stroke-opacity:1; 
stroke-linecap:round; stroke-linejoin:round;">
<text x="123.1900" y="56.1340"
textLength="1.4127" font-size="1.6933" lengthAdjust="spacingAndGlyphs"
text-anchor="middle" opacity="0" stroke-opacity="0">2</text>
<g class="stroked-text"><desc>2</desc>
<path d="M122.8272 55.0374
L122.8876 54.9769
" />
<path d="M122.8876 54.9769
L123.0086 54.9164
" />
<path d="M123.0086 54.9164
L123.3110 54.9164
" />
<path d="M123.3110 54.9164
L123.4319 54.9769
" />
<path d="M123.4319 54.9769
L123.4924 55.0374
" />
<path d="M123.4924 55.0374
L123.5529 55.1583
" />
<path d="M123.5529 55.1583
L123.5529 55.2793
" />
<path d="M123.5529 55.2793
L123.4924 55.4607
" />
<path d="M123.4924 55.4607
L122.7667 56.1864
" />
<path d="M122.7667 56.1864
L123.5529 56.1864
" />
</g></g>
<g style="fill:none; 
stroke:#840000; stroke-width:0.1524; stroke-opacity:1; 
stroke-linecap:round; stroke-linejoin:round;">
<path d="M129.5400 57.1500
L129.5400 59.6900
" />
</g>
<g style="fill:none; 
stroke:#006464; stroke-width:0.1524; stroke-opacity:1; 
stroke-linecap:round; stroke-linejoin:round;">
<g transform="rotate(-90.000000 129.2860 58.4200)">
<text x="129.2860" y="58.4200"
textLength="1.4732" font-size="1.6933" lengthAdjust="spacingAndGlyphs"
text-anchor="middle" opacity="0" stroke-opacity="0">D</text>
</g>
<g class="stroked-text"><desc>D</desc>
<path d="M129.1225 58.7526
L127.8525 58.7526
" />
<path d="M127.8525 58.7526
L127.8525 58.4502
" />
<path d="M127.8525 58.4502
L127.9130 58.2688
" />
<path d="M127.9130 58.2688
L128.0340 58.1478
" />
<path d="M128.0340 58.1478
L128.1549 58.0873
" />
<path d="M128.1549 58.0873
L128.3968 58.0269
" />
<path d="M128.3968 58.0269
L128.5782 58.0269
" />
<path d="M128.5782 58.0269
L128.8201 58.0873
" />
<path d="M128.8201 58.0873
L128.9411 58.1478
" />
<path d="M128.9411 58.1478
L129.0621 58.2688
" />
<path d="M129.0621 58.2688
L129.1225 58.4502
" />
<path d="M129.1225 58.4502
L129.1225 58.7526
" />
</g></g>
<g style="fill:none; 
stroke:#A90000; stroke-width:0.1524; stroke-opacity:1; 
stroke-linecap:round; stroke-linejoin:round;">
<g transform="rotate(-90.000000 129.7940 58.4200)">
<text x="129.7940" y="59.6900"
textLength="1.4127" font-size="1.6933" lengthAdjust="spacingAndGlyphs"
text-anchor="middle" opacity="0" stroke-opacity="0">1</text>
</g>
<g class="stroked-text"><desc>1</desc>
<path d="M131.1164 58.0570
L131.1164 58.7827
" />
<path d="M131.1164 58.4199
L129.8464 58.4199
" />
<path d="M129.8464 58.4199
L130.0279 58.5408
" />
<path d="M130.0279 58.5408
L130.1488 58.6618
" />
<path d="M130.1488 58.6618
L130.2093 58.7827
" />
</g></g>
<g style="fill:none; 
stroke:#840000; stroke-width:0.1524; stroke-opacity:1; 
stroke-linecap:round; stroke-linejoin:round;">
<path d="M129.5400 52.0700
L129.5400 49.5300
" />
</g>
<g style="fill:none; 
stroke:#006464; stroke-width:0.1524; stroke-opacity:1; 
stroke-linecap:round; stroke-linejoin:round;">
<g transform="rotate(-90.000000 129.2860 50.8000)">
<text x="129.2860" y="50.8000"
textLength="1.4127" font-size="1.6933" lengthAdjust="spacingAndGlyphs"
text-anchor="middle" opacity="0" stroke-opacity="0">S</text>
</g>
<g class="stroked-text"><desc>S</desc>
<path d="M129.0621 51.1627
L129.1225 50.9813
" />
<path d="M129.1225 50.9813
L129.1225 50.6789
" />
<path d="M129.1225 50.6789
L129.0621 50.5580
" />
<path d="M129.0621 50.5580
L129.0016 50.4975
" />
<path d="M129.0016 50.4975
L128.8806 50.4370
" />
<path d="M128.8806 50.4370
L128.7597 50.4370
" />
<path d="M128.7597 50.4370
L128.6387 50.4975
" />
<path d="M128.6387 50.4975
L128.5782 50.5580
" />
<path d="M128.5782 50.5580
L128.5178 50.6789
" />
<path d="M128.5178 50.6789
L128.4573 50.9208
" />
<path d="M128.4573 50.9208
L128.3968 51.0418
" />
<path d="M128.3968 51.0418
L128.3363 51.1023
" />
<path d="M128.3363 51.1023
L128.2154 51.1627
" />
<path d="M128.2154 51.1627
L128.0944 51.1627
" />
<path d="M128.0944 51.1627
L127.9735 51.1023
" />
<path d="M127.9735 51.1023
L127.9130 51.0418
" />
<path d="M127.9130 51.0418
L127.8525 50.9208
" />
<path d="M127.8525 50.9208
L127.8525 50.6185
" />
<path d="M127.8525 50.6185
L127.9130 50.4370
" />
</g></g>
<g style="fill:none; 
stroke:#A90000; stroke-width:0.1524; stroke-opacity:1; 
stroke-linecap:round; stroke-linejoin:round;">
<g transform="rotate(-90.000000 129.7940 50.8000)">
<text x="129.7940" y="52.0700"
textLength="1.4127" font-size="1.6933" lengthAdjust="spacingAndGlyphs"
text-anchor="middle" opacity="0" stroke-opacity="0">3</text>
</g>
<g class="stroked-text"><desc>3</desc>
<path d="M129.8464 51.2232
L129.8464 50.4370
" />
<path d="M129.8464 50.4370
L130.3302 50.8604
" />
<path d="M130.3302 50.8604
L130.3302 50.6789
" />
<path d="M130.3302 50.6789
L130.3907 50.5580
" />
<path d="M130.3907 50.5580
L130.4512 50.4975
" />
<path d="M130.4512 50.4975
L130.5721 50.4370
" />
<path d="M130.5721 50.4370
L130.8745 50.4370
" />
<path d="M130.8745 50.4370
L130.9955 50.4975
" />
<path d="M130.9955 50.4975
L131.0560 50.5580
" />
<path d="M131.0560 50.5580
L131.1164 50.6789
" />
<path d="M131.1164 50.6789
L131.1164 51.0418
" />
<path d="M131.1164 51.0418
L131.0560 51.1627
" />
<path d="M131.0560 51.1627
L130.9955 51.2232
" />
</g></g>
<g style="fill:none; 
stroke:#006464; stroke-width:0.1524; stroke-opacity:1; 
stroke-linecap:round; stroke-linejoin:round;">
<text x="134.6707" y="64.1349"
textLength="2.6223" font-size="1.6933" lengthAdjust="spacingAndGlyphs"
text-anchor="middle" opacity="0" stroke-opacity="0">Q?</text>
<g class="stroked-text"><desc>Q?</desc>
<path d="M134.6102 64.2004
L134.4892 64.1399
" />
<path d="M134.4892 64.1399
L134.3683 64.0190
" />
<path d="M134.3683 64.0190
L134.1869 63.8375
" />
<path d="M134.1869 63.8375
L134.0659 63.7770
" />
<path d="M134.0659 63.7770
L133.9450 63.7770
" />
<path d="M134.0054 64.0794
L133.8845 64.0190
" />
<path d="M133.8845 64.0190
L133.7635 63.8980
" />
<path d="M133.7635 63.8980
L133.7031 63.6561
" />
<path d="M133.7031 63.6561
L133.7031 63.2328
" />
<path d="M133.7031 63.2328
L133.7635 62.9909
" />
<path d="M133.7635 62.9909
L133.8845 62.8699
" />
<path d="M133.8845 62.8699
L134.0054 62.8094
" />
<path d="M134.0054 62.8094
L134.2473 62.8094
" />
<path d="M134.2473 62.8094
L134.3683 62.8699
" />
<path d="M134.3683 62.8699
L134.4892 62.9909
" />
<path d="M134.4892 62.9909
L134.5497 63.2328
" />
<path d="M134.5497 63.2328
L134.5497 63.6561
" />
<path d="M134.5497 63.6561
L134.4892 63.8980
" />
<path d="M134.4892 63.8980
L134.3683 64.0190
" />
<path d="M134.3683 64.0190
L134.2473 64.0794
" />
<path d="M134.2473 64.0794
L134.0054 64.0794
" />
<path d="M135.2755 63.9585
L135.3359 64.0190
" />
<path d="M135.3359 64.0190
L135.2755 64.0794
" />
<path d="M135.2755 64.0794
L135.2150 64.0190
" />
<path d="M135.2150 64.0190
L135.2755 63.9585
" />
<path d="M135.2755 63.9585
L135.2755 64.0794
" />
<path d="M135.0336 62.8699
L135.1545 62.8094
" />
<path d="M135.1545 62.8094
L135.4569 62.8094
" />
<path d="M135.4569 62.8094
L135.5778 62.8699
" />
<path d="M135.5778 62.8699
L135.6383 62.9909
" />
<path d="M135.6383 62.9909
L135.6383 63.1118
" />
<path d="M135.6383 63.1118
L135.5778 63.2328
" />
<path d="M135.5778 63.2328
L135.5174 63.2932
" />
<path d="M135.5174 63.2932
L135.3964 63.3537
" />
<path d="M135.3964 63.3537
L135.3359 63.4142
" />
<path d="M135.3359 63.4142
L135.2755 63.5351
" />
<path d="M135.2755 63.5351
L135.2755 63.5956
" />
</g><text x="136.1221" y="66.6749"
textLength="5.5251" font-size="1.6933" lengthAdjust="spacingAndGlyphs"
text-anchor="middle" opacity="0" stroke-opacity="0">NMOS</text>
<g class="stroked-text"><desc>NMOS</desc>
<path d="M133.7635 66.6194
L133.7635 65.3494
" />
<path d="M133.7635 65.3494
L134.4892 66.6194
" />
<path d="M134.4892 66.6194
L134.4892 65.3494
" />
<path d="M135.0940 66.6194
L135.0940 65.3494
" />
<path d="M135.0940 65.3494
L135.5174 66.2566
" />
<path d="M135.5174 66.2566
L135.9407 65.3494
" />
<path d="M135.9407 65.3494
L135.9407 66.6194
" />
<path d="M136.7873 65.3494
L137.0292 65.3494
" />
<path d="M137.0292 65.3494
L137.1502 65.4099
" />
<path d="M137.1502 65.4099
L137.2711 65.5309
" />
<path d="M137.2711 65.5309
L137.3316 65.7728
" />
<path d="M137.3316 65.7728
L137.3316 66.1961
" />
<path d="M137.3316 66.1961
L137.2711 66.4380
" />
<path d="M137.2711 66.4380
L137.1502 66.5590
" />
<path d="M137.1502 66.5590
L137.0292 66.6194
" />
<path d="M137.0292 66.6194
L136.7873 66.6194
" />
<path d="M136.7873 66.6194
L136.6664 66.5590
" />
<path d="M136.6664 66.5590
L136.5454 66.4380
" />
<path d="M136.5454 66.4380
L136.4850 66.1961
" />
<path d="M136.4850 66.1961
L136.4850 65.7728
" />
<path d="M136.4850 65.7728
L136.5454 65.5309
" />
<path d="M136.5454 65.5309
L136.6664 65.4099
" />
<path d="M136.6664 65.4099
L136.7873 65.3494
" />
<path d="M137.8155 66.5590
L137.9969 66.6194
" />
<path d="M137.9969 66.6194
L138.2993 66.6194
" />
<path d="M138.2993 66.6194
L138.4202 66.5590
" />
<path d="M138.4202 66.5590
L138.4807 66.4985
" />
<path d="M138.4807 66.4985
L138.5412 66.3775
" />
<path d="M138.5412 66.3775
L138.5412 66.2566
" />
<path d="M138.5412 66.2566
L138.4807 66.1356
" />
<path d="M138.4807 66.1356
L138.4202 66.0751
" />
<path d="M138.4202 66.0751
L138.2993 66.0147
" />
<path d="M138.2993 66.0147
L138.0574 65.9542
" />
<path d="M138.0574 65.9542
L137.9364 65.8937
" />
<path d="M137.9364 65.8937
L137.8759 65.8332
" />
<path d="M137.8759 65.8332
L137.8155 65.7123
" />
<path d="M137.8155 65.7123
L137.8155 65.5913
" />
<path d="M137.8155 65.5913
L137.8759 65.4704
" />
<path d="M137.8759 65.4704
L137.9364 65.4099
" />
<path d="M137.9364 65.4099
L138.0574 65.3494
" />
<path d="M138.0574 65.3494
L138.3597 65.3494
" />
<path d="M138.3597 65.3494
L138.5412 65.4099
" />
</g></g>
<g style="fill:none; 
stroke:#840000; stroke-width:0.1524; stroke-opacity:1; 
stroke-linecap:round; stroke-linejoin:round;">
<path d="M124.4600 64.7700
L121.9200 64.7700
" />
</g>
<g style="fill:none; 
stroke:#006464; stroke-width:0.1524; stroke-opacity:1; 
stroke-linecap:round; stroke-linejoin:round;">
<text x="123.1900" y="64.5160"
textLength="1.4732" font-size="1.6933" lengthAdjust="spacingAndGlyphs"
text-anchor="middle" opacity="0" stroke-opacity="0">G</text>
<g class="stroked-text"><desc>G</desc>
<path d="M123.5226 63.1430
L123.4016 63.0825
" />
<path d="M123.4016 63.0825
L123.2202 63.0825
" />
<path d="M123.2202 63.0825
L123.0388 63.1430
" />
<path d="M123.0388 63.1430
L122.9178 63.2640
" />
<path d="M122.9178 63.2640
L122.8573 63.3849
" />
<path d="M122.8573 63.3849
L122.7969 63.6268
" />
<path d="M122.7969 63.6268
L122.7969 63.8082
" />
<path d="M122.7969 63.8082
L122.8573 64.0501
" />
<path d="M122.8573 64.0501
L122.9178 64.1711
" />
<path d="M122.9178 64.1711
L123.0388 64.2921
" />
<path d="M123.0388 64.2921
L123.2202 64.3525
" />
<path d="M123.2202 64.3525
L123.3411 64.3525
" />
<path d="M123.3411 64.3525
L123.5226 64.2921
" />
<path d="M123.5226 64.2921
L123.5830 64.2316
" />
<path d="M123.5830 64.2316
L123.5830 63.8082
" />
<path d="M123.5830 63.8082
L123.3411 63.8082
" />
</g></g>
<g style="fill:none; 
stroke:#A90000; stroke-width:0.1524; stroke-opacity:1; 
stroke-linecap:round; stroke-linejoin:round;">
<text x="123.1900" y="66.2940"
textLength="1.4127" font-size="1.6933" lengthAdjust="spacingAndGlyphs"
text-anchor="middle" opacity="0" stroke-opacity="0">2</text>
<g class="stroked-text"><desc>2</desc>
<path d="M122.8272 65.1974
L122.8876 65.1369
" />
<path d="M122.8876 65.1369
L123.0086 65.0764
" />
<path d="M123.0086 65.0764
L123.3110 65.0764
" />
<path d="M123.3110 65.0764
L123.4319 65.1369
" />
<path d="M123.4319 65.1369
L123.4924 65.1974
" />
<path d="M123.4924 65.1974
L123.5529 65.3183
" />
<path d="M123.5529 65.3183
L123.5529 65.4393
" />
<path d="M123.5529 65.4393
L123.4924 65.6207
" />
<path d="M123.4924 65.6207
L122.7667 66.3464
" />
<path d="M122.7667 66.3464
L123.5529 66.3464
" />
</g></g>
<g style="fill:none; 
stroke:#840000; stroke-width:0.1524; stroke-opacity:1; 
stroke-linecap:round; stroke-linejoin:round;">
<path d="M129.5400 62.2300
L129.5400 59.6900
" />
</g>
<g style="fill:none; 
stroke:#006464; stroke-width:0.1524; stroke-opacity:1; 
stroke-linecap:round; stroke-linejoin:round;">
<g transform="rotate(-90.000000 129.2860 60.9600)">
<text x="129.2860" y="60.9600"
textLength="1.4732" font-size="1.6933" lengthAdjust="spacingAndGlyphs"
text-anchor="middle" opacity="0" stroke-opacity="0">D</text>
</g>
<g class="stroked-text"><desc>D</desc>
<path d="M129.1225 61.2926
L127.8525 61.2926
" />
<path d="M127.8525 61.2926
L127.8525 60.9902
" />
<path d="M127.8525 60.9902
L127.9130 60.8088
" />
<path d="M127.9130 60.8088
L128.0340 60.6878
" />
<path d="M128.0340 60.6878
L128.1549 60.6273
" />
<path d="M128.1549 60.6273
L128.3968 60.5669
" />
<path d="M128.3968 60.5669
L128.5782 60.5669
" />
<path d="M128.5782 60.5669
L128.8201 60.6273
" />
<path d="M128.8201 60.6273
L128.9411 60.6878
" />
<path d="M128.9411 60.6878
L129.0621 60.8088
" />
<path d="M129.0621 60.8088
L129.1225 60.9902
" />
<path d="M129.1225 60.9902
L129.1225 61.2926
" />
</g></g>
<g style="fill:none; 
stroke:#A90000; stroke-width:0.1524; stroke-opacity:1; 
stroke-linecap:round; stroke-linejoin:round;">
<g transform="rotate(-90.000000 129.7940 60.9600)">
<text x="129.7940" y="62.2300"
textLength="1.4127" font-size="1.6933" lengthAdjust="spacingAndGlyphs"
text-anchor="middle" opacity="0" stroke-opacity="0">1</text>
</g>
<g class="stroked-text"><desc>1</desc>
<path d="M131.1164 60.5970
L131.1164 61.3227
" />
<path d="M131.1164 60.9599
L129.8464 60.9599
" />
<path d="M129.8464 60.9599
L130.0279 61.0808
" />
<path d="M130.0279 61.0808
L130.1488 61.2018
" />
<path d="M130.1488 61.2018
L130.2093 61.3227
" />
</g></g>
<g style="fill:none; 
stroke:#840000; stroke-width:0.1524; stroke-opacity:1; 
stroke-linecap:round; stroke-linejoin:round;">
<path d="M129.5400 67.3100
L129.5400 69.8500
" />
</g>
<g style="fill:none; 
stroke:#006464; stroke-width:0.1524; stroke-opacity:1; 
stroke-linecap:round; stroke-linejoin:round;">
<g transform="rotate(-90.000000 129.2860 68.5800)">
<text x="129.2860" y="68.5800"
textLength="1.4127" font-size="1.6933" lengthAdjust="spacingAndGlyphs"
text-anchor="middle" opacity="0" stroke-opacity="0">S</text>
</g>
<g class="stroked-text"><desc>S</desc>
<path d="M129.0621 68.9427
L129.1225 68.7613
" />
<path d="M129.1225 68.7613
L129.1225 68.4589
" />
<path d="M129.1225 68.4589
L129.0621 68.3380
" />
<path d="M129.0621 68.3380
L129.0016 68.2775
" />
<path d="M129.0016 68.2775
L128.8806 68.2170
" />
<path d="M128.8806 68.2170
L128.7597 68.2170
" />
<path d="M128.7597 68.2170
L128.6387 68.2775
" />
<path d="M128.6387 68.2775
L128.5782 68.3380
" />
<path d="M128.5782 68.3380
L128.5178 68.4589
" />
<path d="M128.5178 68.4589
L128.4573 68.7008
" />
<path d="M128.4573 68.7008
L128.3968 68.8218
" />
<path d="M128.3968 68.8218
L128.3363 68.8823
" />
<path d="M128.3363 68.8823
L128.2154 68.9427
" />
<path d="M128.2154 68.9427
L128.0944 68.9427
" />
<path d="M128.0944 68.9427
L127.9735 68.8823
" />
<path d="M127.9735 68.8823
L127.9130 68.8218
" />
<path d="M127.9130 68.8218
L127.8525 68.7008
" />
<path d="M127.8525 68.7008
L127.8525 68.3985
" />
<path d="M127.8525 68.3985
L127.9130 68.2170
" />
</g></g>
<g style="fill:none; 
stroke:#A90000; stroke-width:0.1524; stroke-opacity:1; 
stroke-linecap:round; stroke-linejoin:round;">
<g transform="rotate(-90.000000 129.7940 68.5800)">
<text x="129.7940" y="69.8500"
textLength="1.4127" font-size="1.6933" lengthAdjust="spacingAndGlyphs"
text-anchor="middle" opacity="0" stroke-opacity="0">3</text>
</g>
<g class="stroked-text"><desc>3</desc>
<path d="M129.8464 69.0032
L129.8464 68.2170
" />
<path d="M129.8464 68.2170
L130.3302 68.6404
" />
<path d="M130.3302 68.6404
L130.3302 68.4589
" />
<path d="M130.3302 68.4589
L130.3907 68.3380
" />
<path d="M130.3907 68.3380
L130.4512 68.2775
" />
<path d="M130.4512 68.2775
L130.5721 68.2170
" />
<path d="M130.5721 68.2170
L130.8745 68.2170
" />
<path d="M130.8745 68.2170
L130.9955 68.2775
" />
<path d="M130.9955 68.2775
L131.0560 68.3380
" />
<path d="M131.0560 68.3380
L131.1164 68.4589
" />
<path d="M131.1164 68.4589
L131.1164 68.8218
" />
<path d="M131.1164 68.8218
L131.0560 68.9427
" />
<path d="M131.0560 68.9427
L130.9955 69.0032
" />
</g></g>
<g style="fill:none; 
stroke:#006464; stroke-width:0.1524; stroke-opacity:1; 
stroke-linecap:round; stroke-linejoin:round;">
<text x="129.5400" y="75.5650"
textLength="4.0737" font-size="1.6933" lengthAdjust="spacingAndGlyphs"
text-anchor="middle" opacity="0" stroke-opacity="0">GND</text>
<g class="stroked-text"><desc>GND</desc>
<path d="M128.5724 74.3000
L128.4514 74.2395
" />
<path d="M128.4514 74.2395
L128.2700 74.2395
" />
<path d="M128.2700 74.2395
L128.0886 74.3000
" />
<path d="M128.0886 74.3000
L127.9676 74.4210
" />
<path d="M127.9676 74.4210
L127.9071 74.5419
" />
<path d="M127.9071 74.5419
L127.8467 74.7838
" />
<path d="M127.8467 74.7838
L127.8467 74.9652
" />
<path d="M127.8467 74.9652
L127.9071 75.2071
" />
<path d="M127.9071 75.2071
L127.9676 75.3281
" />
<path d="M127.9676 75.3281
L128.0886 75.4491
" />
<path d="M128.0886 75.4491
L128.2700 75.5095
" />
<path d="M128.2700 75.5095
L128.3909 75.5095
" />
<path d="M128.3909 75.5095
L128.5724 75.4491
" />
<path d="M128.5724 75.4491
L128.6328 75.3886
" />
<path d="M128.6328 75.3886
L128.6328 74.9652
" />
<path d="M128.6328 74.9652
L128.3909 74.9652
" />
<path d="M129.1771 75.5095
L129.1771 74.2395
" />
<path d="M129.1771 74.2395
L129.9028 75.5095
" />
<path d="M129.9028 75.5095
L129.9028 74.2395
" />
<path d="M130.5076 75.5095
L130.5076 74.2395
" />
<path d="M130.5076 74.2395
L130.8100 74.2395
" />
<path d="M130.8100 74.2395
L130.9914 74.3000
" />
<path d="M130.9914 74.3000
L131.1124 74.4210
" />
<path d="M131.1124 74.4210
L131.1729 74.5419
" />
<path d="M131.1729 74.5419
L131.2333 74.7838
" />
<path d="M131.2333 74.7838
L131.2333 74.9652
" />
<path d="M131.2333 74.9652
L131.1729 75.2071
" />
<path d="M131.1729 75.2071
L131.1124 75.3281
" />
<path d="M131.1124 75.3281
L130.9914 75.4491
" />
<path d="M130.9914 75.4491
L130.8100 75.5095
" />
<path d="M130.8100 75.5095
L130.5076 75.5095
" />
</g></g>
<g style="fill:none; 
stroke:#840000; stroke-width:0.1524; stroke-opacity:1; 
stroke-linecap:round; stroke-linejoin:round;">
<path d="M129.5400 69.8500
L129.5400 69.8500
" />
</g>
<g style="fill:none; 
stroke:#006464; stroke-width:0.1524; stroke-opacity:1; 
stroke-linecap:round; stroke-linejoin:round;">
<text x="129.5400" y="45.0850"
textLength="3.8318" font-size="1.6933" lengthAdjust="spacingAndGlyphs"
text-anchor="middle" opacity="0" stroke-opacity="0">VCC</text>
<g class="stroked-text"><desc>VCC</desc>
<path d="M127.8466 43.7595
L128.2699 45.0295
" />
<path d="M128.2699 45.0295
L128.6933 43.7595
" />
<path d="M129.8423 44.9086
L129.7819 44.9691
" />
<path d="M129.7819 44.9691
L129.6004 45.0295
" />
<path d="M129.6004 45.0295
L129.4795 45.0295
" />
<path d="M129.4795 45.0295
L129.2981 44.9691
" />
<path d="M129.2981 44.9691
L129.1771 44.8481
" />
<path d="M129.1771 44.8481
L129.1166 44.7271
" />
<path d="M129.1166 44.7271
L129.0562 44.4852
" />
<path d="M129.0562 44.4852
L129.0562 44.3038
" />
<path d="M129.0562 44.3038
L129.1166 44.0619
" />
<path d="M129.1166 44.0619
L129.1771 43.9410
" />
<path d="M129.1771 43.9410
L129.2981 43.8200
" />
<path d="M129.2981 43.8200
L129.4795 43.7595
" />
<path d="M129.4795 43.7595
L129.6004 43.7595
" />
<path d="M129.6004 43.7595
L129.7819 43.8200
" />
<path d="M129.7819 43.8200
L129.8423 43.8805
" />
<path d="M131.1123 44.9086
L131.0519 44.9691
" />
<path d="M131.0519 44.9691
L130.8704 45.0295
" />
<path d="M130.8704 45.0295
L130.7495 45.0295
" />
<path d="M130.7495 45.0295
L130.5681 44.9691
" />
<path d="M130.5681 44.9691
L130.4471 44.8481
" />
<path d="M130.4471 44.8481
L130.3866 44.7271
" />
<path d="M130.3866 44.7271
L130.3262 44.4852
" />
<path d="M130.3262 44.4852
L130.3262 44.3038
" />
<path d="M130.3262 44.3038
L130.3866 44.0619
" />
<path d="M130.3866 44.0619
L130.4471 43.9410
" />
<path d="M130.4471 43.9410
L130.5681 43.8200
" />
<path d="M130.5681 43.8200
L130.7495 43.7595
" />
<path d="M130.7495 43.7595
L130.8704 43.7595
" />
<path d="M130.8704 43.7595
L131.0519 43.8200
" />
<path d="M131.0519 43.8200
L131.1123 43.8805
" />
</g></g>
<g style="fill:none; 
stroke:#840000; stroke-width:0.1524; stroke-opacity:1; 
stroke-linecap:round; stroke-linejoin:round;">
<path d="M129.5400 49.5300
L129.5400 49.5300
" />
</g>
<g style="fill:#009600; fill-opacity:1.0000; 
stroke:#009600; stroke-width:0.1524; stroke-opacity:1; 
stroke-linecap:round; stroke-linejoin:round;">
<circle cx="121.9200" cy="54.6100" r="0.4572" /> 
<circle cx="129.5400" cy="59.6900" r="0.4572" /> 
</g> 
</svg>
