<?xml version="1.0" standalone="no"?>
 <!DOCTYPE svg PUBLIC "-//W3C//DTD SVG 1.1//EN" 
 "http://www.w3.org/Graphics/SVG/1.1/DTD/svg11.dtd"> 
<svg
  xmlns:svg="http://www.w3.org/2000/svg"
  xmlns="http://www.w3.org/2000/svg"
  xmlns:xlink="http://www.w3.org/1999/xlink"
  version="1.1"
  width="297.0022mm" height="210.0072mm" viewBox="0.0000 0.0000 297.0022 210.0072">
<title>SVG Image created as gate_and_2in_8bit.svg date 2026/01/14 19:56:41 </title>
  <desc>Image generated by Eeschema-SVG </desc>
<g style="fill:#000000; fill-opacity:1.0000;stroke:#000000; stroke-opacity:1.0000;
stroke-linecap:round; stroke-linejoin:round;"
 transform="translate(0 0) scale(1 1)">
</g>
<g style="fill:none; 
stroke:#840000; stroke-width:0.1524; stroke-opacity:1; 
stroke-linecap:round; stroke-linejoin:round;">
<rect x="77.470000" y="85.090000" width="16.510000" height="15.240000" rx="0.000000" />
<rect x="77.470000" y="46.990000" width="16.510000" height="15.240000" rx="0.000000" />
<rect x="77.470000" y="161.290000" width="16.510000" height="15.240000" rx="0.000000" />
<rect x="77.470000" y="123.190000" width="16.510000" height="15.240000" rx="0.000000" />
<rect x="77.470000" y="142.240000" width="16.510000" height="15.240000" rx="0.000000" />
<rect x="77.470000" y="27.940000" width="16.510000" height="15.240000" rx="0.000000" />
<rect x="77.470000" y="66.040000" width="16.510000" height="15.240000" rx="0.000000" />
<rect x="77.470000" y="104.140000" width="16.510000" height="15.240000" rx="0.000000" />
</g>
<g style="fill:none; 
stroke:#840000; stroke-width:0.1524; stroke-opacity:1; 
stroke-linecap:round; stroke-linejoin:round;">
<rect x="77.470000" y="85.090000" width="16.510000" height="15.240000" rx="0.000000" />
</g>
<g style="fill:none; 
stroke:#006464; stroke-width:0.1524; stroke-opacity:1; 
stroke-linecap:round; stroke-linejoin:round;">
<text x="92.5195" y="93.3450"
textLength="1.2918" font-size="1.6933" lengthAdjust="spacingAndGlyphs"
text-anchor="end" opacity="0" stroke-opacity="0">Y</text>
<g class="stroked-text"><desc>Y</desc>
<path d="M91.8749 92.6848
L91.8749 93.2895
" />
<path d="M91.4516 92.0195
L91.8749 92.6848
" />
<path d="M91.8749 92.6848
L92.2983 92.0195
" />
</g><path style="fill:none; 
stroke:#006464; stroke-width:0.1524; stroke-opacity:1; 
stroke-linecap:round; stroke-linejoin:round;fill:none"
d="M 93.9800,92.7100
93.3450,92.0750
92.7100,92.0750
92.7100,93.3450
93.3450,93.3450
Z" /> 
<text x="78.9305" y="97.1550"
textLength="1.4732" font-size="1.6933" lengthAdjust="spacingAndGlyphs"
text-anchor="start" opacity="0" stroke-opacity="0">B</text>
<g class="stroked-text"><desc>B</desc>
<path d="M79.7564 96.4343
L79.9378 96.4948
" />
<path d="M79.9378 96.4948
L79.9983 96.5552
" />
<path d="M79.9983 96.5552
L80.0587 96.6762
" />
<path d="M80.0587 96.6762
L80.0587 96.8576
" />
<path d="M80.0587 96.8576
L79.9983 96.9786
" />
<path d="M79.9983 96.9786
L79.9378 97.0391
" />
<path d="M79.9378 97.0391
L79.8168 97.0995
" />
<path d="M79.8168 97.0995
L79.3330 97.0995
" />
<path d="M79.3330 97.0995
L79.3330 95.8295
" />
<path d="M79.3330 95.8295
L79.7564 95.8295
" />
<path d="M79.7564 95.8295
L79.8773 95.8900
" />
<path d="M79.8773 95.8900
L79.9378 95.9505
" />
<path d="M79.9378 95.9505
L79.9983 96.0714
" />
<path d="M79.9983 96.0714
L79.9983 96.1924
" />
<path d="M79.9983 96.1924
L79.9378 96.3133
" />
<path d="M79.9378 96.3133
L79.8773 96.3738
" />
<path d="M79.8773 96.3738
L79.7564 96.4343
" />
<path d="M79.7564 96.4343
L79.3330 96.4343
" />
</g><path style="fill:none; 
stroke:#006464; stroke-width:0.1524; stroke-opacity:1; 
stroke-linecap:round; stroke-linejoin:round;fill:none"
d="M 78.7400,96.5200
78.1050,95.8850
77.4700,95.8850
77.4700,97.1550
78.1050,97.1550
Z" /> 
<text x="78.9305" y="88.2650"
textLength="1.2918" font-size="1.6933" lengthAdjust="spacingAndGlyphs"
text-anchor="start" opacity="0" stroke-opacity="0">A</text>
<g class="stroked-text"><desc>A</desc>
<path d="M79.2726 87.8467
L79.8773 87.8467
" />
<path d="M79.1516 88.2095
L79.5749 86.9395
" />
<path d="M79.5749 86.9395
L79.9983 88.2095
" />
</g><path style="fill:none; 
stroke:#006464; stroke-width:0.1524; stroke-opacity:1; 
stroke-linecap:round; stroke-linejoin:round;fill:none"
d="M 78.7400,87.6300
78.1050,86.9950
77.4700,86.9950
77.4700,88.2650
78.1050,88.2650
Z" /> 
<text x="77.4700" y="84.3784"
textLength="4.8597" font-size="1.6933" lengthAdjust="spacingAndGlyphs"
text-anchor="start" opacity="0" stroke-opacity="0">and4</text>
<g class="stroked-text"><desc>and4</desc>
<path d="M78.4168 84.2149
L78.4168 83.5497
" />
<path d="M78.4168 83.5497
L78.3563 83.4287
" />
<path d="M78.3563 83.4287
L78.2354 83.3683
" />
<path d="M78.2354 83.3683
L77.9935 83.3683
" />
<path d="M77.9935 83.3683
L77.8725 83.4287
" />
<path d="M78.4168 84.1545
L78.2959 84.2149
" />
<path d="M78.2959 84.2149
L77.9935 84.2149
" />
<path d="M77.9935 84.2149
L77.8725 84.1545
" />
<path d="M77.8725 84.1545
L77.8121 84.0335
" />
<path d="M77.8121 84.0335
L77.8121 83.9125
" />
<path d="M77.8121 83.9125
L77.8725 83.7916
" />
<path d="M77.8725 83.7916
L77.9935 83.7311
" />
<path d="M77.9935 83.7311
L78.2959 83.7311
" />
<path d="M78.2959 83.7311
L78.4168 83.6706
" />
<path d="M79.0215 83.3683
L79.0215 84.2149
" />
<path d="M79.0215 83.4892
L79.0820 83.4287
" />
<path d="M79.0820 83.4287
L79.2030 83.3683
" />
<path d="M79.2030 83.3683
L79.3844 83.3683
" />
<path d="M79.3844 83.3683
L79.5053 83.4287
" />
<path d="M79.5053 83.4287
L79.5658 83.5497
" />
<path d="M79.5658 83.5497
L79.5658 84.2149
" />
<path d="M80.7148 84.2149
L80.7148 82.9449
" />
<path d="M80.7148 84.1545
L80.5939 84.2149
" />
<path d="M80.5939 84.2149
L80.3520 84.2149
" />
<path d="M80.3520 84.2149
L80.2310 84.1545
" />
<path d="M80.2310 84.1545
L80.1705 84.0940
" />
<path d="M80.1705 84.0940
L80.1101 83.9730
" />
<path d="M80.1101 83.9730
L80.1101 83.6102
" />
<path d="M80.1101 83.6102
L80.1705 83.4892
" />
<path d="M80.1705 83.4892
L80.2310 83.4287
" />
<path d="M80.2310 83.4287
L80.3520 83.3683
" />
<path d="M80.3520 83.3683
L80.5939 83.3683
" />
<path d="M80.5939 83.3683
L80.7148 83.4287
" />
<path d="M81.8638 83.3683
L81.8638 84.2149
" />
<path d="M81.5614 82.8845
L81.2591 83.7916
" />
<path d="M81.2591 83.7916
L82.0452 83.7916
" />
</g></g>
<g style="fill:none; 
stroke:#840000; stroke-width:0.1524; stroke-opacity:1; 
stroke-linecap:round; stroke-linejoin:round;">
<rect x="77.470000" y="46.990000" width="16.510000" height="15.240000" rx="0.000000" />
</g>
<g style="fill:none; 
stroke:#006464; stroke-width:0.1524; stroke-opacity:1; 
stroke-linecap:round; stroke-linejoin:round;">
<text x="92.5195" y="55.2450"
textLength="1.2918" font-size="1.6933" lengthAdjust="spacingAndGlyphs"
text-anchor="end" opacity="0" stroke-opacity="0">Y</text>
<g class="stroked-text"><desc>Y</desc>
<path d="M91.8749 54.5848
L91.8749 55.1895
" />
<path d="M91.4516 53.9195
L91.8749 54.5848
" />
<path d="M91.8749 54.5848
L92.2983 53.9195
" />
</g><path style="fill:none; 
stroke:#006464; stroke-width:0.1524; stroke-opacity:1; 
stroke-linecap:round; stroke-linejoin:round;fill:none"
d="M 93.9800,54.6100
93.3450,53.9750
92.7100,53.9750
92.7100,55.2450
93.3450,55.2450
Z" /> 
<text x="78.9305" y="59.0550"
textLength="1.4732" font-size="1.6933" lengthAdjust="spacingAndGlyphs"
text-anchor="start" opacity="0" stroke-opacity="0">B</text>
<g class="stroked-text"><desc>B</desc>
<path d="M79.7564 58.3343
L79.9378 58.3948
" />
<path d="M79.9378 58.3948
L79.9983 58.4552
" />
<path d="M79.9983 58.4552
L80.0587 58.5762
" />
<path d="M80.0587 58.5762
L80.0587 58.7576
" />
<path d="M80.0587 58.7576
L79.9983 58.8786
" />
<path d="M79.9983 58.8786
L79.9378 58.9391
" />
<path d="M79.9378 58.9391
L79.8168 58.9995
" />
<path d="M79.8168 58.9995
L79.3330 58.9995
" />
<path d="M79.3330 58.9995
L79.3330 57.7295
" />
<path d="M79.3330 57.7295
L79.7564 57.7295
" />
<path d="M79.7564 57.7295
L79.8773 57.7900
" />
<path d="M79.8773 57.7900
L79.9378 57.8505
" />
<path d="M79.9378 57.8505
L79.9983 57.9714
" />
<path d="M79.9983 57.9714
L79.9983 58.0924
" />
<path d="M79.9983 58.0924
L79.9378 58.2133
" />
<path d="M79.9378 58.2133
L79.8773 58.2738
" />
<path d="M79.8773 58.2738
L79.7564 58.3343
" />
<path d="M79.7564 58.3343
L79.3330 58.3343
" />
</g><path style="fill:none; 
stroke:#006464; stroke-width:0.1524; stroke-opacity:1; 
stroke-linecap:round; stroke-linejoin:round;fill:none"
d="M 78.7400,58.4200
78.1050,57.7850
77.4700,57.7850
77.4700,59.0550
78.1050,59.0550
Z" /> 
<text x="78.9305" y="50.1650"
textLength="1.2918" font-size="1.6933" lengthAdjust="spacingAndGlyphs"
text-anchor="start" opacity="0" stroke-opacity="0">A</text>
<g class="stroked-text"><desc>A</desc>
<path d="M79.2726 49.7467
L79.8773 49.7467
" />
<path d="M79.1516 50.1095
L79.5749 48.8395
" />
<path d="M79.5749 48.8395
L79.9983 50.1095
" />
</g><path style="fill:none; 
stroke:#006464; stroke-width:0.1524; stroke-opacity:1; 
stroke-linecap:round; stroke-linejoin:round;fill:none"
d="M 78.7400,49.5300
78.1050,48.8950
77.4700,48.8950
77.4700,50.1650
78.1050,50.1650
Z" /> 
<text x="77.4700" y="46.2784"
textLength="4.8597" font-size="1.6933" lengthAdjust="spacingAndGlyphs"
text-anchor="start" opacity="0" stroke-opacity="0">and2</text>
<g class="stroked-text"><desc>and2</desc>
<path d="M78.4168 46.1149
L78.4168 45.4497
" />
<path d="M78.4168 45.4497
L78.3563 45.3287
" />
<path d="M78.3563 45.3287
L78.2354 45.2683
" />
<path d="M78.2354 45.2683
L77.9935 45.2683
" />
<path d="M77.9935 45.2683
L77.8725 45.3287
" />
<path d="M78.4168 46.0545
L78.2959 46.1149
" />
<path d="M78.2959 46.1149
L77.9935 46.1149
" />
<path d="M77.9935 46.1149
L77.8725 46.0545
" />
<path d="M77.8725 46.0545
L77.8121 45.9335
" />
<path d="M77.8121 45.9335
L77.8121 45.8125
" />
<path d="M77.8121 45.8125
L77.8725 45.6916
" />
<path d="M77.8725 45.6916
L77.9935 45.6311
" />
<path d="M77.9935 45.6311
L78.2959 45.6311
" />
<path d="M78.2959 45.6311
L78.4168 45.5706
" />
<path d="M79.0215 45.2683
L79.0215 46.1149
" />
<path d="M79.0215 45.3892
L79.0820 45.3287
" />
<path d="M79.0820 45.3287
L79.2030 45.2683
" />
<path d="M79.2030 45.2683
L79.3844 45.2683
" />
<path d="M79.3844 45.2683
L79.5053 45.3287
" />
<path d="M79.5053 45.3287
L79.5658 45.4497
" />
<path d="M79.5658 45.4497
L79.5658 46.1149
" />
<path d="M80.7148 46.1149
L80.7148 44.8449
" />
<path d="M80.7148 46.0545
L80.5939 46.1149
" />
<path d="M80.5939 46.1149
L80.3520 46.1149
" />
<path d="M80.3520 46.1149
L80.2310 46.0545
" />
<path d="M80.2310 46.0545
L80.1705 45.9940
" />
<path d="M80.1705 45.9940
L80.1101 45.8730
" />
<path d="M80.1101 45.8730
L80.1101 45.5102
" />
<path d="M80.1101 45.5102
L80.1705 45.3892
" />
<path d="M80.1705 45.3892
L80.2310 45.3287
" />
<path d="M80.2310 45.3287
L80.3520 45.2683
" />
<path d="M80.3520 45.2683
L80.5939 45.2683
" />
<path d="M80.5939 45.2683
L80.7148 45.3287
" />
<path d="M81.2591 44.9659
L81.3195 44.9054
" />
<path d="M81.3195 44.9054
L81.4405 44.8449
" />
<path d="M81.4405 44.8449
L81.7429 44.8449
" />
<path d="M81.7429 44.8449
L81.8638 44.9054
" />
<path d="M81.8638 44.9054
L81.9243 44.9659
" />
<path d="M81.9243 44.9659
L81.9848 45.0868
" />
<path d="M81.9848 45.0868
L81.9848 45.2078
" />
<path d="M81.9848 45.2078
L81.9243 45.3892
" />
<path d="M81.9243 45.3892
L81.1986 46.1149
" />
<path d="M81.1986 46.1149
L81.9848 46.1149
" />
</g></g>
<g style="fill:none; 
stroke:#840000; stroke-width:0.1524; stroke-opacity:1; 
stroke-linecap:round; stroke-linejoin:round;">
<rect x="77.470000" y="161.290000" width="16.510000" height="15.240000" rx="0.000000" />
</g>
<g style="fill:none; 
stroke:#006464; stroke-width:0.1524; stroke-opacity:1; 
stroke-linecap:round; stroke-linejoin:round;">
<text x="92.5195" y="169.5450"
textLength="1.2918" font-size="1.6933" lengthAdjust="spacingAndGlyphs"
text-anchor="end" opacity="0" stroke-opacity="0">Y</text>
<g class="stroked-text"><desc>Y</desc>
<path d="M91.8749 168.8848
L91.8749 169.4895
" />
<path d="M91.4516 168.2195
L91.8749 168.8848
" />
<path d="M91.8749 168.8848
L92.2983 168.2195
" />
</g><path style="fill:none; 
stroke:#006464; stroke-width:0.1524; stroke-opacity:1; 
stroke-linecap:round; stroke-linejoin:round;fill:none"
d="M 93.9800,168.9100
93.3450,168.2750
92.7100,168.2750
92.7100,169.5450
93.3450,169.5450
Z" /> 
<text x="78.9305" y="173.3550"
textLength="1.4732" font-size="1.6933" lengthAdjust="spacingAndGlyphs"
text-anchor="start" opacity="0" stroke-opacity="0">B</text>
<g class="stroked-text"><desc>B</desc>
<path d="M79.7564 172.6343
L79.9378 172.6948
" />
<path d="M79.9378 172.6948
L79.9983 172.7552
" />
<path d="M79.9983 172.7552
L80.0587 172.8762
" />
<path d="M80.0587 172.8762
L80.0587 173.0576
" />
<path d="M80.0587 173.0576
L79.9983 173.1786
" />
<path d="M79.9983 173.1786
L79.9378 173.2391
" />
<path d="M79.9378 173.2391
L79.8168 173.2995
" />
<path d="M79.8168 173.2995
L79.3330 173.2995
" />
<path d="M79.3330 173.2995
L79.3330 172.0295
" />
<path d="M79.3330 172.0295
L79.7564 172.0295
" />
<path d="M79.7564 172.0295
L79.8773 172.0900
" />
<path d="M79.8773 172.0900
L79.9378 172.1505
" />
<path d="M79.9378 172.1505
L79.9983 172.2714
" />
<path d="M79.9983 172.2714
L79.9983 172.3924
" />
<path d="M79.9983 172.3924
L79.9378 172.5133
" />
<path d="M79.9378 172.5133
L79.8773 172.5738
" />
<path d="M79.8773 172.5738
L79.7564 172.6343
" />
<path d="M79.7564 172.6343
L79.3330 172.6343
" />
</g><path style="fill:none; 
stroke:#006464; stroke-width:0.1524; stroke-opacity:1; 
stroke-linecap:round; stroke-linejoin:round;fill:none"
d="M 78.7400,172.7200
78.1050,172.0850
77.4700,172.0850
77.4700,173.3550
78.1050,173.3550
Z" /> 
<text x="78.9305" y="164.4650"
textLength="1.2918" font-size="1.6933" lengthAdjust="spacingAndGlyphs"
text-anchor="start" opacity="0" stroke-opacity="0">A</text>
<g class="stroked-text"><desc>A</desc>
<path d="M79.2726 164.0467
L79.8773 164.0467
" />
<path d="M79.1516 164.4095
L79.5749 163.1395
" />
<path d="M79.5749 163.1395
L79.9983 164.4095
" />
</g><path style="fill:none; 
stroke:#006464; stroke-width:0.1524; stroke-opacity:1; 
stroke-linecap:round; stroke-linejoin:round;fill:none"
d="M 78.7400,163.8300
78.1050,163.1950
77.4700,163.1950
77.4700,164.4650
78.1050,164.4650
Z" /> 
<text x="77.4700" y="160.5784"
textLength="4.8597" font-size="1.6933" lengthAdjust="spacingAndGlyphs"
text-anchor="start" opacity="0" stroke-opacity="0">and8</text>
<g class="stroked-text"><desc>and8</desc>
<path d="M78.4168 160.4149
L78.4168 159.7497
" />
<path d="M78.4168 159.7497
L78.3563 159.6287
" />
<path d="M78.3563 159.6287
L78.2354 159.5683
" />
<path d="M78.2354 159.5683
L77.9935 159.5683
" />
<path d="M77.9935 159.5683
L77.8725 159.6287
" />
<path d="M78.4168 160.3545
L78.2959 160.4149
" />
<path d="M78.2959 160.4149
L77.9935 160.4149
" />
<path d="M77.9935 160.4149
L77.8725 160.3545
" />
<path d="M77.8725 160.3545
L77.8121 160.2335
" />
<path d="M77.8121 160.2335
L77.8121 160.1125
" />
<path d="M77.8121 160.1125
L77.8725 159.9916
" />
<path d="M77.8725 159.9916
L77.9935 159.9311
" />
<path d="M77.9935 159.9311
L78.2959 159.9311
" />
<path d="M78.2959 159.9311
L78.4168 159.8706
" />
<path d="M79.0215 159.5683
L79.0215 160.4149
" />
<path d="M79.0215 159.6892
L79.0820 159.6287
" />
<path d="M79.0820 159.6287
L79.2030 159.5683
" />
<path d="M79.2030 159.5683
L79.3844 159.5683
" />
<path d="M79.3844 159.5683
L79.5053 159.6287
" />
<path d="M79.5053 159.6287
L79.5658 159.7497
" />
<path d="M79.5658 159.7497
L79.5658 160.4149
" />
<path d="M80.7148 160.4149
L80.7148 159.1449
" />
<path d="M80.7148 160.3545
L80.5939 160.4149
" />
<path d="M80.5939 160.4149
L80.3520 160.4149
" />
<path d="M80.3520 160.4149
L80.2310 160.3545
" />
<path d="M80.2310 160.3545
L80.1705 160.2940
" />
<path d="M80.1705 160.2940
L80.1101 160.1730
" />
<path d="M80.1101 160.1730
L80.1101 159.8102
" />
<path d="M80.1101 159.8102
L80.1705 159.6892
" />
<path d="M80.1705 159.6892
L80.2310 159.6287
" />
<path d="M80.2310 159.6287
L80.3520 159.5683
" />
<path d="M80.3520 159.5683
L80.5939 159.5683
" />
<path d="M80.5939 159.5683
L80.7148 159.6287
" />
<path d="M81.5010 159.6892
L81.3800 159.6287
" />
<path d="M81.3800 159.6287
L81.3195 159.5683
" />
<path d="M81.3195 159.5683
L81.2591 159.4473
" />
<path d="M81.2591 159.4473
L81.2591 159.3868
" />
<path d="M81.2591 159.3868
L81.3195 159.2659
" />
<path d="M81.3195 159.2659
L81.3800 159.2054
" />
<path d="M81.3800 159.2054
L81.5010 159.1449
" />
<path d="M81.5010 159.1449
L81.7429 159.1449
" />
<path d="M81.7429 159.1449
L81.8638 159.2054
" />
<path d="M81.8638 159.2054
L81.9243 159.2659
" />
<path d="M81.9243 159.2659
L81.9848 159.3868
" />
<path d="M81.9848 159.3868
L81.9848 159.4473
" />
<path d="M81.9848 159.4473
L81.9243 159.5683
" />
<path d="M81.9243 159.5683
L81.8638 159.6287
" />
<path d="M81.8638 159.6287
L81.7429 159.6892
" />
<path d="M81.7429 159.6892
L81.5010 159.6892
" />
<path d="M81.5010 159.6892
L81.3800 159.7497
" />
<path d="M81.3800 159.7497
L81.3195 159.8102
" />
<path d="M81.3195 159.8102
L81.2591 159.9311
" />
<path d="M81.2591 159.9311
L81.2591 160.1730
" />
<path d="M81.2591 160.1730
L81.3195 160.2940
" />
<path d="M81.3195 160.2940
L81.3800 160.3545
" />
<path d="M81.3800 160.3545
L81.5010 160.4149
" />
<path d="M81.5010 160.4149
L81.7429 160.4149
" />
<path d="M81.7429 160.4149
L81.8638 160.3545
" />
<path d="M81.8638 160.3545
L81.9243 160.2940
" />
<path d="M81.9243 160.2940
L81.9848 160.1730
" />
<path d="M81.9848 160.1730
L81.9848 159.9311
" />
<path d="M81.9848 159.9311
L81.9243 159.8102
" />
<path d="M81.9243 159.8102
L81.8638 159.7497
" />
<path d="M81.8638 159.7497
L81.7429 159.6892
" />
</g></g>
<g style="fill:none; 
stroke:#840000; stroke-width:0.1524; stroke-opacity:1; 
stroke-linecap:round; stroke-linejoin:round;">
<rect x="77.470000" y="123.190000" width="16.510000" height="15.240000" rx="0.000000" />
</g>
<g style="fill:none; 
stroke:#006464; stroke-width:0.1524; stroke-opacity:1; 
stroke-linecap:round; stroke-linejoin:round;">
<text x="92.5195" y="131.4450"
textLength="1.2918" font-size="1.6933" lengthAdjust="spacingAndGlyphs"
text-anchor="end" opacity="0" stroke-opacity="0">Y</text>
<g class="stroked-text"><desc>Y</desc>
<path d="M91.8749 130.7848
L91.8749 131.3895
" />
<path d="M91.4516 130.1195
L91.8749 130.7848
" />
<path d="M91.8749 130.7848
L92.2983 130.1195
" />
</g><path style="fill:none; 
stroke:#006464; stroke-width:0.1524; stroke-opacity:1; 
stroke-linecap:round; stroke-linejoin:round;fill:none"
d="M 93.9800,130.8100
93.3450,130.1750
92.7100,130.1750
92.7100,131.4450
93.3450,131.4450
Z" /> 
<text x="78.9305" y="135.2550"
textLength="1.4732" font-size="1.6933" lengthAdjust="spacingAndGlyphs"
text-anchor="start" opacity="0" stroke-opacity="0">B</text>
<g class="stroked-text"><desc>B</desc>
<path d="M79.7564 134.5343
L79.9378 134.5948
" />
<path d="M79.9378 134.5948
L79.9983 134.6552
" />
<path d="M79.9983 134.6552
L80.0587 134.7762
" />
<path d="M80.0587 134.7762
L80.0587 134.9576
" />
<path d="M80.0587 134.9576
L79.9983 135.0786
" />
<path d="M79.9983 135.0786
L79.9378 135.1391
" />
<path d="M79.9378 135.1391
L79.8168 135.1995
" />
<path d="M79.8168 135.1995
L79.3330 135.1995
" />
<path d="M79.3330 135.1995
L79.3330 133.9295
" />
<path d="M79.3330 133.9295
L79.7564 133.9295
" />
<path d="M79.7564 133.9295
L79.8773 133.9900
" />
<path d="M79.8773 133.9900
L79.9378 134.0505
" />
<path d="M79.9378 134.0505
L79.9983 134.1714
" />
<path d="M79.9983 134.1714
L79.9983 134.2924
" />
<path d="M79.9983 134.2924
L79.9378 134.4133
" />
<path d="M79.9378 134.4133
L79.8773 134.4738
" />
<path d="M79.8773 134.4738
L79.7564 134.5343
" />
<path d="M79.7564 134.5343
L79.3330 134.5343
" />
</g><path style="fill:none; 
stroke:#006464; stroke-width:0.1524; stroke-opacity:1; 
stroke-linecap:round; stroke-linejoin:round;fill:none"
d="M 78.7400,134.6200
78.1050,133.9850
77.4700,133.9850
77.4700,135.2550
78.1050,135.2550
Z" /> 
<text x="78.9305" y="126.3650"
textLength="1.2918" font-size="1.6933" lengthAdjust="spacingAndGlyphs"
text-anchor="start" opacity="0" stroke-opacity="0">A</text>
<g class="stroked-text"><desc>A</desc>
<path d="M79.2726 125.9467
L79.8773 125.9467
" />
<path d="M79.1516 126.3095
L79.5749 125.0395
" />
<path d="M79.5749 125.0395
L79.9983 126.3095
" />
</g><path style="fill:none; 
stroke:#006464; stroke-width:0.1524; stroke-opacity:1; 
stroke-linecap:round; stroke-linejoin:round;fill:none"
d="M 78.7400,125.7300
78.1050,125.0950
77.4700,125.0950
77.4700,126.3650
78.1050,126.3650
Z" /> 
<text x="77.4700" y="122.4784"
textLength="4.8597" font-size="1.6933" lengthAdjust="spacingAndGlyphs"
text-anchor="start" opacity="0" stroke-opacity="0">and6</text>
<g class="stroked-text"><desc>and6</desc>
<path d="M78.4168 122.3149
L78.4168 121.6497
" />
<path d="M78.4168 121.6497
L78.3563 121.5287
" />
<path d="M78.3563 121.5287
L78.2354 121.4683
" />
<path d="M78.2354 121.4683
L77.9935 121.4683
" />
<path d="M77.9935 121.4683
L77.8725 121.5287
" />
<path d="M78.4168 122.2545
L78.2959 122.3149
" />
<path d="M78.2959 122.3149
L77.9935 122.3149
" />
<path d="M77.9935 122.3149
L77.8725 122.2545
" />
<path d="M77.8725 122.2545
L77.8121 122.1335
" />
<path d="M77.8121 122.1335
L77.8121 122.0125
" />
<path d="M77.8121 122.0125
L77.8725 121.8916
" />
<path d="M77.8725 121.8916
L77.9935 121.8311
" />
<path d="M77.9935 121.8311
L78.2959 121.8311
" />
<path d="M78.2959 121.8311
L78.4168 121.7706
" />
<path d="M79.0215 121.4683
L79.0215 122.3149
" />
<path d="M79.0215 121.5892
L79.0820 121.5287
" />
<path d="M79.0820 121.5287
L79.2030 121.4683
" />
<path d="M79.2030 121.4683
L79.3844 121.4683
" />
<path d="M79.3844 121.4683
L79.5053 121.5287
" />
<path d="M79.5053 121.5287
L79.5658 121.6497
" />
<path d="M79.5658 121.6497
L79.5658 122.3149
" />
<path d="M80.7148 122.3149
L80.7148 121.0449
" />
<path d="M80.7148 122.2545
L80.5939 122.3149
" />
<path d="M80.5939 122.3149
L80.3520 122.3149
" />
<path d="M80.3520 122.3149
L80.2310 122.2545
" />
<path d="M80.2310 122.2545
L80.1705 122.1940
" />
<path d="M80.1705 122.1940
L80.1101 122.0730
" />
<path d="M80.1101 122.0730
L80.1101 121.7102
" />
<path d="M80.1101 121.7102
L80.1705 121.5892
" />
<path d="M80.1705 121.5892
L80.2310 121.5287
" />
<path d="M80.2310 121.5287
L80.3520 121.4683
" />
<path d="M80.3520 121.4683
L80.5939 121.4683
" />
<path d="M80.5939 121.4683
L80.7148 121.5287
" />
<path d="M81.8638 121.0449
L81.6219 121.0449
" />
<path d="M81.6219 121.0449
L81.5010 121.1054
" />
<path d="M81.5010 121.1054
L81.4405 121.1659
" />
<path d="M81.4405 121.1659
L81.3195 121.3473
" />
<path d="M81.3195 121.3473
L81.2591 121.5892
" />
<path d="M81.2591 121.5892
L81.2591 122.0730
" />
<path d="M81.2591 122.0730
L81.3195 122.1940
" />
<path d="M81.3195 122.1940
L81.3800 122.2545
" />
<path d="M81.3800 122.2545
L81.5010 122.3149
" />
<path d="M81.5010 122.3149
L81.7429 122.3149
" />
<path d="M81.7429 122.3149
L81.8638 122.2545
" />
<path d="M81.8638 122.2545
L81.9243 122.1940
" />
<path d="M81.9243 122.1940
L81.9848 122.0730
" />
<path d="M81.9848 122.0730
L81.9848 121.7706
" />
<path d="M81.9848 121.7706
L81.9243 121.6497
" />
<path d="M81.9243 121.6497
L81.8638 121.5892
" />
<path d="M81.8638 121.5892
L81.7429 121.5287
" />
<path d="M81.7429 121.5287
L81.5010 121.5287
" />
<path d="M81.5010 121.5287
L81.3800 121.5892
" />
<path d="M81.3800 121.5892
L81.3195 121.6497
" />
<path d="M81.3195 121.6497
L81.2591 121.7706
" />
</g></g>
<g style="fill:none; 
stroke:#840000; stroke-width:0.1524; stroke-opacity:1; 
stroke-linecap:round; stroke-linejoin:round;">
<rect x="77.470000" y="142.240000" width="16.510000" height="15.240000" rx="0.000000" />
</g>
<g style="fill:none; 
stroke:#006464; stroke-width:0.1524; stroke-opacity:1; 
stroke-linecap:round; stroke-linejoin:round;">
<text x="92.5195" y="150.4950"
textLength="1.2918" font-size="1.6933" lengthAdjust="spacingAndGlyphs"
text-anchor="end" opacity="0" stroke-opacity="0">Y</text>
<g class="stroked-text"><desc>Y</desc>
<path d="M91.8749 149.8348
L91.8749 150.4395
" />
<path d="M91.4516 149.1695
L91.8749 149.8348
" />
<path d="M91.8749 149.8348
L92.2983 149.1695
" />
</g><path style="fill:none; 
stroke:#006464; stroke-width:0.1524; stroke-opacity:1; 
stroke-linecap:round; stroke-linejoin:round;fill:none"
d="M 93.9800,149.8600
93.3450,149.2250
92.7100,149.2250
92.7100,150.4950
93.3450,150.4950
Z" /> 
<text x="78.9305" y="154.3050"
textLength="1.4732" font-size="1.6933" lengthAdjust="spacingAndGlyphs"
text-anchor="start" opacity="0" stroke-opacity="0">B</text>
<g class="stroked-text"><desc>B</desc>
<path d="M79.7564 153.5843
L79.9378 153.6448
" />
<path d="M79.9378 153.6448
L79.9983 153.7052
" />
<path d="M79.9983 153.7052
L80.0587 153.8262
" />
<path d="M80.0587 153.8262
L80.0587 154.0076
" />
<path d="M80.0587 154.0076
L79.9983 154.1286
" />
<path d="M79.9983 154.1286
L79.9378 154.1891
" />
<path d="M79.9378 154.1891
L79.8168 154.2495
" />
<path d="M79.8168 154.2495
L79.3330 154.2495
" />
<path d="M79.3330 154.2495
L79.3330 152.9795
" />
<path d="M79.3330 152.9795
L79.7564 152.9795
" />
<path d="M79.7564 152.9795
L79.8773 153.0400
" />
<path d="M79.8773 153.0400
L79.9378 153.1005
" />
<path d="M79.9378 153.1005
L79.9983 153.2214
" />
<path d="M79.9983 153.2214
L79.9983 153.3424
" />
<path d="M79.9983 153.3424
L79.9378 153.4633
" />
<path d="M79.9378 153.4633
L79.8773 153.5238
" />
<path d="M79.8773 153.5238
L79.7564 153.5843
" />
<path d="M79.7564 153.5843
L79.3330 153.5843
" />
</g><path style="fill:none; 
stroke:#006464; stroke-width:0.1524; stroke-opacity:1; 
stroke-linecap:round; stroke-linejoin:round;fill:none"
d="M 78.7400,153.6700
78.1050,153.0350
77.4700,153.0350
77.4700,154.3050
78.1050,154.3050
Z" /> 
<text x="78.9305" y="145.4150"
textLength="1.2918" font-size="1.6933" lengthAdjust="spacingAndGlyphs"
text-anchor="start" opacity="0" stroke-opacity="0">A</text>
<g class="stroked-text"><desc>A</desc>
<path d="M79.2726 144.9967
L79.8773 144.9967
" />
<path d="M79.1516 145.3595
L79.5749 144.0895
" />
<path d="M79.5749 144.0895
L79.9983 145.3595
" />
</g><path style="fill:none; 
stroke:#006464; stroke-width:0.1524; stroke-opacity:1; 
stroke-linecap:round; stroke-linejoin:round;fill:none"
d="M 78.7400,144.7800
78.1050,144.1450
77.4700,144.1450
77.4700,145.4150
78.1050,145.4150
Z" /> 
<text x="77.4700" y="141.5284"
textLength="4.8597" font-size="1.6933" lengthAdjust="spacingAndGlyphs"
text-anchor="start" opacity="0" stroke-opacity="0">and7</text>
<g class="stroked-text"><desc>and7</desc>
<path d="M78.4168 141.3649
L78.4168 140.6997
" />
<path d="M78.4168 140.6997
L78.3563 140.5787
" />
<path d="M78.3563 140.5787
L78.2354 140.5183
" />
<path d="M78.2354 140.5183
L77.9935 140.5183
" />
<path d="M77.9935 140.5183
L77.8725 140.5787
" />
<path d="M78.4168 141.3045
L78.2959 141.3649
" />
<path d="M78.2959 141.3649
L77.9935 141.3649
" />
<path d="M77.9935 141.3649
L77.8725 141.3045
" />
<path d="M77.8725 141.3045
L77.8121 141.1835
" />
<path d="M77.8121 141.1835
L77.8121 141.0625
" />
<path d="M77.8121 141.0625
L77.8725 140.9416
" />
<path d="M77.8725 140.9416
L77.9935 140.8811
" />
<path d="M77.9935 140.8811
L78.2959 140.8811
" />
<path d="M78.2959 140.8811
L78.4168 140.8206
" />
<path d="M79.0215 140.5183
L79.0215 141.3649
" />
<path d="M79.0215 140.6392
L79.0820 140.5787
" />
<path d="M79.0820 140.5787
L79.2030 140.5183
" />
<path d="M79.2030 140.5183
L79.3844 140.5183
" />
<path d="M79.3844 140.5183
L79.5053 140.5787
" />
<path d="M79.5053 140.5787
L79.5658 140.6997
" />
<path d="M79.5658 140.6997
L79.5658 141.3649
" />
<path d="M80.7148 141.3649
L80.7148 140.0949
" />
<path d="M80.7148 141.3045
L80.5939 141.3649
" />
<path d="M80.5939 141.3649
L80.3520 141.3649
" />
<path d="M80.3520 141.3649
L80.2310 141.3045
" />
<path d="M80.2310 141.3045
L80.1705 141.2440
" />
<path d="M80.1705 141.2440
L80.1101 141.1230
" />
<path d="M80.1101 141.1230
L80.1101 140.7602
" />
<path d="M80.1101 140.7602
L80.1705 140.6392
" />
<path d="M80.1705 140.6392
L80.2310 140.5787
" />
<path d="M80.2310 140.5787
L80.3520 140.5183
" />
<path d="M80.3520 140.5183
L80.5939 140.5183
" />
<path d="M80.5939 140.5183
L80.7148 140.5787
" />
<path d="M81.1986 140.0949
L82.0452 140.0949
" />
<path d="M82.0452 140.0949
L81.5010 141.3649
" />
</g></g>
<g style="fill:none; 
stroke:#840000; stroke-width:0.1524; stroke-opacity:1; 
stroke-linecap:round; stroke-linejoin:round;">
<rect x="77.470000" y="27.940000" width="16.510000" height="15.240000" rx="0.000000" />
</g>
<g style="fill:none; 
stroke:#006464; stroke-width:0.1524; stroke-opacity:1; 
stroke-linecap:round; stroke-linejoin:round;">
<text x="92.5195" y="36.1950"
textLength="1.2918" font-size="1.6933" lengthAdjust="spacingAndGlyphs"
text-anchor="end" opacity="0" stroke-opacity="0">Y</text>
<g class="stroked-text"><desc>Y</desc>
<path d="M91.8749 35.5348
L91.8749 36.1395
" />
<path d="M91.4516 34.8695
L91.8749 35.5348
" />
<path d="M91.8749 35.5348
L92.2983 34.8695
" />
</g><path style="fill:none; 
stroke:#006464; stroke-width:0.1524; stroke-opacity:1; 
stroke-linecap:round; stroke-linejoin:round;fill:none"
d="M 93.9800,35.5600
93.3450,34.9250
92.7100,34.9250
92.7100,36.1950
93.3450,36.1950
Z" /> 
<text x="78.9305" y="40.0050"
textLength="1.4732" font-size="1.6933" lengthAdjust="spacingAndGlyphs"
text-anchor="start" opacity="0" stroke-opacity="0">B</text>
<g class="stroked-text"><desc>B</desc>
<path d="M79.7564 39.2843
L79.9378 39.3448
" />
<path d="M79.9378 39.3448
L79.9983 39.4052
" />
<path d="M79.9983 39.4052
L80.0587 39.5262
" />
<path d="M80.0587 39.5262
L80.0587 39.7076
" />
<path d="M80.0587 39.7076
L79.9983 39.8286
" />
<path d="M79.9983 39.8286
L79.9378 39.8891
" />
<path d="M79.9378 39.8891
L79.8168 39.9495
" />
<path d="M79.8168 39.9495
L79.3330 39.9495
" />
<path d="M79.3330 39.9495
L79.3330 38.6795
" />
<path d="M79.3330 38.6795
L79.7564 38.6795
" />
<path d="M79.7564 38.6795
L79.8773 38.7400
" />
<path d="M79.8773 38.7400
L79.9378 38.8005
" />
<path d="M79.9378 38.8005
L79.9983 38.9214
" />
<path d="M79.9983 38.9214
L79.9983 39.0424
" />
<path d="M79.9983 39.0424
L79.9378 39.1633
" />
<path d="M79.9378 39.1633
L79.8773 39.2238
" />
<path d="M79.8773 39.2238
L79.7564 39.2843
" />
<path d="M79.7564 39.2843
L79.3330 39.2843
" />
</g><path style="fill:none; 
stroke:#006464; stroke-width:0.1524; stroke-opacity:1; 
stroke-linecap:round; stroke-linejoin:round;fill:none"
d="M 78.7400,39.3700
78.1050,38.7350
77.4700,38.7350
77.4700,40.0050
78.1050,40.0050
Z" /> 
<text x="78.9305" y="31.1150"
textLength="1.2918" font-size="1.6933" lengthAdjust="spacingAndGlyphs"
text-anchor="start" opacity="0" stroke-opacity="0">A</text>
<g class="stroked-text"><desc>A</desc>
<path d="M79.2726 30.6967
L79.8773 30.6967
" />
<path d="M79.1516 31.0595
L79.5749 29.7895
" />
<path d="M79.5749 29.7895
L79.9983 31.0595
" />
</g><path style="fill:none; 
stroke:#006464; stroke-width:0.1524; stroke-opacity:1; 
stroke-linecap:round; stroke-linejoin:round;fill:none"
d="M 78.7400,30.4800
78.1050,29.8450
77.4700,29.8450
77.4700,31.1150
78.1050,31.1150
Z" /> 
<text x="77.4700" y="27.2284"
textLength="4.8597" font-size="1.6933" lengthAdjust="spacingAndGlyphs"
text-anchor="start" opacity="0" stroke-opacity="0">and1</text>
<g class="stroked-text"><desc>and1</desc>
<path d="M78.4168 27.0649
L78.4168 26.3997
" />
<path d="M78.4168 26.3997
L78.3563 26.2787
" />
<path d="M78.3563 26.2787
L78.2354 26.2183
" />
<path d="M78.2354 26.2183
L77.9935 26.2183
" />
<path d="M77.9935 26.2183
L77.8725 26.2787
" />
<path d="M78.4168 27.0045
L78.2959 27.0649
" />
<path d="M78.2959 27.0649
L77.9935 27.0649
" />
<path d="M77.9935 27.0649
L77.8725 27.0045
" />
<path d="M77.8725 27.0045
L77.8121 26.8835
" />
<path d="M77.8121 26.8835
L77.8121 26.7625
" />
<path d="M77.8121 26.7625
L77.8725 26.6416
" />
<path d="M77.8725 26.6416
L77.9935 26.5811
" />
<path d="M77.9935 26.5811
L78.2959 26.5811
" />
<path d="M78.2959 26.5811
L78.4168 26.5206
" />
<path d="M79.0215 26.2183
L79.0215 27.0649
" />
<path d="M79.0215 26.3392
L79.0820 26.2787
" />
<path d="M79.0820 26.2787
L79.2030 26.2183
" />
<path d="M79.2030 26.2183
L79.3844 26.2183
" />
<path d="M79.3844 26.2183
L79.5053 26.2787
" />
<path d="M79.5053 26.2787
L79.5658 26.3997
" />
<path d="M79.5658 26.3997
L79.5658 27.0649
" />
<path d="M80.7148 27.0649
L80.7148 25.7949
" />
<path d="M80.7148 27.0045
L80.5939 27.0649
" />
<path d="M80.5939 27.0649
L80.3520 27.0649
" />
<path d="M80.3520 27.0649
L80.2310 27.0045
" />
<path d="M80.2310 27.0045
L80.1705 26.9440
" />
<path d="M80.1705 26.9440
L80.1101 26.8230
" />
<path d="M80.1101 26.8230
L80.1101 26.4602
" />
<path d="M80.1101 26.4602
L80.1705 26.3392
" />
<path d="M80.1705 26.3392
L80.2310 26.2787
" />
<path d="M80.2310 26.2787
L80.3520 26.2183
" />
<path d="M80.3520 26.2183
L80.5939 26.2183
" />
<path d="M80.5939 26.2183
L80.7148 26.2787
" />
<path d="M81.9848 27.0649
L81.2591 27.0649
" />
<path d="M81.6219 27.0649
L81.6219 25.7949
" />
<path d="M81.6219 25.7949
L81.5010 25.9764
" />
<path d="M81.5010 25.9764
L81.3800 26.0973
" />
<path d="M81.3800 26.0973
L81.2591 26.1578
" />
</g></g>
<g style="fill:none; 
stroke:#840000; stroke-width:0.1524; stroke-opacity:1; 
stroke-linecap:round; stroke-linejoin:round;">
<rect x="77.470000" y="66.040000" width="16.510000" height="15.240000" rx="0.000000" />
</g>
<g style="fill:none; 
stroke:#006464; stroke-width:0.1524; stroke-opacity:1; 
stroke-linecap:round; stroke-linejoin:round;">
<text x="92.5195" y="74.2950"
textLength="1.2918" font-size="1.6933" lengthAdjust="spacingAndGlyphs"
text-anchor="end" opacity="0" stroke-opacity="0">Y</text>
<g class="stroked-text"><desc>Y</desc>
<path d="M91.8749 73.6348
L91.8749 74.2395
" />
<path d="M91.4516 72.9695
L91.8749 73.6348
" />
<path d="M91.8749 73.6348
L92.2983 72.9695
" />
</g><path style="fill:none; 
stroke:#006464; stroke-width:0.1524; stroke-opacity:1; 
stroke-linecap:round; stroke-linejoin:round;fill:none"
d="M 93.9800,73.6600
93.3450,73.0250
92.7100,73.0250
92.7100,74.2950
93.3450,74.2950
Z" /> 
<text x="78.9305" y="78.1050"
textLength="1.4732" font-size="1.6933" lengthAdjust="spacingAndGlyphs"
text-anchor="start" opacity="0" stroke-opacity="0">B</text>
<g class="stroked-text"><desc>B</desc>
<path d="M79.7564 77.3843
L79.9378 77.4448
" />
<path d="M79.9378 77.4448
L79.9983 77.5052
" />
<path d="M79.9983 77.5052
L80.0587 77.6262
" />
<path d="M80.0587 77.6262
L80.0587 77.8076
" />
<path d="M80.0587 77.8076
L79.9983 77.9286
" />
<path d="M79.9983 77.9286
L79.9378 77.9891
" />
<path d="M79.9378 77.9891
L79.8168 78.0495
" />
<path d="M79.8168 78.0495
L79.3330 78.0495
" />
<path d="M79.3330 78.0495
L79.3330 76.7795
" />
<path d="M79.3330 76.7795
L79.7564 76.7795
" />
<path d="M79.7564 76.7795
L79.8773 76.8400
" />
<path d="M79.8773 76.8400
L79.9378 76.9005
" />
<path d="M79.9378 76.9005
L79.9983 77.0214
" />
<path d="M79.9983 77.0214
L79.9983 77.1424
" />
<path d="M79.9983 77.1424
L79.9378 77.2633
" />
<path d="M79.9378 77.2633
L79.8773 77.3238
" />
<path d="M79.8773 77.3238
L79.7564 77.3843
" />
<path d="M79.7564 77.3843
L79.3330 77.3843
" />
</g><path style="fill:none; 
stroke:#006464; stroke-width:0.1524; stroke-opacity:1; 
stroke-linecap:round; stroke-linejoin:round;fill:none"
d="M 78.7400,77.4700
78.1050,76.8350
77.4700,76.8350
77.4700,78.1050
78.1050,78.1050
Z" /> 
<text x="78.9305" y="69.2150"
textLength="1.2918" font-size="1.6933" lengthAdjust="spacingAndGlyphs"
text-anchor="start" opacity="0" stroke-opacity="0">A</text>
<g class="stroked-text"><desc>A</desc>
<path d="M79.2726 68.7967
L79.8773 68.7967
" />
<path d="M79.1516 69.1595
L79.5749 67.8895
" />
<path d="M79.5749 67.8895
L79.9983 69.1595
" />
</g><path style="fill:none; 
stroke:#006464; stroke-width:0.1524; stroke-opacity:1; 
stroke-linecap:round; stroke-linejoin:round;fill:none"
d="M 78.7400,68.5800
78.1050,67.9450
77.4700,67.9450
77.4700,69.2150
78.1050,69.2150
Z" /> 
<text x="77.4700" y="65.3284"
textLength="4.8597" font-size="1.6933" lengthAdjust="spacingAndGlyphs"
text-anchor="start" opacity="0" stroke-opacity="0">and3</text>
<g class="stroked-text"><desc>and3</desc>
<path d="M78.4168 65.1649
L78.4168 64.4997
" />
<path d="M78.4168 64.4997
L78.3563 64.3787
" />
<path d="M78.3563 64.3787
L78.2354 64.3183
" />
<path d="M78.2354 64.3183
L77.9935 64.3183
" />
<path d="M77.9935 64.3183
L77.8725 64.3787
" />
<path d="M78.4168 65.1045
L78.2959 65.1649
" />
<path d="M78.2959 65.1649
L77.9935 65.1649
" />
<path d="M77.9935 65.1649
L77.8725 65.1045
" />
<path d="M77.8725 65.1045
L77.8121 64.9835
" />
<path d="M77.8121 64.9835
L77.8121 64.8625
" />
<path d="M77.8121 64.8625
L77.8725 64.7416
" />
<path d="M77.8725 64.7416
L77.9935 64.6811
" />
<path d="M77.9935 64.6811
L78.2959 64.6811
" />
<path d="M78.2959 64.6811
L78.4168 64.6206
" />
<path d="M79.0215 64.3183
L79.0215 65.1649
" />
<path d="M79.0215 64.4392
L79.0820 64.3787
" />
<path d="M79.0820 64.3787
L79.2030 64.3183
" />
<path d="M79.2030 64.3183
L79.3844 64.3183
" />
<path d="M79.3844 64.3183
L79.5053 64.3787
" />
<path d="M79.5053 64.3787
L79.5658 64.4997
" />
<path d="M79.5658 64.4997
L79.5658 65.1649
" />
<path d="M80.7148 65.1649
L80.7148 63.8949
" />
<path d="M80.7148 65.1045
L80.5939 65.1649
" />
<path d="M80.5939 65.1649
L80.3520 65.1649
" />
<path d="M80.3520 65.1649
L80.2310 65.1045
" />
<path d="M80.2310 65.1045
L80.1705 65.0440
" />
<path d="M80.1705 65.0440
L80.1101 64.9230
" />
<path d="M80.1101 64.9230
L80.1101 64.5602
" />
<path d="M80.1101 64.5602
L80.1705 64.4392
" />
<path d="M80.1705 64.4392
L80.2310 64.3787
" />
<path d="M80.2310 64.3787
L80.3520 64.3183
" />
<path d="M80.3520 64.3183
L80.5939 64.3183
" />
<path d="M80.5939 64.3183
L80.7148 64.3787
" />
<path d="M81.1986 63.8949
L81.9848 63.8949
" />
<path d="M81.9848 63.8949
L81.5614 64.3787
" />
<path d="M81.5614 64.3787
L81.7429 64.3787
" />
<path d="M81.7429 64.3787
L81.8638 64.4392
" />
<path d="M81.8638 64.4392
L81.9243 64.4997
" />
<path d="M81.9243 64.4997
L81.9848 64.6206
" />
<path d="M81.9848 64.6206
L81.9848 64.9230
" />
<path d="M81.9848 64.9230
L81.9243 65.0440
" />
<path d="M81.9243 65.0440
L81.8638 65.1045
" />
<path d="M81.8638 65.1045
L81.7429 65.1649
" />
<path d="M81.7429 65.1649
L81.3800 65.1649
" />
<path d="M81.3800 65.1649
L81.2591 65.1045
" />
<path d="M81.2591 65.1045
L81.1986 65.0440
" />
</g></g>
<g style="fill:none; 
stroke:#840000; stroke-width:0.1524; stroke-opacity:1; 
stroke-linecap:round; stroke-linejoin:round;">
<rect x="77.470000" y="104.140000" width="16.510000" height="15.240000" rx="0.000000" />
</g>
<g style="fill:none; 
stroke:#006464; stroke-width:0.1524; stroke-opacity:1; 
stroke-linecap:round; stroke-linejoin:round;">
<text x="92.5195" y="112.3950"
textLength="1.2918" font-size="1.6933" lengthAdjust="spacingAndGlyphs"
text-anchor="end" opacity="0" stroke-opacity="0">Y</text>
<g class="stroked-text"><desc>Y</desc>
<path d="M91.8749 111.7348
L91.8749 112.3395
" />
<path d="M91.4516 111.0695
L91.8749 111.7348
" />
<path d="M91.8749 111.7348
L92.2983 111.0695
" />
</g><path style="fill:none; 
stroke:#006464; stroke-width:0.1524; stroke-opacity:1; 
stroke-linecap:round; stroke-linejoin:round;fill:none"
d="M 93.9800,111.7600
93.3450,111.1250
92.7100,111.1250
92.7100,112.3950
93.3450,112.3950
Z" /> 
<text x="78.9305" y="116.2050"
textLength="1.4732" font-size="1.6933" lengthAdjust="spacingAndGlyphs"
text-anchor="start" opacity="0" stroke-opacity="0">B</text>
<g class="stroked-text"><desc>B</desc>
<path d="M79.7564 115.4843
L79.9378 115.5448
" />
<path d="M79.9378 115.5448
L79.9983 115.6052
" />
<path d="M79.9983 115.6052
L80.0587 115.7262
" />
<path d="M80.0587 115.7262
L80.0587 115.9076
" />
<path d="M80.0587 115.9076
L79.9983 116.0286
" />
<path d="M79.9983 116.0286
L79.9378 116.0891
" />
<path d="M79.9378 116.0891
L79.8168 116.1495
" />
<path d="M79.8168 116.1495
L79.3330 116.1495
" />
<path d="M79.3330 116.1495
L79.3330 114.8795
" />
<path d="M79.3330 114.8795
L79.7564 114.8795
" />
<path d="M79.7564 114.8795
L79.8773 114.9400
" />
<path d="M79.8773 114.9400
L79.9378 115.0005
" />
<path d="M79.9378 115.0005
L79.9983 115.1214
" />
<path d="M79.9983 115.1214
L79.9983 115.2424
" />
<path d="M79.9983 115.2424
L79.9378 115.3633
" />
<path d="M79.9378 115.3633
L79.8773 115.4238
" />
<path d="M79.8773 115.4238
L79.7564 115.4843
" />
<path d="M79.7564 115.4843
L79.3330 115.4843
" />
</g><path style="fill:none; 
stroke:#006464; stroke-width:0.1524; stroke-opacity:1; 
stroke-linecap:round; stroke-linejoin:round;fill:none"
d="M 78.7400,115.5700
78.1050,114.9350
77.4700,114.9350
77.4700,116.2050
78.1050,116.2050
Z" /> 
<text x="78.9305" y="107.3150"
textLength="1.2918" font-size="1.6933" lengthAdjust="spacingAndGlyphs"
text-anchor="start" opacity="0" stroke-opacity="0">A</text>
<g class="stroked-text"><desc>A</desc>
<path d="M79.2726 106.8967
L79.8773 106.8967
" />
<path d="M79.1516 107.2595
L79.5749 105.9895
" />
<path d="M79.5749 105.9895
L79.9983 107.2595
" />
</g><path style="fill:none; 
stroke:#006464; stroke-width:0.1524; stroke-opacity:1; 
stroke-linecap:round; stroke-linejoin:round;fill:none"
d="M 78.7400,106.6800
78.1050,106.0450
77.4700,106.0450
77.4700,107.3150
78.1050,107.3150
Z" /> 
<text x="77.4700" y="103.4284"
textLength="4.8597" font-size="1.6933" lengthAdjust="spacingAndGlyphs"
text-anchor="start" opacity="0" stroke-opacity="0">and5</text>
<g class="stroked-text"><desc>and5</desc>
<path d="M78.4168 103.2649
L78.4168 102.5997
" />
<path d="M78.4168 102.5997
L78.3563 102.4787
" />
<path d="M78.3563 102.4787
L78.2354 102.4183
" />
<path d="M78.2354 102.4183
L77.9935 102.4183
" />
<path d="M77.9935 102.4183
L77.8725 102.4787
" />
<path d="M78.4168 103.2045
L78.2959 103.2649
" />
<path d="M78.2959 103.2649
L77.9935 103.2649
" />
<path d="M77.9935 103.2649
L77.8725 103.2045
" />
<path d="M77.8725 103.2045
L77.8121 103.0835
" />
<path d="M77.8121 103.0835
L77.8121 102.9625
" />
<path d="M77.8121 102.9625
L77.8725 102.8416
" />
<path d="M77.8725 102.8416
L77.9935 102.7811
" />
<path d="M77.9935 102.7811
L78.2959 102.7811
" />
<path d="M78.2959 102.7811
L78.4168 102.7206
" />
<path d="M79.0215 102.4183
L79.0215 103.2649
" />
<path d="M79.0215 102.5392
L79.0820 102.4787
" />
<path d="M79.0820 102.4787
L79.2030 102.4183
" />
<path d="M79.2030 102.4183
L79.3844 102.4183
" />
<path d="M79.3844 102.4183
L79.5053 102.4787
" />
<path d="M79.5053 102.4787
L79.5658 102.5997
" />
<path d="M79.5658 102.5997
L79.5658 103.2649
" />
<path d="M80.7148 103.2649
L80.7148 101.9949
" />
<path d="M80.7148 103.2045
L80.5939 103.2649
" />
<path d="M80.5939 103.2649
L80.3520 103.2649
" />
<path d="M80.3520 103.2649
L80.2310 103.2045
" />
<path d="M80.2310 103.2045
L80.1705 103.1440
" />
<path d="M80.1705 103.1440
L80.1101 103.0230
" />
<path d="M80.1101 103.0230
L80.1101 102.6602
" />
<path d="M80.1101 102.6602
L80.1705 102.5392
" />
<path d="M80.1705 102.5392
L80.2310 102.4787
" />
<path d="M80.2310 102.4787
L80.3520 102.4183
" />
<path d="M80.3520 102.4183
L80.5939 102.4183
" />
<path d="M80.5939 102.4183
L80.7148 102.4787
" />
<path d="M81.9243 101.9949
L81.3195 101.9949
" />
<path d="M81.3195 101.9949
L81.2591 102.5997
" />
<path d="M81.2591 102.5997
L81.3195 102.5392
" />
<path d="M81.3195 102.5392
L81.4405 102.4787
" />
<path d="M81.4405 102.4787
L81.7429 102.4787
" />
<path d="M81.7429 102.4787
L81.8638 102.5392
" />
<path d="M81.8638 102.5392
L81.9243 102.5997
" />
<path d="M81.9243 102.5997
L81.9848 102.7206
" />
<path d="M81.9848 102.7206
L81.9848 103.0230
" />
<path d="M81.9848 103.0230
L81.9243 103.1440
" />
<path d="M81.9243 103.1440
L81.8638 103.2045
" />
<path d="M81.8638 103.2045
L81.7429 103.2649
" />
<path d="M81.7429 103.2649
L81.4405 103.2649
" />
<path d="M81.4405 103.2649
L81.3195 103.2045
" />
<path d="M81.3195 103.2045
L81.2591 103.1440
" />
</g></g>
<g style="fill:none; 
stroke:#725600; stroke-width:0.1524; stroke-opacity:1; 
stroke-linecap:round; stroke-linejoin:round;">
<text x="34.0995" y="64.1350"
textLength="2.5013" font-size="1.6933" lengthAdjust="spacingAndGlyphs"
text-anchor="end" opacity="0" stroke-opacity="0">A2</text>
<g class="stroked-text"><desc>A2</desc>
<path d="M31.9431 63.7167
L32.5478 63.7167
" />
<path d="M31.8221 64.0795
L32.2454 62.8095
" />
<path d="M32.2454 62.8095
L32.6688 64.0795
" />
<path d="M33.0317 62.9305
L33.0921 62.8700
" />
<path d="M33.0921 62.8700
L33.2131 62.8095
" />
<path d="M33.2131 62.8095
L33.5155 62.8095
" />
<path d="M33.5155 62.8095
L33.6364 62.8700
" />
<path d="M33.6364 62.8700
L33.6969 62.9305
" />
<path d="M33.6969 62.9305
L33.7574 63.0514
" />
<path d="M33.7574 63.0514
L33.7574 63.1724
" />
<path d="M33.7574 63.1724
L33.6969 63.3538
" />
<path d="M33.6969 63.3538
L32.9712 64.0795
" />
<path d="M32.9712 64.0795
L33.7574 64.0795
" />
</g><path style="fill:none; 
stroke:#725600; stroke-width:0.1524; stroke-opacity:1; 
stroke-linecap:round; stroke-linejoin:round;fill:none"
d="M 35.5600,63.5000
34.9250,62.8650
34.2900,62.8650
34.2900,64.1350
34.9250,64.1350
Z" /> 
</g>
<g style="fill:none; 
stroke:#725600; stroke-width:0.1524; stroke-opacity:1; 
stroke-linecap:round; stroke-linejoin:round;">
<text x="34.0995" y="59.0550"
textLength="2.5013" font-size="1.6933" lengthAdjust="spacingAndGlyphs"
text-anchor="end" opacity="0" stroke-opacity="0">A0</text>
<g class="stroked-text"><desc>A0</desc>
<path d="M31.9431 58.6367
L32.5478 58.6367
" />
<path d="M31.8221 58.9995
L32.2454 57.7295
" />
<path d="M32.2454 57.7295
L32.6688 58.9995
" />
<path d="M33.3340 57.7295
L33.4550 57.7295
" />
<path d="M33.4550 57.7295
L33.5759 57.7900
" />
<path d="M33.5759 57.7900
L33.6364 57.8505
" />
<path d="M33.6364 57.8505
L33.6969 57.9714
" />
<path d="M33.6969 57.9714
L33.7574 58.2133
" />
<path d="M33.7574 58.2133
L33.7574 58.5157
" />
<path d="M33.7574 58.5157
L33.6969 58.7576
" />
<path d="M33.6969 58.7576
L33.6364 58.8786
" />
<path d="M33.6364 58.8786
L33.5759 58.9391
" />
<path d="M33.5759 58.9391
L33.4550 58.9995
" />
<path d="M33.4550 58.9995
L33.3340 58.9995
" />
<path d="M33.3340 58.9995
L33.2131 58.9391
" />
<path d="M33.2131 58.9391
L33.1526 58.8786
" />
<path d="M33.1526 58.8786
L33.0921 58.7576
" />
<path d="M33.0921 58.7576
L33.0317 58.5157
" />
<path d="M33.0317 58.5157
L33.0317 58.2133
" />
<path d="M33.0317 58.2133
L33.0921 57.9714
" />
<path d="M33.0921 57.9714
L33.1526 57.8505
" />
<path d="M33.1526 57.8505
L33.2131 57.7900
" />
<path d="M33.2131 57.7900
L33.3340 57.7295
" />
</g><path style="fill:none; 
stroke:#725600; stroke-width:0.1524; stroke-opacity:1; 
stroke-linecap:round; stroke-linejoin:round;fill:none"
d="M 35.5600,58.4200
34.9250,57.7850
34.2900,57.7850
34.2900,59.0550
34.9250,59.0550
Z" /> 
</g>
<g style="fill:none; 
stroke:#725600; stroke-width:0.1524; stroke-opacity:1; 
stroke-linecap:round; stroke-linejoin:round;">
<text x="34.0995" y="92.0750"
textLength="2.6827" font-size="1.6933" lengthAdjust="spacingAndGlyphs"
text-anchor="end" opacity="0" stroke-opacity="0">B3</text>
<g class="stroked-text"><desc>B3</desc>
<path d="M32.2455 91.3543
L32.4269 91.4148
" />
<path d="M32.4269 91.4148
L32.4874 91.4752
" />
<path d="M32.4874 91.4752
L32.5478 91.5962
" />
<path d="M32.5478 91.5962
L32.5478 91.7776
" />
<path d="M32.5478 91.7776
L32.4874 91.8986
" />
<path d="M32.4874 91.8986
L32.4269 91.9591
" />
<path d="M32.4269 91.9591
L32.3059 92.0195
" />
<path d="M32.3059 92.0195
L31.8221 92.0195
" />
<path d="M31.8221 92.0195
L31.8221 90.7495
" />
<path d="M31.8221 90.7495
L32.2455 90.7495
" />
<path d="M32.2455 90.7495
L32.3664 90.8100
" />
<path d="M32.3664 90.8100
L32.4269 90.8705
" />
<path d="M32.4269 90.8705
L32.4874 90.9914
" />
<path d="M32.4874 90.9914
L32.4874 91.1124
" />
<path d="M32.4874 91.1124
L32.4269 91.2333
" />
<path d="M32.4269 91.2333
L32.3664 91.2938
" />
<path d="M32.3664 91.2938
L32.2455 91.3543
" />
<path d="M32.2455 91.3543
L31.8221 91.3543
" />
<path d="M32.9712 90.7495
L33.7574 90.7495
" />
<path d="M33.7574 90.7495
L33.3340 91.2333
" />
<path d="M33.3340 91.2333
L33.5155 91.2333
" />
<path d="M33.5155 91.2333
L33.6364 91.2938
" />
<path d="M33.6364 91.2938
L33.6969 91.3543
" />
<path d="M33.6969 91.3543
L33.7574 91.4752
" />
<path d="M33.7574 91.4752
L33.7574 91.7776
" />
<path d="M33.7574 91.7776
L33.6969 91.8986
" />
<path d="M33.6969 91.8986
L33.6364 91.9591
" />
<path d="M33.6364 91.9591
L33.5155 92.0195
" />
<path d="M33.5155 92.0195
L33.1526 92.0195
" />
<path d="M33.1526 92.0195
L33.0317 91.9591
" />
<path d="M33.0317 91.9591
L32.9712 91.8986
" />
</g><path style="fill:none; 
stroke:#725600; stroke-width:0.1524; stroke-opacity:1; 
stroke-linecap:round; stroke-linejoin:round;fill:none"
d="M 35.5600,91.4400
34.9250,90.8050
34.2900,90.8050
34.2900,92.0750
34.9250,92.0750
Z" /> 
</g>
<g style="fill:none; 
stroke:#725600; stroke-width:0.1524; stroke-opacity:1; 
stroke-linecap:round; stroke-linejoin:round;">
<text x="34.0995" y="99.6950"
textLength="2.6827" font-size="1.6933" lengthAdjust="spacingAndGlyphs"
text-anchor="end" opacity="0" stroke-opacity="0">B6</text>
<g class="stroked-text"><desc>B6</desc>
<path d="M32.2455 98.9743
L32.4269 99.0348
" />
<path d="M32.4269 99.0348
L32.4874 99.0952
" />
<path d="M32.4874 99.0952
L32.5478 99.2162
" />
<path d="M32.5478 99.2162
L32.5478 99.3976
" />
<path d="M32.5478 99.3976
L32.4874 99.5186
" />
<path d="M32.4874 99.5186
L32.4269 99.5791
" />
<path d="M32.4269 99.5791
L32.3059 99.6395
" />
<path d="M32.3059 99.6395
L31.8221 99.6395
" />
<path d="M31.8221 99.6395
L31.8221 98.3695
" />
<path d="M31.8221 98.3695
L32.2455 98.3695
" />
<path d="M32.2455 98.3695
L32.3664 98.4300
" />
<path d="M32.3664 98.4300
L32.4269 98.4905
" />
<path d="M32.4269 98.4905
L32.4874 98.6114
" />
<path d="M32.4874 98.6114
L32.4874 98.7324
" />
<path d="M32.4874 98.7324
L32.4269 98.8533
" />
<path d="M32.4269 98.8533
L32.3664 98.9138
" />
<path d="M32.3664 98.9138
L32.2455 98.9743
" />
<path d="M32.2455 98.9743
L31.8221 98.9743
" />
<path d="M33.6364 98.3695
L33.3945 98.3695
" />
<path d="M33.3945 98.3695
L33.2736 98.4300
" />
<path d="M33.2736 98.4300
L33.2131 98.4905
" />
<path d="M33.2131 98.4905
L33.0921 98.6719
" />
<path d="M33.0921 98.6719
L33.0317 98.9138
" />
<path d="M33.0317 98.9138
L33.0317 99.3976
" />
<path d="M33.0317 99.3976
L33.0921 99.5186
" />
<path d="M33.0921 99.5186
L33.1526 99.5791
" />
<path d="M33.1526 99.5791
L33.2736 99.6395
" />
<path d="M33.2736 99.6395
L33.5155 99.6395
" />
<path d="M33.5155 99.6395
L33.6364 99.5791
" />
<path d="M33.6364 99.5791
L33.6969 99.5186
" />
<path d="M33.6969 99.5186
L33.7574 99.3976
" />
<path d="M33.7574 99.3976
L33.7574 99.0952
" />
<path d="M33.7574 99.0952
L33.6969 98.9743
" />
<path d="M33.6969 98.9743
L33.6364 98.9138
" />
<path d="M33.6364 98.9138
L33.5155 98.8533
" />
<path d="M33.5155 98.8533
L33.2736 98.8533
" />
<path d="M33.2736 98.8533
L33.1526 98.9138
" />
<path d="M33.1526 98.9138
L33.0921 98.9743
" />
<path d="M33.0921 98.9743
L33.0317 99.0952
" />
</g><path style="fill:none; 
stroke:#725600; stroke-width:0.1524; stroke-opacity:1; 
stroke-linecap:round; stroke-linejoin:round;fill:none"
d="M 35.5600,99.0600
34.9250,98.4250
34.2900,98.4250
34.2900,99.6950
34.9250,99.6950
Z" /> 
</g>
<g style="fill:none; 
stroke:#725600; stroke-width:0.1524; stroke-opacity:1; 
stroke-linecap:round; stroke-linejoin:round;">
<text x="34.0995" y="94.6150"
textLength="2.6827" font-size="1.6933" lengthAdjust="spacingAndGlyphs"
text-anchor="end" opacity="0" stroke-opacity="0">B4</text>
<g class="stroked-text"><desc>B4</desc>
<path d="M32.2455 93.8943
L32.4269 93.9548
" />
<path d="M32.4269 93.9548
L32.4874 94.0152
" />
<path d="M32.4874 94.0152
L32.5478 94.1362
" />
<path d="M32.5478 94.1362
L32.5478 94.3176
" />
<path d="M32.5478 94.3176
L32.4874 94.4386
" />
<path d="M32.4874 94.4386
L32.4269 94.4991
" />
<path d="M32.4269 94.4991
L32.3059 94.5595
" />
<path d="M32.3059 94.5595
L31.8221 94.5595
" />
<path d="M31.8221 94.5595
L31.8221 93.2895
" />
<path d="M31.8221 93.2895
L32.2455 93.2895
" />
<path d="M32.2455 93.2895
L32.3664 93.3500
" />
<path d="M32.3664 93.3500
L32.4269 93.4105
" />
<path d="M32.4269 93.4105
L32.4874 93.5314
" />
<path d="M32.4874 93.5314
L32.4874 93.6524
" />
<path d="M32.4874 93.6524
L32.4269 93.7733
" />
<path d="M32.4269 93.7733
L32.3664 93.8338
" />
<path d="M32.3664 93.8338
L32.2455 93.8943
" />
<path d="M32.2455 93.8943
L31.8221 93.8943
" />
<path d="M33.6364 93.7129
L33.6364 94.5595
" />
<path d="M33.3340 93.2291
L33.0317 94.1362
" />
<path d="M33.0317 94.1362
L33.8178 94.1362
" />
</g><path style="fill:none; 
stroke:#725600; stroke-width:0.1524; stroke-opacity:1; 
stroke-linecap:round; stroke-linejoin:round;fill:none"
d="M 35.5600,93.9800
34.9250,93.3450
34.2900,93.3450
34.2900,94.6150
34.9250,94.6150
Z" /> 
</g>
<g style="fill:none; 
stroke:#725600; stroke-width:0.1524; stroke-opacity:1; 
stroke-linecap:round; stroke-linejoin:round;">
<text x="34.0995" y="102.2350"
textLength="2.6827" font-size="1.6933" lengthAdjust="spacingAndGlyphs"
text-anchor="end" opacity="0" stroke-opacity="0">B7</text>
<g class="stroked-text"><desc>B7</desc>
<path d="M32.2455 101.5143
L32.4269 101.5748
" />
<path d="M32.4269 101.5748
L32.4874 101.6352
" />
<path d="M32.4874 101.6352
L32.5478 101.7562
" />
<path d="M32.5478 101.7562
L32.5478 101.9376
" />
<path d="M32.5478 101.9376
L32.4874 102.0586
" />
<path d="M32.4874 102.0586
L32.4269 102.1191
" />
<path d="M32.4269 102.1191
L32.3059 102.1795
" />
<path d="M32.3059 102.1795
L31.8221 102.1795
" />
<path d="M31.8221 102.1795
L31.8221 100.9095
" />
<path d="M31.8221 100.9095
L32.2455 100.9095
" />
<path d="M32.2455 100.9095
L32.3664 100.9700
" />
<path d="M32.3664 100.9700
L32.4269 101.0305
" />
<path d="M32.4269 101.0305
L32.4874 101.1514
" />
<path d="M32.4874 101.1514
L32.4874 101.2724
" />
<path d="M32.4874 101.2724
L32.4269 101.3933
" />
<path d="M32.4269 101.3933
L32.3664 101.4538
" />
<path d="M32.3664 101.4538
L32.2455 101.5143
" />
<path d="M32.2455 101.5143
L31.8221 101.5143
" />
<path d="M32.9712 100.9095
L33.8178 100.9095
" />
<path d="M33.8178 100.9095
L33.2736 102.1795
" />
</g><path style="fill:none; 
stroke:#725600; stroke-width:0.1524; stroke-opacity:1; 
stroke-linecap:round; stroke-linejoin:round;fill:none"
d="M 35.5600,101.6000
34.9250,100.9650
34.2900,100.9650
34.2900,102.2350
34.9250,102.2350
Z" /> 
</g>
<g style="fill:none; 
stroke:#725600; stroke-width:0.1524; stroke-opacity:1; 
stroke-linecap:round; stroke-linejoin:round;">
<text x="34.0995" y="97.1550"
textLength="2.6827" font-size="1.6933" lengthAdjust="spacingAndGlyphs"
text-anchor="end" opacity="0" stroke-opacity="0">B5</text>
<g class="stroked-text"><desc>B5</desc>
<path d="M32.2455 96.4343
L32.4269 96.4948
" />
<path d="M32.4269 96.4948
L32.4874 96.5552
" />
<path d="M32.4874 96.5552
L32.5478 96.6762
" />
<path d="M32.5478 96.6762
L32.5478 96.8576
" />
<path d="M32.5478 96.8576
L32.4874 96.9786
" />
<path d="M32.4874 96.9786
L32.4269 97.0391
" />
<path d="M32.4269 97.0391
L32.3059 97.0995
" />
<path d="M32.3059 97.0995
L31.8221 97.0995
" />
<path d="M31.8221 97.0995
L31.8221 95.8295
" />
<path d="M31.8221 95.8295
L32.2455 95.8295
" />
<path d="M32.2455 95.8295
L32.3664 95.8900
" />
<path d="M32.3664 95.8900
L32.4269 95.9505
" />
<path d="M32.4269 95.9505
L32.4874 96.0714
" />
<path d="M32.4874 96.0714
L32.4874 96.1924
" />
<path d="M32.4874 96.1924
L32.4269 96.3133
" />
<path d="M32.4269 96.3133
L32.3664 96.3738
" />
<path d="M32.3664 96.3738
L32.2455 96.4343
" />
<path d="M32.2455 96.4343
L31.8221 96.4343
" />
<path d="M33.6969 95.8295
L33.0921 95.8295
" />
<path d="M33.0921 95.8295
L33.0317 96.4343
" />
<path d="M33.0317 96.4343
L33.0921 96.3738
" />
<path d="M33.0921 96.3738
L33.2131 96.3133
" />
<path d="M33.2131 96.3133
L33.5155 96.3133
" />
<path d="M33.5155 96.3133
L33.6364 96.3738
" />
<path d="M33.6364 96.3738
L33.6969 96.4343
" />
<path d="M33.6969 96.4343
L33.7574 96.5552
" />
<path d="M33.7574 96.5552
L33.7574 96.8576
" />
<path d="M33.7574 96.8576
L33.6969 96.9786
" />
<path d="M33.6969 96.9786
L33.6364 97.0391
" />
<path d="M33.6364 97.0391
L33.5155 97.0995
" />
<path d="M33.5155 97.0995
L33.2131 97.0995
" />
<path d="M33.2131 97.0995
L33.0921 97.0391
" />
<path d="M33.0921 97.0391
L33.0317 96.9786
" />
</g><path style="fill:none; 
stroke:#725600; stroke-width:0.1524; stroke-opacity:1; 
stroke-linecap:round; stroke-linejoin:round;fill:none"
d="M 35.5600,96.5200
34.9250,95.8850
34.2900,95.8850
34.2900,97.1550
34.9250,97.1550
Z" /> 
</g>
<g style="fill:none; 
stroke:#725600; stroke-width:0.1524; stroke-opacity:1; 
stroke-linecap:round; stroke-linejoin:round;">
<text x="34.0995" y="71.7550"
textLength="2.5013" font-size="1.6933" lengthAdjust="spacingAndGlyphs"
text-anchor="end" opacity="0" stroke-opacity="0">A5</text>
<g class="stroked-text"><desc>A5</desc>
<path d="M31.9431 71.3367
L32.5478 71.3367
" />
<path d="M31.8221 71.6995
L32.2454 70.4295
" />
<path d="M32.2454 70.4295
L32.6688 71.6995
" />
<path d="M33.6969 70.4295
L33.0921 70.4295
" />
<path d="M33.0921 70.4295
L33.0317 71.0343
" />
<path d="M33.0317 71.0343
L33.0921 70.9738
" />
<path d="M33.0921 70.9738
L33.2131 70.9133
" />
<path d="M33.2131 70.9133
L33.5155 70.9133
" />
<path d="M33.5155 70.9133
L33.6364 70.9738
" />
<path d="M33.6364 70.9738
L33.6969 71.0343
" />
<path d="M33.6969 71.0343
L33.7574 71.1552
" />
<path d="M33.7574 71.1552
L33.7574 71.4576
" />
<path d="M33.7574 71.4576
L33.6969 71.5786
" />
<path d="M33.6969 71.5786
L33.6364 71.6391
" />
<path d="M33.6364 71.6391
L33.5155 71.6995
" />
<path d="M33.5155 71.6995
L33.2131 71.6995
" />
<path d="M33.2131 71.6995
L33.0921 71.6391
" />
<path d="M33.0921 71.6391
L33.0317 71.5786
" />
</g><path style="fill:none; 
stroke:#725600; stroke-width:0.1524; stroke-opacity:1; 
stroke-linecap:round; stroke-linejoin:round;fill:none"
d="M 35.5600,71.1200
34.9250,70.4850
34.2900,70.4850
34.2900,71.7550
34.9250,71.7550
Z" /> 
</g>
<g style="fill:none; 
stroke:#725600; stroke-width:0.1524; stroke-opacity:1; 
stroke-linecap:round; stroke-linejoin:round;">
<text x="34.0995" y="66.6750"
textLength="2.5013" font-size="1.6933" lengthAdjust="spacingAndGlyphs"
text-anchor="end" opacity="0" stroke-opacity="0">A3</text>
<g class="stroked-text"><desc>A3</desc>
<path d="M31.9431 66.2567
L32.5478 66.2567
" />
<path d="M31.8221 66.6195
L32.2454 65.3495
" />
<path d="M32.2454 65.3495
L32.6688 66.6195
" />
<path d="M32.9712 65.3495
L33.7574 65.3495
" />
<path d="M33.7574 65.3495
L33.3340 65.8333
" />
<path d="M33.3340 65.8333
L33.5155 65.8333
" />
<path d="M33.5155 65.8333
L33.6364 65.8938
" />
<path d="M33.6364 65.8938
L33.6969 65.9543
" />
<path d="M33.6969 65.9543
L33.7574 66.0752
" />
<path d="M33.7574 66.0752
L33.7574 66.3776
" />
<path d="M33.7574 66.3776
L33.6969 66.4986
" />
<path d="M33.6969 66.4986
L33.6364 66.5591
" />
<path d="M33.6364 66.5591
L33.5155 66.6195
" />
<path d="M33.5155 66.6195
L33.1526 66.6195
" />
<path d="M33.1526 66.6195
L33.0317 66.5591
" />
<path d="M33.0317 66.5591
L32.9712 66.4986
" />
</g><path style="fill:none; 
stroke:#725600; stroke-width:0.1524; stroke-opacity:1; 
stroke-linecap:round; stroke-linejoin:round;fill:none"
d="M 35.5600,66.0400
34.9250,65.4050
34.2900,65.4050
34.2900,66.6750
34.9250,66.6750
Z" /> 
</g>
<g style="fill:none; 
stroke:#725600; stroke-width:0.1524; stroke-opacity:1; 
stroke-linecap:round; stroke-linejoin:round;">
<text x="34.0995" y="74.2950"
textLength="2.5013" font-size="1.6933" lengthAdjust="spacingAndGlyphs"
text-anchor="end" opacity="0" stroke-opacity="0">A6</text>
<g class="stroked-text"><desc>A6</desc>
<path d="M31.9431 73.8767
L32.5478 73.8767
" />
<path d="M31.8221 74.2395
L32.2454 72.9695
" />
<path d="M32.2454 72.9695
L32.6688 74.2395
" />
<path d="M33.6364 72.9695
L33.3945 72.9695
" />
<path d="M33.3945 72.9695
L33.2736 73.0300
" />
<path d="M33.2736 73.0300
L33.2131 73.0905
" />
<path d="M33.2131 73.0905
L33.0921 73.2719
" />
<path d="M33.0921 73.2719
L33.0317 73.5138
" />
<path d="M33.0317 73.5138
L33.0317 73.9976
" />
<path d="M33.0317 73.9976
L33.0921 74.1186
" />
<path d="M33.0921 74.1186
L33.1526 74.1791
" />
<path d="M33.1526 74.1791
L33.2736 74.2395
" />
<path d="M33.2736 74.2395
L33.5155 74.2395
" />
<path d="M33.5155 74.2395
L33.6364 74.1791
" />
<path d="M33.6364 74.1791
L33.6969 74.1186
" />
<path d="M33.6969 74.1186
L33.7574 73.9976
" />
<path d="M33.7574 73.9976
L33.7574 73.6952
" />
<path d="M33.7574 73.6952
L33.6969 73.5743
" />
<path d="M33.6969 73.5743
L33.6364 73.5138
" />
<path d="M33.6364 73.5138
L33.5155 73.4533
" />
<path d="M33.5155 73.4533
L33.2736 73.4533
" />
<path d="M33.2736 73.4533
L33.1526 73.5138
" />
<path d="M33.1526 73.5138
L33.0921 73.5743
" />
<path d="M33.0921 73.5743
L33.0317 73.6952
" />
</g><path style="fill:none; 
stroke:#725600; stroke-width:0.1524; stroke-opacity:1; 
stroke-linecap:round; stroke-linejoin:round;fill:none"
d="M 35.5600,73.6600
34.9250,73.0250
34.2900,73.0250
34.2900,74.2950
34.9250,74.2950
Z" /> 
</g>
<g style="fill:none; 
stroke:#725600; stroke-width:0.1524; stroke-opacity:1; 
stroke-linecap:round; stroke-linejoin:round;">
<text x="34.0995" y="69.2150"
textLength="2.5013" font-size="1.6933" lengthAdjust="spacingAndGlyphs"
text-anchor="end" opacity="0" stroke-opacity="0">A4</text>
<g class="stroked-text"><desc>A4</desc>
<path d="M31.9431 68.7967
L32.5478 68.7967
" />
<path d="M31.8221 69.1595
L32.2454 67.8895
" />
<path d="M32.2454 67.8895
L32.6688 69.1595
" />
<path d="M33.6364 68.3129
L33.6364 69.1595
" />
<path d="M33.3340 67.8291
L33.0317 68.7362
" />
<path d="M33.0317 68.7362
L33.8178 68.7362
" />
</g><path style="fill:none; 
stroke:#725600; stroke-width:0.1524; stroke-opacity:1; 
stroke-linecap:round; stroke-linejoin:round;fill:none"
d="M 35.5600,68.5800
34.9250,67.9450
34.2900,67.9450
34.2900,69.2150
34.9250,69.2150
Z" /> 
</g>
<g style="fill:none; 
stroke:#725600; stroke-width:0.1524; stroke-opacity:1; 
stroke-linecap:round; stroke-linejoin:round;">
<text x="34.0995" y="89.5350"
textLength="2.6827" font-size="1.6933" lengthAdjust="spacingAndGlyphs"
text-anchor="end" opacity="0" stroke-opacity="0">B2</text>
<g class="stroked-text"><desc>B2</desc>
<path d="M32.2455 88.8143
L32.4269 88.8748
" />
<path d="M32.4269 88.8748
L32.4874 88.9352
" />
<path d="M32.4874 88.9352
L32.5478 89.0562
" />
<path d="M32.5478 89.0562
L32.5478 89.2376
" />
<path d="M32.5478 89.2376
L32.4874 89.3586
" />
<path d="M32.4874 89.3586
L32.4269 89.4191
" />
<path d="M32.4269 89.4191
L32.3059 89.4795
" />
<path d="M32.3059 89.4795
L31.8221 89.4795
" />
<path d="M31.8221 89.4795
L31.8221 88.2095
" />
<path d="M31.8221 88.2095
L32.2455 88.2095
" />
<path d="M32.2455 88.2095
L32.3664 88.2700
" />
<path d="M32.3664 88.2700
L32.4269 88.3305
" />
<path d="M32.4269 88.3305
L32.4874 88.4514
" />
<path d="M32.4874 88.4514
L32.4874 88.5724
" />
<path d="M32.4874 88.5724
L32.4269 88.6933
" />
<path d="M32.4269 88.6933
L32.3664 88.7538
" />
<path d="M32.3664 88.7538
L32.2455 88.8143
" />
<path d="M32.2455 88.8143
L31.8221 88.8143
" />
<path d="M33.0317 88.3305
L33.0921 88.2700
" />
<path d="M33.0921 88.2700
L33.2131 88.2095
" />
<path d="M33.2131 88.2095
L33.5155 88.2095
" />
<path d="M33.5155 88.2095
L33.6364 88.2700
" />
<path d="M33.6364 88.2700
L33.6969 88.3305
" />
<path d="M33.6969 88.3305
L33.7574 88.4514
" />
<path d="M33.7574 88.4514
L33.7574 88.5724
" />
<path d="M33.7574 88.5724
L33.6969 88.7538
" />
<path d="M33.6969 88.7538
L32.9712 89.4795
" />
<path d="M32.9712 89.4795
L33.7574 89.4795
" />
</g><path style="fill:none; 
stroke:#725600; stroke-width:0.1524; stroke-opacity:1; 
stroke-linecap:round; stroke-linejoin:round;fill:none"
d="M 35.5600,88.9000
34.9250,88.2650
34.2900,88.2650
34.2900,89.5350
34.9250,89.5350
Z" /> 
</g>
<g style="fill:none; 
stroke:#725600; stroke-width:0.1524; stroke-opacity:1; 
stroke-linecap:round; stroke-linejoin:round;">
<text x="34.0995" y="76.8350"
textLength="2.5013" font-size="1.6933" lengthAdjust="spacingAndGlyphs"
text-anchor="end" opacity="0" stroke-opacity="0">A7</text>
<g class="stroked-text"><desc>A7</desc>
<path d="M31.9431 76.4167
L32.5478 76.4167
" />
<path d="M31.8221 76.7795
L32.2454 75.5095
" />
<path d="M32.2454 75.5095
L32.6688 76.7795
" />
<path d="M32.9712 75.5095
L33.8178 75.5095
" />
<path d="M33.8178 75.5095
L33.2736 76.7795
" />
</g><path style="fill:none; 
stroke:#725600; stroke-width:0.1524; stroke-opacity:1; 
stroke-linecap:round; stroke-linejoin:round;fill:none"
d="M 35.5600,76.2000
34.9250,75.5650
34.2900,75.5650
34.2900,76.8350
34.9250,76.8350
Z" /> 
</g>
<g style="fill:none; 
stroke:#725600; stroke-width:0.1524; stroke-opacity:1; 
stroke-linecap:round; stroke-linejoin:round;">
<text x="34.0995" y="86.9950"
textLength="2.6827" font-size="1.6933" lengthAdjust="spacingAndGlyphs"
text-anchor="end" opacity="0" stroke-opacity="0">B1</text>
<g class="stroked-text"><desc>B1</desc>
<path d="M32.2455 86.2743
L32.4269 86.3348
" />
<path d="M32.4269 86.3348
L32.4874 86.3952
" />
<path d="M32.4874 86.3952
L32.5478 86.5162
" />
<path d="M32.5478 86.5162
L32.5478 86.6976
" />
<path d="M32.5478 86.6976
L32.4874 86.8186
" />
<path d="M32.4874 86.8186
L32.4269 86.8791
" />
<path d="M32.4269 86.8791
L32.3059 86.9395
" />
<path d="M32.3059 86.9395
L31.8221 86.9395
" />
<path d="M31.8221 86.9395
L31.8221 85.6695
" />
<path d="M31.8221 85.6695
L32.2455 85.6695
" />
<path d="M32.2455 85.6695
L32.3664 85.7300
" />
<path d="M32.3664 85.7300
L32.4269 85.7905
" />
<path d="M32.4269 85.7905
L32.4874 85.9114
" />
<path d="M32.4874 85.9114
L32.4874 86.0324
" />
<path d="M32.4874 86.0324
L32.4269 86.1533
" />
<path d="M32.4269 86.1533
L32.3664 86.2138
" />
<path d="M32.3664 86.2138
L32.2455 86.2743
" />
<path d="M32.2455 86.2743
L31.8221 86.2743
" />
<path d="M33.7574 86.9395
L33.0317 86.9395
" />
<path d="M33.3945 86.9395
L33.3945 85.6695
" />
<path d="M33.3945 85.6695
L33.2736 85.8510
" />
<path d="M33.2736 85.8510
L33.1526 85.9719
" />
<path d="M33.1526 85.9719
L33.0317 86.0324
" />
</g><path style="fill:none; 
stroke:#725600; stroke-width:0.1524; stroke-opacity:1; 
stroke-linecap:round; stroke-linejoin:round;fill:none"
d="M 35.5600,86.3600
34.9250,85.7250
34.2900,85.7250
34.2900,86.9950
34.9250,86.9950
Z" /> 
</g>
<g style="fill:none; 
stroke:#725600; stroke-width:0.1524; stroke-opacity:1; 
stroke-linecap:round; stroke-linejoin:round;">
<text x="34.0995" y="84.4550"
textLength="2.6827" font-size="1.6933" lengthAdjust="spacingAndGlyphs"
text-anchor="end" opacity="0" stroke-opacity="0">B0</text>
<g class="stroked-text"><desc>B0</desc>
<path d="M32.2455 83.7343
L32.4269 83.7948
" />
<path d="M32.4269 83.7948
L32.4874 83.8552
" />
<path d="M32.4874 83.8552
L32.5478 83.9762
" />
<path d="M32.5478 83.9762
L32.5478 84.1576
" />
<path d="M32.5478 84.1576
L32.4874 84.2786
" />
<path d="M32.4874 84.2786
L32.4269 84.3391
" />
<path d="M32.4269 84.3391
L32.3059 84.3995
" />
<path d="M32.3059 84.3995
L31.8221 84.3995
" />
<path d="M31.8221 84.3995
L31.8221 83.1295
" />
<path d="M31.8221 83.1295
L32.2455 83.1295
" />
<path d="M32.2455 83.1295
L32.3664 83.1900
" />
<path d="M32.3664 83.1900
L32.4269 83.2505
" />
<path d="M32.4269 83.2505
L32.4874 83.3714
" />
<path d="M32.4874 83.3714
L32.4874 83.4924
" />
<path d="M32.4874 83.4924
L32.4269 83.6133
" />
<path d="M32.4269 83.6133
L32.3664 83.6738
" />
<path d="M32.3664 83.6738
L32.2455 83.7343
" />
<path d="M32.2455 83.7343
L31.8221 83.7343
" />
<path d="M33.3340 83.1295
L33.4550 83.1295
" />
<path d="M33.4550 83.1295
L33.5759 83.1900
" />
<path d="M33.5759 83.1900
L33.6364 83.2505
" />
<path d="M33.6364 83.2505
L33.6969 83.3714
" />
<path d="M33.6969 83.3714
L33.7574 83.6133
" />
<path d="M33.7574 83.6133
L33.7574 83.9157
" />
<path d="M33.7574 83.9157
L33.6969 84.1576
" />
<path d="M33.6969 84.1576
L33.6364 84.2786
" />
<path d="M33.6364 84.2786
L33.5759 84.3391
" />
<path d="M33.5759 84.3391
L33.4550 84.3995
" />
<path d="M33.4550 84.3995
L33.3340 84.3995
" />
<path d="M33.3340 84.3995
L33.2131 84.3391
" />
<path d="M33.2131 84.3391
L33.1526 84.2786
" />
<path d="M33.1526 84.2786
L33.0921 84.1576
" />
<path d="M33.0921 84.1576
L33.0317 83.9157
" />
<path d="M33.0317 83.9157
L33.0317 83.6133
" />
<path d="M33.0317 83.6133
L33.0921 83.3714
" />
<path d="M33.0921 83.3714
L33.1526 83.2505
" />
<path d="M33.1526 83.2505
L33.2131 83.1900
" />
<path d="M33.2131 83.1900
L33.3340 83.1295
" />
</g><path style="fill:none; 
stroke:#725600; stroke-width:0.1524; stroke-opacity:1; 
stroke-linecap:round; stroke-linejoin:round;fill:none"
d="M 35.5600,83.8200
34.9250,83.1850
34.2900,83.1850
34.2900,84.4550
34.9250,84.4550
Z" /> 
</g>
<g style="fill:none; 
stroke:#725600; stroke-width:0.1524; stroke-opacity:1; 
stroke-linecap:round; stroke-linejoin:round;">
<text x="127.1905" y="70.4850"
textLength="2.5013" font-size="1.6933" lengthAdjust="spacingAndGlyphs"
text-anchor="start" opacity="0" stroke-opacity="0">Y1</text>
<g class="stroked-text"><desc>Y1</desc>
<path d="M127.8349 69.8248
L127.8349 70.4295
" />
<path d="M127.4116 69.1595
L127.8349 69.8248
" />
<path d="M127.8349 69.8248
L128.2583 69.1595
" />
<path d="M129.3469 70.4295
L128.6212 70.4295
" />
<path d="M128.9840 70.4295
L128.9840 69.1595
" />
<path d="M128.9840 69.1595
L128.8631 69.3410
" />
<path d="M128.8631 69.3410
L128.7421 69.4619
" />
<path d="M128.7421 69.4619
L128.6212 69.5224
" />
</g><path style="fill:none; 
stroke:#725600; stroke-width:0.1524; stroke-opacity:1; 
stroke-linecap:round; stroke-linejoin:round;fill:none"
d="M 127.0000,69.8500
126.3650,69.2150
125.7300,69.2150
125.7300,70.4850
126.3650,70.4850
Z" /> 
</g>
<g style="fill:none; 
stroke:#725600; stroke-width:0.1524; stroke-opacity:1; 
stroke-linecap:round; stroke-linejoin:round;">
<text x="127.1905" y="67.9450"
textLength="2.5013" font-size="1.6933" lengthAdjust="spacingAndGlyphs"
text-anchor="start" opacity="0" stroke-opacity="0">Y0</text>
<g class="stroked-text"><desc>Y0</desc>
<path d="M127.8349 67.2848
L127.8349 67.8895
" />
<path d="M127.4116 66.6195
L127.8349 67.2848
" />
<path d="M127.8349 67.2848
L128.2583 66.6195
" />
<path d="M128.9235 66.6195
L129.0445 66.6195
" />
<path d="M129.0445 66.6195
L129.1654 66.6800
" />
<path d="M129.1654 66.6800
L129.2259 66.7405
" />
<path d="M129.2259 66.7405
L129.2864 66.8614
" />
<path d="M129.2864 66.8614
L129.3469 67.1033
" />
<path d="M129.3469 67.1033
L129.3469 67.4057
" />
<path d="M129.3469 67.4057
L129.2864 67.6476
" />
<path d="M129.2864 67.6476
L129.2259 67.7686
" />
<path d="M129.2259 67.7686
L129.1654 67.8291
" />
<path d="M129.1654 67.8291
L129.0445 67.8895
" />
<path d="M129.0445 67.8895
L128.9235 67.8895
" />
<path d="M128.9235 67.8895
L128.8026 67.8291
" />
<path d="M128.8026 67.8291
L128.7421 67.7686
" />
<path d="M128.7421 67.7686
L128.6816 67.6476
" />
<path d="M128.6816 67.6476
L128.6212 67.4057
" />
<path d="M128.6212 67.4057
L128.6212 67.1033
" />
<path d="M128.6212 67.1033
L128.6816 66.8614
" />
<path d="M128.6816 66.8614
L128.7421 66.7405
" />
<path d="M128.7421 66.7405
L128.8026 66.6800
" />
<path d="M128.8026 66.6800
L128.9235 66.6195
" />
</g><path style="fill:none; 
stroke:#725600; stroke-width:0.1524; stroke-opacity:1; 
stroke-linecap:round; stroke-linejoin:round;fill:none"
d="M 127.0000,67.3100
126.3650,66.6750
125.7300,66.6750
125.7300,67.9450
126.3650,67.9450
Z" /> 
</g>
<g style="fill:none; 
stroke:#725600; stroke-width:0.1524; stroke-opacity:1; 
stroke-linecap:round; stroke-linejoin:round;">
<text x="127.1905" y="73.0250"
textLength="2.5013" font-size="1.6933" lengthAdjust="spacingAndGlyphs"
text-anchor="start" opacity="0" stroke-opacity="0">Y2</text>
<g class="stroked-text"><desc>Y2</desc>
<path d="M127.8349 72.3648
L127.8349 72.9695
" />
<path d="M127.4116 71.6995
L127.8349 72.3648
" />
<path d="M127.8349 72.3648
L128.2583 71.6995
" />
<path d="M128.6212 71.8205
L128.6816 71.7600
" />
<path d="M128.6816 71.7600
L128.8026 71.6995
" />
<path d="M128.8026 71.6995
L129.1050 71.6995
" />
<path d="M129.1050 71.6995
L129.2259 71.7600
" />
<path d="M129.2259 71.7600
L129.2864 71.8205
" />
<path d="M129.2864 71.8205
L129.3469 71.9414
" />
<path d="M129.3469 71.9414
L129.3469 72.0624
" />
<path d="M129.3469 72.0624
L129.2864 72.2438
" />
<path d="M129.2864 72.2438
L128.5607 72.9695
" />
<path d="M128.5607 72.9695
L129.3469 72.9695
" />
</g><path style="fill:none; 
stroke:#725600; stroke-width:0.1524; stroke-opacity:1; 
stroke-linecap:round; stroke-linejoin:round;fill:none"
d="M 127.0000,72.3900
126.3650,71.7550
125.7300,71.7550
125.7300,73.0250
126.3650,73.0250
Z" /> 
</g>
<g style="fill:none; 
stroke:#725600; stroke-width:0.1524; stroke-opacity:1; 
stroke-linecap:round; stroke-linejoin:round;">
<text x="127.1905" y="78.1050"
textLength="2.5013" font-size="1.6933" lengthAdjust="spacingAndGlyphs"
text-anchor="start" opacity="0" stroke-opacity="0">Y4</text>
<g class="stroked-text"><desc>Y4</desc>
<path d="M127.8349 77.4448
L127.8349 78.0495
" />
<path d="M127.4116 76.7795
L127.8349 77.4448
" />
<path d="M127.8349 77.4448
L128.2583 76.7795
" />
<path d="M129.2259 77.2029
L129.2259 78.0495
" />
<path d="M128.9235 76.7191
L128.6212 77.6262
" />
<path d="M128.6212 77.6262
L129.4073 77.6262
" />
</g><path style="fill:none; 
stroke:#725600; stroke-width:0.1524; stroke-opacity:1; 
stroke-linecap:round; stroke-linejoin:round;fill:none"
d="M 127.0000,77.4700
126.3650,76.8350
125.7300,76.8350
125.7300,78.1050
126.3650,78.1050
Z" /> 
</g>
<g style="fill:none; 
stroke:#725600; stroke-width:0.1524; stroke-opacity:1; 
stroke-linecap:round; stroke-linejoin:round;">
<text x="127.1905" y="75.5650"
textLength="2.5013" font-size="1.6933" lengthAdjust="spacingAndGlyphs"
text-anchor="start" opacity="0" stroke-opacity="0">Y3</text>
<g class="stroked-text"><desc>Y3</desc>
<path d="M127.8349 74.9048
L127.8349 75.5095
" />
<path d="M127.4116 74.2395
L127.8349 74.9048
" />
<path d="M127.8349 74.9048
L128.2583 74.2395
" />
<path d="M128.5607 74.2395
L129.3469 74.2395
" />
<path d="M129.3469 74.2395
L128.9235 74.7233
" />
<path d="M128.9235 74.7233
L129.1050 74.7233
" />
<path d="M129.1050 74.7233
L129.2259 74.7838
" />
<path d="M129.2259 74.7838
L129.2864 74.8443
" />
<path d="M129.2864 74.8443
L129.3469 74.9652
" />
<path d="M129.3469 74.9652
L129.3469 75.2676
" />
<path d="M129.3469 75.2676
L129.2864 75.3886
" />
<path d="M129.2864 75.3886
L129.2259 75.4491
" />
<path d="M129.2259 75.4491
L129.1050 75.5095
" />
<path d="M129.1050 75.5095
L128.7421 75.5095
" />
<path d="M128.7421 75.5095
L128.6212 75.4491
" />
<path d="M128.6212 75.4491
L128.5607 75.3886
" />
</g><path style="fill:none; 
stroke:#725600; stroke-width:0.1524; stroke-opacity:1; 
stroke-linecap:round; stroke-linejoin:round;fill:none"
d="M 127.0000,74.9300
126.3650,74.2950
125.7300,74.2950
125.7300,75.5650
126.3650,75.5650
Z" /> 
</g>
<g style="fill:none; 
stroke:#725600; stroke-width:0.1524; stroke-opacity:1; 
stroke-linecap:round; stroke-linejoin:round;">
<text x="127.1905" y="80.6450"
textLength="2.5013" font-size="1.6933" lengthAdjust="spacingAndGlyphs"
text-anchor="start" opacity="0" stroke-opacity="0">Y5</text>
<g class="stroked-text"><desc>Y5</desc>
<path d="M127.8349 79.9848
L127.8349 80.5895
" />
<path d="M127.4116 79.3195
L127.8349 79.9848
" />
<path d="M127.8349 79.9848
L128.2583 79.3195
" />
<path d="M129.2864 79.3195
L128.6816 79.3195
" />
<path d="M128.6816 79.3195
L128.6212 79.9243
" />
<path d="M128.6212 79.9243
L128.6816 79.8638
" />
<path d="M128.6816 79.8638
L128.8026 79.8033
" />
<path d="M128.8026 79.8033
L129.1050 79.8033
" />
<path d="M129.1050 79.8033
L129.2259 79.8638
" />
<path d="M129.2259 79.8638
L129.2864 79.9243
" />
<path d="M129.2864 79.9243
L129.3469 80.0452
" />
<path d="M129.3469 80.0452
L129.3469 80.3476
" />
<path d="M129.3469 80.3476
L129.2864 80.4686
" />
<path d="M129.2864 80.4686
L129.2259 80.5291
" />
<path d="M129.2259 80.5291
L129.1050 80.5895
" />
<path d="M129.1050 80.5895
L128.8026 80.5895
" />
<path d="M128.8026 80.5895
L128.6816 80.5291
" />
<path d="M128.6816 80.5291
L128.6212 80.4686
" />
</g><path style="fill:none; 
stroke:#725600; stroke-width:0.1524; stroke-opacity:1; 
stroke-linecap:round; stroke-linejoin:round;fill:none"
d="M 127.0000,80.0100
126.3650,79.3750
125.7300,79.3750
125.7300,80.6450
126.3650,80.6450
Z" /> 
</g>
<g style="fill:none; 
stroke:#725600; stroke-width:0.1524; stroke-opacity:1; 
stroke-linecap:round; stroke-linejoin:round;">
<text x="127.1905" y="83.1850"
textLength="2.5013" font-size="1.6933" lengthAdjust="spacingAndGlyphs"
text-anchor="start" opacity="0" stroke-opacity="0">Y6</text>
<g class="stroked-text"><desc>Y6</desc>
<path d="M127.8349 82.5248
L127.8349 83.1295
" />
<path d="M127.4116 81.8595
L127.8349 82.5248
" />
<path d="M127.8349 82.5248
L128.2583 81.8595
" />
<path d="M129.2259 81.8595
L128.9840 81.8595
" />
<path d="M128.9840 81.8595
L128.8631 81.9200
" />
<path d="M128.8631 81.9200
L128.8026 81.9805
" />
<path d="M128.8026 81.9805
L128.6816 82.1619
" />
<path d="M128.6816 82.1619
L128.6212 82.4038
" />
<path d="M128.6212 82.4038
L128.6212 82.8876
" />
<path d="M128.6212 82.8876
L128.6816 83.0086
" />
<path d="M128.6816 83.0086
L128.7421 83.0691
" />
<path d="M128.7421 83.0691
L128.8631 83.1295
" />
<path d="M128.8631 83.1295
L129.1050 83.1295
" />
<path d="M129.1050 83.1295
L129.2259 83.0691
" />
<path d="M129.2259 83.0691
L129.2864 83.0086
" />
<path d="M129.2864 83.0086
L129.3469 82.8876
" />
<path d="M129.3469 82.8876
L129.3469 82.5852
" />
<path d="M129.3469 82.5852
L129.2864 82.4643
" />
<path d="M129.2864 82.4643
L129.2259 82.4038
" />
<path d="M129.2259 82.4038
L129.1050 82.3433
" />
<path d="M129.1050 82.3433
L128.8631 82.3433
" />
<path d="M128.8631 82.3433
L128.7421 82.4038
" />
<path d="M128.7421 82.4038
L128.6816 82.4643
" />
<path d="M128.6816 82.4643
L128.6212 82.5852
" />
</g><path style="fill:none; 
stroke:#725600; stroke-width:0.1524; stroke-opacity:1; 
stroke-linecap:round; stroke-linejoin:round;fill:none"
d="M 127.0000,82.5500
126.3650,81.9150
125.7300,81.9150
125.7300,83.1850
126.3650,83.1850
Z" /> 
</g>
<g style="fill:none; 
stroke:#725600; stroke-width:0.1524; stroke-opacity:1; 
stroke-linecap:round; stroke-linejoin:round;">
<text x="127.1905" y="85.7250"
textLength="2.5013" font-size="1.6933" lengthAdjust="spacingAndGlyphs"
text-anchor="start" opacity="0" stroke-opacity="0">Y7</text>
<g class="stroked-text"><desc>Y7</desc>
<path d="M127.8349 85.0648
L127.8349 85.6695
" />
<path d="M127.4116 84.3995
L127.8349 85.0648
" />
<path d="M127.8349 85.0648
L128.2583 84.3995
" />
<path d="M128.5607 84.3995
L129.4073 84.3995
" />
<path d="M129.4073 84.3995
L128.8631 85.6695
" />
</g><path style="fill:none; 
stroke:#725600; stroke-width:0.1524; stroke-opacity:1; 
stroke-linecap:round; stroke-linejoin:round;fill:none"
d="M 127.0000,85.0900
126.3650,84.4550
125.7300,84.4550
125.7300,85.7250
126.3650,85.7250
Z" /> 
</g>
<g style="fill:none; 
stroke:#725600; stroke-width:0.1524; stroke-opacity:1; 
stroke-linecap:round; stroke-linejoin:round;">
<text x="34.0995" y="61.5950"
textLength="2.5013" font-size="1.6933" lengthAdjust="spacingAndGlyphs"
text-anchor="end" opacity="0" stroke-opacity="0">A1</text>
<g class="stroked-text"><desc>A1</desc>
<path d="M31.9431 61.1767
L32.5478 61.1767
" />
<path d="M31.8221 61.5395
L32.2454 60.2695
" />
<path d="M32.2454 60.2695
L32.6688 61.5395
" />
<path d="M33.7574 61.5395
L33.0317 61.5395
" />
<path d="M33.3945 61.5395
L33.3945 60.2695
" />
<path d="M33.3945 60.2695
L33.2736 60.4510
" />
<path d="M33.2736 60.4510
L33.1526 60.5719
" />
<path d="M33.1526 60.5719
L33.0317 60.6324
" />
</g><path style="fill:none; 
stroke:#725600; stroke-width:0.1524; stroke-opacity:1; 
stroke-linecap:round; stroke-linejoin:round;fill:none"
d="M 35.5600,60.9600
34.9250,60.3250
34.2900,60.3250
34.2900,61.5950
34.9250,61.5950
Z" /> 
</g>
<g style="fill:none; 
stroke:#009600; stroke-width:0.1524; stroke-opacity:1; 
stroke-linecap:round; stroke-linejoin:round;">
<path d="M53.3400 87.6300
L77.4700 87.6300
" />
<path d="M53.3400 93.9800
L53.3400 115.5700
" />
<path d="M113.0300 149.8600
L113.0300 82.5500
" />
<path d="M115.5700 168.9100
L115.5700 85.0900
" />
<path d="M93.9800 111.7600
L107.9500 111.7600
" />
<path d="M107.9500 111.7600
L107.9500 77.4700
" />
<path d="M110.4900 130.8100
L110.4900 80.0100
" />
<path d="M35.5600 83.8200
L62.2300 83.8200
" />
<path d="M35.5600 93.9800
L53.3400 93.9800
" />
<path d="M93.9800 92.7100
L104.1400 92.7100
" />
<path d="M111.7600 67.3100
L125.7300 67.3100
" />
<path d="M93.9800 73.6600
L101.6000 73.6600
" />
<path d="M104.1400 92.7100
L104.1400 74.9300
" />
<path d="M35.5600 86.3600
L59.6900 86.3600
" />
<path d="M110.4900 69.8500
L125.7300 69.8500
" />
<path d="M101.6000 72.3900
L125.7300 72.3900
" />
<path d="M104.1400 74.9300
L125.7300 74.9300
" />
<path d="M101.6000 73.6600
L101.6000 72.3900
" />
<path d="M57.1500 68.5800
L77.4700 68.5800
" />
<path d="M62.2300 83.8200
L62.2300 39.3700
" />
<path d="M35.5600 91.4400
L54.6100 91.4400
" />
<path d="M59.6900 58.4200
L77.4700 58.4200
" />
<path d="M107.9500 77.4700
L125.7300 77.4700
" />
<path d="M115.5700 85.0900
L125.7300 85.0900
" />
<path d="M110.4900 80.0100
L125.7300 80.0100
" />
<path d="M113.0300 82.5500
L125.7300 82.5500
" />
<path d="M52.0700 68.5800
L52.0700 106.6800
" />
<path d="M54.6100 88.9000
L54.6100 77.4700
" />
<path d="M54.6100 77.4700
L77.4700 77.4700
" />
<path d="M54.6100 96.5200
L77.4700 96.5200
" />
<path d="M44.4500 96.5200
L44.4500 134.6200
" />
<path d="M50.8000 71.1200
L50.8000 125.7300
" />
<path d="M48.2600 73.6600
L48.2600 144.7800
" />
<path d="M45.7200 76.2000
L45.7200 163.8300
" />
<path d="M93.9800 54.6100
L110.4900 54.6100
" />
<path d="M93.9800 35.5600
L111.7600 35.5600
" />
<path d="M111.7600 35.5600
L111.7600 67.3100
" />
<path d="M110.4900 54.6100
L110.4900 69.8500
" />
<path d="M43.1800 99.0600
L43.1800 153.6700
" />
<path d="M93.9800 130.8100
L110.4900 130.8100
" />
<path d="M35.5600 71.1200
L50.8000 71.1200
" />
<path d="M35.5600 68.5800
L52.0700 68.5800
" />
<path d="M35.5600 60.9600
L55.8800 60.9600
" />
<path d="M35.5600 58.4200
L50.8000 58.4200
" />
<path d="M35.5600 66.0400
L53.3400 66.0400
" />
<path d="M53.3400 66.0400
L53.3400 87.6300
" />
<path d="M59.6900 86.3600
L59.6900 58.4200
" />
<path d="M35.5600 63.5000
L57.1500 63.5000
" />
<path d="M57.1500 63.5000
L57.1500 68.5800
" />
<path d="M35.5600 76.2000
L45.7200 76.2000
" />
<path d="M55.8800 49.5300
L77.4700 49.5300
" />
<path d="M55.8800 60.9600
L55.8800 49.5300
" />
<path d="M62.2300 39.3700
L77.4700 39.3700
" />
<path d="M50.8000 58.4200
L50.8000 30.4800
" />
<path d="M50.8000 30.4800
L77.4700 30.4800
" />
<path d="M93.9800 149.8600
L113.0300 149.8600
" />
<path d="M52.0700 106.6800
L77.4700 106.6800
" />
<path d="M93.9800 168.9100
L115.5700 168.9100
" />
<path d="M50.8000 125.7300
L77.4700 125.7300
" />
<path d="M35.5600 73.6600
L48.2600 73.6600
" />
<path d="M48.2600 144.7800
L77.4700 144.7800
" />
<path d="M45.7200 163.8300
L77.4700 163.8300
" />
<path d="M53.3400 115.5700
L77.4700 115.5700
" />
<path d="M43.1800 153.6700
L77.4700 153.6700
" />
<path d="M41.9100 101.6000
L41.9100 172.7200
" />
<path d="M41.9100 172.7200
L77.4700 172.7200
" />
<path d="M44.4500 134.6200
L77.4700 134.6200
" />
<path d="M35.5600 99.0600
L43.1800 99.0600
" />
<path d="M54.6100 91.4400
L54.6100 96.5200
" />
<path d="M35.5600 96.5200
L44.4500 96.5200
" />
<path d="M35.5600 101.6000
L41.9100 101.6000
" />
<path d="M35.5600 88.9000
L54.6100 88.9000
" />
</g> 
</svg>
