<?xml version="1.0" standalone="no"?>
 <!DOCTYPE svg PUBLIC "-//W3C//DTD SVG 1.1//EN" 
 "http://www.w3.org/Graphics/SVG/1.1/DTD/svg11.dtd"> 
<svg
  xmlns:svg="http://www.w3.org/2000/svg"
  xmlns="http://www.w3.org/2000/svg"
  xmlns:xlink="http://www.w3.org/1999/xlink"
  version="1.1"
  width="210.0072mm" height="148.0058mm" viewBox="0.0000 0.0000 210.0072 148.0058">
<title>SVG Image created as flags.svg date 2026/01/14 19:28:05 </title>
  <desc>Image generated by Eeschema-SVG </desc>
<g style="fill:#000000; fill-opacity:1.0000;stroke:#000000; stroke-opacity:1.0000;
stroke-linecap:round; stroke-linejoin:round;"
 transform="translate(0 0) scale(1 1)">
</g>
<g style="fill:none; 
stroke:#840000; stroke-width:0.1524; stroke-opacity:1; 
stroke-linecap:round; stroke-linejoin:round;">
<rect x="116.205000" y="29.210000" width="14.605000" height="17.145000" rx="0.000000" />
<rect x="36.195000" y="28.575000" width="21.590000" height="15.875000" rx="0.000000" />
<rect x="149.225000" y="52.070000" width="14.605000" height="17.145000" rx="0.000000" />
</g>
<g style="fill:none; 
stroke:#840000; stroke-width:0.1524; stroke-opacity:1; 
stroke-linecap:round; stroke-linejoin:round;">
<rect x="116.205000" y="29.210000" width="14.605000" height="17.145000" rx="0.000000" />
</g>
<g style="fill:none; 
stroke:#006464; stroke-width:0.1524; stroke-opacity:1; 
stroke-linecap:round; stroke-linejoin:round;">
<text x="117.6655" y="33.6550"
textLength="1.4732" font-size="1.6933" lengthAdjust="spacingAndGlyphs"
text-anchor="start" opacity="0" stroke-opacity="0">B</text>
<g class="stroked-text"><desc>B</desc>
<path d="M118.4914 32.9343
L118.6728 32.9948
" />
<path d="M118.6728 32.9948
L118.7333 33.0552
" />
<path d="M118.7333 33.0552
L118.7937 33.1762
" />
<path d="M118.7937 33.1762
L118.7937 33.3576
" />
<path d="M118.7937 33.3576
L118.7333 33.4786
" />
<path d="M118.7333 33.4786
L118.6728 33.5391
" />
<path d="M118.6728 33.5391
L118.5518 33.5995
" />
<path d="M118.5518 33.5995
L118.0680 33.5995
" />
<path d="M118.0680 33.5995
L118.0680 32.3295
" />
<path d="M118.0680 32.3295
L118.4914 32.3295
" />
<path d="M118.4914 32.3295
L118.6123 32.3900
" />
<path d="M118.6123 32.3900
L118.6728 32.4505
" />
<path d="M118.6728 32.4505
L118.7333 32.5714
" />
<path d="M118.7333 32.5714
L118.7333 32.6924
" />
<path d="M118.7333 32.6924
L118.6728 32.8133
" />
<path d="M118.6728 32.8133
L118.6123 32.8738
" />
<path d="M118.6123 32.8738
L118.4914 32.9343
" />
<path d="M118.4914 32.9343
L118.0680 32.9343
" />
</g><path style="fill:none; 
stroke:#006464; stroke-width:0.1524; stroke-opacity:1; 
stroke-linecap:round; stroke-linejoin:round;fill:none"
d="M 117.4750,33.0200
116.8400,32.3850
116.2050,32.3850
116.2050,33.6550
116.8400,33.6550
Z" /> 
<text x="117.6655" y="42.5450"
textLength="1.2918" font-size="1.6933" lengthAdjust="spacingAndGlyphs"
text-anchor="start" opacity="0" stroke-opacity="0">A</text>
<g class="stroked-text"><desc>A</desc>
<path d="M118.0076 42.1267
L118.6123 42.1267
" />
<path d="M117.8866 42.4895
L118.3099 41.2195
" />
<path d="M118.3099 41.2195
L118.7333 42.4895
" />
</g><path style="fill:none; 
stroke:#006464; stroke-width:0.1524; stroke-opacity:1; 
stroke-linecap:round; stroke-linejoin:round;fill:none"
d="M 117.4750,41.9100
116.8400,41.2750
116.2050,41.2750
116.2050,42.5450
116.8400,42.5450
Z" /> 
<text x="129.3495" y="38.7350"
textLength="1.2918" font-size="1.6933" lengthAdjust="spacingAndGlyphs"
text-anchor="end" opacity="0" stroke-opacity="0">Y</text>
<g class="stroked-text"><desc>Y</desc>
<path d="M128.7049 38.0748
L128.7049 38.6795
" />
<path d="M128.2816 37.4095
L128.7049 38.0748
" />
<path d="M128.7049 38.0748
L129.1283 37.4095
" />
</g><path style="fill:none; 
stroke:#006464; stroke-width:0.1524; stroke-opacity:1; 
stroke-linecap:round; stroke-linejoin:round;fill:none"
d="M 130.8100,38.1000
130.1750,37.4650
129.5400,37.4650
129.5400,38.7350
130.1750,38.7350
Z" /> 
<text x="116.2050" y="28.4984"
textLength="6.6740" font-size="1.6933" lengthAdjust="spacingAndGlyphs"
text-anchor="start" opacity="0" stroke-opacity="0">nor2_1</text>
<g class="stroked-text"><desc>nor2_1</desc>
<path d="M116.6075 27.4883
L116.6075 28.3349
" />
<path d="M116.6075 27.6092
L116.6680 27.5487
" />
<path d="M116.6680 27.5487
L116.7890 27.4883
" />
<path d="M116.7890 27.4883
L116.9704 27.4883
" />
<path d="M116.9704 27.4883
L117.0913 27.5487
" />
<path d="M117.0913 27.5487
L117.1518 27.6697
" />
<path d="M117.1518 27.6697
L117.1518 28.3349
" />
<path d="M117.9380 28.3349
L117.8170 28.2745
" />
<path d="M117.8170 28.2745
L117.7565 28.2140
" />
<path d="M117.7565 28.2140
L117.6961 28.0930
" />
<path d="M117.6961 28.0930
L117.6961 27.7302
" />
<path d="M117.6961 27.7302
L117.7565 27.6092
" />
<path d="M117.7565 27.6092
L117.8170 27.5487
" />
<path d="M117.8170 27.5487
L117.9380 27.4883
" />
<path d="M117.9380 27.4883
L118.1194 27.4883
" />
<path d="M118.1194 27.4883
L118.2403 27.5487
" />
<path d="M118.2403 27.5487
L118.3008 27.6092
" />
<path d="M118.3008 27.6092
L118.3613 27.7302
" />
<path d="M118.3613 27.7302
L118.3613 28.0930
" />
<path d="M118.3613 28.0930
L118.3008 28.2140
" />
<path d="M118.3008 28.2140
L118.2403 28.2745
" />
<path d="M118.2403 28.2745
L118.1194 28.3349
" />
<path d="M118.1194 28.3349
L117.9380 28.3349
" />
<path d="M118.9055 28.3349
L118.9055 27.4883
" />
<path d="M118.9055 27.7302
L118.9660 27.6092
" />
<path d="M118.9660 27.6092
L119.0265 27.5487
" />
<path d="M119.0265 27.5487
L119.1474 27.4883
" />
<path d="M119.1474 27.4883
L119.2684 27.4883
" />
<path d="M119.6313 27.1859
L119.6917 27.1254
" />
<path d="M119.6917 27.1254
L119.8127 27.0649
" />
<path d="M119.8127 27.0649
L120.1151 27.0649
" />
<path d="M120.1151 27.0649
L120.2360 27.1254
" />
<path d="M120.2360 27.1254
L120.2965 27.1859
" />
<path d="M120.2965 27.1859
L120.3570 27.3068
" />
<path d="M120.3570 27.3068
L120.3570 27.4278
" />
<path d="M120.3570 27.4278
L120.2965 27.6092
" />
<path d="M120.2965 27.6092
L119.5708 28.3349
" />
<path d="M119.5708 28.3349
L120.3570 28.3349
" />
<path d="M120.5989 28.4559
L121.5665 28.4559
" />
<path d="M122.5341 28.3349
L121.8084 28.3349
" />
<path d="M122.1712 28.3349
L122.1712 27.0649
" />
<path d="M122.1712 27.0649
L122.0503 27.2464
" />
<path d="M122.0503 27.2464
L121.9293 27.3673
" />
<path d="M121.9293 27.3673
L121.8084 27.4278
" />
</g></g>
<g style="fill:none; 
stroke:#840000; stroke-width:0.1524; stroke-opacity:1; 
stroke-linecap:round; stroke-linejoin:round;">
<rect x="36.195000" y="28.575000" width="21.590000" height="15.875000" rx="0.000000" />
</g>
<g style="fill:none; 
stroke:#006464; stroke-width:0.1524; stroke-opacity:1; 
stroke-linecap:round; stroke-linejoin:round;">
<g transform="rotate(-90.000000 45.7200 42.9895)">
<text x="45.7200" y="43.6245"
textLength="2.5013" font-size="1.6933" lengthAdjust="spacingAndGlyphs"
text-anchor="start" opacity="0" stroke-opacity="0">A3</text>
</g>
<g class="stroked-text"><desc>A3</desc>
<path d="M45.9367 42.6473
L45.9367 42.0426
" />
<path d="M46.2995 42.7683
L45.0295 42.3450
" />
<path d="M45.0295 42.3450
L46.2995 41.9216
" />
<path d="M45.0295 41.6192
L45.0295 40.8330
" />
<path d="M45.0295 40.8330
L45.5133 41.2564
" />
<path d="M45.5133 41.2564
L45.5133 41.0749
" />
<path d="M45.5133 41.0749
L45.5738 40.9540
" />
<path d="M45.5738 40.9540
L45.6343 40.8935
" />
<path d="M45.6343 40.8935
L45.7552 40.8330
" />
<path d="M45.7552 40.8330
L46.0576 40.8330
" />
<path d="M46.0576 40.8330
L46.1786 40.8935
" />
<path d="M46.1786 40.8935
L46.2391 40.9540
" />
<path d="M46.2391 40.9540
L46.2995 41.0749
" />
<path d="M46.2995 41.0749
L46.2995 41.4378
" />
<path d="M46.2995 41.4378
L46.2391 41.5587
" />
<path d="M46.2391 41.5587
L46.1786 41.6192
" />
</g><path style="fill:none; 
stroke:#006464; stroke-width:0.1524; stroke-opacity:1; 
stroke-linecap:round; stroke-linejoin:round;fill:none"
d="M 45.7200,43.1800
46.3550,43.8150
46.3550,44.4500
45.0850,44.4500
45.0850,43.8150
Z" /> 
<g transform="rotate(-90.000000 55.8800 42.9895)">
<text x="55.8800" y="43.6245"
textLength="2.5013" font-size="1.6933" lengthAdjust="spacingAndGlyphs"
text-anchor="start" opacity="0" stroke-opacity="0">A7</text>
</g>
<g class="stroked-text"><desc>A7</desc>
<path d="M56.0967 42.6473
L56.0967 42.0426
" />
<path d="M56.4595 42.7683
L55.1895 42.3450
" />
<path d="M55.1895 42.3450
L56.4595 41.9216
" />
<path d="M55.1895 41.6192
L55.1895 40.7726
" />
<path d="M55.1895 40.7726
L56.4595 41.3168
" />
</g><path style="fill:none; 
stroke:#006464; stroke-width:0.1524; stroke-opacity:1; 
stroke-linecap:round; stroke-linejoin:round;fill:none"
d="M 55.8800,43.1800
56.5150,43.8150
56.5150,44.4500
55.2450,44.4500
55.2450,43.8150
Z" /> 
<g transform="rotate(-90.000000 50.8000 42.9895)">
<text x="50.8000" y="43.6245"
textLength="2.5013" font-size="1.6933" lengthAdjust="spacingAndGlyphs"
text-anchor="start" opacity="0" stroke-opacity="0">A5</text>
</g>
<g class="stroked-text"><desc>A5</desc>
<path d="M51.0167 42.6473
L51.0167 42.0426
" />
<path d="M51.3795 42.7683
L50.1095 42.3450
" />
<path d="M50.1095 42.3450
L51.3795 41.9216
" />
<path d="M50.1095 40.8935
L50.1095 41.4983
" />
<path d="M50.1095 41.4983
L50.7143 41.5587
" />
<path d="M50.7143 41.5587
L50.6538 41.4983
" />
<path d="M50.6538 41.4983
L50.5933 41.3773
" />
<path d="M50.5933 41.3773
L50.5933 41.0749
" />
<path d="M50.5933 41.0749
L50.6538 40.9540
" />
<path d="M50.6538 40.9540
L50.7143 40.8935
" />
<path d="M50.7143 40.8935
L50.8352 40.8330
" />
<path d="M50.8352 40.8330
L51.1376 40.8330
" />
<path d="M51.1376 40.8330
L51.2586 40.8935
" />
<path d="M51.2586 40.8935
L51.3191 40.9540
" />
<path d="M51.3191 40.9540
L51.3795 41.0749
" />
<path d="M51.3795 41.0749
L51.3795 41.3773
" />
<path d="M51.3795 41.3773
L51.3191 41.4983
" />
<path d="M51.3191 41.4983
L51.2586 41.5587
" />
</g><path style="fill:none; 
stroke:#006464; stroke-width:0.1524; stroke-opacity:1; 
stroke-linecap:round; stroke-linejoin:round;fill:none"
d="M 50.8000,43.1800
51.4350,43.8150
51.4350,44.4500
50.1650,44.4500
50.1650,43.8150
Z" /> 
<g transform="rotate(-90.000000 48.2600 42.9895)">
<text x="48.2600" y="43.6245"
textLength="2.5013" font-size="1.6933" lengthAdjust="spacingAndGlyphs"
text-anchor="start" opacity="0" stroke-opacity="0">A4</text>
</g>
<g class="stroked-text"><desc>A4</desc>
<path d="M48.4767 42.6473
L48.4767 42.0426
" />
<path d="M48.8395 42.7683
L47.5695 42.3450
" />
<path d="M47.5695 42.3450
L48.8395 41.9216
" />
<path d="M47.9929 40.9540
L48.8395 40.9540
" />
<path d="M47.5091 41.2564
L48.4162 41.5587
" />
<path d="M48.4162 41.5587
L48.4162 40.7726
" />
</g><path style="fill:none; 
stroke:#006464; stroke-width:0.1524; stroke-opacity:1; 
stroke-linecap:round; stroke-linejoin:round;fill:none"
d="M 48.2600,43.1800
48.8950,43.8150
48.8950,44.4500
47.6250,44.4500
47.6250,43.8150
Z" /> 
<g transform="rotate(-90.000000 40.6400 42.9895)">
<text x="40.6400" y="43.6245"
textLength="2.5013" font-size="1.6933" lengthAdjust="spacingAndGlyphs"
text-anchor="start" opacity="0" stroke-opacity="0">A1</text>
</g>
<g class="stroked-text"><desc>A1</desc>
<path d="M40.8567 42.6473
L40.8567 42.0426
" />
<path d="M41.2195 42.7683
L39.9495 42.3450
" />
<path d="M39.9495 42.3450
L41.2195 41.9216
" />
<path d="M41.2195 40.8330
L41.2195 41.5587
" />
<path d="M41.2195 41.1959
L39.9495 41.1959
" />
<path d="M39.9495 41.1959
L40.1310 41.3168
" />
<path d="M40.1310 41.3168
L40.2519 41.4378
" />
<path d="M40.2519 41.4378
L40.3124 41.5587
" />
</g><path style="fill:none; 
stroke:#006464; stroke-width:0.1524; stroke-opacity:1; 
stroke-linecap:round; stroke-linejoin:round;fill:none"
d="M 40.6400,43.1800
41.2750,43.8150
41.2750,44.4500
40.0050,44.4500
40.0050,43.8150
Z" /> 
<g transform="rotate(-90.000000 45.7200 30.0355)">
<text x="45.7200" y="30.6705"
textLength="1.2918" font-size="1.6933" lengthAdjust="spacingAndGlyphs"
text-anchor="end" opacity="0" stroke-opacity="0">Y</text>
</g>
<g class="stroked-text"><desc>Y</desc>
<path d="M45.6948 30.6800
L46.2995 30.6800
" />
<path d="M45.0295 31.1033
L45.6948 30.6800
" />
<path d="M45.6948 30.6800
L45.0295 30.2566
" />
</g><path style="fill:none; 
stroke:#006464; stroke-width:0.1524; stroke-opacity:1; 
stroke-linecap:round; stroke-linejoin:round;fill:none"
d="M 45.7200,28.5750
46.3550,29.2100
46.3550,29.8450
45.0850,29.8450
45.0850,29.2100
Z" /> 
<g transform="rotate(-90.000000 38.1000 42.9895)">
<text x="38.1000" y="43.6245"
textLength="2.5013" font-size="1.6933" lengthAdjust="spacingAndGlyphs"
text-anchor="start" opacity="0" stroke-opacity="0">A0</text>
</g>
<g class="stroked-text"><desc>A0</desc>
<path d="M38.3167 42.6473
L38.3167 42.0426
" />
<path d="M38.6795 42.7683
L37.4095 42.3450
" />
<path d="M37.4095 42.3450
L38.6795 41.9216
" />
<path d="M37.4095 41.2564
L37.4095 41.1354
" />
<path d="M37.4095 41.1354
L37.4700 41.0145
" />
<path d="M37.4700 41.0145
L37.5305 40.9540
" />
<path d="M37.5305 40.9540
L37.6514 40.8935
" />
<path d="M37.6514 40.8935
L37.8933 40.8330
" />
<path d="M37.8933 40.8330
L38.1957 40.8330
" />
<path d="M38.1957 40.8330
L38.4376 40.8935
" />
<path d="M38.4376 40.8935
L38.5586 40.9540
" />
<path d="M38.5586 40.9540
L38.6191 41.0145
" />
<path d="M38.6191 41.0145
L38.6795 41.1354
" />
<path d="M38.6795 41.1354
L38.6795 41.2564
" />
<path d="M38.6795 41.2564
L38.6191 41.3773
" />
<path d="M38.6191 41.3773
L38.5586 41.4378
" />
<path d="M38.5586 41.4378
L38.4376 41.4983
" />
<path d="M38.4376 41.4983
L38.1957 41.5587
" />
<path d="M38.1957 41.5587
L37.8933 41.5587
" />
<path d="M37.8933 41.5587
L37.6514 41.4983
" />
<path d="M37.6514 41.4983
L37.5305 41.4378
" />
<path d="M37.5305 41.4378
L37.4700 41.3773
" />
<path d="M37.4700 41.3773
L37.4095 41.2564
" />
</g><path style="fill:none; 
stroke:#006464; stroke-width:0.1524; stroke-opacity:1; 
stroke-linecap:round; stroke-linejoin:round;fill:none"
d="M 38.1000,43.1800
38.7350,43.8150
38.7350,44.4500
37.4650,44.4500
37.4650,43.8150
Z" /> 
<g transform="rotate(-90.000000 43.1800 42.9895)">
<text x="43.1800" y="43.6245"
textLength="2.5013" font-size="1.6933" lengthAdjust="spacingAndGlyphs"
text-anchor="start" opacity="0" stroke-opacity="0">A2</text>
</g>
<g class="stroked-text"><desc>A2</desc>
<path d="M43.3967 42.6473
L43.3967 42.0426
" />
<path d="M43.7595 42.7683
L42.4895 42.3450
" />
<path d="M42.4895 42.3450
L43.7595 41.9216
" />
<path d="M42.6105 41.5587
L42.5500 41.4983
" />
<path d="M42.5500 41.4983
L42.4895 41.3773
" />
<path d="M42.4895 41.3773
L42.4895 41.0749
" />
<path d="M42.4895 41.0749
L42.5500 40.9540
" />
<path d="M42.5500 40.9540
L42.6105 40.8935
" />
<path d="M42.6105 40.8935
L42.7314 40.8330
" />
<path d="M42.7314 40.8330
L42.8524 40.8330
" />
<path d="M42.8524 40.8330
L43.0338 40.8935
" />
<path d="M43.0338 40.8935
L43.7595 41.6192
" />
<path d="M43.7595 41.6192
L43.7595 40.8330
" />
</g><path style="fill:none; 
stroke:#006464; stroke-width:0.1524; stroke-opacity:1; 
stroke-linecap:round; stroke-linejoin:round;fill:none"
d="M 43.1800,43.1800
43.8150,43.8150
43.8150,44.4500
42.5450,44.4500
42.5450,43.8150
Z" /> 
<g transform="rotate(-90.000000 53.3400 42.9895)">
<text x="53.3400" y="43.6245"
textLength="2.5013" font-size="1.6933" lengthAdjust="spacingAndGlyphs"
text-anchor="start" opacity="0" stroke-opacity="0">A6</text>
</g>
<g class="stroked-text"><desc>A6</desc>
<path d="M53.5567 42.6473
L53.5567 42.0426
" />
<path d="M53.9195 42.7683
L52.6495 42.3450
" />
<path d="M52.6495 42.3450
L53.9195 41.9216
" />
<path d="M52.6495 40.9540
L52.6495 41.1959
" />
<path d="M52.6495 41.1959
L52.7100 41.3168
" />
<path d="M52.7100 41.3168
L52.7705 41.3773
" />
<path d="M52.7705 41.3773
L52.9519 41.4983
" />
<path d="M52.9519 41.4983
L53.1938 41.5587
" />
<path d="M53.1938 41.5587
L53.6776 41.5587
" />
<path d="M53.6776 41.5587
L53.7986 41.4983
" />
<path d="M53.7986 41.4983
L53.8591 41.4378
" />
<path d="M53.8591 41.4378
L53.9195 41.3168
" />
<path d="M53.9195 41.3168
L53.9195 41.0749
" />
<path d="M53.9195 41.0749
L53.8591 40.9540
" />
<path d="M53.8591 40.9540
L53.7986 40.8935
" />
<path d="M53.7986 40.8935
L53.6776 40.8330
" />
<path d="M53.6776 40.8330
L53.3752 40.8330
" />
<path d="M53.3752 40.8330
L53.2543 40.8935
" />
<path d="M53.2543 40.8935
L53.1938 40.9540
" />
<path d="M53.1938 40.9540
L53.1333 41.0749
" />
<path d="M53.1333 41.0749
L53.1333 41.3168
" />
<path d="M53.1333 41.3168
L53.1938 41.4378
" />
<path d="M53.1938 41.4378
L53.2543 41.4983
" />
<path d="M53.2543 41.4983
L53.3752 41.5587
" />
</g><path style="fill:none; 
stroke:#006464; stroke-width:0.1524; stroke-opacity:1; 
stroke-linecap:round; stroke-linejoin:round;fill:none"
d="M 53.3400,43.1800
53.9750,43.8150
53.9750,44.4500
52.7050,44.4500
52.7050,43.8150
Z" /> 
<text x="36.3220" y="27.9400"
textLength="5.5250" font-size="1.6933" lengthAdjust="spacingAndGlyphs"
text-anchor="start" opacity="0" stroke-opacity="0">or8_1</text>
<g class="stroked-text"><desc>or8_1</desc>
<path d="M36.9060 27.7765
L36.7850 27.7161
" />
<path d="M36.7850 27.7161
L36.7245 27.6556
" />
<path d="M36.7245 27.6556
L36.6641 27.5346
" />
<path d="M36.6641 27.5346
L36.6641 27.1718
" />
<path d="M36.6641 27.1718
L36.7245 27.0508
" />
<path d="M36.7245 27.0508
L36.7850 26.9903
" />
<path d="M36.7850 26.9903
L36.9060 26.9299
" />
<path d="M36.9060 26.9299
L37.0874 26.9299
" />
<path d="M37.0874 26.9299
L37.2083 26.9903
" />
<path d="M37.2083 26.9903
L37.2688 27.0508
" />
<path d="M37.2688 27.0508
L37.3293 27.1718
" />
<path d="M37.3293 27.1718
L37.3293 27.5346
" />
<path d="M37.3293 27.5346
L37.2688 27.6556
" />
<path d="M37.2688 27.6556
L37.2083 27.7161
" />
<path d="M37.2083 27.7161
L37.0874 27.7765
" />
<path d="M37.0874 27.7765
L36.9060 27.7765
" />
<path d="M37.8735 27.7765
L37.8735 26.9299
" />
<path d="M37.8735 27.1718
L37.9340 27.0508
" />
<path d="M37.9340 27.0508
L37.9945 26.9903
" />
<path d="M37.9945 26.9903
L38.1154 26.9299
" />
<path d="M38.1154 26.9299
L38.2364 26.9299
" />
<path d="M38.8412 27.0508
L38.7202 26.9903
" />
<path d="M38.7202 26.9903
L38.6597 26.9299
" />
<path d="M38.6597 26.9299
L38.5993 26.8089
" />
<path d="M38.5993 26.8089
L38.5993 26.7484
" />
<path d="M38.5993 26.7484
L38.6597 26.6275
" />
<path d="M38.6597 26.6275
L38.7202 26.5670
" />
<path d="M38.7202 26.5670
L38.8412 26.5065
" />
<path d="M38.8412 26.5065
L39.0831 26.5065
" />
<path d="M39.0831 26.5065
L39.2040 26.5670
" />
<path d="M39.2040 26.5670
L39.2645 26.6275
" />
<path d="M39.2645 26.6275
L39.3250 26.7484
" />
<path d="M39.3250 26.7484
L39.3250 26.8089
" />
<path d="M39.3250 26.8089
L39.2645 26.9299
" />
<path d="M39.2645 26.9299
L39.2040 26.9903
" />
<path d="M39.2040 26.9903
L39.0831 27.0508
" />
<path d="M39.0831 27.0508
L38.8412 27.0508
" />
<path d="M38.8412 27.0508
L38.7202 27.1113
" />
<path d="M38.7202 27.1113
L38.6597 27.1718
" />
<path d="M38.6597 27.1718
L38.5993 27.2927
" />
<path d="M38.5993 27.2927
L38.5993 27.5346
" />
<path d="M38.5993 27.5346
L38.6597 27.6556
" />
<path d="M38.6597 27.6556
L38.7202 27.7161
" />
<path d="M38.7202 27.7161
L38.8412 27.7765
" />
<path d="M38.8412 27.7765
L39.0831 27.7765
" />
<path d="M39.0831 27.7765
L39.2040 27.7161
" />
<path d="M39.2040 27.7161
L39.2645 27.6556
" />
<path d="M39.2645 27.6556
L39.3250 27.5346
" />
<path d="M39.3250 27.5346
L39.3250 27.2927
" />
<path d="M39.3250 27.2927
L39.2645 27.1718
" />
<path d="M39.2645 27.1718
L39.2040 27.1113
" />
<path d="M39.2040 27.1113
L39.0831 27.0508
" />
<path d="M39.5669 27.8975
L40.5345 27.8975
" />
<path d="M41.5021 27.7765
L40.7764 27.7765
" />
<path d="M41.1392 27.7765
L41.1392 26.5065
" />
<path d="M41.1392 26.5065
L41.0183 26.6880
" />
<path d="M41.0183 26.6880
L40.8973 26.8089
" />
<path d="M40.8973 26.8089
L40.7764 26.8694
" />
</g></g>
<g style="fill:none; 
stroke:#840000; stroke-width:0.1524; stroke-opacity:1; 
stroke-linecap:round; stroke-linejoin:round;">
<rect x="149.225000" y="52.070000" width="14.605000" height="17.145000" rx="0.000000" />
</g>
<g style="fill:none; 
stroke:#006464; stroke-width:0.1524; stroke-opacity:1; 
stroke-linecap:round; stroke-linejoin:round;">
<text x="150.6855" y="56.5150"
textLength="1.4732" font-size="1.6933" lengthAdjust="spacingAndGlyphs"
text-anchor="start" opacity="0" stroke-opacity="0">B</text>
<g class="stroked-text"><desc>B</desc>
<path d="M151.5114 55.7943
L151.6928 55.8548
" />
<path d="M151.6928 55.8548
L151.7533 55.9152
" />
<path d="M151.7533 55.9152
L151.8137 56.0362
" />
<path d="M151.8137 56.0362
L151.8137 56.2176
" />
<path d="M151.8137 56.2176
L151.7533 56.3386
" />
<path d="M151.7533 56.3386
L151.6928 56.3991
" />
<path d="M151.6928 56.3991
L151.5718 56.4595
" />
<path d="M151.5718 56.4595
L151.0880 56.4595
" />
<path d="M151.0880 56.4595
L151.0880 55.1895
" />
<path d="M151.0880 55.1895
L151.5114 55.1895
" />
<path d="M151.5114 55.1895
L151.6323 55.2500
" />
<path d="M151.6323 55.2500
L151.6928 55.3105
" />
<path d="M151.6928 55.3105
L151.7533 55.4314
" />
<path d="M151.7533 55.4314
L151.7533 55.5524
" />
<path d="M151.7533 55.5524
L151.6928 55.6733
" />
<path d="M151.6928 55.6733
L151.6323 55.7338
" />
<path d="M151.6323 55.7338
L151.5114 55.7943
" />
<path d="M151.5114 55.7943
L151.0880 55.7943
" />
</g><path style="fill:none; 
stroke:#006464; stroke-width:0.1524; stroke-opacity:1; 
stroke-linecap:round; stroke-linejoin:round;fill:none"
d="M 150.4950,55.8800
149.8600,55.2450
149.2250,55.2450
149.2250,56.5150
149.8600,56.5150
Z" /> 
<text x="150.6855" y="65.4050"
textLength="1.2918" font-size="1.6933" lengthAdjust="spacingAndGlyphs"
text-anchor="start" opacity="0" stroke-opacity="0">A</text>
<g class="stroked-text"><desc>A</desc>
<path d="M151.0276 64.9867
L151.6323 64.9867
" />
<path d="M150.9066 65.3495
L151.3299 64.0795
" />
<path d="M151.3299 64.0795
L151.7533 65.3495
" />
</g><path style="fill:none; 
stroke:#006464; stroke-width:0.1524; stroke-opacity:1; 
stroke-linecap:round; stroke-linejoin:round;fill:none"
d="M 150.4950,64.7700
149.8600,64.1350
149.2250,64.1350
149.2250,65.4050
149.8600,65.4050
Z" /> 
<text x="162.3695" y="61.5950"
textLength="1.2918" font-size="1.6933" lengthAdjust="spacingAndGlyphs"
text-anchor="end" opacity="0" stroke-opacity="0">Y</text>
<g class="stroked-text"><desc>Y</desc>
<path d="M161.7249 60.9348
L161.7249 61.5395
" />
<path d="M161.3016 60.2695
L161.7249 60.9348
" />
<path d="M161.7249 60.9348
L162.1483 60.2695
" />
</g><path style="fill:none; 
stroke:#006464; stroke-width:0.1524; stroke-opacity:1; 
stroke-linecap:round; stroke-linejoin:round;fill:none"
d="M 163.8300,60.9600
163.1950,60.3250
162.5600,60.3250
162.5600,61.5950
163.1950,61.5950
Z" /> 
<text x="149.2250" y="51.3584"
textLength="6.6740" font-size="1.6933" lengthAdjust="spacingAndGlyphs"
text-anchor="start" opacity="0" stroke-opacity="0">nor2_2</text>
<g class="stroked-text"><desc>nor2_2</desc>
<path d="M149.6275 50.3483
L149.6275 51.1949
" />
<path d="M149.6275 50.4692
L149.6880 50.4087
" />
<path d="M149.6880 50.4087
L149.8090 50.3483
" />
<path d="M149.8090 50.3483
L149.9904 50.3483
" />
<path d="M149.9904 50.3483
L150.1113 50.4087
" />
<path d="M150.1113 50.4087
L150.1718 50.5297
" />
<path d="M150.1718 50.5297
L150.1718 51.1949
" />
<path d="M150.9580 51.1949
L150.8370 51.1345
" />
<path d="M150.8370 51.1345
L150.7765 51.0740
" />
<path d="M150.7765 51.0740
L150.7161 50.9530
" />
<path d="M150.7161 50.9530
L150.7161 50.5902
" />
<path d="M150.7161 50.5902
L150.7765 50.4692
" />
<path d="M150.7765 50.4692
L150.8370 50.4087
" />
<path d="M150.8370 50.4087
L150.9580 50.3483
" />
<path d="M150.9580 50.3483
L151.1394 50.3483
" />
<path d="M151.1394 50.3483
L151.2603 50.4087
" />
<path d="M151.2603 50.4087
L151.3208 50.4692
" />
<path d="M151.3208 50.4692
L151.3813 50.5902
" />
<path d="M151.3813 50.5902
L151.3813 50.9530
" />
<path d="M151.3813 50.9530
L151.3208 51.0740
" />
<path d="M151.3208 51.0740
L151.2603 51.1345
" />
<path d="M151.2603 51.1345
L151.1394 51.1949
" />
<path d="M151.1394 51.1949
L150.9580 51.1949
" />
<path d="M151.9255 51.1949
L151.9255 50.3483
" />
<path d="M151.9255 50.5902
L151.9860 50.4692
" />
<path d="M151.9860 50.4692
L152.0465 50.4087
" />
<path d="M152.0465 50.4087
L152.1674 50.3483
" />
<path d="M152.1674 50.3483
L152.2884 50.3483
" />
<path d="M152.6513 50.0459
L152.7117 49.9854
" />
<path d="M152.7117 49.9854
L152.8327 49.9249
" />
<path d="M152.8327 49.9249
L153.1351 49.9249
" />
<path d="M153.1351 49.9249
L153.2560 49.9854
" />
<path d="M153.2560 49.9854
L153.3165 50.0459
" />
<path d="M153.3165 50.0459
L153.3770 50.1668
" />
<path d="M153.3770 50.1668
L153.3770 50.2878
" />
<path d="M153.3770 50.2878
L153.3165 50.4692
" />
<path d="M153.3165 50.4692
L152.5908 51.1949
" />
<path d="M152.5908 51.1949
L153.3770 51.1949
" />
<path d="M153.6189 51.3159
L154.5865 51.3159
" />
<path d="M154.8284 50.0459
L154.8888 49.9854
" />
<path d="M154.8888 49.9854
L155.0098 49.9249
" />
<path d="M155.0098 49.9249
L155.3122 49.9249
" />
<path d="M155.3122 49.9249
L155.4331 49.9854
" />
<path d="M155.4331 49.9854
L155.4936 50.0459
" />
<path d="M155.4936 50.0459
L155.5541 50.1668
" />
<path d="M155.5541 50.1668
L155.5541 50.2878
" />
<path d="M155.5541 50.2878
L155.4936 50.4692
" />
<path d="M155.4936 50.4692
L154.7679 51.1949
" />
<path d="M154.7679 51.1949
L155.5541 51.1949
" />
</g><path style="fill:none; 
stroke:#840000; stroke-width:0.1524; stroke-opacity:1; 
stroke-linecap:round; stroke-linejoin:round;fill:none"
d="M 58.4200,105.4100
58.4200,106.6800
59.6900,106.6800
58.4200,107.9500
57.1500,106.6800
58.4200,106.6800
" /> 
</g>
<g style="fill:none; 
stroke:#840000; stroke-width:0.1524; stroke-opacity:1; 
stroke-linecap:round; stroke-linejoin:round;">
<path d="M58.4200 105.4100
L58.4200 105.4100
" />
</g>
<g style="fill:none; 
stroke:#006464; stroke-width:0.1524; stroke-opacity:1; 
stroke-linecap:round; stroke-linejoin:round;">
<text x="58.4200" y="111.1250"
textLength="4.0737" font-size="1.6933" lengthAdjust="spacingAndGlyphs"
text-anchor="middle" opacity="0" stroke-opacity="0">GND</text>
<g class="stroked-text"><desc>GND</desc>
<path d="M57.4524 109.8600
L57.3314 109.7995
" />
<path d="M57.3314 109.7995
L57.1500 109.7995
" />
<path d="M57.1500 109.7995
L56.9686 109.8600
" />
<path d="M56.9686 109.8600
L56.8476 109.9810
" />
<path d="M56.8476 109.9810
L56.7871 110.1019
" />
<path d="M56.7871 110.1019
L56.7267 110.3438
" />
<path d="M56.7267 110.3438
L56.7267 110.5252
" />
<path d="M56.7267 110.5252
L56.7871 110.7671
" />
<path d="M56.7871 110.7671
L56.8476 110.8881
" />
<path d="M56.8476 110.8881
L56.9686 111.0091
" />
<path d="M56.9686 111.0091
L57.1500 111.0695
" />
<path d="M57.1500 111.0695
L57.2709 111.0695
" />
<path d="M57.2709 111.0695
L57.4524 111.0091
" />
<path d="M57.4524 111.0091
L57.5128 110.9486
" />
<path d="M57.5128 110.9486
L57.5128 110.5252
" />
<path d="M57.5128 110.5252
L57.2709 110.5252
" />
<path d="M58.0571 111.0695
L58.0571 109.7995
" />
<path d="M58.0571 109.7995
L58.7828 111.0695
" />
<path d="M58.7828 111.0695
L58.7828 109.7995
" />
<path d="M59.3876 111.0695
L59.3876 109.7995
" />
<path d="M59.3876 109.7995
L59.6900 109.7995
" />
<path d="M59.6900 109.7995
L59.8714 109.8600
" />
<path d="M59.8714 109.8600
L59.9924 109.9810
" />
<path d="M59.9924 109.9810
L60.0529 110.1019
" />
<path d="M60.0529 110.1019
L60.1133 110.3438
" />
<path d="M60.1133 110.3438
L60.1133 110.5252
" />
<path d="M60.1133 110.5252
L60.0529 110.7671
" />
<path d="M60.0529 110.7671
L59.9924 110.8881
" />
<path d="M59.9924 110.8881
L59.8714 111.0091
" />
<path d="M59.8714 111.0091
L59.6900 111.0695
" />
<path d="M59.6900 111.0695
L59.3876 111.0695
" />
</g></g>
<g style="fill:none; 
stroke:#840000; stroke-width:0.1524; stroke-opacity:1; 
stroke-linecap:round; stroke-linejoin:round;">
<text x="46.1963" y="19.7758"
textLength="5.7670" font-size="1.6933" lengthAdjust="spacingAndGlyphs"
text-anchor="start" opacity="0" stroke-opacity="0">EQ_FL</text>
<g class="stroked-text"><desc>EQ_FL</desc>
<path d="M46.5988 19.0551
L47.0222 19.0551
" />
<path d="M47.2036 19.7203
L46.5988 19.7203
" />
<path d="M46.5988 19.7203
L46.5988 18.4503
" />
<path d="M46.5988 18.4503
L47.2036 18.4503
" />
<path d="M48.5945 19.8413
L48.4735 19.7808
" />
<path d="M48.4735 19.7808
L48.3526 19.6599
" />
<path d="M48.3526 19.6599
L48.1712 19.4784
" />
<path d="M48.1712 19.4784
L48.0502 19.4179
" />
<path d="M48.0502 19.4179
L47.9293 19.4179
" />
<path d="M47.9897 19.7203
L47.8688 19.6599
" />
<path d="M47.8688 19.6599
L47.7478 19.5389
" />
<path d="M47.7478 19.5389
L47.6874 19.2970
" />
<path d="M47.6874 19.2970
L47.6874 18.8737
" />
<path d="M47.6874 18.8737
L47.7478 18.6318
" />
<path d="M47.7478 18.6318
L47.8688 18.5108
" />
<path d="M47.8688 18.5108
L47.9897 18.4503
" />
<path d="M47.9897 18.4503
L48.2316 18.4503
" />
<path d="M48.2316 18.4503
L48.3526 18.5108
" />
<path d="M48.3526 18.5108
L48.4735 18.6318
" />
<path d="M48.4735 18.6318
L48.5340 18.8737
" />
<path d="M48.5340 18.8737
L48.5340 19.2970
" />
<path d="M48.5340 19.2970
L48.4735 19.5389
" />
<path d="M48.4735 19.5389
L48.3526 19.6599
" />
<path d="M48.3526 19.6599
L48.2316 19.7203
" />
<path d="M48.2316 19.7203
L47.9897 19.7203
" />
<path d="M48.7760 19.8413
L49.7436 19.8413
" />
<path d="M50.4693 19.0551
L50.0459 19.0551
" />
<path d="M50.0459 19.7203
L50.0459 18.4503
" />
<path d="M50.0459 18.4503
L50.6507 18.4503
" />
<path d="M51.7393 19.7203
L51.1345 19.7203
" />
<path d="M51.1345 19.7203
L51.1345 18.4503
" />
</g><path style="fill:none; 
stroke:#840000; stroke-width:0.1524; stroke-opacity:1; 
stroke-linecap:round; stroke-linejoin:round;fill:none"
d="M 45.7200,19.0500
45.7200,20.3204
52.6179,20.3204
53.7292,19.0500
52.6179,17.7796
45.7200,17.7796
Z" /> 
</g>
<g style="fill:none; 
stroke:#840000; stroke-width:0.1524; stroke-opacity:1; 
stroke-linecap:round; stroke-linejoin:round;">
<text x="48.1012" y="93.4358"
textLength="9.0327" font-size="1.6933" lengthAdjust="spacingAndGlyphs"
text-anchor="end" opacity="0" stroke-opacity="0">GREAT_FL</text>
<g class="stroked-text"><desc>GREAT_FL</desc>
<path d="M40.1391 92.1708
L40.0181 92.1103
" />
<path d="M40.0181 92.1103
L39.8367 92.1103
" />
<path d="M39.8367 92.1103
L39.6553 92.1708
" />
<path d="M39.6553 92.1708
L39.5343 92.2918
" />
<path d="M39.5343 92.2918
L39.4738 92.4127
" />
<path d="M39.4738 92.4127
L39.4134 92.6546
" />
<path d="M39.4134 92.6546
L39.4134 92.8360
" />
<path d="M39.4134 92.8360
L39.4738 93.0779
" />
<path d="M39.4738 93.0779
L39.5343 93.1989
" />
<path d="M39.5343 93.1989
L39.6553 93.3199
" />
<path d="M39.6553 93.3199
L39.8367 93.3803
" />
<path d="M39.8367 93.3803
L39.9576 93.3803
" />
<path d="M39.9576 93.3803
L40.1391 93.3199
" />
<path d="M40.1391 93.3199
L40.1995 93.2594
" />
<path d="M40.1995 93.2594
L40.1995 92.8360
" />
<path d="M40.1995 92.8360
L39.9576 92.8360
" />
<path d="M41.4695 93.3803
L41.0462 92.7756
" />
<path d="M40.7438 93.3803
L40.7438 92.1103
" />
<path d="M40.7438 92.1103
L41.2276 92.1103
" />
<path d="M41.2276 92.1103
L41.3486 92.1708
" />
<path d="M41.3486 92.1708
L41.4091 92.2313
" />
<path d="M41.4091 92.2313
L41.4695 92.3522
" />
<path d="M41.4695 92.3522
L41.4695 92.5337
" />
<path d="M41.4695 92.5337
L41.4091 92.6546
" />
<path d="M41.4091 92.6546
L41.3486 92.7151
" />
<path d="M41.3486 92.7151
L41.2276 92.7756
" />
<path d="M41.2276 92.7756
L40.7438 92.7756
" />
<path d="M42.0138 92.7151
L42.4372 92.7151
" />
<path d="M42.6186 93.3803
L42.0138 93.3803
" />
<path d="M42.0138 93.3803
L42.0138 92.1103
" />
<path d="M42.0138 92.1103
L42.6186 92.1103
" />
<path d="M43.1024 93.0175
L43.7071 93.0175
" />
<path d="M42.9814 93.3803
L43.4047 92.1103
" />
<path d="M43.4047 92.1103
L43.8281 93.3803
" />
<path d="M44.0700 92.1103
L44.7957 92.1103
" />
<path d="M44.4329 93.3803
L44.4329 92.1103
" />
<path d="M44.9167 93.5013
L45.8843 93.5013
" />
<path d="M46.6100 92.7151
L46.1866 92.7151
" />
<path d="M46.1866 93.3803
L46.1866 92.1103
" />
<path d="M46.1866 92.1103
L46.7914 92.1103
" />
<path d="M47.8800 93.3803
L47.2752 93.3803
" />
<path d="M47.2752 93.3803
L47.2752 92.1103
" />
</g><path style="fill:none; 
stroke:#840000; stroke-width:0.1524; stroke-opacity:1; 
stroke-linecap:round; stroke-linejoin:round;fill:none"
d="M 49.5300,92.7100
48.4187,91.4396
38.2551,91.4396
38.2551,92.7100
38.2551,93.9804
48.4187,93.9804
Z" /> 
</g>
<g style="fill:none; 
stroke:#840000; stroke-width:0.1524; stroke-opacity:1; 
stroke-linecap:round; stroke-linejoin:round;">
<text x="180.1813" y="61.6858"
textLength="9.0327" font-size="1.6933" lengthAdjust="spacingAndGlyphs"
text-anchor="start" opacity="0" stroke-opacity="0">GREAT_FL</text>
<g class="stroked-text"><desc>GREAT_FL</desc>
<path d="M181.2491 60.4208
L181.1281 60.3603
" />
<path d="M181.1281 60.3603
L180.9467 60.3603
" />
<path d="M180.9467 60.3603
L180.7653 60.4208
" />
<path d="M180.7653 60.4208
L180.6443 60.5418
" />
<path d="M180.6443 60.5418
L180.5838 60.6627
" />
<path d="M180.5838 60.6627
L180.5234 60.9046
" />
<path d="M180.5234 60.9046
L180.5234 61.0860
" />
<path d="M180.5234 61.0860
L180.5838 61.3279
" />
<path d="M180.5838 61.3279
L180.6443 61.4489
" />
<path d="M180.6443 61.4489
L180.7653 61.5699
" />
<path d="M180.7653 61.5699
L180.9467 61.6303
" />
<path d="M180.9467 61.6303
L181.0676 61.6303
" />
<path d="M181.0676 61.6303
L181.2491 61.5699
" />
<path d="M181.2491 61.5699
L181.3095 61.5094
" />
<path d="M181.3095 61.5094
L181.3095 61.0860
" />
<path d="M181.3095 61.0860
L181.0676 61.0860
" />
<path d="M182.5795 61.6303
L182.1562 61.0256
" />
<path d="M181.8538 61.6303
L181.8538 60.3603
" />
<path d="M181.8538 60.3603
L182.3376 60.3603
" />
<path d="M182.3376 60.3603
L182.4586 60.4208
" />
<path d="M182.4586 60.4208
L182.5191 60.4813
" />
<path d="M182.5191 60.4813
L182.5795 60.6022
" />
<path d="M182.5795 60.6022
L182.5795 60.7837
" />
<path d="M182.5795 60.7837
L182.5191 60.9046
" />
<path d="M182.5191 60.9046
L182.4586 60.9651
" />
<path d="M182.4586 60.9651
L182.3376 61.0256
" />
<path d="M182.3376 61.0256
L181.8538 61.0256
" />
<path d="M183.1238 60.9651
L183.5472 60.9651
" />
<path d="M183.7286 61.6303
L183.1238 61.6303
" />
<path d="M183.1238 61.6303
L183.1238 60.3603
" />
<path d="M183.1238 60.3603
L183.7286 60.3603
" />
<path d="M184.2124 61.2675
L184.8171 61.2675
" />
<path d="M184.0914 61.6303
L184.5147 60.3603
" />
<path d="M184.5147 60.3603
L184.9381 61.6303
" />
<path d="M185.1800 60.3603
L185.9057 60.3603
" />
<path d="M185.5429 61.6303
L185.5429 60.3603
" />
<path d="M186.0267 61.7513
L186.9943 61.7513
" />
<path d="M187.7200 60.9651
L187.2966 60.9651
" />
<path d="M187.2966 61.6303
L187.2966 60.3603
" />
<path d="M187.2966 60.3603
L187.9014 60.3603
" />
<path d="M188.9900 61.6303
L188.3852 61.6303
" />
<path d="M188.3852 61.6303
L188.3852 60.3603
" />
</g><path style="fill:none; 
stroke:#840000; stroke-width:0.1524; stroke-opacity:1; 
stroke-linecap:round; stroke-linejoin:round;fill:none"
d="M 179.7050,60.9600
179.7050,62.2304
189.8686,62.2304
190.9799,60.9600
189.8686,59.6896
179.7050,59.6896
Z" /> 
</g>
<g style="fill:none; 
stroke:#840000; stroke-width:0.1524; stroke-opacity:1; 
stroke-linecap:round; stroke-linejoin:round;">
<text x="145.2563" y="38.8258"
textLength="7.8836" font-size="1.6933" lengthAdjust="spacingAndGlyphs"
text-anchor="start" opacity="0" stroke-opacity="0">LESS_FL</text>
<g class="stroked-text"><desc>LESS_FL</desc>
<path d="M146.2636 38.7703
L145.6588 38.7703
" />
<path d="M145.6588 38.7703
L145.6588 37.5003
" />
<path d="M146.6869 38.1051
L147.1103 38.1051
" />
<path d="M147.2917 38.7703
L146.6869 38.7703
" />
<path d="M146.6869 38.7703
L146.6869 37.5003
" />
<path d="M146.6869 37.5003
L147.2917 37.5003
" />
<path d="M147.7755 38.7099
L147.9569 38.7703
" />
<path d="M147.9569 38.7703
L148.2593 38.7703
" />
<path d="M148.2593 38.7703
L148.3802 38.7099
" />
<path d="M148.3802 38.7099
L148.4407 38.6494
" />
<path d="M148.4407 38.6494
L148.5012 38.5284
" />
<path d="M148.5012 38.5284
L148.5012 38.4075
" />
<path d="M148.5012 38.4075
L148.4407 38.2865
" />
<path d="M148.4407 38.2865
L148.3802 38.2260
" />
<path d="M148.3802 38.2260
L148.2593 38.1656
" />
<path d="M148.2593 38.1656
L148.0174 38.1051
" />
<path d="M148.0174 38.1051
L147.8964 38.0446
" />
<path d="M147.8964 38.0446
L147.8359 37.9841
" />
<path d="M147.8359 37.9841
L147.7755 37.8632
" />
<path d="M147.7755 37.8632
L147.7755 37.7422
" />
<path d="M147.7755 37.7422
L147.8359 37.6213
" />
<path d="M147.8359 37.6213
L147.8964 37.5608
" />
<path d="M147.8964 37.5608
L148.0174 37.5003
" />
<path d="M148.0174 37.5003
L148.3197 37.5003
" />
<path d="M148.3197 37.5003
L148.5012 37.5608
" />
<path d="M148.9850 38.7099
L149.1664 38.7703
" />
<path d="M149.1664 38.7703
L149.4688 38.7703
" />
<path d="M149.4688 38.7703
L149.5897 38.7099
" />
<path d="M149.5897 38.7099
L149.6502 38.6494
" />
<path d="M149.6502 38.6494
L149.7107 38.5284
" />
<path d="M149.7107 38.5284
L149.7107 38.4075
" />
<path d="M149.7107 38.4075
L149.6502 38.2865
" />
<path d="M149.6502 38.2865
L149.5897 38.2260
" />
<path d="M149.5897 38.2260
L149.4688 38.1656
" />
<path d="M149.4688 38.1656
L149.2269 38.1051
" />
<path d="M149.2269 38.1051
L149.1059 38.0446
" />
<path d="M149.1059 38.0446
L149.0454 37.9841
" />
<path d="M149.0454 37.9841
L148.9850 37.8632
" />
<path d="M148.9850 37.8632
L148.9850 37.7422
" />
<path d="M148.9850 37.7422
L149.0454 37.6213
" />
<path d="M149.0454 37.6213
L149.1059 37.5608
" />
<path d="M149.1059 37.5608
L149.2269 37.5003
" />
<path d="M149.2269 37.5003
L149.5292 37.5003
" />
<path d="M149.5292 37.5003
L149.7107 37.5608
" />
<path d="M149.9526 38.8913
L150.9202 38.8913
" />
<path d="M151.6459 38.1051
L151.2225 38.1051
" />
<path d="M151.2225 38.7703
L151.2225 37.5003
" />
<path d="M151.2225 37.5003
L151.8273 37.5003
" />
<path d="M152.9159 38.7703
L152.3111 38.7703
" />
<path d="M152.3111 38.7703
L152.3111 37.5003
" />
</g><path style="fill:none; 
stroke:#840000; stroke-width:0.1524; stroke-opacity:1; 
stroke-linecap:round; stroke-linejoin:round;fill:none"
d="M 144.7800,38.1000
144.7800,39.3704
153.7945,39.3704
154.9058,38.1000
153.7945,36.8296
144.7800,36.8296
Z" /> 
</g>
<g style="fill:none; 
stroke:#840000; stroke-width:0.1524; stroke-opacity:1; 
stroke-linecap:round; stroke-linejoin:round;">
<text x="48.1012" y="90.8958"
textLength="5.7670" font-size="1.6933" lengthAdjust="spacingAndGlyphs"
text-anchor="end" opacity="0" stroke-opacity="0">EQ_FL</text>
<g class="stroked-text"><desc>EQ_FL</desc>
<path d="M42.7395 90.1751
L43.1629 90.1751
" />
<path d="M43.3443 90.8403
L42.7395 90.8403
" />
<path d="M42.7395 90.8403
L42.7395 89.5703
" />
<path d="M42.7395 89.5703
L43.3443 89.5703
" />
<path d="M44.7352 90.9613
L44.6142 90.9008
" />
<path d="M44.6142 90.9008
L44.4933 90.7799
" />
<path d="M44.4933 90.7799
L44.3119 90.5984
" />
<path d="M44.3119 90.5984
L44.1909 90.5379
" />
<path d="M44.1909 90.5379
L44.0700 90.5379
" />
<path d="M44.1304 90.8403
L44.0095 90.7799
" />
<path d="M44.0095 90.7799
L43.8885 90.6589
" />
<path d="M43.8885 90.6589
L43.8281 90.4170
" />
<path d="M43.8281 90.4170
L43.8281 89.9937
" />
<path d="M43.8281 89.9937
L43.8885 89.7518
" />
<path d="M43.8885 89.7518
L44.0095 89.6308
" />
<path d="M44.0095 89.6308
L44.1304 89.5703
" />
<path d="M44.1304 89.5703
L44.3723 89.5703
" />
<path d="M44.3723 89.5703
L44.4933 89.6308
" />
<path d="M44.4933 89.6308
L44.6142 89.7518
" />
<path d="M44.6142 89.7518
L44.6747 89.9937
" />
<path d="M44.6747 89.9937
L44.6747 90.4170
" />
<path d="M44.6747 90.4170
L44.6142 90.6589
" />
<path d="M44.6142 90.6589
L44.4933 90.7799
" />
<path d="M44.4933 90.7799
L44.3723 90.8403
" />
<path d="M44.3723 90.8403
L44.1304 90.8403
" />
<path d="M44.9167 90.9613
L45.8843 90.9613
" />
<path d="M46.6100 90.1751
L46.1866 90.1751
" />
<path d="M46.1866 90.8403
L46.1866 89.5703
" />
<path d="M46.1866 89.5703
L46.7914 89.5703
" />
<path d="M47.8800 90.8403
L47.2752 90.8403
" />
<path d="M47.2752 90.8403
L47.2752 89.5703
" />
</g><path style="fill:none; 
stroke:#840000; stroke-width:0.1524; stroke-opacity:1; 
stroke-linecap:round; stroke-linejoin:round;fill:none"
d="M 49.5300,90.1700
48.4187,88.8996
41.5208,88.8996
41.5208,90.1700
41.5208,91.4404
48.4187,91.4404
Z" /> 
</g>
<g style="fill:none; 
stroke:#840000; stroke-width:0.1524; stroke-opacity:1; 
stroke-linecap:round; stroke-linejoin:round;">
<text x="61.4363" y="95.9758"
textLength="5.4041" font-size="1.6933" lengthAdjust="spacingAndGlyphs"
text-anchor="start" opacity="0" stroke-opacity="0">CMP3</text>
<g class="stroked-text"><desc>CMP3</desc>
<path d="M62.5645 95.7994
L62.5041 95.8599
" />
<path d="M62.5041 95.8599
L62.3226 95.9203
" />
<path d="M62.3226 95.9203
L62.2017 95.9203
" />
<path d="M62.2017 95.9203
L62.0203 95.8599
" />
<path d="M62.0203 95.8599
L61.8993 95.7389
" />
<path d="M61.8993 95.7389
L61.8388 95.6179
" />
<path d="M61.8388 95.6179
L61.7784 95.3760
" />
<path d="M61.7784 95.3760
L61.7784 95.1946
" />
<path d="M61.7784 95.1946
L61.8388 94.9527
" />
<path d="M61.8388 94.9527
L61.8993 94.8318
" />
<path d="M61.8993 94.8318
L62.0203 94.7108
" />
<path d="M62.0203 94.7108
L62.2017 94.6503
" />
<path d="M62.2017 94.6503
L62.3226 94.6503
" />
<path d="M62.3226 94.6503
L62.5041 94.7108
" />
<path d="M62.5041 94.7108
L62.5645 94.7713
" />
<path d="M63.1088 95.9203
L63.1088 94.6503
" />
<path d="M63.1088 94.6503
L63.5322 95.5575
" />
<path d="M63.5322 95.5575
L63.9555 94.6503
" />
<path d="M63.9555 94.6503
L63.9555 95.9203
" />
<path d="M64.5602 95.9203
L64.5602 94.6503
" />
<path d="M64.5602 94.6503
L65.0440 94.6503
" />
<path d="M65.0440 94.6503
L65.1650 94.7108
" />
<path d="M65.1650 94.7108
L65.2255 94.7713
" />
<path d="M65.2255 94.7713
L65.2859 94.8922
" />
<path d="M65.2859 94.8922
L65.2859 95.0737
" />
<path d="M65.2859 95.0737
L65.2255 95.1946
" />
<path d="M65.2255 95.1946
L65.1650 95.2551
" />
<path d="M65.1650 95.2551
L65.0440 95.3156
" />
<path d="M65.0440 95.3156
L64.5602 95.3156
" />
<path d="M65.7093 94.6503
L66.4955 94.6503
" />
<path d="M66.4955 94.6503
L66.0721 95.1341
" />
<path d="M66.0721 95.1341
L66.2536 95.1341
" />
<path d="M66.2536 95.1341
L66.3745 95.1946
" />
<path d="M66.3745 95.1946
L66.4350 95.2551
" />
<path d="M66.4350 95.2551
L66.4955 95.3760
" />
<path d="M66.4955 95.3760
L66.4955 95.6784
" />
<path d="M66.4955 95.6784
L66.4350 95.7994
" />
<path d="M66.4350 95.7994
L66.3745 95.8599
" />
<path d="M66.3745 95.8599
L66.2536 95.9203
" />
<path d="M66.2536 95.9203
L65.8907 95.9203
" />
<path d="M65.8907 95.9203
L65.7698 95.8599
" />
<path d="M65.7698 95.8599
L65.7093 95.7994
" />
</g><path style="fill:none; 
stroke:#840000; stroke-width:0.1524; stroke-opacity:1; 
stroke-linecap:round; stroke-linejoin:round;fill:none"
d="M 60.9600,95.2500
60.9600,96.5204
67.4950,96.5204
68.6063,95.2500
67.4950,93.9796
60.9600,93.9796
Z" /> 
</g>
<g style="fill:none; 
stroke:#840000; stroke-width:0.1524; stroke-opacity:1; 
stroke-linecap:round; stroke-linejoin:round;">
<text x="61.4363" y="106.1358"
textLength="5.4041" font-size="1.6933" lengthAdjust="spacingAndGlyphs"
text-anchor="start" opacity="0" stroke-opacity="0">CMP7</text>
<g class="stroked-text"><desc>CMP7</desc>
<path d="M62.5645 105.9594
L62.5041 106.0199
" />
<path d="M62.5041 106.0199
L62.3226 106.0803
" />
<path d="M62.3226 106.0803
L62.2017 106.0803
" />
<path d="M62.2017 106.0803
L62.0203 106.0199
" />
<path d="M62.0203 106.0199
L61.8993 105.8989
" />
<path d="M61.8993 105.8989
L61.8388 105.7779
" />
<path d="M61.8388 105.7779
L61.7784 105.5360
" />
<path d="M61.7784 105.5360
L61.7784 105.3546
" />
<path d="M61.7784 105.3546
L61.8388 105.1127
" />
<path d="M61.8388 105.1127
L61.8993 104.9918
" />
<path d="M61.8993 104.9918
L62.0203 104.8708
" />
<path d="M62.0203 104.8708
L62.2017 104.8103
" />
<path d="M62.2017 104.8103
L62.3226 104.8103
" />
<path d="M62.3226 104.8103
L62.5041 104.8708
" />
<path d="M62.5041 104.8708
L62.5645 104.9313
" />
<path d="M63.1088 106.0803
L63.1088 104.8103
" />
<path d="M63.1088 104.8103
L63.5322 105.7175
" />
<path d="M63.5322 105.7175
L63.9555 104.8103
" />
<path d="M63.9555 104.8103
L63.9555 106.0803
" />
<path d="M64.5602 106.0803
L64.5602 104.8103
" />
<path d="M64.5602 104.8103
L65.0440 104.8103
" />
<path d="M65.0440 104.8103
L65.1650 104.8708
" />
<path d="M65.1650 104.8708
L65.2255 104.9313
" />
<path d="M65.2255 104.9313
L65.2859 105.0522
" />
<path d="M65.2859 105.0522
L65.2859 105.2337
" />
<path d="M65.2859 105.2337
L65.2255 105.3546
" />
<path d="M65.2255 105.3546
L65.1650 105.4151
" />
<path d="M65.1650 105.4151
L65.0440 105.4756
" />
<path d="M65.0440 105.4756
L64.5602 105.4756
" />
<path d="M65.7093 104.8103
L66.5559 104.8103
" />
<path d="M66.5559 104.8103
L66.0117 106.0803
" />
</g><path style="fill:none; 
stroke:#840000; stroke-width:0.1524; stroke-opacity:1; 
stroke-linecap:round; stroke-linejoin:round;fill:none"
d="M 60.9600,105.4100
60.9600,106.6804
67.4950,106.6804
68.6063,105.4100
67.4950,104.1396
60.9600,104.1396
Z" /> 
</g>
<g style="fill:none; 
stroke:#840000; stroke-width:0.1524; stroke-opacity:1; 
stroke-linecap:round; stroke-linejoin:round;">
<text x="61.4363" y="101.0558"
textLength="5.4041" font-size="1.6933" lengthAdjust="spacingAndGlyphs"
text-anchor="start" opacity="0" stroke-opacity="0">CMP5</text>
<g class="stroked-text"><desc>CMP5</desc>
<path d="M62.5645 100.8794
L62.5041 100.9399
" />
<path d="M62.5041 100.9399
L62.3226 101.0003
" />
<path d="M62.3226 101.0003
L62.2017 101.0003
" />
<path d="M62.2017 101.0003
L62.0203 100.9399
" />
<path d="M62.0203 100.9399
L61.8993 100.8189
" />
<path d="M61.8993 100.8189
L61.8388 100.6979
" />
<path d="M61.8388 100.6979
L61.7784 100.4560
" />
<path d="M61.7784 100.4560
L61.7784 100.2746
" />
<path d="M61.7784 100.2746
L61.8388 100.0327
" />
<path d="M61.8388 100.0327
L61.8993 99.9118
" />
<path d="M61.8993 99.9118
L62.0203 99.7908
" />
<path d="M62.0203 99.7908
L62.2017 99.7303
" />
<path d="M62.2017 99.7303
L62.3226 99.7303
" />
<path d="M62.3226 99.7303
L62.5041 99.7908
" />
<path d="M62.5041 99.7908
L62.5645 99.8513
" />
<path d="M63.1088 101.0003
L63.1088 99.7303
" />
<path d="M63.1088 99.7303
L63.5322 100.6375
" />
<path d="M63.5322 100.6375
L63.9555 99.7303
" />
<path d="M63.9555 99.7303
L63.9555 101.0003
" />
<path d="M64.5602 101.0003
L64.5602 99.7303
" />
<path d="M64.5602 99.7303
L65.0440 99.7303
" />
<path d="M65.0440 99.7303
L65.1650 99.7908
" />
<path d="M65.1650 99.7908
L65.2255 99.8513
" />
<path d="M65.2255 99.8513
L65.2859 99.9722
" />
<path d="M65.2859 99.9722
L65.2859 100.1537
" />
<path d="M65.2859 100.1537
L65.2255 100.2746
" />
<path d="M65.2255 100.2746
L65.1650 100.3351
" />
<path d="M65.1650 100.3351
L65.0440 100.3956
" />
<path d="M65.0440 100.3956
L64.5602 100.3956
" />
<path d="M66.4350 99.7303
L65.8302 99.7303
" />
<path d="M65.8302 99.7303
L65.7698 100.3351
" />
<path d="M65.7698 100.3351
L65.8302 100.2746
" />
<path d="M65.8302 100.2746
L65.9512 100.2141
" />
<path d="M65.9512 100.2141
L66.2536 100.2141
" />
<path d="M66.2536 100.2141
L66.3745 100.2746
" />
<path d="M66.3745 100.2746
L66.4350 100.3351
" />
<path d="M66.4350 100.3351
L66.4955 100.4560
" />
<path d="M66.4955 100.4560
L66.4955 100.7584
" />
<path d="M66.4955 100.7584
L66.4350 100.8794
" />
<path d="M66.4350 100.8794
L66.3745 100.9399
" />
<path d="M66.3745 100.9399
L66.2536 101.0003
" />
<path d="M66.2536 101.0003
L65.9512 101.0003
" />
<path d="M65.9512 101.0003
L65.8302 100.9399
" />
<path d="M65.8302 100.9399
L65.7698 100.8794
" />
</g><path style="fill:none; 
stroke:#840000; stroke-width:0.1524; stroke-opacity:1; 
stroke-linecap:round; stroke-linejoin:round;fill:none"
d="M 60.9600,100.3300
60.9600,101.6004
67.4950,101.6004
68.6063,100.3300
67.4950,99.0596
60.9600,99.0596
Z" /> 
</g>
<g style="fill:none; 
stroke:#840000; stroke-width:0.1524; stroke-opacity:1; 
stroke-linecap:round; stroke-linejoin:round;">
<text x="61.4363" y="98.5158"
textLength="5.4041" font-size="1.6933" lengthAdjust="spacingAndGlyphs"
text-anchor="start" opacity="0" stroke-opacity="0">CMP4</text>
<g class="stroked-text"><desc>CMP4</desc>
<path d="M62.5645 98.3394
L62.5041 98.3999
" />
<path d="M62.5041 98.3999
L62.3226 98.4603
" />
<path d="M62.3226 98.4603
L62.2017 98.4603
" />
<path d="M62.2017 98.4603
L62.0203 98.3999
" />
<path d="M62.0203 98.3999
L61.8993 98.2789
" />
<path d="M61.8993 98.2789
L61.8388 98.1579
" />
<path d="M61.8388 98.1579
L61.7784 97.9160
" />
<path d="M61.7784 97.9160
L61.7784 97.7346
" />
<path d="M61.7784 97.7346
L61.8388 97.4927
" />
<path d="M61.8388 97.4927
L61.8993 97.3718
" />
<path d="M61.8993 97.3718
L62.0203 97.2508
" />
<path d="M62.0203 97.2508
L62.2017 97.1903
" />
<path d="M62.2017 97.1903
L62.3226 97.1903
" />
<path d="M62.3226 97.1903
L62.5041 97.2508
" />
<path d="M62.5041 97.2508
L62.5645 97.3113
" />
<path d="M63.1088 98.4603
L63.1088 97.1903
" />
<path d="M63.1088 97.1903
L63.5322 98.0975
" />
<path d="M63.5322 98.0975
L63.9555 97.1903
" />
<path d="M63.9555 97.1903
L63.9555 98.4603
" />
<path d="M64.5602 98.4603
L64.5602 97.1903
" />
<path d="M64.5602 97.1903
L65.0440 97.1903
" />
<path d="M65.0440 97.1903
L65.1650 97.2508
" />
<path d="M65.1650 97.2508
L65.2255 97.3113
" />
<path d="M65.2255 97.3113
L65.2859 97.4322
" />
<path d="M65.2859 97.4322
L65.2859 97.6137
" />
<path d="M65.2859 97.6137
L65.2255 97.7346
" />
<path d="M65.2255 97.7346
L65.1650 97.7951
" />
<path d="M65.1650 97.7951
L65.0440 97.8556
" />
<path d="M65.0440 97.8556
L64.5602 97.8556
" />
<path d="M66.3745 97.6137
L66.3745 98.4603
" />
<path d="M66.0721 97.1299
L65.7698 98.0370
" />
<path d="M65.7698 98.0370
L66.5559 98.0370
" />
</g><path style="fill:none; 
stroke:#840000; stroke-width:0.1524; stroke-opacity:1; 
stroke-linecap:round; stroke-linejoin:round;fill:none"
d="M 60.9600,97.7900
60.9600,99.0604
67.4950,99.0604
68.6063,97.7900
67.4950,96.5196
60.9600,96.5196
Z" /> 
</g>
<g style="fill:none; 
stroke:#840000; stroke-width:0.1524; stroke-opacity:1; 
stroke-linecap:round; stroke-linejoin:round;">
<text x="103.9812" y="42.6358"
textLength="5.7670" font-size="1.6933" lengthAdjust="spacingAndGlyphs"
text-anchor="end" opacity="0" stroke-opacity="0">EQ_FL</text>
<g class="stroked-text"><desc>EQ_FL</desc>
<path d="M98.6195 41.9151
L99.0429 41.9151
" />
<path d="M99.2243 42.5803
L98.6195 42.5803
" />
<path d="M98.6195 42.5803
L98.6195 41.3103
" />
<path d="M98.6195 41.3103
L99.2243 41.3103
" />
<path d="M100.6152 42.7013
L100.4942 42.6408
" />
<path d="M100.4942 42.6408
L100.3733 42.5199
" />
<path d="M100.3733 42.5199
L100.1919 42.3384
" />
<path d="M100.1919 42.3384
L100.0709 42.2779
" />
<path d="M100.0709 42.2779
L99.9500 42.2779
" />
<path d="M100.0104 42.5803
L99.8895 42.5199
" />
<path d="M99.8895 42.5199
L99.7685 42.3989
" />
<path d="M99.7685 42.3989
L99.7081 42.1570
" />
<path d="M99.7081 42.1570
L99.7081 41.7337
" />
<path d="M99.7081 41.7337
L99.7685 41.4918
" />
<path d="M99.7685 41.4918
L99.8895 41.3708
" />
<path d="M99.8895 41.3708
L100.0104 41.3103
" />
<path d="M100.0104 41.3103
L100.2523 41.3103
" />
<path d="M100.2523 41.3103
L100.3733 41.3708
" />
<path d="M100.3733 41.3708
L100.4942 41.4918
" />
<path d="M100.4942 41.4918
L100.5547 41.7337
" />
<path d="M100.5547 41.7337
L100.5547 42.1570
" />
<path d="M100.5547 42.1570
L100.4942 42.3989
" />
<path d="M100.4942 42.3989
L100.3733 42.5199
" />
<path d="M100.3733 42.5199
L100.2523 42.5803
" />
<path d="M100.2523 42.5803
L100.0104 42.5803
" />
<path d="M100.7967 42.7013
L101.7643 42.7013
" />
<path d="M102.4900 41.9151
L102.0666 41.9151
" />
<path d="M102.0666 42.5803
L102.0666 41.3103
" />
<path d="M102.0666 41.3103
L102.6714 41.3103
" />
<path d="M103.7600 42.5803
L103.1552 42.5803
" />
<path d="M103.1552 42.5803
L103.1552 41.3103
" />
</g><path style="fill:none; 
stroke:#840000; stroke-width:0.1524; stroke-opacity:1; 
stroke-linecap:round; stroke-linejoin:round;fill:none"
d="M 105.4100,41.9100
104.2987,40.6396
97.4008,40.6396
97.4008,41.9100
97.4008,43.1804
104.2987,43.1804
Z" /> 
</g>
<g style="fill:none; 
stroke:#840000; stroke-width:0.1524; stroke-opacity:1; 
stroke-linecap:round; stroke-linejoin:round;">
<text x="61.4363" y="103.5958"
textLength="5.4041" font-size="1.6933" lengthAdjust="spacingAndGlyphs"
text-anchor="start" opacity="0" stroke-opacity="0">CMP6</text>
<g class="stroked-text"><desc>CMP6</desc>
<path d="M62.5645 103.4194
L62.5041 103.4799
" />
<path d="M62.5041 103.4799
L62.3226 103.5403
" />
<path d="M62.3226 103.5403
L62.2017 103.5403
" />
<path d="M62.2017 103.5403
L62.0203 103.4799
" />
<path d="M62.0203 103.4799
L61.8993 103.3589
" />
<path d="M61.8993 103.3589
L61.8388 103.2379
" />
<path d="M61.8388 103.2379
L61.7784 102.9960
" />
<path d="M61.7784 102.9960
L61.7784 102.8146
" />
<path d="M61.7784 102.8146
L61.8388 102.5727
" />
<path d="M61.8388 102.5727
L61.8993 102.4518
" />
<path d="M61.8993 102.4518
L62.0203 102.3308
" />
<path d="M62.0203 102.3308
L62.2017 102.2703
" />
<path d="M62.2017 102.2703
L62.3226 102.2703
" />
<path d="M62.3226 102.2703
L62.5041 102.3308
" />
<path d="M62.5041 102.3308
L62.5645 102.3913
" />
<path d="M63.1088 103.5403
L63.1088 102.2703
" />
<path d="M63.1088 102.2703
L63.5322 103.1775
" />
<path d="M63.5322 103.1775
L63.9555 102.2703
" />
<path d="M63.9555 102.2703
L63.9555 103.5403
" />
<path d="M64.5602 103.5403
L64.5602 102.2703
" />
<path d="M64.5602 102.2703
L65.0440 102.2703
" />
<path d="M65.0440 102.2703
L65.1650 102.3308
" />
<path d="M65.1650 102.3308
L65.2255 102.3913
" />
<path d="M65.2255 102.3913
L65.2859 102.5122
" />
<path d="M65.2859 102.5122
L65.2859 102.6937
" />
<path d="M65.2859 102.6937
L65.2255 102.8146
" />
<path d="M65.2255 102.8146
L65.1650 102.8751
" />
<path d="M65.1650 102.8751
L65.0440 102.9356
" />
<path d="M65.0440 102.9356
L64.5602 102.9356
" />
<path d="M66.3745 102.2703
L66.1326 102.2703
" />
<path d="M66.1326 102.2703
L66.0117 102.3308
" />
<path d="M66.0117 102.3308
L65.9512 102.3913
" />
<path d="M65.9512 102.3913
L65.8302 102.5727
" />
<path d="M65.8302 102.5727
L65.7698 102.8146
" />
<path d="M65.7698 102.8146
L65.7698 103.2984
" />
<path d="M65.7698 103.2984
L65.8302 103.4194
" />
<path d="M65.8302 103.4194
L65.8907 103.4799
" />
<path d="M65.8907 103.4799
L66.0117 103.5403
" />
<path d="M66.0117 103.5403
L66.2536 103.5403
" />
<path d="M66.2536 103.5403
L66.3745 103.4799
" />
<path d="M66.3745 103.4799
L66.4350 103.4194
" />
<path d="M66.4350 103.4194
L66.4955 103.2984
" />
<path d="M66.4955 103.2984
L66.4955 102.9960
" />
<path d="M66.4955 102.9960
L66.4350 102.8751
" />
<path d="M66.4350 102.8751
L66.3745 102.8146
" />
<path d="M66.3745 102.8146
L66.2536 102.7541
" />
<path d="M66.2536 102.7541
L66.0117 102.7541
" />
<path d="M66.0117 102.7541
L65.8907 102.8146
" />
<path d="M65.8907 102.8146
L65.8302 102.8751
" />
<path d="M65.8302 102.8751
L65.7698 102.9960
" />
</g><path style="fill:none; 
stroke:#840000; stroke-width:0.1524; stroke-opacity:1; 
stroke-linecap:round; stroke-linejoin:round;fill:none"
d="M 60.9600,102.8700
60.9600,104.1404
67.4950,104.1404
68.6063,102.8700
67.4950,101.5996
60.9600,101.5996
Z" /> 
</g>
<g style="fill:none; 
stroke:#840000; stroke-width:0.1524; stroke-opacity:1; 
stroke-linecap:round; stroke-linejoin:round;">
<text x="103.9812" y="33.7458"
textLength="6.0694" font-size="1.6933" lengthAdjust="spacingAndGlyphs"
text-anchor="end" opacity="0" stroke-opacity="0">C_OUT</text>
<g class="stroked-text"><desc>C_OUT</desc>
<path d="M99.0428 33.5694
L98.9824 33.6299
" />
<path d="M98.9824 33.6299
L98.8009 33.6903
" />
<path d="M98.8009 33.6903
L98.6800 33.6903
" />
<path d="M98.6800 33.6903
L98.4986 33.6299
" />
<path d="M98.4986 33.6299
L98.3776 33.5089
" />
<path d="M98.3776 33.5089
L98.3171 33.3879
" />
<path d="M98.3171 33.3879
L98.2567 33.1460
" />
<path d="M98.2567 33.1460
L98.2567 32.9646
" />
<path d="M98.2567 32.9646
L98.3171 32.7227
" />
<path d="M98.3171 32.7227
L98.3776 32.6018
" />
<path d="M98.3776 32.6018
L98.4986 32.4808
" />
<path d="M98.4986 32.4808
L98.6800 32.4203
" />
<path d="M98.6800 32.4203
L98.8009 32.4203
" />
<path d="M98.8009 32.4203
L98.9824 32.4808
" />
<path d="M98.9824 32.4808
L99.0428 32.5413
" />
<path d="M99.2848 33.8113
L100.2524 33.8113
" />
<path d="M100.7966 32.4203
L101.0385 32.4203
" />
<path d="M101.0385 32.4203
L101.1595 32.4808
" />
<path d="M101.1595 32.4808
L101.2804 32.6018
" />
<path d="M101.2804 32.6018
L101.3409 32.8437
" />
<path d="M101.3409 32.8437
L101.3409 33.2670
" />
<path d="M101.3409 33.2670
L101.2804 33.5089
" />
<path d="M101.2804 33.5089
L101.1595 33.6299
" />
<path d="M101.1595 33.6299
L101.0385 33.6903
" />
<path d="M101.0385 33.6903
L100.7966 33.6903
" />
<path d="M100.7966 33.6903
L100.6757 33.6299
" />
<path d="M100.6757 33.6299
L100.5547 33.5089
" />
<path d="M100.5547 33.5089
L100.4943 33.2670
" />
<path d="M100.4943 33.2670
L100.4943 32.8437
" />
<path d="M100.4943 32.8437
L100.5547 32.6018
" />
<path d="M100.5547 32.6018
L100.6757 32.4808
" />
<path d="M100.6757 32.4808
L100.7966 32.4203
" />
<path d="M101.8852 32.4203
L101.8852 33.4484
" />
<path d="M101.8852 33.4484
L101.9457 33.5694
" />
<path d="M101.9457 33.5694
L102.0062 33.6299
" />
<path d="M102.0062 33.6299
L102.1271 33.6903
" />
<path d="M102.1271 33.6903
L102.3690 33.6903
" />
<path d="M102.3690 33.6903
L102.4900 33.6299
" />
<path d="M102.4900 33.6299
L102.5505 33.5694
" />
<path d="M102.5505 33.5694
L102.6109 33.4484
" />
<path d="M102.6109 33.4484
L102.6109 32.4203
" />
<path d="M103.0343 32.4203
L103.7600 32.4203
" />
<path d="M103.3972 33.6903
L103.3972 32.4203
" />
</g><path style="fill:none; 
stroke:#840000; stroke-width:0.1524; stroke-opacity:1; 
stroke-linecap:round; stroke-linejoin:round;fill:none"
d="M 105.4100,33.0200
104.2987,31.7496
97.0984,31.7496
97.0984,33.0200
97.0984,34.2904
104.2987,34.2904
Z" /> 
</g>
<g style="fill:none; 
stroke:#840000; stroke-width:0.1524; stroke-opacity:1; 
stroke-linecap:round; stroke-linejoin:round;">
<text x="61.4363" y="93.4358"
textLength="5.4041" font-size="1.6933" lengthAdjust="spacingAndGlyphs"
text-anchor="start" opacity="0" stroke-opacity="0">CMP2</text>
<g class="stroked-text"><desc>CMP2</desc>
<path d="M62.5645 93.2594
L62.5041 93.3199
" />
<path d="M62.5041 93.3199
L62.3226 93.3803
" />
<path d="M62.3226 93.3803
L62.2017 93.3803
" />
<path d="M62.2017 93.3803
L62.0203 93.3199
" />
<path d="M62.0203 93.3199
L61.8993 93.1989
" />
<path d="M61.8993 93.1989
L61.8388 93.0779
" />
<path d="M61.8388 93.0779
L61.7784 92.8360
" />
<path d="M61.7784 92.8360
L61.7784 92.6546
" />
<path d="M61.7784 92.6546
L61.8388 92.4127
" />
<path d="M61.8388 92.4127
L61.8993 92.2918
" />
<path d="M61.8993 92.2918
L62.0203 92.1708
" />
<path d="M62.0203 92.1708
L62.2017 92.1103
" />
<path d="M62.2017 92.1103
L62.3226 92.1103
" />
<path d="M62.3226 92.1103
L62.5041 92.1708
" />
<path d="M62.5041 92.1708
L62.5645 92.2313
" />
<path d="M63.1088 93.3803
L63.1088 92.1103
" />
<path d="M63.1088 92.1103
L63.5322 93.0175
" />
<path d="M63.5322 93.0175
L63.9555 92.1103
" />
<path d="M63.9555 92.1103
L63.9555 93.3803
" />
<path d="M64.5602 93.3803
L64.5602 92.1103
" />
<path d="M64.5602 92.1103
L65.0440 92.1103
" />
<path d="M65.0440 92.1103
L65.1650 92.1708
" />
<path d="M65.1650 92.1708
L65.2255 92.2313
" />
<path d="M65.2255 92.2313
L65.2859 92.3522
" />
<path d="M65.2859 92.3522
L65.2859 92.5337
" />
<path d="M65.2859 92.5337
L65.2255 92.6546
" />
<path d="M65.2255 92.6546
L65.1650 92.7151
" />
<path d="M65.1650 92.7151
L65.0440 92.7756
" />
<path d="M65.0440 92.7756
L64.5602 92.7756
" />
<path d="M65.7698 92.2313
L65.8302 92.1708
" />
<path d="M65.8302 92.1708
L65.9512 92.1103
" />
<path d="M65.9512 92.1103
L66.2536 92.1103
" />
<path d="M66.2536 92.1103
L66.3745 92.1708
" />
<path d="M66.3745 92.1708
L66.4350 92.2313
" />
<path d="M66.4350 92.2313
L66.4955 92.3522
" />
<path d="M66.4955 92.3522
L66.4955 92.4732
" />
<path d="M66.4955 92.4732
L66.4350 92.6546
" />
<path d="M66.4350 92.6546
L65.7093 93.3803
" />
<path d="M65.7093 93.3803
L66.4955 93.3803
" />
</g><path style="fill:none; 
stroke:#840000; stroke-width:0.1524; stroke-opacity:1; 
stroke-linecap:round; stroke-linejoin:round;fill:none"
d="M 60.9600,92.7100
60.9600,93.9804
67.4950,93.9804
68.6063,92.7100
67.4950,91.4396
60.9600,91.4396
Z" /> 
</g>
<g style="fill:none; 
stroke:#840000; stroke-width:0.1524; stroke-opacity:1; 
stroke-linecap:round; stroke-linejoin:round;">
<text x="61.4363" y="90.8958"
textLength="5.4041" font-size="1.6933" lengthAdjust="spacingAndGlyphs"
text-anchor="start" opacity="0" stroke-opacity="0">CMP1</text>
<g class="stroked-text"><desc>CMP1</desc>
<path d="M62.5645 90.7194
L62.5041 90.7799
" />
<path d="M62.5041 90.7799
L62.3226 90.8403
" />
<path d="M62.3226 90.8403
L62.2017 90.8403
" />
<path d="M62.2017 90.8403
L62.0203 90.7799
" />
<path d="M62.0203 90.7799
L61.8993 90.6589
" />
<path d="M61.8993 90.6589
L61.8388 90.5379
" />
<path d="M61.8388 90.5379
L61.7784 90.2960
" />
<path d="M61.7784 90.2960
L61.7784 90.1146
" />
<path d="M61.7784 90.1146
L61.8388 89.8727
" />
<path d="M61.8388 89.8727
L61.8993 89.7518
" />
<path d="M61.8993 89.7518
L62.0203 89.6308
" />
<path d="M62.0203 89.6308
L62.2017 89.5703
" />
<path d="M62.2017 89.5703
L62.3226 89.5703
" />
<path d="M62.3226 89.5703
L62.5041 89.6308
" />
<path d="M62.5041 89.6308
L62.5645 89.6913
" />
<path d="M63.1088 90.8403
L63.1088 89.5703
" />
<path d="M63.1088 89.5703
L63.5322 90.4775
" />
<path d="M63.5322 90.4775
L63.9555 89.5703
" />
<path d="M63.9555 89.5703
L63.9555 90.8403
" />
<path d="M64.5602 90.8403
L64.5602 89.5703
" />
<path d="M64.5602 89.5703
L65.0440 89.5703
" />
<path d="M65.0440 89.5703
L65.1650 89.6308
" />
<path d="M65.1650 89.6308
L65.2255 89.6913
" />
<path d="M65.2255 89.6913
L65.2859 89.8122
" />
<path d="M65.2859 89.8122
L65.2859 89.9937
" />
<path d="M65.2859 89.9937
L65.2255 90.1146
" />
<path d="M65.2255 90.1146
L65.1650 90.1751
" />
<path d="M65.1650 90.1751
L65.0440 90.2356
" />
<path d="M65.0440 90.2356
L64.5602 90.2356
" />
<path d="M66.4955 90.8403
L65.7698 90.8403
" />
<path d="M66.1326 90.8403
L66.1326 89.5703
" />
<path d="M66.1326 89.5703
L66.0117 89.7518
" />
<path d="M66.0117 89.7518
L65.8907 89.8727
" />
<path d="M65.8907 89.8727
L65.7698 89.9332
" />
</g><path style="fill:none; 
stroke:#840000; stroke-width:0.1524; stroke-opacity:1; 
stroke-linecap:round; stroke-linejoin:round;fill:none"
d="M 60.9600,90.1700
60.9600,91.4404
67.4950,91.4404
68.6063,90.1700
67.4950,88.8996
60.9600,88.8996
Z" /> 
</g>
<g style="fill:none; 
stroke:#840000; stroke-width:0.1524; stroke-opacity:1; 
stroke-linecap:round; stroke-linejoin:round;">
<text x="61.4363" y="88.3558"
textLength="5.4041" font-size="1.6933" lengthAdjust="spacingAndGlyphs"
text-anchor="start" opacity="0" stroke-opacity="0">CMP0</text>
<g class="stroked-text"><desc>CMP0</desc>
<path d="M62.5645 88.1794
L62.5041 88.2399
" />
<path d="M62.5041 88.2399
L62.3226 88.3003
" />
<path d="M62.3226 88.3003
L62.2017 88.3003
" />
<path d="M62.2017 88.3003
L62.0203 88.2399
" />
<path d="M62.0203 88.2399
L61.8993 88.1189
" />
<path d="M61.8993 88.1189
L61.8388 87.9979
" />
<path d="M61.8388 87.9979
L61.7784 87.7560
" />
<path d="M61.7784 87.7560
L61.7784 87.5746
" />
<path d="M61.7784 87.5746
L61.8388 87.3327
" />
<path d="M61.8388 87.3327
L61.8993 87.2118
" />
<path d="M61.8993 87.2118
L62.0203 87.0908
" />
<path d="M62.0203 87.0908
L62.2017 87.0303
" />
<path d="M62.2017 87.0303
L62.3226 87.0303
" />
<path d="M62.3226 87.0303
L62.5041 87.0908
" />
<path d="M62.5041 87.0908
L62.5645 87.1513
" />
<path d="M63.1088 88.3003
L63.1088 87.0303
" />
<path d="M63.1088 87.0303
L63.5322 87.9375
" />
<path d="M63.5322 87.9375
L63.9555 87.0303
" />
<path d="M63.9555 87.0303
L63.9555 88.3003
" />
<path d="M64.5602 88.3003
L64.5602 87.0303
" />
<path d="M64.5602 87.0303
L65.0440 87.0303
" />
<path d="M65.0440 87.0303
L65.1650 87.0908
" />
<path d="M65.1650 87.0908
L65.2255 87.1513
" />
<path d="M65.2255 87.1513
L65.2859 87.2722
" />
<path d="M65.2859 87.2722
L65.2859 87.4537
" />
<path d="M65.2859 87.4537
L65.2255 87.5746
" />
<path d="M65.2255 87.5746
L65.1650 87.6351
" />
<path d="M65.1650 87.6351
L65.0440 87.6956
" />
<path d="M65.0440 87.6956
L64.5602 87.6956
" />
<path d="M66.0721 87.0303
L66.1931 87.0303
" />
<path d="M66.1931 87.0303
L66.3140 87.0908
" />
<path d="M66.3140 87.0908
L66.3745 87.1513
" />
<path d="M66.3745 87.1513
L66.4350 87.2722
" />
<path d="M66.4350 87.2722
L66.4955 87.5141
" />
<path d="M66.4955 87.5141
L66.4955 87.8165
" />
<path d="M66.4955 87.8165
L66.4350 88.0584
" />
<path d="M66.4350 88.0584
L66.3745 88.1794
" />
<path d="M66.3745 88.1794
L66.3140 88.2399
" />
<path d="M66.3140 88.2399
L66.1931 88.3003
" />
<path d="M66.1931 88.3003
L66.0721 88.3003
" />
<path d="M66.0721 88.3003
L65.9512 88.2399
" />
<path d="M65.9512 88.2399
L65.8907 88.1794
" />
<path d="M65.8907 88.1794
L65.8302 88.0584
" />
<path d="M65.8302 88.0584
L65.7698 87.8165
" />
<path d="M65.7698 87.8165
L65.7698 87.5141
" />
<path d="M65.7698 87.5141
L65.8302 87.2722
" />
<path d="M65.8302 87.2722
L65.8907 87.1513
" />
<path d="M65.8907 87.1513
L65.9512 87.0908
" />
<path d="M65.9512 87.0908
L66.0721 87.0303
" />
</g><path style="fill:none; 
stroke:#840000; stroke-width:0.1524; stroke-opacity:1; 
stroke-linecap:round; stroke-linejoin:round;fill:none"
d="M 60.9600,87.6300
60.9600,88.9004
67.4950,88.9004
68.6063,87.6300
67.4950,86.3596
60.9600,86.3596
Z" /> 
</g>
<g style="fill:none; 
stroke:#840000; stroke-width:0.1524; stroke-opacity:1; 
stroke-linecap:round; stroke-linejoin:round;">
<text x="48.1012" y="88.3558"
textLength="7.8836" font-size="1.6933" lengthAdjust="spacingAndGlyphs"
text-anchor="end" opacity="0" stroke-opacity="0">LESS_FL</text>
<g class="stroked-text"><desc>LESS_FL</desc>
<path d="M41.2277 88.3003
L40.6229 88.3003
" />
<path d="M40.6229 88.3003
L40.6229 87.0303
" />
<path d="M41.6510 87.6351
L42.0744 87.6351
" />
<path d="M42.2558 88.3003
L41.6510 88.3003
" />
<path d="M41.6510 88.3003
L41.6510 87.0303
" />
<path d="M41.6510 87.0303
L42.2558 87.0303
" />
<path d="M42.7396 88.2399
L42.9210 88.3003
" />
<path d="M42.9210 88.3003
L43.2234 88.3003
" />
<path d="M43.2234 88.3003
L43.3443 88.2399
" />
<path d="M43.3443 88.2399
L43.4048 88.1794
" />
<path d="M43.4048 88.1794
L43.4653 88.0584
" />
<path d="M43.4653 88.0584
L43.4653 87.9375
" />
<path d="M43.4653 87.9375
L43.4048 87.8165
" />
<path d="M43.4048 87.8165
L43.3443 87.7560
" />
<path d="M43.3443 87.7560
L43.2234 87.6956
" />
<path d="M43.2234 87.6956
L42.9815 87.6351
" />
<path d="M42.9815 87.6351
L42.8605 87.5746
" />
<path d="M42.8605 87.5746
L42.8000 87.5141
" />
<path d="M42.8000 87.5141
L42.7396 87.3932
" />
<path d="M42.7396 87.3932
L42.7396 87.2722
" />
<path d="M42.7396 87.2722
L42.8000 87.1513
" />
<path d="M42.8000 87.1513
L42.8605 87.0908
" />
<path d="M42.8605 87.0908
L42.9815 87.0303
" />
<path d="M42.9815 87.0303
L43.2838 87.0303
" />
<path d="M43.2838 87.0303
L43.4653 87.0908
" />
<path d="M43.9491 88.2399
L44.1305 88.3003
" />
<path d="M44.1305 88.3003
L44.4329 88.3003
" />
<path d="M44.4329 88.3003
L44.5538 88.2399
" />
<path d="M44.5538 88.2399
L44.6143 88.1794
" />
<path d="M44.6143 88.1794
L44.6748 88.0584
" />
<path d="M44.6748 88.0584
L44.6748 87.9375
" />
<path d="M44.6748 87.9375
L44.6143 87.8165
" />
<path d="M44.6143 87.8165
L44.5538 87.7560
" />
<path d="M44.5538 87.7560
L44.4329 87.6956
" />
<path d="M44.4329 87.6956
L44.1910 87.6351
" />
<path d="M44.1910 87.6351
L44.0700 87.5746
" />
<path d="M44.0700 87.5746
L44.0095 87.5141
" />
<path d="M44.0095 87.5141
L43.9491 87.3932
" />
<path d="M43.9491 87.3932
L43.9491 87.2722
" />
<path d="M43.9491 87.2722
L44.0095 87.1513
" />
<path d="M44.0095 87.1513
L44.0700 87.0908
" />
<path d="M44.0700 87.0908
L44.1910 87.0303
" />
<path d="M44.1910 87.0303
L44.4933 87.0303
" />
<path d="M44.4933 87.0303
L44.6748 87.0908
" />
<path d="M44.9167 88.4213
L45.8843 88.4213
" />
<path d="M46.6100 87.6351
L46.1866 87.6351
" />
<path d="M46.1866 88.3003
L46.1866 87.0303
" />
<path d="M46.1866 87.0303
L46.7914 87.0303
" />
<path d="M47.8800 88.3003
L47.2752 88.3003
" />
<path d="M47.2752 88.3003
L47.2752 87.0303
" />
</g><path style="fill:none; 
stroke:#840000; stroke-width:0.1524; stroke-opacity:1; 
stroke-linecap:round; stroke-linejoin:round;fill:none"
d="M 49.5300,87.6300
48.4187,86.3596
39.4042,86.3596
39.4042,87.6300
39.4042,88.9004
48.4187,88.9004
Z" /> 
</g>
<g style="fill:none; 
stroke:#0F0F0F; stroke-width:0.1524; stroke-opacity:1; 
stroke-linecap:round; stroke-linejoin:round;">
<text x="53.9750" y="50.4507"
textLength="5.4041" font-size="1.6933" lengthAdjust="spacingAndGlyphs"
text-anchor="start" opacity="0" stroke-opacity="0">SUM6</text>
<g class="stroked-text"><desc>SUM6</desc>
<path d="M54.3171 50.2268
L54.4985 50.2872
" />
<path d="M54.4985 50.2872
L54.8009 50.2872
" />
<path d="M54.8009 50.2872
L54.9218 50.2268
" />
<path d="M54.9218 50.2268
L54.9823 50.1663
" />
<path d="M54.9823 50.1663
L55.0428 50.0453
" />
<path d="M55.0428 50.0453
L55.0428 49.9244
" />
<path d="M55.0428 49.9244
L54.9823 49.8034
" />
<path d="M54.9823 49.8034
L54.9218 49.7429
" />
<path d="M54.9218 49.7429
L54.8009 49.6825
" />
<path d="M54.8009 49.6825
L54.5590 49.6220
" />
<path d="M54.5590 49.6220
L54.4380 49.5615
" />
<path d="M54.4380 49.5615
L54.3775 49.5010
" />
<path d="M54.3775 49.5010
L54.3171 49.3801
" />
<path d="M54.3171 49.3801
L54.3171 49.2591
" />
<path d="M54.3171 49.2591
L54.3775 49.1382
" />
<path d="M54.3775 49.1382
L54.4380 49.0777
" />
<path d="M54.4380 49.0777
L54.5590 49.0172
" />
<path d="M54.5590 49.0172
L54.8613 49.0172
" />
<path d="M54.8613 49.0172
L55.0428 49.0777
" />
<path d="M55.5870 49.0172
L55.5870 50.0453
" />
<path d="M55.5870 50.0453
L55.6475 50.1663
" />
<path d="M55.6475 50.1663
L55.7080 50.2268
" />
<path d="M55.7080 50.2268
L55.8289 50.2872
" />
<path d="M55.8289 50.2872
L56.0708 50.2872
" />
<path d="M56.0708 50.2872
L56.1918 50.2268
" />
<path d="M56.1918 50.2268
L56.2523 50.1663
" />
<path d="M56.2523 50.1663
L56.3127 50.0453
" />
<path d="M56.3127 50.0453
L56.3127 49.0172
" />
<path d="M56.9175 50.2872
L56.9175 49.0172
" />
<path d="M56.9175 49.0172
L57.3409 49.9244
" />
<path d="M57.3409 49.9244
L57.7642 49.0172
" />
<path d="M57.7642 49.0172
L57.7642 50.2872
" />
<path d="M58.9132 49.0172
L58.6713 49.0172
" />
<path d="M58.6713 49.0172
L58.5504 49.0777
" />
<path d="M58.5504 49.0777
L58.4899 49.1382
" />
<path d="M58.4899 49.1382
L58.3689 49.3196
" />
<path d="M58.3689 49.3196
L58.3085 49.5615
" />
<path d="M58.3085 49.5615
L58.3085 50.0453
" />
<path d="M58.3085 50.0453
L58.3689 50.1663
" />
<path d="M58.3689 50.1663
L58.4294 50.2268
" />
<path d="M58.4294 50.2268
L58.5504 50.2872
" />
<path d="M58.5504 50.2872
L58.7923 50.2872
" />
<path d="M58.7923 50.2872
L58.9132 50.2268
" />
<path d="M58.9132 50.2268
L58.9737 50.1663
" />
<path d="M58.9737 50.1663
L59.0342 50.0453
" />
<path d="M59.0342 50.0453
L59.0342 49.7429
" />
<path d="M59.0342 49.7429
L58.9737 49.6220
" />
<path d="M58.9737 49.6220
L58.9132 49.5615
" />
<path d="M58.9132 49.5615
L58.7923 49.5010
" />
<path d="M58.7923 49.5010
L58.5504 49.5010
" />
<path d="M58.5504 49.5010
L58.4294 49.5615
" />
<path d="M58.4294 49.5615
L58.3689 49.6220
" />
<path d="M58.3689 49.6220
L58.3085 49.7429
" />
</g></g>
<g style="fill:none; 
stroke:#0F0F0F; stroke-width:0.1524; stroke-opacity:1; 
stroke-linecap:round; stroke-linejoin:round;">
<text x="57.1500" y="46.6407"
textLength="5.4041" font-size="1.6933" lengthAdjust="spacingAndGlyphs"
text-anchor="start" opacity="0" stroke-opacity="0">SUM7</text>
<g class="stroked-text"><desc>SUM7</desc>
<path d="M57.4921 46.4168
L57.6735 46.4772
" />
<path d="M57.6735 46.4772
L57.9759 46.4772
" />
<path d="M57.9759 46.4772
L58.0968 46.4168
" />
<path d="M58.0968 46.4168
L58.1573 46.3563
" />
<path d="M58.1573 46.3563
L58.2178 46.2353
" />
<path d="M58.2178 46.2353
L58.2178 46.1144
" />
<path d="M58.2178 46.1144
L58.1573 45.9934
" />
<path d="M58.1573 45.9934
L58.0968 45.9329
" />
<path d="M58.0968 45.9329
L57.9759 45.8725
" />
<path d="M57.9759 45.8725
L57.7340 45.8120
" />
<path d="M57.7340 45.8120
L57.6130 45.7515
" />
<path d="M57.6130 45.7515
L57.5525 45.6910
" />
<path d="M57.5525 45.6910
L57.4921 45.5701
" />
<path d="M57.4921 45.5701
L57.4921 45.4491
" />
<path d="M57.4921 45.4491
L57.5525 45.3282
" />
<path d="M57.5525 45.3282
L57.6130 45.2677
" />
<path d="M57.6130 45.2677
L57.7340 45.2072
" />
<path d="M57.7340 45.2072
L58.0363 45.2072
" />
<path d="M58.0363 45.2072
L58.2178 45.2677
" />
<path d="M58.7620 45.2072
L58.7620 46.2353
" />
<path d="M58.7620 46.2353
L58.8225 46.3563
" />
<path d="M58.8225 46.3563
L58.8830 46.4168
" />
<path d="M58.8830 46.4168
L59.0039 46.4772
" />
<path d="M59.0039 46.4772
L59.2458 46.4772
" />
<path d="M59.2458 46.4772
L59.3668 46.4168
" />
<path d="M59.3668 46.4168
L59.4273 46.3563
" />
<path d="M59.4273 46.3563
L59.4877 46.2353
" />
<path d="M59.4877 46.2353
L59.4877 45.2072
" />
<path d="M60.0925 46.4772
L60.0925 45.2072
" />
<path d="M60.0925 45.2072
L60.5159 46.1144
" />
<path d="M60.5159 46.1144
L60.9392 45.2072
" />
<path d="M60.9392 45.2072
L60.9392 46.4772
" />
<path d="M61.4230 45.2072
L62.2696 45.2072
" />
<path d="M62.2696 45.2072
L61.7254 46.4772
" />
</g></g>
<g style="fill:none; 
stroke:#0F0F0F; stroke-width:0.1524; stroke-opacity:1; 
stroke-linecap:round; stroke-linejoin:round;">
<text x="50.8000" y="59.3407"
textLength="5.4041" font-size="1.6933" lengthAdjust="spacingAndGlyphs"
text-anchor="start" opacity="0" stroke-opacity="0">SUM5</text>
<g class="stroked-text"><desc>SUM5</desc>
<path d="M51.1421 59.1168
L51.3235 59.1772
" />
<path d="M51.3235 59.1772
L51.6259 59.1772
" />
<path d="M51.6259 59.1772
L51.7468 59.1168
" />
<path d="M51.7468 59.1168
L51.8073 59.0563
" />
<path d="M51.8073 59.0563
L51.8678 58.9353
" />
<path d="M51.8678 58.9353
L51.8678 58.8144
" />
<path d="M51.8678 58.8144
L51.8073 58.6934
" />
<path d="M51.8073 58.6934
L51.7468 58.6329
" />
<path d="M51.7468 58.6329
L51.6259 58.5725
" />
<path d="M51.6259 58.5725
L51.3840 58.5120
" />
<path d="M51.3840 58.5120
L51.2630 58.4515
" />
<path d="M51.2630 58.4515
L51.2025 58.3910
" />
<path d="M51.2025 58.3910
L51.1421 58.2701
" />
<path d="M51.1421 58.2701
L51.1421 58.1491
" />
<path d="M51.1421 58.1491
L51.2025 58.0282
" />
<path d="M51.2025 58.0282
L51.2630 57.9677
" />
<path d="M51.2630 57.9677
L51.3840 57.9072
" />
<path d="M51.3840 57.9072
L51.6863 57.9072
" />
<path d="M51.6863 57.9072
L51.8678 57.9677
" />
<path d="M52.4120 57.9072
L52.4120 58.9353
" />
<path d="M52.4120 58.9353
L52.4725 59.0563
" />
<path d="M52.4725 59.0563
L52.5330 59.1168
" />
<path d="M52.5330 59.1168
L52.6539 59.1772
" />
<path d="M52.6539 59.1772
L52.8958 59.1772
" />
<path d="M52.8958 59.1772
L53.0168 59.1168
" />
<path d="M53.0168 59.1168
L53.0773 59.0563
" />
<path d="M53.0773 59.0563
L53.1377 58.9353
" />
<path d="M53.1377 58.9353
L53.1377 57.9072
" />
<path d="M53.7425 59.1772
L53.7425 57.9072
" />
<path d="M53.7425 57.9072
L54.1659 58.8144
" />
<path d="M54.1659 58.8144
L54.5892 57.9072
" />
<path d="M54.5892 57.9072
L54.5892 59.1772
" />
<path d="M55.7987 57.9072
L55.1939 57.9072
" />
<path d="M55.1939 57.9072
L55.1335 58.5120
" />
<path d="M55.1335 58.5120
L55.1939 58.4515
" />
<path d="M55.1939 58.4515
L55.3149 58.3910
" />
<path d="M55.3149 58.3910
L55.6173 58.3910
" />
<path d="M55.6173 58.3910
L55.7382 58.4515
" />
<path d="M55.7382 58.4515
L55.7987 58.5120
" />
<path d="M55.7987 58.5120
L55.8592 58.6329
" />
<path d="M55.8592 58.6329
L55.8592 58.9353
" />
<path d="M55.8592 58.9353
L55.7987 59.0563
" />
<path d="M55.7987 59.0563
L55.7382 59.1168
" />
<path d="M55.7382 59.1168
L55.6173 59.1772
" />
<path d="M55.6173 59.1772
L55.3149 59.1772
" />
<path d="M55.3149 59.1772
L55.1939 59.1168
" />
<path d="M55.1939 59.1168
L55.1335 59.0563
" />
</g></g>
<g style="fill:none; 
stroke:#0F0F0F; stroke-width:0.1524; stroke-opacity:1; 
stroke-linecap:round; stroke-linejoin:round;">
<text x="48.2600" y="56.8007"
textLength="5.4041" font-size="1.6933" lengthAdjust="spacingAndGlyphs"
text-anchor="start" opacity="0" stroke-opacity="0">SUM4</text>
<g class="stroked-text"><desc>SUM4</desc>
<path d="M48.6021 56.5768
L48.7835 56.6372
" />
<path d="M48.7835 56.6372
L49.0859 56.6372
" />
<path d="M49.0859 56.6372
L49.2068 56.5768
" />
<path d="M49.2068 56.5768
L49.2673 56.5163
" />
<path d="M49.2673 56.5163
L49.3278 56.3953
" />
<path d="M49.3278 56.3953
L49.3278 56.2744
" />
<path d="M49.3278 56.2744
L49.2673 56.1534
" />
<path d="M49.2673 56.1534
L49.2068 56.0929
" />
<path d="M49.2068 56.0929
L49.0859 56.0325
" />
<path d="M49.0859 56.0325
L48.8440 55.9720
" />
<path d="M48.8440 55.9720
L48.7230 55.9115
" />
<path d="M48.7230 55.9115
L48.6625 55.8510
" />
<path d="M48.6625 55.8510
L48.6021 55.7301
" />
<path d="M48.6021 55.7301
L48.6021 55.6091
" />
<path d="M48.6021 55.6091
L48.6625 55.4882
" />
<path d="M48.6625 55.4882
L48.7230 55.4277
" />
<path d="M48.7230 55.4277
L48.8440 55.3672
" />
<path d="M48.8440 55.3672
L49.1463 55.3672
" />
<path d="M49.1463 55.3672
L49.3278 55.4277
" />
<path d="M49.8720 55.3672
L49.8720 56.3953
" />
<path d="M49.8720 56.3953
L49.9325 56.5163
" />
<path d="M49.9325 56.5163
L49.9930 56.5768
" />
<path d="M49.9930 56.5768
L50.1139 56.6372
" />
<path d="M50.1139 56.6372
L50.3558 56.6372
" />
<path d="M50.3558 56.6372
L50.4768 56.5768
" />
<path d="M50.4768 56.5768
L50.5373 56.5163
" />
<path d="M50.5373 56.5163
L50.5977 56.3953
" />
<path d="M50.5977 56.3953
L50.5977 55.3672
" />
<path d="M51.2025 56.6372
L51.2025 55.3672
" />
<path d="M51.2025 55.3672
L51.6259 56.2744
" />
<path d="M51.6259 56.2744
L52.0492 55.3672
" />
<path d="M52.0492 55.3672
L52.0492 56.6372
" />
<path d="M53.1982 55.7906
L53.1982 56.6372
" />
<path d="M52.8958 55.3068
L52.5935 56.2139
" />
<path d="M52.5935 56.2139
L53.3796 56.2139
" />
</g></g>
<g style="fill:none; 
stroke:#0F0F0F; stroke-width:0.1524; stroke-opacity:1; 
stroke-linecap:round; stroke-linejoin:round;">
<text x="45.7200" y="54.2607"
textLength="5.4041" font-size="1.6933" lengthAdjust="spacingAndGlyphs"
text-anchor="start" opacity="0" stroke-opacity="0">SUM3</text>
<g class="stroked-text"><desc>SUM3</desc>
<path d="M46.0621 54.0368
L46.2435 54.0972
" />
<path d="M46.2435 54.0972
L46.5459 54.0972
" />
<path d="M46.5459 54.0972
L46.6668 54.0368
" />
<path d="M46.6668 54.0368
L46.7273 53.9763
" />
<path d="M46.7273 53.9763
L46.7878 53.8553
" />
<path d="M46.7878 53.8553
L46.7878 53.7344
" />
<path d="M46.7878 53.7344
L46.7273 53.6134
" />
<path d="M46.7273 53.6134
L46.6668 53.5529
" />
<path d="M46.6668 53.5529
L46.5459 53.4925
" />
<path d="M46.5459 53.4925
L46.3040 53.4320
" />
<path d="M46.3040 53.4320
L46.1830 53.3715
" />
<path d="M46.1830 53.3715
L46.1225 53.3110
" />
<path d="M46.1225 53.3110
L46.0621 53.1901
" />
<path d="M46.0621 53.1901
L46.0621 53.0691
" />
<path d="M46.0621 53.0691
L46.1225 52.9482
" />
<path d="M46.1225 52.9482
L46.1830 52.8877
" />
<path d="M46.1830 52.8877
L46.3040 52.8272
" />
<path d="M46.3040 52.8272
L46.6063 52.8272
" />
<path d="M46.6063 52.8272
L46.7878 52.8877
" />
<path d="M47.3320 52.8272
L47.3320 53.8553
" />
<path d="M47.3320 53.8553
L47.3925 53.9763
" />
<path d="M47.3925 53.9763
L47.4530 54.0368
" />
<path d="M47.4530 54.0368
L47.5739 54.0972
" />
<path d="M47.5739 54.0972
L47.8158 54.0972
" />
<path d="M47.8158 54.0972
L47.9368 54.0368
" />
<path d="M47.9368 54.0368
L47.9973 53.9763
" />
<path d="M47.9973 53.9763
L48.0577 53.8553
" />
<path d="M48.0577 53.8553
L48.0577 52.8272
" />
<path d="M48.6625 54.0972
L48.6625 52.8272
" />
<path d="M48.6625 52.8272
L49.0859 53.7344
" />
<path d="M49.0859 53.7344
L49.5092 52.8272
" />
<path d="M49.5092 52.8272
L49.5092 54.0972
" />
<path d="M49.9930 52.8272
L50.7792 52.8272
" />
<path d="M50.7792 52.8272
L50.3558 53.3110
" />
<path d="M50.3558 53.3110
L50.5373 53.3110
" />
<path d="M50.5373 53.3110
L50.6582 53.3715
" />
<path d="M50.6582 53.3715
L50.7187 53.4320
" />
<path d="M50.7187 53.4320
L50.7792 53.5529
" />
<path d="M50.7792 53.5529
L50.7792 53.8553
" />
<path d="M50.7792 53.8553
L50.7187 53.9763
" />
<path d="M50.7187 53.9763
L50.6582 54.0368
" />
<path d="M50.6582 54.0368
L50.5373 54.0972
" />
<path d="M50.5373 54.0972
L50.1744 54.0972
" />
<path d="M50.1744 54.0972
L50.0535 54.0368
" />
<path d="M50.0535 54.0368
L49.9930 53.9763
" />
</g></g>
<g style="fill:none; 
stroke:#0F0F0F; stroke-width:0.1524; stroke-opacity:1; 
stroke-linecap:round; stroke-linejoin:round;">
<text x="43.1800" y="51.7207"
textLength="5.4041" font-size="1.6933" lengthAdjust="spacingAndGlyphs"
text-anchor="start" opacity="0" stroke-opacity="0">SUM2</text>
<g class="stroked-text"><desc>SUM2</desc>
<path d="M43.5221 51.4968
L43.7035 51.5572
" />
<path d="M43.7035 51.5572
L44.0059 51.5572
" />
<path d="M44.0059 51.5572
L44.1268 51.4968
" />
<path d="M44.1268 51.4968
L44.1873 51.4363
" />
<path d="M44.1873 51.4363
L44.2478 51.3153
" />
<path d="M44.2478 51.3153
L44.2478 51.1944
" />
<path d="M44.2478 51.1944
L44.1873 51.0734
" />
<path d="M44.1873 51.0734
L44.1268 51.0129
" />
<path d="M44.1268 51.0129
L44.0059 50.9525
" />
<path d="M44.0059 50.9525
L43.7640 50.8920
" />
<path d="M43.7640 50.8920
L43.6430 50.8315
" />
<path d="M43.6430 50.8315
L43.5825 50.7710
" />
<path d="M43.5825 50.7710
L43.5221 50.6501
" />
<path d="M43.5221 50.6501
L43.5221 50.5291
" />
<path d="M43.5221 50.5291
L43.5825 50.4082
" />
<path d="M43.5825 50.4082
L43.6430 50.3477
" />
<path d="M43.6430 50.3477
L43.7640 50.2872
" />
<path d="M43.7640 50.2872
L44.0663 50.2872
" />
<path d="M44.0663 50.2872
L44.2478 50.3477
" />
<path d="M44.7920 50.2872
L44.7920 51.3153
" />
<path d="M44.7920 51.3153
L44.8525 51.4363
" />
<path d="M44.8525 51.4363
L44.9130 51.4968
" />
<path d="M44.9130 51.4968
L45.0339 51.5572
" />
<path d="M45.0339 51.5572
L45.2758 51.5572
" />
<path d="M45.2758 51.5572
L45.3968 51.4968
" />
<path d="M45.3968 51.4968
L45.4573 51.4363
" />
<path d="M45.4573 51.4363
L45.5177 51.3153
" />
<path d="M45.5177 51.3153
L45.5177 50.2872
" />
<path d="M46.1225 51.5572
L46.1225 50.2872
" />
<path d="M46.1225 50.2872
L46.5459 51.1944
" />
<path d="M46.5459 51.1944
L46.9692 50.2872
" />
<path d="M46.9692 50.2872
L46.9692 51.5572
" />
<path d="M47.5135 50.4082
L47.5739 50.3477
" />
<path d="M47.5739 50.3477
L47.6949 50.2872
" />
<path d="M47.6949 50.2872
L47.9973 50.2872
" />
<path d="M47.9973 50.2872
L48.1182 50.3477
" />
<path d="M48.1182 50.3477
L48.1787 50.4082
" />
<path d="M48.1787 50.4082
L48.2392 50.5291
" />
<path d="M48.2392 50.5291
L48.2392 50.6501
" />
<path d="M48.2392 50.6501
L48.1787 50.8315
" />
<path d="M48.1787 50.8315
L47.4530 51.5572
" />
<path d="M47.4530 51.5572
L48.2392 51.5572
" />
</g></g>
<g style="fill:none; 
stroke:#0F0F0F; stroke-width:0.1524; stroke-opacity:1; 
stroke-linecap:round; stroke-linejoin:round;">
<text x="40.6400" y="49.1807"
textLength="5.4041" font-size="1.6933" lengthAdjust="spacingAndGlyphs"
text-anchor="start" opacity="0" stroke-opacity="0">SUM1</text>
<g class="stroked-text"><desc>SUM1</desc>
<path d="M40.9821 48.9568
L41.1635 49.0172
" />
<path d="M41.1635 49.0172
L41.4659 49.0172
" />
<path d="M41.4659 49.0172
L41.5868 48.9568
" />
<path d="M41.5868 48.9568
L41.6473 48.8963
" />
<path d="M41.6473 48.8963
L41.7078 48.7753
" />
<path d="M41.7078 48.7753
L41.7078 48.6544
" />
<path d="M41.7078 48.6544
L41.6473 48.5334
" />
<path d="M41.6473 48.5334
L41.5868 48.4729
" />
<path d="M41.5868 48.4729
L41.4659 48.4125
" />
<path d="M41.4659 48.4125
L41.2240 48.3520
" />
<path d="M41.2240 48.3520
L41.1030 48.2915
" />
<path d="M41.1030 48.2915
L41.0425 48.2310
" />
<path d="M41.0425 48.2310
L40.9821 48.1101
" />
<path d="M40.9821 48.1101
L40.9821 47.9891
" />
<path d="M40.9821 47.9891
L41.0425 47.8682
" />
<path d="M41.0425 47.8682
L41.1030 47.8077
" />
<path d="M41.1030 47.8077
L41.2240 47.7472
" />
<path d="M41.2240 47.7472
L41.5263 47.7472
" />
<path d="M41.5263 47.7472
L41.7078 47.8077
" />
<path d="M42.2520 47.7472
L42.2520 48.7753
" />
<path d="M42.2520 48.7753
L42.3125 48.8963
" />
<path d="M42.3125 48.8963
L42.3730 48.9568
" />
<path d="M42.3730 48.9568
L42.4939 49.0172
" />
<path d="M42.4939 49.0172
L42.7358 49.0172
" />
<path d="M42.7358 49.0172
L42.8568 48.9568
" />
<path d="M42.8568 48.9568
L42.9173 48.8963
" />
<path d="M42.9173 48.8963
L42.9777 48.7753
" />
<path d="M42.9777 48.7753
L42.9777 47.7472
" />
<path d="M43.5825 49.0172
L43.5825 47.7472
" />
<path d="M43.5825 47.7472
L44.0059 48.6544
" />
<path d="M44.0059 48.6544
L44.4292 47.7472
" />
<path d="M44.4292 47.7472
L44.4292 49.0172
" />
<path d="M45.6992 49.0172
L44.9735 49.0172
" />
<path d="M45.3363 49.0172
L45.3363 47.7472
" />
<path d="M45.3363 47.7472
L45.2154 47.9287
" />
<path d="M45.2154 47.9287
L45.0944 48.0496
" />
<path d="M45.0944 48.0496
L44.9735 48.1101
" />
</g></g>
<g style="fill:none; 
stroke:#000084; stroke-width:0.1524; stroke-opacity:1; 
stroke-linecap:round; stroke-linejoin:round;">
<text x="73.0250" y="65.6907"
textLength="9.5166" font-size="1.6933" lengthAdjust="spacingAndGlyphs"
text-anchor="start" opacity="0" stroke-opacity="0">SUM[0..7]</text>
<g class="stroked-text"><desc>SUM[0..7]</desc>
<path d="M73.3671 65.4668
L73.5485 65.5272
" />
<path d="M73.5485 65.5272
L73.8509 65.5272
" />
<path d="M73.8509 65.5272
L73.9718 65.4668
" />
<path d="M73.9718 65.4668
L74.0323 65.4063
" />
<path d="M74.0323 65.4063
L74.0928 65.2853
" />
<path d="M74.0928 65.2853
L74.0928 65.1644
" />
<path d="M74.0928 65.1644
L74.0323 65.0434
" />
<path d="M74.0323 65.0434
L73.9718 64.9829
" />
<path d="M73.9718 64.9829
L73.8509 64.9225
" />
<path d="M73.8509 64.9225
L73.6090 64.8620
" />
<path d="M73.6090 64.8620
L73.4880 64.8015
" />
<path d="M73.4880 64.8015
L73.4275 64.7410
" />
<path d="M73.4275 64.7410
L73.3671 64.6201
" />
<path d="M73.3671 64.6201
L73.3671 64.4991
" />
<path d="M73.3671 64.4991
L73.4275 64.3782
" />
<path d="M73.4275 64.3782
L73.4880 64.3177
" />
<path d="M73.4880 64.3177
L73.6090 64.2572
" />
<path d="M73.6090 64.2572
L73.9113 64.2572
" />
<path d="M73.9113 64.2572
L74.0928 64.3177
" />
<path d="M74.6370 64.2572
L74.6370 65.2853
" />
<path d="M74.6370 65.2853
L74.6975 65.4063
" />
<path d="M74.6975 65.4063
L74.7580 65.4668
" />
<path d="M74.7580 65.4668
L74.8789 65.5272
" />
<path d="M74.8789 65.5272
L75.1208 65.5272
" />
<path d="M75.1208 65.5272
L75.2418 65.4668
" />
<path d="M75.2418 65.4668
L75.3023 65.4063
" />
<path d="M75.3023 65.4063
L75.3627 65.2853
" />
<path d="M75.3627 65.2853
L75.3627 64.2572
" />
<path d="M75.9675 65.5272
L75.9675 64.2572
" />
<path d="M75.9675 64.2572
L76.3909 65.1644
" />
<path d="M76.3909 65.1644
L76.8142 64.2572
" />
<path d="M76.8142 64.2572
L76.8142 65.5272
" />
<path d="M77.7818 65.9506
L77.4794 65.9506
" />
<path d="M77.4794 65.9506
L77.4794 64.1363
" />
<path d="M77.4794 64.1363
L77.7818 64.1363
" />
<path d="M78.5075 64.2572
L78.6285 64.2572
" />
<path d="M78.6285 64.2572
L78.7494 64.3177
" />
<path d="M78.7494 64.3177
L78.8099 64.3782
" />
<path d="M78.8099 64.3782
L78.8704 64.4991
" />
<path d="M78.8704 64.4991
L78.9309 64.7410
" />
<path d="M78.9309 64.7410
L78.9309 65.0434
" />
<path d="M78.9309 65.0434
L78.8704 65.2853
" />
<path d="M78.8704 65.2853
L78.8099 65.4063
" />
<path d="M78.8099 65.4063
L78.7494 65.4668
" />
<path d="M78.7494 65.4668
L78.6285 65.5272
" />
<path d="M78.6285 65.5272
L78.5075 65.5272
" />
<path d="M78.5075 65.5272
L78.3866 65.4668
" />
<path d="M78.3866 65.4668
L78.3261 65.4063
" />
<path d="M78.3261 65.4063
L78.2656 65.2853
" />
<path d="M78.2656 65.2853
L78.2052 65.0434
" />
<path d="M78.2052 65.0434
L78.2052 64.7410
" />
<path d="M78.2052 64.7410
L78.2656 64.4991
" />
<path d="M78.2656 64.4991
L78.3261 64.3782
" />
<path d="M78.3261 64.3782
L78.3866 64.3177
" />
<path d="M78.3866 64.3177
L78.5075 64.2572
" />
<path d="M79.4751 65.4063
L79.5356 65.4668
" />
<path d="M79.5356 65.4668
L79.4751 65.5272
" />
<path d="M79.4751 65.5272
L79.4147 65.4668
" />
<path d="M79.4147 65.4668
L79.4751 65.4063
" />
<path d="M79.4751 65.4063
L79.4751 65.5272
" />
<path d="M80.0799 65.4063
L80.1404 65.4668
" />
<path d="M80.1404 65.4668
L80.0799 65.5272
" />
<path d="M80.0799 65.5272
L80.0195 65.4668
" />
<path d="M80.0195 65.4668
L80.0799 65.4063
" />
<path d="M80.0799 65.4063
L80.0799 65.5272
" />
<path d="M80.5638 64.2572
L81.4104 64.2572
" />
<path d="M81.4104 64.2572
L80.8662 65.5272
" />
<path d="M81.7733 65.9506
L82.0757 65.9506
" />
<path d="M82.0757 65.9506
L82.0757 64.1363
" />
<path d="M82.0757 64.1363
L81.7733 64.1363
" />
</g></g>
<g style="fill:none; 
stroke:#0F0F0F; stroke-width:0.1524; stroke-opacity:1; 
stroke-linecap:round; stroke-linejoin:round;">
<text x="38.1000" y="46.6407"
textLength="5.4041" font-size="1.6933" lengthAdjust="spacingAndGlyphs"
text-anchor="start" opacity="0" stroke-opacity="0">SUM0</text>
<g class="stroked-text"><desc>SUM0</desc>
<path d="M38.4421 46.4168
L38.6235 46.4772
" />
<path d="M38.6235 46.4772
L38.9259 46.4772
" />
<path d="M38.9259 46.4772
L39.0468 46.4168
" />
<path d="M39.0468 46.4168
L39.1073 46.3563
" />
<path d="M39.1073 46.3563
L39.1678 46.2353
" />
<path d="M39.1678 46.2353
L39.1678 46.1144
" />
<path d="M39.1678 46.1144
L39.1073 45.9934
" />
<path d="M39.1073 45.9934
L39.0468 45.9329
" />
<path d="M39.0468 45.9329
L38.9259 45.8725
" />
<path d="M38.9259 45.8725
L38.6840 45.8120
" />
<path d="M38.6840 45.8120
L38.5630 45.7515
" />
<path d="M38.5630 45.7515
L38.5025 45.6910
" />
<path d="M38.5025 45.6910
L38.4421 45.5701
" />
<path d="M38.4421 45.5701
L38.4421 45.4491
" />
<path d="M38.4421 45.4491
L38.5025 45.3282
" />
<path d="M38.5025 45.3282
L38.5630 45.2677
" />
<path d="M38.5630 45.2677
L38.6840 45.2072
" />
<path d="M38.6840 45.2072
L38.9863 45.2072
" />
<path d="M38.9863 45.2072
L39.1678 45.2677
" />
<path d="M39.7120 45.2072
L39.7120 46.2353
" />
<path d="M39.7120 46.2353
L39.7725 46.3563
" />
<path d="M39.7725 46.3563
L39.8330 46.4168
" />
<path d="M39.8330 46.4168
L39.9539 46.4772
" />
<path d="M39.9539 46.4772
L40.1958 46.4772
" />
<path d="M40.1958 46.4772
L40.3168 46.4168
" />
<path d="M40.3168 46.4168
L40.3773 46.3563
" />
<path d="M40.3773 46.3563
L40.4377 46.2353
" />
<path d="M40.4377 46.2353
L40.4377 45.2072
" />
<path d="M41.0425 46.4772
L41.0425 45.2072
" />
<path d="M41.0425 45.2072
L41.4659 46.1144
" />
<path d="M41.4659 46.1144
L41.8892 45.2072
" />
<path d="M41.8892 45.2072
L41.8892 46.4772
" />
<path d="M42.7358 45.2072
L42.8568 45.2072
" />
<path d="M42.8568 45.2072
L42.9777 45.2677
" />
<path d="M42.9777 45.2677
L43.0382 45.3282
" />
<path d="M43.0382 45.3282
L43.0987 45.4491
" />
<path d="M43.0987 45.4491
L43.1592 45.6910
" />
<path d="M43.1592 45.6910
L43.1592 45.9934
" />
<path d="M43.1592 45.9934
L43.0987 46.2353
" />
<path d="M43.0987 46.2353
L43.0382 46.3563
" />
<path d="M43.0382 46.3563
L42.9777 46.4168
" />
<path d="M42.9777 46.4168
L42.8568 46.4772
" />
<path d="M42.8568 46.4772
L42.7358 46.4772
" />
<path d="M42.7358 46.4772
L42.6149 46.4168
" />
<path d="M42.6149 46.4168
L42.5544 46.3563
" />
<path d="M42.5544 46.3563
L42.4939 46.2353
" />
<path d="M42.4939 46.2353
L42.4335 45.9934
" />
<path d="M42.4335 45.9934
L42.4335 45.6910
" />
<path d="M42.4335 45.6910
L42.4939 45.4491
" />
<path d="M42.4939 45.4491
L42.5544 45.3282
" />
<path d="M42.5544 45.3282
L42.6149 45.2677
" />
<path d="M42.6149 45.2677
L42.7358 45.2072
" />
</g></g>
<g style="fill:none; 
stroke:#000084; stroke-width:0.3048; stroke-opacity:1; 
stroke-linecap:round; stroke-linejoin:round;">
<path d="M44.4500 66.0400
L46.9900 66.0400
" />
<path d="M41.9100 66.0400
L44.4500 66.0400
" />
<path d="M46.9900 66.0400
L49.5300 66.0400
" />
<path d="M38.1000 66.0400
L41.9100 66.0400
" />
<path d="M52.0700 66.0400
L56.5150 66.0400
" />
<path d="M49.5300 66.0400
L52.0700 66.0400
" />
<path d="M56.5150 66.0400
L73.0250 66.0400
" />
<path d="M34.2900 66.0400
L38.1000 66.0400
" />
<path d="M24.1300 66.0400
L34.2900 66.0400
" />
</g>
<g style="fill:none; 
stroke:#009600; stroke-width:0.1524; stroke-opacity:1; 
stroke-linecap:round; stroke-linejoin:round;">
<path d="M40.6400 44.4500
L40.6400 63.5000
" />
<path d="M38.1000 44.4500
L38.1000 63.5000
" />
<path d="M163.8300 60.9600
L179.7050 60.9600
" />
<path d="M58.4200 100.3300
L58.4200 102.8700
" />
<path d="M58.4200 105.4100
L60.9600 105.4100
" />
<path d="M58.4200 102.8700
L58.4200 105.4100
" />
<path d="M58.4200 102.8700
L60.9600 102.8700
" />
<path d="M41.9100 19.0500
L45.7200 19.0500
" />
<path d="M110.4900 41.9100
L110.4900 64.7700
" />
<path d="M130.8100 38.1000
L137.1600 38.1000
" />
<path d="M110.4900 64.7700
L149.2250 64.7700
" />
<path d="M110.4900 41.9100
L116.2050 41.9100
" />
<path d="M105.4100 41.9100
L110.4900 41.9100
" />
<path d="M58.4200 95.2500
L58.4200 97.7900
" />
<path d="M58.4200 97.7900
L60.9600 97.7900
" />
<path d="M58.4200 97.7900
L58.4200 100.3300
" />
<path d="M58.4200 100.3300
L60.9600 100.3300
" />
<path d="M60.9600 95.2500
L58.4200 95.2500
" />
<path d="M49.5300 92.7100
L60.9600 92.7100
" />
<path d="M49.5300 90.1700
L60.9600 90.1700
" />
<path d="M105.4100 33.0200
L116.2050 33.0200
" />
<path d="M137.1600 38.1000
L144.7800 38.1000
" />
<path d="M137.1600 38.1000
L137.1600 55.8800
" />
<path d="M45.7200 22.8600
L41.9100 22.8600
" />
<path d="M137.1600 55.8800
L149.2250 55.8800
" />
<path d="M53.9750 48.2600
L53.9750 50.8000
" />
<path d="M46.9900 63.5000
L45.7200 63.5000
" />
<path d="M57.1500 45.7200
L57.1500 63.5000
" />
<path d="M49.5300 63.5000
L48.2600 63.5000
" />
<path d="M44.4500 63.5000
L43.1800 63.5000
" />
<path d="M57.1500 45.7200
L55.8800 45.7200
" />
<path d="M55.8800 45.7200
L55.8800 44.4500
" />
<path d="M54.6100 50.8000
L53.9750 50.8000
" />
<path d="M45.7200 22.8600
L45.7200 28.5750
" />
<path d="M43.1800 44.4500
L43.1800 63.5000
" />
<path d="M53.9750 48.2600
L53.3400 48.2600
" />
<path d="M53.3400 48.2600
L53.3400 44.4500
" />
<path d="M45.7200 44.4500
L45.7200 63.5000
" />
<path d="M48.2600 44.4500
L48.2600 63.5000
" />
<path d="M54.6100 50.8000
L54.6100 63.5000
" />
<path d="M52.0700 63.5000
L50.8000 63.5000
" />
<path d="M50.8000 44.4500
L50.8000 63.5000
" />
<path d="M59.0550 63.5000
L57.1500 63.5000
" />
<path d="M41.9100 22.8600
L41.9100 19.0500
" />
<path d="M36.8300 63.5000
L38.1000 63.5000
" />
<path d="M49.5300 87.6300
L60.9600 87.6300
" />
<path d="M52.0700 66.0400
L54.6100 63.5000
" />
<path d="M34.2900 66.0400
L36.8300 63.5000
" />
<path d="M41.9100 66.0400
L44.4500 63.5000
" />
<path d="M38.1000 66.0400
L40.6400 63.5000
" />
<path d="M44.4500 66.0400
L46.9900 63.5000
" />
<path d="M56.5150 66.0400
L59.0550 63.5000
" />
<path d="M49.5300 66.0400
L52.0700 63.5000
" />
<path d="M46.9900 66.0400
L49.5300 63.5000
" />
</g>
<g style="fill:#009600; fill-opacity:1.0000; 
stroke:#009600; stroke-width:0.1524; stroke-opacity:1; 
stroke-linecap:round; stroke-linejoin:round;">
<circle cx="137.1600" cy="38.1000" r="0.4572" /> 
<circle cx="110.4900" cy="41.9100" r="0.4572" /> 
<circle cx="58.4200" cy="105.4100" r="0.4572" /> 
<circle cx="58.4200" cy="100.3300" r="0.4572" /> 
<circle cx="58.4200" cy="102.8700" r="0.4572" /> 
<circle cx="58.4200" cy="97.7900" r="0.4572" /> 
</g> 
</svg>
